<svg width="53" height="43" viewBox="0 0 53 43" fill="none" xmlns="http://www.w3.org/2000/svg">
<path fill-rule="evenodd" clip-rule="evenodd" d="M3.42175 3.25066C3.42175 1.45537 4.87712 0 6.67241 0H48.874C50.6693 0 52.1247 1.45537 52.1247 3.25066V28.3435C52.1247 30.1388 50.6693 31.5942 48.874 31.5942H26.8681C25.855 38.0566 20.2627 43 13.5159 43C6.05128 43 0 36.9487 0 29.4841C0 26.0331 1.29334 22.8842 3.42175 20.4957V3.25066ZM5.36074 18.7048C7.62745 16.9872 10.4527 15.9682 13.5159 15.9682C20.9805 15.9682 27.0318 22.0195 27.0318 29.4841C27.0318 29.5412 27.0315 29.5982 27.0308 29.6552H48.874C49.5984 29.6552 50.1857 29.0679 50.1857 28.3435V3.25066C50.1857 2.52625 49.5984 1.93899 48.874 1.93899H6.67241C5.948 1.93899 5.36074 2.52625 5.36074 3.25066V18.7048ZM26.0624 7.64191H8.95369V5.70292H26.0624V7.64191ZM27.203 7.64191H32.9059V5.70292H27.203V7.64191ZM12.3754 11.0637H8.95369V9.12467H12.3754V11.0637ZM13.516 11.0637H24.3516V9.12467H13.516V11.0637ZM25.4922 9.12467H32.9059V11.0637H25.4922V9.12467ZM32.7347 21.5C32.7347 19.5157 34.3433 17.9072 36.3276 17.9072C36.7863 17.9072 37.2249 17.9931 37.6282 18.1498C36.9195 19.0796 36.4987 20.2407 36.4987 21.5C36.4987 22.7593 36.9195 23.9204 37.6282 24.8502C37.2249 25.0069 36.7863 25.0928 36.3276 25.0928C34.3433 25.0928 32.7347 23.4843 32.7347 21.5ZM36.3276 15.9682C37.3707 15.9682 38.3464 16.2569 39.179 16.7587C40.0117 16.2569 40.9874 15.9682 42.0305 15.9682C45.0856 15.9682 47.5623 18.4449 47.5623 21.5C47.5623 24.5551 45.0856 27.0318 42.0305 27.0318C40.9874 27.0318 40.0117 26.7431 39.179 26.2413C38.3464 26.7431 37.3707 27.0318 36.3276 27.0318C33.2724 27.0318 30.7958 24.5551 30.7958 21.5C30.7958 18.4449 33.2724 15.9682 36.3276 15.9682ZM38.4377 21.5C38.4377 20.6775 38.7141 19.9195 39.179 19.3139C39.644 19.9195 39.9204 20.6775 39.9204 21.5C39.9204 22.3225 39.644 23.0805 39.179 23.6861C38.7141 23.0805 38.4377 22.3225 38.4377 21.5ZM41.8594 21.5C41.8594 22.7593 41.4386 23.9204 40.7299 24.8502C41.1332 25.0069 41.5718 25.0928 42.0305 25.0928C44.0148 25.0928 45.6233 23.4843 45.6233 21.5C45.6233 19.5157 44.0148 17.9072 42.0305 17.9072C41.5718 17.9072 41.1332 17.9931 40.7299 18.1498C41.4386 19.0796 41.8594 20.2407 41.8594 21.5ZM1.93899 29.4841C1.93899 23.0903 7.12216 17.9072 13.5159 17.9072C19.9097 17.9072 25.0928 23.0903 25.0928 29.4841C25.0928 35.8778 19.9097 41.061 13.5159 41.061C7.12216 41.061 1.93899 35.8778 1.93899 29.4841ZM13.5159 23.61C12.1616 23.61 11.0637 24.708 11.0637 26.0623C11.0637 27.4166 12.1616 28.5146 13.5159 28.5146C15.9411 28.5146 17.9072 30.4806 17.9072 32.9058C17.9072 34.9979 16.4442 36.7483 14.4854 37.1897V38.6087H12.5464V37.1897C10.5877 36.7483 9.12467 34.9979 9.12467 32.9058H11.0637C11.0637 34.2601 12.1616 35.3581 13.5159 35.3581C14.8703 35.3581 15.9682 34.2601 15.9682 32.9058C15.9682 31.5515 14.8703 30.4535 13.5159 30.4535C11.0907 30.4535 9.12467 28.4875 9.12467 26.0623C9.12467 23.9702 10.5877 22.2198 12.5464 21.7784V20.3594H14.4854V21.7784C16.4442 22.2198 17.9072 23.9702 17.9072 26.0623H15.9682C15.9682 24.708 14.8703 23.61 13.5159 23.61Z" fill="#404040"/>
</svg>
