<svg width="53" height="48" viewBox="0 0 53 48" fill="none" xmlns="http://www.w3.org/2000/svg">
<path fill-rule="evenodd" clip-rule="evenodd" d="M5.13434 22.1383L6.81461 20.4545L8.18161 21.8187L4.09866 25.9102L0 21.8201L1.36414 20.4531L3.18641 22.2716C4.05914 10.3002 14.0481 0.858887 26.2422 0.858887C36.9621 0.858887 45.9755 8.1544 48.5929 18.0497L46.7259 18.5435C44.327 9.47432 36.064 2.7901 26.2422 2.7901C15.1606 2.7901 6.06604 11.2981 5.13434 22.1383ZM48.3858 22.043L52.4844 26.1331L51.1203 27.5001L49.298 25.6817C48.4253 37.6531 38.4363 47.0944 26.2422 47.0944C15.7375 47.0944 6.87151 40.0886 4.05692 30.4965L5.91 29.9528C6.89649 33.3147 8.69421 36.3296 11.0766 38.7712V21.9803L14.9335 16.195H23.1958H29.289H37.5512L41.408 21.9803V38.7708C44.7325 35.3633 46.9182 30.8397 47.3501 25.8149L45.6698 27.4987L44.3028 26.1346L48.3858 22.043ZM27.7398 18.1262H24.745L24.0381 21.307H28.4467L27.7398 18.1262ZM30.425 21.307L29.7182 18.1262H36.5176L38.6381 21.307H30.425ZM28.6848 23.2382H23.8V25.2543L26.2424 24.0331L28.6848 25.2543V23.2382ZM21.8688 23.2382V28.379L26.2424 26.1922L30.616 28.379V23.2382H39.4768V40.5219C35.8508 43.4262 31.2493 45.1631 26.2422 45.1631C21.2357 45.1631 16.6342 43.4264 13.0079 40.5222V23.2382H21.8688ZM22.0598 21.307L22.7667 18.1262H15.967L13.8465 21.307H22.0598ZM34.7621 33.4623H18.858V31.5311H34.7621V33.4623ZM34.7621 36.8703H18.858V34.9391H34.7621V36.8703ZM23.402 40.2783H30.218V38.3471H23.402V40.2783Z" fill="#404040"/>
</svg>
