<?xml version="1.0" standalone="no"?>
<!DOCTYPE svg PUBLIC "-//W3C//DTD SVG 1.1//EN" "http://www.w3.org/Graphics/SVG/1.1/DTD/svg11.dtd" >
<svg xmlns="http://www.w3.org/2000/svg" xmlns:xlink="http://www.w3.org/1999/xlink" version="1.1">
<metadata>
Created by FontForge 20201107 at Fri Oct  4 07:20:57 2024
 By 
Copyright (c) Olivier Gourvat - Mostardesign Type Foundry, 2022. All rights reserved.
</metadata>
<defs>
<font id="SofiaPro-ExtraLight" horiz-adv-x="1218" >
  <font-face 
    font-family="Sofia Pro Extra Light"
    font-weight="250"
    font-stretch="normal"
    units-per-em="2048"
    panose-1="0 0 3 0 0 0 0 0 0 0"
    ascent="1477"
    descent="-571"
    x-height="956"
    cap-height="1411"
    bbox="-786 -524 2875 2187"
    underline-thickness="75"
    underline-position="-132"
    unicode-range="U+0020-FB02"
  />
<missing-glyph horiz-adv-x="1300" 
d="M1137 0h-973v1362h973v-1362zM549 532v-77h127v67q0 49 25.5 82t70.5 45q75 23 124.5 89.5t49.5 164.5q0 123 -85 200t-204 77q-117 0 -197.5 -82t-80.5 -215h127q0 76 43 123t108 47t114.5 -42t49.5 -108q0 -99 -116 -145q-84 -25 -120 -75.5t-36 -150.5zM614 180
q38 0 65.5 25.5t27.5 62.5t-27.5 62.5t-65.5 25.5q-39 0 -66.5 -25t-27.5 -63t27.5 -63t66.5 -25z" />
    <glyph glyph-name="fi" unicode="fi" horiz-adv-x="1069" 
d="M328 956h567v-956h-90v877h-477v-877h-90v877h-193v79h193v113q0 90 17.5 161.5t54.5 128.5t102 87.5t155 30.5h39v-88h-31q-247 0 -247 -314v-119zM850 1382q34 0 58 -20.5t24 -52.5q0 -30 -24 -51t-58 -21q-32 0 -55 20.5t-23 51.5q0 32 22.5 52.5t55.5 20.5z" />
    <glyph glyph-name="fl" unicode="fl" horiz-adv-x="1069" 
d="M897 1477v-1477h-90v1389h-232q-247 0 -247 -314v-119h260v-79h-260v-877h-90v877h-193v79h193v113q0 90 17.5 161.5t54.5 128.5t102 87.5t155 30.5h330z" />
    <glyph glyph-name="f_f" unicode="ff" horiz-adv-x="1269" 
d="M1294 1389h-69q-248 0 -248 -314v-119h260v-79h-260v-877h-90v877h-559v-877h-90v877h-193v79h193v113q0 90 17.5 161.5t54.5 128.5t102 87.5t155 30.5h78v-88h-70q-247 0 -247 -314v-119h559v113q0 90 17.5 161.5t55 128.5t102.5 87.5t155 30.5h77v-88z" />
    <glyph glyph-name="f_f_i" unicode="ffi" horiz-adv-x="1718" 
d="M977 956h567v-956h-90v877h-477v-877h-90v877h-559v-877h-90v877h-193v79h193v113q0 90 17.5 161.5t54.5 128.5t102 87.5t155 30.5h78v-88h-70q-247 0 -247 -314v-119h559v113q0 90 17.5 161.5t55 128.5t102.5 87.5t155 30.5h47v-88h-39q-248 0 -248 -314v-119z
M1499 1382q34 0 58 -20.5t24 -52.5q0 -30 -24 -51t-58 -21q-32 0 -55 20.5t-23 51.5q0 32 22.5 52.5t55.5 20.5z" />
    <glyph glyph-name="f_f_l" unicode="ffl" horiz-adv-x="1718" 
d="M1546 1477v-1477h-90v1389h-231q-248 0 -248 -314v-119h260v-79h-260v-877h-90v877h-559v-877h-90v877h-193v79h193v113q0 90 17.5 161.5t54.5 128.5t102 87.5t155 30.5h78v-88h-70q-247 0 -247 -314v-119h559v113q0 90 17.5 161.5t55 128.5t102.5 87.5t155 30.5h329z
" />
    <glyph glyph-name=".notdef" horiz-adv-x="1300" 
d="M1137 0h-973v1362h973v-1362zM549 532v-77h127v67q0 49 25.5 82t70.5 45q75 23 124.5 89.5t49.5 164.5q0 123 -85 200t-204 77q-117 0 -197.5 -82t-80.5 -215h127q0 76 43 123t108 47t114.5 -42t49.5 -108q0 -99 -116 -145q-84 -25 -120 -75.5t-36 -150.5zM614 180
q38 0 65.5 25.5t27.5 62.5t-27.5 62.5t-65.5 25.5q-39 0 -66.5 -25t-27.5 -63t27.5 -63t66.5 -25z" />
    <glyph glyph-name=".null" horiz-adv-x="0" 
 />
    <glyph glyph-name="nonmarkingreturn" horiz-adv-x="682" 
 />
    <glyph glyph-name="space" unicode=" " horiz-adv-x="550" 
 />
    <glyph glyph-name="exclam" unicode="!" horiz-adv-x="491" 
d="M287 340h-82l-4 1071h90zM246 -25q-34 0 -57 21t-23 53t23 54t57 22t57 -22t23 -54t-23 -53t-57 -21z" />
    <glyph glyph-name="quotedbl" unicode="&#x22;" horiz-adv-x="612" 
d="M240 885h-76l-8 526h90zM449 885h-76l-6 526h88z" />
    <glyph glyph-name="numbersign" unicode="#" horiz-adv-x="1433" 
d="M336 0h-88l102 367h-276l24 88h275l137 493h-277l25 88h277l102 375h88l-104 -375h378l103 375h88l-105 -375h277l-25 -88h-276l-135 -493h276l-24 -88h-277l-102 -367h-86l100 367h-377zM596 948l-135 -493h377l135 493h-377z" />
    <glyph glyph-name="dollar" unicode="$" horiz-adv-x="1050" 
d="M958 406q0 -63 -26 -125t-74.5 -116.5t-129 -90.5t-179.5 -41v-197h-76v199q-155 14 -257.5 116.5t-115.5 231.5h93q13 -107 103 -185.5t224 -78.5q85 0 153.5 25.5t109.5 67.5t62 90.5t21 98.5q0 104 -74.5 169.5t-199.5 93.5l-180 43q-301 72 -301 313q0 140 107 236
t255 108v197h76v-197q153 -9 253 -99t109 -233h-90q-10 113 -95.5 180.5t-211.5 67.5q-127 0 -219 -73.5t-92 -186.5q0 -33 7.5 -61t29.5 -61.5t70.5 -61.5t121.5 -45l180 -43q158 -38 252 -122t94 -220z" />
    <glyph glyph-name="percent" unicode="%" horiz-adv-x="1206" 
d="M307 0h-82l686 1411h80zM328 872q-106 0 -179 72.5t-73 179.5q0 106 73 180t179 74t180 -74t74 -180q0 -107 -74 -179.5t-180 -72.5zM328 950q74 0 125 50.5t51 123.5q0 72 -51.5 124t-124.5 52t-122.5 -51.5t-49.5 -124.5q0 -74 49.5 -124t122.5 -50zM879 -18
q-106 0 -179 72t-73 179q0 105 73.5 179.5t178.5 74.5t179.5 -74.5t74.5 -179.5q0 -107 -74 -179t-180 -72zM879 59q74 0 125 50.5t51 123.5q0 72 -51.5 124.5t-124.5 52.5t-123.5 -52t-50.5 -125t50.5 -123.5t123.5 -50.5z" />
    <glyph glyph-name="ampersand" unicode="&#x26;" horiz-adv-x="1318" 
d="M1227 66h26v-89h-28q-105 0 -180 59t-91 177q-31 -80 -99.5 -135.5t-147 -79t-162.5 -23.5q-196 0 -316 123.5t-120 298.5q0 138 76 248.5t206 151.5q-79 39 -122.5 124.5t-43.5 176.5q0 140 100.5 239t252.5 99q94 0 171.5 -39.5t124.5 -106.5l-73 -51q-36 52 -96 80.5
t-125 28.5q-115 0 -190 -75t-75 -181q0 -109 74.5 -185t188.5 -76h348v181h90v-181h192v-77h-192v-336q0 -76 9 -134.5t31 -110t65 -79.5t106 -28zM559 63q157 0 259 96t108 244v351h-348q-165 0 -272 -98t-107 -250q0 -145 97.5 -244t262.5 -99z" />
    <glyph glyph-name="quotesingle" unicode="'" horiz-adv-x="401" 
d="M240 885h-76l-8 526h90z" />
    <glyph glyph-name="parenleft" unicode="(" horiz-adv-x="671" 
d="M633 -250v-80q-232 14 -373 259t-141 661t140.5 660.5t373.5 258.5v-77q-192 -12 -309 -238t-117 -604q0 -379 117 -604t309 -236z" />
    <glyph glyph-name="parenright" unicode=")" horiz-adv-x="671" 
d="M41 -330v80q192 11 309 236t117 604q0 378 -117 604t-309 238v77q233 -14 373.5 -258.5t140.5 -660.5t-141 -661t-373 -259z" />
    <glyph glyph-name="asterisk" unicode="*" horiz-adv-x="956" 
d="M834 1229l18 -66l-320 -82l197 -264l-55 -43l-195 270l-194 -270l-56 43l197 264l-320 82l17 66l326 -88l-3 336h68l-2 -336z" />
    <glyph glyph-name="plus" unicode="+" horiz-adv-x="1050" 
d="M569 575h363v-88h-363v-364h-88v364h-362v88h362v361h88v-361z" />
    <glyph glyph-name="comma" unicode="," horiz-adv-x="425" 
d="M74 -365l-66 25q84 117 126.5 269t35.5 319h94q7 -171 -44 -332.5t-146 -280.5z" />
    <glyph glyph-name="hyphen" unicode="-" horiz-adv-x="925" 
d="M799 420h-672v90h672v-90z" />
    <glyph glyph-name="period" unicode="." horiz-adv-x="454" 
d="M227 -20q-34 0 -57 20.5t-23 52.5t23 54t57 22t57 -22t23 -54t-23 -52.5t-57 -20.5z" />
    <glyph glyph-name="slash" unicode="/" horiz-adv-x="915" 
d="M162 0h-94l686 1411h94z" />
    <glyph glyph-name="zero" unicode="0" 
d="M610 -25q-111 0 -195 37t-136.5 99t-85.5 153.5t-45.5 190.5t-12.5 221q0 123 12.5 222t45.5 189.5t85.5 151.5t136.5 97t195 36t194.5 -36t136 -97t85 -151.5t45 -189.5t12.5 -222q0 -122 -12.5 -221t-45 -190.5t-85 -153.5t-136 -99t-194.5 -37zM610 63
q90 0 157.5 32.5t110 86.5t69 134.5t36.5 167t10 192.5q0 107 -10 193t-36.5 165.5t-69 133t-110 85t-157.5 31.5t-158 -31.5t-110.5 -85t-69 -133t-37 -165.5t-10.5 -193q0 -106 10.5 -192.5t37 -167t69 -134.5t110.5 -86.5t158 -32.5z" />
    <glyph glyph-name="one" unicode="1" horiz-adv-x="659" 
d="M53 1192l381 180h8v-1372h-90v1235l-299 -133v90z" />
    <glyph glyph-name="two" unicode="2" horiz-adv-x="1015" 
d="M737 655l-477 -567h639v-88h-797v37l560 668q135 163 135 294q0 128 -86 206.5t-219 78.5q-117 0 -201 -57t-109 -156l-84 21q30 131 137 205.5t257 74.5q173 0 284 -103t111 -270q0 -166 -150 -344z" />
    <glyph glyph-name="three" unicode="3" horiz-adv-x="1099" 
d="M721 731q113 -30 186.5 -126.5t73.5 -227.5q0 -177 -134 -289.5t-339 -112.5q-138 0 -254 71.5t-168 189.5l78 38q44 -96 136.5 -153.5t201.5 -57.5q167 0 278 87.5t111 224.5q0 136 -94 222.5t-234 86.5h-137v84h135q115 0 185.5 70t70.5 186t-83.5 188t-219.5 72
q-90 0 -169 -42t-118 -109l-69 47q49 86 147.5 139t208.5 53q178 0 285.5 -96t107.5 -252q0 -96 -50 -175.5t-136 -117.5z" />
    <glyph glyph-name="four" unicode="4" horiz-adv-x="1138" 
d="M852 379h211v-88h-211v-291h-90v291h-725v26l788 1037h27v-975zM762 1145l-574 -766h574v766z" />
    <glyph glyph-name="five" unicode="5" horiz-adv-x="1107" 
d="M584 831q185 0 303.5 -114.5t118.5 -300.5q0 -194 -129.5 -317.5t-325.5 -123.5q-148 0 -267 72t-190 195l78 43q57 -102 154.5 -162t218.5 -60q160 0 265 99t105 254q0 148 -96.5 238.5t-247.5 90.5q-83 0 -184 -29t-194 -77l-46 47l119 668h647v-86h-573l-96 -527
q182 90 340 90z" />
    <glyph glyph-name="six" unicode="6" horiz-adv-x="1167" 
d="M608 848q193 0 317 -125t124 -305q0 -61 -16 -121.5t-51.5 -119t-87 -103t-129 -72t-171.5 -27.5q-222 0 -341.5 143.5t-119.5 411.5q0 842 506 842q276 0 385 -244l-82 -36q-87 192 -305 192q-93 0 -166 -40t-117.5 -102.5t-73 -148t-39.5 -168t-12 -170.5
q48 89 154.5 141t224.5 52zM592 63q161 0 262.5 106.5t101.5 250.5q0 142 -98 240.5t-252 99.5q-47 0 -95.5 -9.5t-99 -32t-89.5 -55.5t-64.5 -85.5t-26.5 -116.5q0 -99 29.5 -176.5t80.5 -124.5t115 -71.5t136 -25.5z" />
    <glyph glyph-name="seven" unicode="7" horiz-adv-x="980" 
d="M94 1268v86h858v-13l-739 -1341h-104l696 1268h-711z" />
    <glyph glyph-name="eight" unicode="8" horiz-adv-x="1175" 
d="M766 786q135 -45 216 -150t81 -239q0 -178 -137 -300t-340 -122t-338 122t-135 300q0 134 78.5 239.5t211.5 149.5q-78 39 -124 110t-46 161q0 133 100.5 224t252.5 91q155 0 256.5 -91t101.5 -224q0 -91 -47.5 -162.5t-130.5 -108.5zM328 1051q0 -97 72 -164t186 -70
q116 3 191 70t75 164q0 99 -76.5 167t-189.5 68q-110 0 -184 -68t-74 -167zM586 63q163 0 273 98.5t110 239.5t-110 239.5t-273 98.5q-165 -3 -272 -99t-107 -237q0 -142 109.5 -241t269.5 -99z" />
    <glyph glyph-name="nine" unicode="9" horiz-adv-x="1167" 
d="M573 1372q220 0 340.5 -145t120.5 -406q0 -846 -506 -846q-275 0 -385 244l82 37q88 -193 303 -193q93 0 166 40.5t117.5 104t73.5 150t40.5 168.5t12.5 170q-45 -90 -152.5 -140t-226.5 -50q-193 0 -316.5 124t-123.5 304q0 78 26.5 153t78.5 140t142.5 105t206.5 40z
M561 594q60 0 121 16t119.5 48.5t96 93t38.5 139.5q0 98 -30 175.5t-81 124t-114.5 70t-135.5 23.5q-163 0 -263.5 -104t-100.5 -248q0 -142 98 -240t252 -98z" />
    <glyph glyph-name="colon" unicode=":" horiz-adv-x="464" 
d="M231 827q-32 0 -55.5 21.5t-23.5 52.5q0 33 23 54.5t56 21.5q34 0 58 -21.5t24 -54.5q0 -31 -24 -52.5t-58 -21.5zM231 -20q-33 0 -56 20.5t-23 52.5t23 54t56 22q34 0 58 -22t24 -54t-24 -52.5t-58 -20.5z" />
    <glyph glyph-name="semicolon" unicode=";" horiz-adv-x="495" 
d="M258 827q-34 0 -57 21.5t-23 52.5q0 33 23 54.5t57 21.5t58 -21.5t24 -54.5q0 -31 -24 -52.5t-58 -21.5zM129 -365l-66 25q83 117 125.5 269t36.5 319h94q6 -172 -44.5 -333.5t-145.5 -279.5z" />
    <glyph glyph-name="less" unicode="&#x3c;" horiz-adv-x="1298" 
d="M111 575l1040 398v-96l-926 -353l926 -350v-96l-1040 399v98z" />
    <glyph glyph-name="equal" unicode="=" horiz-adv-x="1239" 
d="M1079 674h-919v88h919v-88zM1079 248h-919v88h919v-88z" />
    <glyph glyph-name="greater" unicode="&#x3e;" horiz-adv-x="1298" 
d="M147 877v96l1041 -398v-98l-1041 -399v96l926 350z" />
    <glyph glyph-name="question" unicode="?" horiz-adv-x="958" 
d="M387 340h-88v115q-1 78 21 132.5t57 84.5t90 53l94 33q95 32 157 111t62 184q0 132 -90.5 213.5t-218.5 81.5q-118 0 -203.5 -72.5t-97.5 -196.5h-88q12 162 123 259.5t266 97.5q165 0 282 -106.5t117 -276.5q0 -137 -80.5 -239.5t-201.5 -141.5q-51 -15 -82 -29
t-61.5 -38t-44 -60.5t-13.5 -89.5v-115zM342 -10q-33 0 -56.5 20.5t-23.5 52.5t23.5 54t56.5 22q35 0 58.5 -22t23.5 -54t-23.5 -52.5t-58.5 -20.5z" />
    <glyph glyph-name="at" unicode="@" horiz-adv-x="2113" 
d="M1094 -401h-66q-186 1 -352.5 72.5t-285.5 192.5t-189 289t-70 355t70 356.5t189.5 292.5t287 195.5t354.5 72.5q188 0 361 -66.5t301 -182t204 -280t76 -349.5q0 -76 -11.5 -152.5t-39 -155t-68.5 -138t-106 -97t-145 -37.5q-55 0 -101 13.5t-85.5 43.5t-62 84.5
t-22.5 129.5v282q0 135 -94.5 228.5t-228.5 93.5q-133 0 -227.5 -94t-94.5 -228q0 -132 95 -226.5t227 -94.5q50 0 106 18.5t94 52.5v-92q-92 -61 -200 -61q-165 0 -284.5 119t-119.5 284q0 168 119.5 286t284.5 118q108 0 200.5 -53t147 -145.5t55.5 -201.5v-291
q0 -51 16 -88.5t44.5 -57.5t60.5 -29t70 -9q79 0 137.5 48t90 125.5t46 159t14.5 165.5q0 135 -44.5 258.5t-125 220.5t-187.5 168.5t-236.5 110t-266.5 38.5q-170 0 -322.5 -66t-261.5 -178t-173 -266.5t-64 -324.5t63.5 -323.5t172.5 -264t260.5 -176t320.5 -66.5h66v-79z
" />
    <glyph glyph-name="A" unicode="A" 
d="M1196 0h-96l-146 385h-688l-147 -385h-99l541 1411h98zM610 1288l-313 -821h625z" />
    <glyph glyph-name="B" unicode="B" horiz-adv-x="1282" 
d="M891 754q92 -28 155.5 -91t90 -134.5t26.5 -147.5q0 -75 -27.5 -143.5t-76.5 -121.5t-123.5 -84.5t-161.5 -31.5h-557v1411h500q168 0 267 -88.5t99 -249.5q0 -106 -49 -194.5t-143 -124.5zM991 1069q0 121 -74 187.5t-202 66.5h-406v-535h449q109 0 171 80.5t62 200.5z
M309 88h455q138 0 222.5 87.5t84.5 209.5q0 134 -93 228t-233 94h-436v-619z" />
    <glyph glyph-name="C" unicode="C" horiz-adv-x="1366" 
d="M813 -25q-144 0 -273.5 58t-222.5 155.5t-147.5 232t-54.5 281.5q0 198 92 366.5t253 268t353 99.5q137 0 260 -51t217 -142l-63 -61q-82 77 -189 121.5t-225 44.5q-166 0 -306 -88t-220 -236.5t-80 -321.5q0 -172 80 -319t219.5 -233.5t306.5 -86.5q238 0 412 164
l63 -61q-92 -91 -215 -141t-260 -50z" />
    <glyph glyph-name="D" unicode="D" horiz-adv-x="1488" 
d="M217 1411h528q145 0 263.5 -54.5t196.5 -150t120.5 -224.5t42.5 -280q0 -201 -72.5 -359t-215 -250.5t-335.5 -92.5h-528v1411zM309 88h436q167 0 288.5 81.5t182 219t60.5 313.5q0 177 -60.5 316t-182.5 222t-288 83h-436v-1235z" />
    <glyph glyph-name="E" unicode="E" horiz-adv-x="1132" 
d="M309 647v-559h715v-88h-807v1411h782v-88h-690v-586h604v-90h-604z" />
    <glyph glyph-name="F" unicode="F" horiz-adv-x="1064" 
d="M989 1411v-88h-680v-586h541v-90h-541v-647h-92v1411h772z" />
    <glyph glyph-name="G" unicode="G" horiz-adv-x="1560" 
d="M823 -25q-147 0 -278.5 57.5t-225.5 155t-149 232t-55 282.5q0 198 93 366.5t256 268t359 99.5q242 0 430 -148l-59 -67q-163 127 -371 127q-128 0 -242.5 -52t-196 -139.5t-129.5 -206.5t-48 -248q0 -173 80.5 -319.5t222.5 -233t313 -86.5q238 0 389 137t168 380h-438
v86h537q-3 -170 -53.5 -303t-138.5 -217.5t-205.5 -127.5t-258.5 -43z" />
    <glyph glyph-name="H" unicode="H" horiz-adv-x="1470" 
d="M1159 743v668h92v-1411h-92v659h-850v-659h-92v1411h92v-668h850z" />
    <glyph glyph-name="I" unicode="I" horiz-adv-x="528" 
d="M309 0h-92v1411h92v-1411z" />
    <glyph glyph-name="J" unicode="J" horiz-adv-x="544" 
d="M-84 -477q-44 0 -106 10l12 88q62 -8 94 -8q85 0 147.5 27t99 76t53.5 110.5t17 136.5v1448h93v-1448q0 -93 -22.5 -170.5t-69.5 -139t-128 -96t-190 -34.5z" />
    <glyph glyph-name="K" unicode="K" horiz-adv-x="1079" 
d="M395 674l701 -674h-129l-658 631v-631h-92v1411h92v-702l574 702h116z" />
    <glyph glyph-name="L" unicode="L" horiz-adv-x="980" 
d="M309 1411v-1323h621v-88h-713v1411h92z" />
    <glyph glyph-name="M" unicode="M" horiz-adv-x="1957" 
d="M1645 1411l178 -1411h-92l-158 1251l-547 -1112h-92l-551 1116l-158 -1255h-90l178 1411h90l578 -1182l573 1182h91z" />
    <glyph glyph-name="N" unicode="N" horiz-adv-x="1417" 
d="M1106 150v1261h92v-1411h-102l-787 1260v-1260h-92v1411h105z" />
    <glyph glyph-name="O" unicode="O" horiz-adv-x="1648" 
d="M823 -25q-195 0 -358 98t-256.5 265t-93.5 364q0 198 93.5 366.5t256.5 268t358 99.5q147 0 280 -58.5t227.5 -157.5t150 -234.5t55.5 -283.5q0 -197 -94 -364t-258 -265t-361 -98zM823 63q128 0 243.5 51t198 137.5t131 204t48.5 246.5q0 173 -82 321.5t-225.5 236.5
t-313.5 88q-169 0 -311.5 -88t-223.5 -236.5t-81 -321.5q0 -129 48 -246.5t130 -204t196.5 -137.5t241.5 -51z" />
    <glyph glyph-name="P" unicode="P" horiz-adv-x="1239" 
d="M217 1411h551q101 0 178.5 -35.5t122 -96.5t66.5 -134t22 -156t-22 -156t-67.5 -133.5t-124.5 -95.5t-183 -35h-451v-569h-92v1411zM309 657h447q81 0 142.5 28t97 75.5t52.5 105t17 123.5t-16.5 123.5t-51 106t-94 76.5t-137.5 28h-457v-666z" />
    <glyph glyph-name="Q" unicode="Q" horiz-adv-x="1648" 
d="M1536 702q0 -201 -99 -370.5t-266 -263.5l164 -258l-73 -48l-168 267q-130 -54 -271 -54q-195 0 -358 98t-256.5 265t-93.5 364q0 198 93.5 366.5t256.5 268t358 99.5q147 0 280 -58.5t227.5 -157.5t150 -234.5t55.5 -283.5zM823 63q118 0 221 41l-170 269l74 47
l176 -277q146 83 233 232.5t87 326.5q0 173 -82 321.5t-225.5 236.5t-313.5 88q-169 0 -311.5 -88t-223.5 -236.5t-81 -321.5q0 -129 48 -246.5t130 -204t196.5 -137.5t241.5 -51z" />
    <glyph glyph-name="R" unicode="R" horiz-adv-x="1249" 
d="M737 569h-32l401 -569h-113l-401 569h-283v-569h-92v1411h520q103 0 181 -35.5t123 -96.5t67 -134t22 -156q0 -82 -22.5 -155t-67.5 -133.5t-123 -96t-180 -35.5zM739 1323h-430v-666h410q84 0 147 27t99.5 74t54.5 105t18 126q0 67 -18 126t-53 106t-93.5 74.5
t-134.5 27.5z" />
    <glyph glyph-name="S" unicode="S" horiz-adv-x="1146" 
d="M571 -25q-95 0 -178.5 31.5t-140.5 84.5t-92.5 120.5t-42.5 140.5h92q16 -117 115.5 -203t246.5 -86q75 0 139 19.5t107.5 51t74.5 73t45.5 84.5t14.5 86q0 61 -24 110.5t-68 84t-95.5 57.5t-115.5 39l-196 45q-326 75 -326 342q0 108 62.5 196.5t162 136.5t211.5 48
q178 0 299 -98.5t131 -262.5h-92q-9 123 -104 198t-234 75q-136 0 -240 -84.5t-104 -208.5q0 -29 4.5 -53.5t20 -56t42 -56.5t74.5 -49.5t113 -40.5l197 -47q171 -42 272.5 -132t101.5 -237q0 -71 -30 -141.5t-86 -131t-149.5 -98t-207.5 -37.5z" />
    <glyph glyph-name="T" unicode="T" horiz-adv-x="1114" 
d="M45 1411h1024v-88h-467v-1323h-92v1323h-465v88z" />
    <glyph glyph-name="U" unicode="U" horiz-adv-x="1388" 
d="M694 -25q-100 0 -190 35t-157 97.5t-106.5 155.5t-39.5 202v946h92v-946q0 -181 115.5 -290t285.5 -109t286 109t116 290v946h92v-946q0 -145 -68 -258.5t-179.5 -172.5t-246.5 -59z" />
    <glyph glyph-name="V" unicode="V" horiz-adv-x="1095" 
d="M549 131l383 1280h96l-424 -1411h-110l-426 1411h98z" />
    <glyph glyph-name="W" unicode="W" horiz-adv-x="1857" 
d="M1284 135l428 1276h98l-479 -1411h-96l-307 1051l-305 -1051h-97l-479 1411h96l428 -1274l310 1057h96z" />
    <glyph glyph-name="X" unicode="X" horiz-adv-x="1175" 
d="M641 762l510 -762h-113l-452 688l-453 -688h-108l507 762l-436 649h111l379 -575l381 575h112z" />
    <glyph glyph-name="Y" unicode="Y" horiz-adv-x="1193" 
d="M596 758l469 653h111l-535 -741v-670h-92v672l-529 739h111z" />
    <glyph glyph-name="Z" unicode="Z" horiz-adv-x="1093" 
d="M88 1411h920v-70l-803 -1253h803v-88h-926v63l805 1260h-799v88z" />
    <glyph glyph-name="bracketleft" unicode="[" horiz-adv-x="565" 
d="M506 1509v-84h-215v-1669h215v-86h-305v1839h305z" />
    <glyph glyph-name="backslash" unicode="\" horiz-adv-x="915" 
d="M848 0h-94l-686 1411h94z" />
    <glyph glyph-name="bracketright" unicode="]" horiz-adv-x="565" 
d="M59 1425v84h306v-1839h-306v86h215v1669h-215z" />
    <glyph glyph-name="asciicircum" unicode="^" horiz-adv-x="956" 
d="M520 1411l338 -815h-92l-287 702l-291 -702h-90l338 815h84z" />
    <glyph glyph-name="underscore" unicode="_" horiz-adv-x="1193" 
d="M1126 -143h-1060v86h1060v-86z" />
    <glyph glyph-name="grave" unicode="`" horiz-adv-x="905" 
d="M543 1110h-88l-213 309h108z" />
    <glyph glyph-name="a" unicode="a" horiz-adv-x="1271" 
d="M1010 739v217h90v-956h-90v223q-60 -112 -171 -180t-245 -68q-132 0 -245.5 67t-180 183t-66.5 254q0 136 66 251.5t179.5 183t248.5 67.5q131 0 243 -66.5t171 -175.5zM600 63q110 0 204 53t150 147t56 208q0 181 -121.5 301.5t-290.5 120.5q-167 0 -286 -122.5
t-119 -291.5q0 -171 119.5 -293.5t287.5 -122.5z" />
    <glyph glyph-name="b" unicode="b" horiz-adv-x="1273" 
d="M678 981q133 0 246 -66t179 -181.5t66 -254.5q0 -211 -144 -357.5t-347 -146.5q-132 0 -244.5 66.5t-171.5 175.5v-217h-90v1477h90v-738q60 109 171.5 175.5t244.5 66.5zM674 63q167 0 286 122t119 294t-119 293t-286 121q-169 0 -290.5 -119.5t-121.5 -302.5
q0 -174 121 -291t291 -117z" />
    <glyph glyph-name="c" unicode="c" horiz-adv-x="1013" 
d="M606 -25q-137 0 -251 62.5t-182.5 179t-68.5 264.5q0 147 68.5 262t182.5 176.5t251 61.5q183 0 324 -115l-56 -65q-117 92 -268 92q-174 0 -292.5 -115t-118.5 -297q0 -184 118.5 -301t292.5 -117q151 0 268 93l58 -66q-141 -115 -326 -115z" />
    <glyph glyph-name="d" unicode="d" horiz-adv-x="1273" 
d="M1010 741v736h90v-1477h-90v213q-59 -107 -171.5 -172.5t-242.5 -65.5q-205 0 -349.5 146.5t-144.5 357.5q0 139 66.5 254.5t180 181.5t247.5 66q131 0 242 -65.5t172 -174.5zM600 63q111 0 204.5 52t149.5 146.5t56 209.5q0 183 -121 302.5t-289 119.5t-287.5 -121.5
t-119.5 -292.5q0 -172 120 -294t287 -122z" />
    <glyph glyph-name="e" unicode="e" horiz-adv-x="1155" 
d="M1057 481v-39h-860q13 -172 121 -275.5t272 -103.5q106 0 195.5 50t142.5 137l80 -39q-65 -110 -176.5 -173t-243.5 -63q-205 0 -344.5 141.5t-139.5 364.5q0 110 38 204.5t103.5 159t154 100.5t188.5 36q206 0 337.5 -138t131.5 -362zM197 520h770q-10 169 -115 271
t-264 102q-162 0 -269 -100t-122 -273z" />
    <glyph glyph-name="f" unicode="f" horiz-adv-x="620" 
d="M645 1389h-70q-247 0 -247 -314v-119h260v-79h-260v-877h-90v877h-193v79h193v113q0 90 17.5 161.5t54.5 128.5t102 87.5t155 30.5h78v-88z" />
    <glyph glyph-name="g" unicode="g" horiz-adv-x="1273" 
d="M1010 743v213h90v-827q0 -139 -24.5 -245.5t-68 -176t-109 -113.5t-141.5 -62.5t-171 -18.5q-121 0 -226.5 54.5t-175.5 160.5l76 45q58 -85 144 -128.5t182 -43.5q99 0 173.5 25.5t132.5 83.5t88 162.5t30 252.5v86q-59 -106 -171.5 -171t-242.5 -65
q-205 0 -349.5 146.5t-144.5 357.5q0 139 66.5 254.5t180 181.5t247.5 66q131 0 242 -65t172 -173zM600 63q111 0 204.5 52t149.5 146.5t56 209.5q0 183 -121 302.5t-289 119.5t-287.5 -121.5t-119.5 -292.5q0 -172 120 -294t287 -122z" />
    <glyph glyph-name="h" unicode="h" horiz-adv-x="1157" 
d="M608 981q172 0 280.5 -114t108.5 -306v-561h-90v557q0 151 -86 242.5t-219 91.5q-66 0 -124 -20t-106.5 -60.5t-78 -110t-31.5 -161.5v-539h-90v1477h90v-717q39 111 136.5 166t209.5 55z" />
    <glyph glyph-name="i" unicode="i" horiz-adv-x="434" 
d="M217 1237q-32 0 -55 20.5t-23 51.5q0 32 22.5 52.5t55.5 20.5q34 0 57 -20.5t23 -52.5q0 -31 -23 -51.5t-57 -20.5zM262 0h-90v956h90v-956z" />
    <glyph glyph-name="j" unicode="j" horiz-adv-x="450" 
d="M233 1237q-32 0 -54.5 20.5t-22.5 51.5q0 32 22 52.5t55 20.5q34 0 57 -20.5t23 -52.5q0 -31 -23 -51.5t-57 -20.5zM-45 -463h-84v86h80q237 0 237 318v1015h91v-1015q0 -404 -324 -404z" />
    <glyph glyph-name="k" unicode="k" horiz-adv-x="897" 
d="M360 539l549 -539h-127l-520 508v-508h-90v1477h90v-912l383 391h127z" />
    <glyph glyph-name="l" unicode="l" horiz-adv-x="434" 
d="M262 0h-90v1477h90v-1477z" />
    <glyph glyph-name="m" unicode="m" horiz-adv-x="1871" 
d="M1327 981q171 0 279 -114t108 -306v-561h-90v557q0 151 -86 243.5t-219 92.5q-150 0 -241 -96t-91 -301v-496h-90v559q0 151 -85 242.5t-216 91.5q-65 0 -122.5 -20t-105 -61t-76 -111t-30.5 -162v-539h-90v956h90v-190q38 108 133 161.5t211 53.5q128 0 222 -66.5
t130 -189.5q18 59 50.5 105t70 74t82.5 46t85 24.5t81 6.5z" />
    <glyph glyph-name="n" unicode="n" horiz-adv-x="1157" 
d="M608 981q172 0 280.5 -114t108.5 -306v-561h-90v557q0 151 -86 242.5t-219 91.5q-66 0 -124 -20t-106.5 -60.5t-78 -110t-31.5 -161.5v-539h-90v956h90v-196q39 111 136.5 166t209.5 55z" />
    <glyph glyph-name="o" unicode="o" horiz-adv-x="1208" 
d="M604 -25q-137 0 -250.5 62t-181.5 178.5t-68 265.5q0 148 68 263t181.5 176t250.5 61q136 0 249.5 -61t182 -176.5t68.5 -262.5q0 -148 -68.5 -265t-182 -179t-249.5 -62zM604 63q112 0 205 51t149 147.5t56 219.5q0 182 -119 297t-291 115q-173 0 -291 -115t-118 -297
q0 -185 118 -301.5t291 -116.5z" />
    <glyph glyph-name="p" unicode="p" horiz-adv-x="1273" 
d="M678 981q203 0 347 -146.5t144 -357.5q0 -139 -66 -254.5t-179 -181.5t-246 -66t-244.5 66.5t-171.5 175.5v-680h-90v1419h90v-217q59 109 171.5 175.5t244.5 66.5zM674 63q167 0 286 121t119 293t-119 294t-286 122q-170 0 -291 -117t-121 -291q0 -183 121.5 -302.5
t290.5 -119.5z" />
    <glyph glyph-name="q" unicode="q" horiz-adv-x="1273" 
d="M1010 743v213h90v-1419h-90v678q-61 -109 -172 -174.5t-242 -65.5q-134 0 -247.5 66t-180 181.5t-66.5 254.5q0 211 144.5 357.5t349.5 146.5q130 0 242.5 -65.5t171.5 -172.5zM600 63q168 0 289 119.5t121 302.5q0 115 -56 209.5t-149.5 146.5t-204.5 52
q-167 0 -287 -122t-120 -294q0 -171 119.5 -292.5t287.5 -121.5z" />
    <glyph glyph-name="r" unicode="r" horiz-adv-x="745" 
d="M588 981q73 0 141 -23l-22 -86q-59 21 -121 21q-74 0 -132 -33.5t-92.5 -86t-57.5 -124t-32 -138.5t-10 -140v-371h-90v956h90v-262q32 128 117 207.5t209 79.5z" />
    <glyph glyph-name="s" unicode="s" horiz-adv-x="866" 
d="M432 -25q-127 0 -225 68t-117 190h86q22 -73 84.5 -123.5t171.5 -50.5q112 0 179 54.5t67 140.5q0 134 -170 178l-141 33q-238 55 -238 254q0 114 87 188t218 74q124 0 209 -65.5t92 -178.5h-88q-9 71 -68 115.5t-143 44.5q-95 0 -156 -50t-61 -126q0 -138 170 -174
l141 -33q125 -30 181.5 -100t56.5 -162q0 -123 -93.5 -200t-242.5 -77z" />
    <glyph glyph-name="t" unicode="t" horiz-adv-x="583" 
d="M317 956h232v-79h-232v-877h-90v877h-174v79h174v357h90v-357z" />
    <glyph glyph-name="u" unicode="u" horiz-adv-x="1157" 
d="M893 416v540h90v-956h-90v190q-27 -73 -85.5 -123.5t-123.5 -71t-135 -20.5q-172 0 -281.5 114t-109.5 306v561h90v-559q0 -151 87 -242.5t220 -91.5q65 0 123 20t106.5 60.5t77.5 110.5t31 162z" />
    <glyph glyph-name="v" unicode="v" horiz-adv-x="1015" 
d="M506 102l362 854h99l-408 -956h-102l-406 956h99z" />
    <glyph glyph-name="w" unicode="w" horiz-adv-x="1634" 
d="M1178 137l307 819h96l-358 -956h-84l-324 844l-313 -844h-86l-367 956h96l314 -821l305 821h102z" />
    <glyph glyph-name="x" unicode="x" horiz-adv-x="929" 
d="M522 530l379 -530h-110l-324 451l-328 -451h-110l383 530l-310 426h113l252 -350l250 350h112z" />
    <glyph glyph-name="y" unicode="y" horiz-adv-x="1013" 
d="M508 113l360 843h99l-605 -1419h-96l193 461l-404 958h99z" />
    <glyph glyph-name="z" unicode="z" horiz-adv-x="968" 
d="M92 956h789v-67l-660 -801h660v-88h-795v63l659 805h-653v88z" />
    <glyph glyph-name="braceleft" unicode="{" horiz-adv-x="698" 
d="M657 1430h-53q-134 0 -220 -84.5t-85 -215.5v-333q0 -68 -36.5 -128t-100.5 -79q63 -14 100 -76t37 -131v-334q-1 -131 85 -215t220 -84h53v-80h-65q-159 0 -270.5 105.5t-110.5 273.5v338q0 57 -39 104.5t-96 59.5v78q57 12 96 59.5t39 104.5v337q-1 168 110.5 273.5
t270.5 105.5h65v-79z" />
    <glyph glyph-name="bar" unicode="|" horiz-adv-x="481" 
d="M279 -260h-76v1892h76v-1892z" />
    <glyph glyph-name="braceright" unicode="}" horiz-adv-x="698" 
d="M489 1130v-337q0 -57 38.5 -104.5t95.5 -59.5v-78q-57 -12 -95.5 -59.5t-38.5 -104.5v-338q1 -168 -111 -273.5t-272 -105.5h-65v80h53q134 0 220 84t85 215v334q0 68 38 130.5t100 76.5q-64 19 -101 79.5t-37 127.5v333q1 131 -85 215.5t-220 84.5h-53v79h65
q160 0 272 -105.5t111 -273.5z" />
    <glyph glyph-name="asciitilde" unicode="~" horiz-adv-x="1333" 
d="M1165 657l45 -61q-53 -53 -130 -91t-156 -38q-42 0 -85 8.5t-64.5 16t-64.5 26t-51 21.5q-11 4 -46.5 20.5t-57.5 25t-60.5 17t-76.5 8.5q-61 0 -127.5 -31t-116.5 -81l-45 63q56 54 133.5 91.5t155.5 37.5q42 0 84.5 -8.5t64.5 -16.5t62.5 -25.5t50.5 -21.5t46.5 -20.5
t58 -25t60.5 -17t77 -8.5q59 0 126 31.5t117 78.5z" />
    <glyph glyph-name="uni00A0" unicode="&#xa0;" horiz-adv-x="550" 
 />
    <glyph glyph-name="exclamdown" unicode="&#xa1;" horiz-adv-x="452" 
d="M225 981q34 0 58 -21t24 -53t-24 -54t-58 -22q-33 0 -56.5 22t-23.5 54t23.5 53t56.5 21zM180 -463l6 1071h80l4 -1071h-90z" />
    <glyph glyph-name="cent" unicode="&#xa2;" horiz-adv-x="1073" 
d="M901 160l57 -66q-126 -105 -305 -114v-224h-78v226q-192 21 -318 156.5t-126 342.5q0 206 126.5 340.5t317.5 153.5v207h78v-205q174 -9 303 -115l-55 -65q-117 92 -268 92q-174 0 -293 -113t-119 -295q0 -184 119 -298.5t293 -114.5q152 0 268 92z" />
    <glyph glyph-name="sterling" unicode="&#xa3;" horiz-adv-x="1261" 
d="M1075 176v92h90v-92q0 -75 -44 -125.5t-113 -50.5h-924v88h205v412h-170v73h170v400q0 119 58 210.5t149.5 137t197.5 45.5q156 0 266 -97.5t119 -258.5h-90q-9 122 -93 196t-206 74q-126 0 -218.5 -84t-92.5 -223v-400h264v-73h-264v-412h616q35 0 57.5 25t22.5 63z" />
    <glyph glyph-name="currency" unicode="&#xa4;" horiz-adv-x="1206" 
d="M307 944l-157 156l59 59l160 -158q96 80 229 80q138 0 238 -84l161 162l60 -59l-162 -162q84 -107 84 -238q0 -129 -80 -229l160 -160l-60 -59l-159 160q-109 -86 -242 -86q-130 0 -236 80l-153 -152l-59 59l153 152q-82 108 -82 237q0 136 86 242zM600 412
q119 0 205 86.5t86 206.5q0 118 -86 203t-205 85t-205 -85t-86 -203q0 -121 84.5 -207t206.5 -86z" />
    <glyph glyph-name="yen" unicode="&#xa5;" horiz-adv-x="1277" 
d="M684 0h-94v307h-344v78h344v217h-344v78h338l-521 731h109l465 -651l469 651h111l-525 -731h338v-78h-346v-217h346v-78h-346v-307z" />
    <glyph glyph-name="brokenbar" unicode="&#xa6;" horiz-adv-x="491" 
d="M285 883h-78v749h78v-749zM285 -260h-78v747h78v-747z" />
    <glyph glyph-name="section" unicode="&#xa7;" horiz-adv-x="1007" 
d="M520 362q-163 0 -274 105t-111 276v297q0 169 111.5 275t273.5 106q117 0 213 -58t141 -159l-81 -30q-35 74 -109 116.5t-164 42.5q-125 0 -211 -80.5t-86 -212.5v-297q0 -131 86 -211.5t211 -80.5q71 0 129 22v-92q-74 -19 -129 -19zM487 -258q-117 0 -212 57.5
t-140 159.5l82 33q35 -76 108 -119t162 -43q126 0 211.5 81t85.5 212v297q0 133 -85 213t-212 80q-66 0 -127 -23v92q62 19 127 19q163 0 275 -105.5t112 -275.5v-297q0 -169 -112.5 -275t-274.5 -106z" />
    <glyph glyph-name="dieresis" unicode="&#xa8;" horiz-adv-x="960" 
d="M324 1204q-32 0 -55 20.5t-23 51.5q0 32 22.5 53t55.5 21q34 0 56.5 -21t22.5 -53q0 -31 -22.5 -51.5t-56.5 -20.5zM635 1204q-32 0 -55 20.5t-23 51.5q0 32 22.5 53t55.5 21q34 0 57 -21t23 -53q0 -31 -23 -51.5t-57 -20.5z" />
    <glyph glyph-name="copyright" unicode="&#xa9;" horiz-adv-x="1699" 
d="M850 -20q-147 0 -279.5 57t-228 154t-151.5 230.5t-56 280.5t56 281t151.5 231.5t228 155t279.5 57.5t280 -57.5t228.5 -155t152 -231.5t56.5 -281q0 -196 -95.5 -362.5t-260.5 -263t-361 -96.5zM850 57q175 0 322 86.5t232 235t85 323.5q0 176 -85 325.5t-232 237
t-322 87.5t-322 -87.5t-232 -237t-85 -325.5q0 -175 85 -323.5t232 -235t322 -86.5zM858 338q-147 0 -248.5 105.5t-101.5 256.5q0 152 101.5 258.5t248.5 106.5q137 0 242 -100l-53 -58q-85 78 -189 78q-113 0 -192.5 -83.5t-79.5 -201.5q0 -117 79 -200.5t193 -83.5
q101 0 189 78l53 -60q-107 -96 -242 -96z" />
    <glyph glyph-name="ordfeminine" unicode="&#xaa;" horiz-adv-x="1124" 
d="M866 1313v170h84v-766h-84v172q-46 -86 -134 -137.5t-191 -51.5q-163 0 -278.5 115.5t-115.5 284.5t115.5 284t278.5 115q105 0 193 -50t132 -136zM547 782q132 0 224.5 89.5t92.5 224.5q0 139 -93 230t-224 91q-130 0 -222 -92t-92 -223q0 -133 92.5 -226.5t221.5 -93.5
zM940 487h-760v80h760v-80z" />
    <glyph glyph-name="guillemotleft" unicode="&#xab;" horiz-adv-x="876" 
d="M502 51h-99l-282 424l282 424h97l-283 -424zM764 51h-100l-283 424l283 424h98l-283 -424z" />
    <glyph glyph-name="logicalnot" unicode="&#xac;" horiz-adv-x="1316" 
d="M168 604v88h987v-428h-90v340h-897z" />
    <glyph glyph-name="uni00AD" unicode="&#xad;" horiz-adv-x="925" 
d="M799 420h-672v90h672v-90z" />
    <glyph glyph-name="registered" unicode="&#xae;" horiz-adv-x="1699" 
d="M850 1427q147 0 280 -57.5t228.5 -155t152 -231.5t56.5 -281q0 -196 -95.5 -362.5t-260.5 -263t-361 -96.5q-147 0 -279.5 57t-228 154t-151.5 230.5t-56 280.5t56 281t151.5 231.5t228 155t279.5 57.5zM850 57q175 0 322 86.5t232 235t85 323.5q0 176 -85 325.5
t-232 237t-322 87.5t-322 -87.5t-232 -237t-85 -325.5q0 -175 85 -323.5t232 -235t322 -86.5zM1118 834q0 -94 -44.5 -157.5t-137.5 -76.5l174 -262h-90l-172 258h-148v-258h-77v731h270q113 0 169 -68t56 -167zM700 670h189q77 0 114 46t37 113q0 69 -36.5 115.5
t-112.5 46.5h-191v-321z" />
    <glyph glyph-name="macron" unicode="&#xaf;" horiz-adv-x="970" 
d="M725 1229h-479v80h479v-80z" />
    <glyph glyph-name="degree" unicode="&#xb0;" horiz-adv-x="700" 
d="M350 950q-98 0 -168.5 70t-70.5 170q0 99 70 168t169 69t168.5 -69t69.5 -168q0 -100 -70 -170t-168 -70zM350 1026q66 0 115 48.5t49 115.5t-48.5 114.5t-115.5 47.5q-68 0 -116 -47.5t-48 -114.5q0 -68 48 -116t116 -48z" />
    <glyph glyph-name="plusminus" unicode="&#xb1;" horiz-adv-x="1089" 
d="M590 930v-326h358v-88h-358v-330h-90v330h-359v88h359v326h90zM948 0h-807v86h807v-86z" />
    <glyph glyph-name="uni00B2" unicode="&#xb2;" horiz-adv-x="620" 
d="M451 1436l-236 -277h322v-78h-457v39l305 365q64 78 64 139q0 60 -41.5 97.5t-104.5 37.5q-59 0 -100 -31.5t-51 -85.5l-76 15q17 82 78 130t151 48q100 0 162.5 -59t62.5 -154q0 -89 -79 -186z" />
    <glyph glyph-name="uni00B3" unicode="&#xb3;" horiz-adv-x="649" 
d="M424 1483q63 -19 102 -71.5t39 -121.5q0 -98 -75 -158.5t-191 -60.5q-77 0 -140.5 35.5t-95.5 99.5l62 41q25 -47 69.5 -73.5t100.5 -26.5q82 0 134 40t52 105q0 67 -46 108.5t-116 41.5h-75v67h63q62 0 99.5 35.5t35.5 91.5q0 55 -39 89t-104 34q-45 0 -86 -22t-63 -56
l-52 50q33 47 87.5 75.5t117.5 28.5q99 0 161 -54t62 -143q0 -51 -27.5 -92t-74.5 -63z" />
    <glyph glyph-name="acute" unicode="&#xb4;" horiz-adv-x="905" 
d="M352 1110h-88l197 309h108z" />
    <glyph glyph-name="uni00B5" unicode="&#xb5;" horiz-adv-x="1220" 
d="M1139 76h43v-88h-56q-95 0 -149 39.5t-68 132.5q-43 -91 -138.5 -138t-197.5 -47q-97 0 -182.5 43.5t-128.5 120.5v-467h-90v1284h90v-553q0 -155 91.5 -247.5t224.5 -92.5q80 0 153 35.5t123.5 108.5t50.5 168v581h90v-725q0 -80 31 -117.5t113 -37.5z" />
    <glyph glyph-name="paragraph" unicode="&#xb6;" horiz-adv-x="1216" 
d="M629 -141h-88v690q-191 3 -325 128.5t-134 303.5q0 179 126 304.5t306 125.5h115v-1552zM649 -338h-108v84h100q61 0 94 44t33 110v1511h123q104 0 179 -75t75 -181v-139h-86v139q0 69 -47.5 118.5t-114.5 49.5h-41v-1419q0 -99 -57.5 -170t-149.5 -72z" />
    <glyph glyph-name="periodcentered" unicode="&#xb7;" horiz-adv-x="464" 
d="M231 414q-33 0 -56 20.5t-23 52.5t23 54t56 22q34 0 58 -22t24 -54t-24 -52.5t-58 -20.5z" />
    <glyph glyph-name="cedilla" unicode="&#xb8;" horiz-adv-x="1032" 
d="M516 -403q-85 0 -136.5 56t-51.5 148h75q5 -60 34.5 -94.5t78.5 -34.5q52 0 83.5 30.5t31.5 80.5q0 23 -13 49l-75 193h78l67 -164q19 -48 19 -80q0 -83 -53 -133.5t-138 -50.5z" />
    <glyph glyph-name="uni00B9" unicode="&#xb9;" horiz-adv-x="432" 
d="M59 1726l242 109h6v-754h-80v639l-168 -73v79z" />
    <glyph glyph-name="ordmasculine" unicode="&#xba;" horiz-adv-x="1107" 
d="M553 702q-169 0 -285 111.5t-116 290.5q0 177 116 287t285 110t285 -110t116 -287q0 -179 -116 -290.5t-285 -111.5zM553 782q134 0 225.5 89.5t91.5 232.5q0 141 -91.5 227t-225.5 86t-224.5 -86t-90.5 -227q0 -143 90.5 -232.5t224.5 -89.5zM174 487v80h760v-80h-760z
" />
    <glyph glyph-name="guillemotright" unicode="&#xbb;" horiz-adv-x="876" 
d="M213 51h-98l282 424l-282 424h98l283 -424zM473 51h-98l284 424l-282 424h96l283 -424z" />
    <glyph glyph-name="onequarter" unicode="&#xbc;" horiz-adv-x="1458" 
d="M137 -20l918 1396h90l-920 -1396h-88zM336 612h-80v639l-168 -71v77l242 109h6v-754zM1268 229h116v-75h-116v-154h-82v154h-385v24l424 565h43v-514zM1186 582l-262 -353h262v353z" />
    <glyph glyph-name="onehalf" unicode="&#xbd;" horiz-adv-x="1454" 
d="M133 -20l920 1396h88l-918 -1396h-90zM334 612h-82v637l-166 -69v77l242 109h6v-754zM1276 356l-238 -278h326v-78h-459l2 41l303 362q64 77 64 140q0 60 -40.5 97.5t-105.5 37.5q-58 0 -98 -31t-51 -84l-76 15q17 82 77.5 129t152.5 47q99 0 161 -58t62 -153
q0 -93 -80 -187z" />
    <glyph glyph-name="threequarters" unicode="&#xbe;" horiz-adv-x="1662" 
d="M340 -20l920 1396h88l-918 -1396h-90zM584 821q0 -97 -76 -158t-193 -61q-76 0 -138.5 36t-94.5 99l59 43q26 -48 71.5 -75t100.5 -27q81 0 134 41t53 106q0 66 -46 108t-116 42h-76v67h64q62 0 98.5 34.5t36.5 90.5t-40 89.5t-106 33.5q-45 0 -86 -22t-63 -56l-49 50
q33 47 87.5 75.5t117.5 28.5q99 0 160 -54t61 -141q0 -51 -27 -92t-74 -65q62 -19 102 -71.5t40 -121.5zM1473 229h116v-75h-116v-154h-82v154h-385v24l424 565h43v-514zM1391 584l-263 -355h263v355z" />
    <glyph glyph-name="questiondown" unicode="&#xbf;" horiz-adv-x="937" 
d="M604 981q34 0 58 -21t24 -53t-24 -54t-58 -22t-57 22t-23 54t23 53t57 21zM561 627h88v-133q1 -78 -21 -132.5t-57 -85t-90 -53.5l-94 -33q-96 -31 -157.5 -105.5t-61.5 -178.5q0 -132 90.5 -213.5t218.5 -81.5q118 0 203.5 72t97.5 196h88q-12 -162 -123 -259t-266 -97
q-165 0 -282 106.5t-117 276.5q0 136 80 234.5t202 135.5q51 15 82 29t60.5 38t43 61t13.5 90z" />
    <glyph glyph-name="Agrave" unicode="&#xc0;" 
d="M473 1866l193 -312h-88l-213 312h108zM1196 0h-96l-146 385h-688l-147 -385h-99l541 1411h98zM610 1288l-313 -821h625z" />
    <glyph glyph-name="Aacute" unicode="&#xc1;" 
d="M762 1866h108l-217 -312h-88zM1196 0h-96l-146 385h-688l-147 -385h-99l541 1411h98zM610 1288l-313 -821h625z" />
    <glyph glyph-name="Acircumflex" unicode="&#xc2;" 
d="M809 1554l-199 238l-198 -238h-86l231 312h105l233 -312h-86zM1196 0h-96l-146 385h-688l-147 -385h-99l541 1411h98zM610 1288l-313 -821h625z" />
    <glyph glyph-name="Atilde" unicode="&#xc3;" 
d="M510 1704q-29 0 -50 -27t-22 -73h-76q4 83 45.5 129.5t102.5 46.5q33 0 63 -16.5t48.5 -37t42 -37t45.5 -16.5q29 0 49.5 26.5t21.5 72.5h76q-4 -84 -45 -130.5t-102 -46.5q-32 0 -62.5 17t-49.5 37.5t-42.5 37.5t-44.5 17zM1196 0h-96l-146 385h-688l-147 -385h-99
l541 1411h98zM610 1288l-313 -821h625z" />
    <glyph glyph-name="Adieresis" unicode="&#xc4;" 
d="M453 1647q-33 0 -55.5 20.5t-22.5 50.5q0 32 22.5 53t55.5 21q34 0 56.5 -21t22.5 -53q0 -31 -22.5 -51t-56.5 -20zM764 1647q-33 0 -55.5 20.5t-22.5 50.5q0 32 22.5 53t55.5 21q34 0 57 -21t23 -53q0 -31 -23 -51t-57 -20zM1196 0h-96l-146 385h-688l-147 -385h-99
l541 1411h98zM610 1288l-313 -821h625z" />
    <glyph glyph-name="Aring" unicode="&#xc5;" 
d="M606 1477q-74 0 -125 51.5t-51 126.5t51.5 128.5t124.5 53.5q76 0 129 -53.5t53 -128.5t-52.5 -126.5t-129.5 -51.5zM606 1769q-46 0 -77 -32.5t-31 -81.5q0 -46 31.5 -78.5t76.5 -32.5q47 0 81 32.5t34 78.5q0 49 -33.5 81.5t-81.5 32.5zM1196 0h-96l-146 385h-688
l-147 -385h-99l541 1411h98zM610 1288l-313 -821h625z" />
    <glyph glyph-name="AE" unicode="&#xc6;" horiz-adv-x="1912" 
d="M1090 647v-559h712v-88h-805v389h-669l-250 -389h-107l906 1411h903v-88h-690v-586h604v-90h-604zM926 1321l-541 -842h612v842h-71z" />
    <glyph glyph-name="Ccedilla" unicode="&#xc7;" horiz-adv-x="1366" 
d="M1225 227l63 -61q-88 -86 -203 -136.5t-245 -54.5l47 -114q18 -45 18 -80q0 -83 -52.5 -133.5t-137.5 -50.5t-137 56t-52 148h76q5 -60 34.5 -94.5t78.5 -34.5q52 0 83 30.5t31 80.5q0 25 -12 49l-57 145q-180 14 -328 114.5t-232.5 261.5t-84.5 349q0 198 92 366.5
t253 268t353 99.5q137 0 260 -51t217 -142l-63 -61q-82 77 -189 121.5t-225 44.5q-166 0 -306 -88t-220 -236.5t-80 -321.5q0 -172 80 -319t219.5 -233.5t306.5 -86.5q238 0 412 164z" />
    <glyph glyph-name="Egrave" unicode="&#xc8;" horiz-adv-x="1132" 
d="M434 1866l195 -312h-88l-215 312h108zM309 647v-559h715v-88h-807v1411h782v-88h-690v-586h604v-90h-604z" />
    <glyph glyph-name="Eacute" unicode="&#xc9;" horiz-adv-x="1132" 
d="M725 1866h109l-218 -312h-90zM309 647v-559h715v-88h-807v1411h782v-88h-690v-586h604v-90h-604z" />
    <glyph glyph-name="Ecircumflex" unicode="&#xca;" horiz-adv-x="1132" 
d="M770 1554l-199 238l-198 -238h-86l233 312h105l233 -312h-88zM309 647v-559h715v-88h-807v1411h782v-88h-690v-586h604v-90h-604z" />
    <glyph glyph-name="Edieresis" unicode="&#xcb;" horiz-adv-x="1132" 
d="M416 1647q-33 0 -56.5 20.5t-23.5 50.5q0 32 23.5 53t56.5 21t55.5 -21t22.5 -53q0 -30 -22.5 -50.5t-55.5 -20.5zM727 1647q-33 0 -56.5 20.5t-23.5 50.5q0 32 23.5 53t56.5 21t56.5 -21t23.5 -53q0 -30 -23.5 -50.5t-56.5 -20.5zM309 647v-559h715v-88h-807v1411h782
v-88h-690v-586h604v-90h-604z" />
    <glyph glyph-name="Igrave" unicode="&#xcc;" horiz-adv-x="528" 
d="M322 1554h-91l-213 312h109zM309 0h-92v1411h92v-1411z" />
    <glyph glyph-name="Iacute" unicode="&#xcd;" horiz-adv-x="528" 
d="M307 1554h-88l197 312h108zM309 0h-92v1411h92v-1411z" />
    <glyph glyph-name="Icircumflex" unicode="&#xce;" horiz-adv-x="528" 
d="M66 1554h-86l231 312h104l234 -312h-86l-199 238zM309 0h-92v1411h92v-1411z" />
    <glyph glyph-name="Idieresis" unicode="&#xcf;" horiz-adv-x="528" 
d="M106 1647q-33 0 -55 20t-22 51q0 32 22 53t55 21q34 0 57 -21t23 -53q0 -31 -23 -51t-57 -20zM418 1647q-33 0 -55.5 20.5t-22.5 50.5q0 32 22.5 53t55.5 21q34 0 57 -21t23 -53q0 -31 -23 -51t-57 -20zM309 0h-92v1411h92v-1411z" />
    <glyph glyph-name="Eth" unicode="&#xd0;" horiz-adv-x="1499" 
d="M229 1411h527q146 0 264.5 -54.5t196 -150t119.5 -224.5t42 -280q0 -201 -71.5 -358.5t-214 -250.5t-336.5 -93h-527v659h-166v76h166v676zM322 88h434q167 0 288.5 81.5t181.5 219t60 313.5q0 177 -60 316t-182 222t-288 83h-434v-588h430v-76h-430v-571z" />
    <glyph glyph-name="Ntilde" unicode="&#xd1;" horiz-adv-x="1417" 
d="M608 1704q-29 0 -48.5 -27t-20.5 -73h-76q3 83 43.5 129.5t101.5 46.5q33 0 63.5 -16.5t49.5 -37t42 -37t44 -16.5q30 0 50.5 26.5t21.5 72.5h75q-3 -83 -44.5 -130t-102.5 -47q-32 0 -62.5 17t-49.5 37.5t-42.5 37.5t-44.5 17zM1106 150v1261h92v-1411h-102l-787 1260
v-1260h-92v1411h105z" />
    <glyph glyph-name="Ograve" unicode="&#xd2;" horiz-adv-x="1648" 
d="M883 1554h-90l-213 312h108zM823 -25q-195 0 -358 98t-256.5 265t-93.5 364q0 198 93.5 366.5t256.5 268t358 99.5q147 0 280 -58.5t227.5 -157.5t150 -234.5t55.5 -283.5q0 -197 -94 -364t-258 -265t-361 -98zM823 63q128 0 243.5 51t198 137.5t131 204t48.5 246.5
q0 173 -82 321.5t-225.5 236.5t-313.5 88q-169 0 -311.5 -88t-223.5 -236.5t-81 -321.5q0 -129 48 -246.5t130 -204t196.5 -137.5t241.5 -51z" />
    <glyph glyph-name="Oacute" unicode="&#xd3;" horiz-adv-x="1648" 
d="M870 1554h-90l197 312h108zM823 -25q-195 0 -358 98t-256.5 265t-93.5 364q0 198 93.5 366.5t256.5 268t358 99.5q147 0 280 -58.5t227.5 -157.5t150 -234.5t55.5 -283.5q0 -197 -94 -364t-258 -265t-361 -98zM823 63q128 0 243.5 51t198 137.5t131 204t48.5 246.5
q0 173 -82 321.5t-225.5 236.5t-313.5 88q-169 0 -311.5 -88t-223.5 -236.5t-81 -321.5q0 -129 48 -246.5t130 -204t196.5 -137.5t241.5 -51z" />
    <glyph glyph-name="Ocircumflex" unicode="&#xd4;" horiz-adv-x="1648" 
d="M627 1554h-86l233 312h103l233 -312h-86l-199 238zM823 -25q-195 0 -358 98t-256.5 265t-93.5 364q0 198 93.5 366.5t256.5 268t358 99.5q147 0 280 -58.5t227.5 -157.5t150 -234.5t55.5 -283.5q0 -197 -94 -364t-258 -265t-361 -98zM823 63q128 0 243.5 51t198 137.5
t131 204t48.5 246.5q0 173 -82 321.5t-225.5 236.5t-313.5 88q-169 0 -311.5 -88t-223.5 -236.5t-81 -321.5q0 -129 48 -246.5t130 -204t196.5 -137.5t241.5 -51z" />
    <glyph glyph-name="Otilde" unicode="&#xd5;" horiz-adv-x="1648" 
d="M655 1604h-77q4 84 45 130t102 46q33 0 63 -16.5t48.5 -37t42 -37t45.5 -16.5q30 0 50 26.5t21 72.5h76q-4 -84 -45 -130.5t-102 -46.5q-32 0 -62.5 17t-49.5 37.5t-42.5 37.5t-44.5 17q-29 0 -49 -27t-21 -73zM823 -25q-195 0 -358 98t-256.5 265t-93.5 364
q0 198 93.5 366.5t256.5 268t358 99.5q147 0 280 -58.5t227.5 -157.5t150 -234.5t55.5 -283.5q0 -197 -94 -364t-258 -265t-361 -98zM823 63q128 0 243.5 51t198 137.5t131 204t48.5 246.5q0 173 -82 321.5t-225.5 236.5t-313.5 88q-169 0 -311.5 -88t-223.5 -236.5
t-81 -321.5q0 -129 48 -246.5t130 -204t196.5 -137.5t241.5 -51z" />
    <glyph glyph-name="Odieresis" unicode="&#xd6;" horiz-adv-x="1648" 
d="M668 1647q-33 0 -55.5 20.5t-22.5 50.5q0 32 22.5 53t55.5 21q34 0 57 -21t23 -53q0 -31 -23 -51t-57 -20zM979 1647q-33 0 -55.5 20.5t-22.5 50.5q0 32 22.5 53t55.5 21q34 0 57 -21t23 -53q0 -31 -23 -51t-57 -20zM823 -25q-195 0 -358 98t-256.5 265t-93.5 364
q0 198 93.5 366.5t256.5 268t358 99.5q147 0 280 -58.5t227.5 -157.5t150 -234.5t55.5 -283.5q0 -197 -94 -364t-258 -265t-361 -98zM823 63q128 0 243.5 51t198 137.5t131 204t48.5 246.5q0 173 -82 321.5t-225.5 236.5t-313.5 88q-169 0 -311.5 -88t-223.5 -236.5
t-81 -321.5q0 -129 48 -246.5t130 -204t196.5 -137.5t241.5 -51z" />
    <glyph glyph-name="multiply" unicode="&#xd7;" horiz-adv-x="942" 
d="M532 555l263 -260l-62 -64l-262 263l-260 -261l-64 62l263 262l-260 258l61 62l260 -259l260 261l62 -64z" />
    <glyph glyph-name="Oslash" unicode="&#xd8;" horiz-adv-x="1675" 
d="M1503 1427l56 -53l-187 -188q84 -98 130 -222.5t46 -261.5q0 -197 -94 -364t-258 -265t-360 -98q-135 0 -256.5 48t-217.5 135l-178 -181l-55 56l178 180q-182 207 -182 489q0 148 55.5 283.5t150 234.5t226.5 157.5t279 58.5q139 0 263 -51.5t220 -143.5zM217 702
q0 -240 156 -423l882 899q-178 170 -419 170q-169 0 -312 -88t-225 -236.5t-82 -321.5zM1456 702q0 237 -147 418l-883 -897q178 -160 410 -160q128 0 243.5 51t197.5 137.5t130.5 204t48.5 246.5z" />
    <glyph glyph-name="Ugrave" unicode="&#xd9;" horiz-adv-x="1388" 
d="M752 1554h-90l-213 312h108zM694 -25q-100 0 -190 35t-157 97.5t-106.5 155.5t-39.5 202v946h92v-946q0 -181 115.5 -290t285.5 -109t286 109t116 290v946h92v-946q0 -145 -68 -258.5t-179.5 -172.5t-246.5 -59z" />
    <glyph glyph-name="Uacute" unicode="&#xda;" horiz-adv-x="1388" 
d="M737 1554h-88l197 312h108zM694 -25q-100 0 -190 35t-157 97.5t-106.5 155.5t-39.5 202v946h92v-946q0 -181 115.5 -290t285.5 -109t286 109t116 290v946h92v-946q0 -145 -68 -258.5t-179.5 -172.5t-246.5 -59z" />
    <glyph glyph-name="Ucircumflex" unicode="&#xdb;" horiz-adv-x="1388" 
d="M496 1554h-86l231 312h104l234 -312h-86l-199 238zM694 -25q-100 0 -190 35t-157 97.5t-106.5 155.5t-39.5 202v946h92v-946q0 -181 115.5 -290t285.5 -109t286 109t116 290v946h92v-946q0 -145 -68 -258.5t-179.5 -172.5t-246.5 -59z" />
    <glyph glyph-name="Udieresis" unicode="&#xdc;" horiz-adv-x="1388" 
d="M537 1647q-33 0 -55.5 20.5t-22.5 50.5q0 32 22.5 53t55.5 21q34 0 56.5 -21t22.5 -53q0 -31 -22.5 -51t-56.5 -20zM848 1647q-33 0 -55.5 20.5t-22.5 50.5q0 32 22.5 53t55.5 21q34 0 57 -21t23 -53q0 -31 -23 -51t-57 -20zM694 -25q-100 0 -190 35t-157 97.5
t-106.5 155.5t-39.5 202v946h92v-946q0 -181 115.5 -290t285.5 -109t286 109t116 290v946h92v-946q0 -145 -68 -258.5t-179.5 -172.5t-246.5 -59z" />
    <glyph glyph-name="Yacute" unicode="&#xdd;" horiz-adv-x="1193" 
d="M750 1866h108l-217 -312h-88zM596 758l469 653h111l-535 -741v-670h-92v672l-529 739h111z" />
    <glyph glyph-name="Thorn" unicode="&#xde;" horiz-adv-x="1189" 
d="M309 1124h369q174 0 291.5 -114t117.5 -299q0 -187 -117.5 -304.5t-291.5 -117.5h-369v-289h-92v1411h92v-287zM309 377h369q136 0 227.5 93.5t91.5 240.5q0 146 -92.5 235.5t-230.5 89.5h-365v-659z" />
    <glyph glyph-name="germandbls" unicode="&#xdf;" horiz-adv-x="1214" 
d="M774 836q144 -28 242 -144t98 -258q0 -196 -127 -327.5t-340 -131.5q-51 -2 -119.5 9t-115.5 30l24 82q41 -16 103 -25.5t108 -9.5q174 0 275.5 106.5t101.5 268.5q-6 152 -121.5 252t-275.5 100h-72v80h68q108 0 178.5 80t70.5 191q0 114 -79 194t-218 80
q-148 0 -230.5 -93.5t-82.5 -262.5v-1057h-90v1057q0 209 108.5 326.5t294.5 117.5q179 0 283.5 -105t104.5 -251q0 -100 -52.5 -189.5t-136.5 -119.5z" />
    <glyph glyph-name="agrave" unicode="&#xe0;" horiz-adv-x="1271" 
d="M498 1411l194 -311h-88l-215 311h109zM1010 739v217h90v-956h-90v223q-60 -112 -171 -180t-245 -68q-132 0 -245.5 67t-180 183t-66.5 254q0 136 66 251.5t179.5 183t248.5 67.5q131 0 243 -66.5t171 -175.5zM600 63q110 0 204 53t150 147t56 208q0 181 -121.5 301.5
t-290.5 120.5q-167 0 -286 -122.5t-119 -291.5q0 -171 119.5 -293.5t287.5 -122.5z" />
    <glyph glyph-name="aacute" unicode="&#xe1;" horiz-adv-x="1271" 
d="M788 1411h109l-217 -311h-90zM1010 739v217h90v-956h-90v223q-60 -112 -171 -180t-245 -68q-132 0 -245.5 67t-180 183t-66.5 254q0 136 66 251.5t179.5 183t248.5 67.5q131 0 243 -66.5t171 -175.5zM600 63q110 0 204 53t150 147t56 208q0 181 -121.5 301.5
t-290.5 120.5q-167 0 -286 -122.5t-119 -291.5q0 -171 119.5 -293.5t287.5 -122.5z" />
    <glyph glyph-name="acircumflex" unicode="&#xe2;" horiz-adv-x="1271" 
d="M834 1100l-199 237l-199 -237h-86l234 311h104l234 -311h-88zM1010 739v217h90v-956h-90v223q-60 -112 -171 -180t-245 -68q-132 0 -245.5 67t-180 183t-66.5 254q0 136 66 251.5t179.5 183t248.5 67.5q131 0 243 -66.5t171 -175.5zM600 63q110 0 204 53t150 147t56 208
q0 181 -121.5 301.5t-290.5 120.5q-167 0 -286 -122.5t-119 -291.5q0 -171 119.5 -293.5t287.5 -122.5z" />
    <glyph glyph-name="atilde" unicode="&#xe3;" horiz-adv-x="1271" 
d="M537 1249q-30 0 -50.5 -27t-21.5 -73h-76q3 84 44.5 130t103.5 46q32 0 62 -16.5t48.5 -36.5t41.5 -36.5t44 -16.5q30 0 50.5 26t21.5 72h76q-3 -83 -45 -129.5t-103 -46.5q-32 0 -62 17t-49 37t-42 37t-43 17zM1010 739v217h90v-956h-90v223q-60 -112 -171 -180
t-245 -68q-132 0 -245.5 67t-180 183t-66.5 254q0 136 66 251.5t179.5 183t248.5 67.5q131 0 243 -66.5t171 -175.5zM600 63q110 0 204 53t150 147t56 208q0 181 -121.5 301.5t-290.5 120.5q-167 0 -286 -122.5t-119 -291.5q0 -171 119.5 -293.5t287.5 -122.5z" />
    <glyph glyph-name="adieresis" unicode="&#xe4;" horiz-adv-x="1271" 
d="M479 1192q-33 0 -56.5 21t-23.5 51q0 32 23.5 52.5t56.5 20.5t55.5 -20.5t22.5 -52.5q0 -31 -23 -51.5t-55 -20.5zM791 1192q-33 0 -56.5 21t-23.5 51q0 32 23.5 52.5t56.5 20.5t56 -20.5t23 -52.5q0 -30 -23 -51t-56 -21zM1010 739v217h90v-956h-90v223
q-60 -112 -171 -180t-245 -68q-132 0 -245.5 67t-180 183t-66.5 254q0 136 66 251.5t179.5 183t248.5 67.5q131 0 243 -66.5t171 -175.5zM600 63q110 0 204 53t150 147t56 208q0 181 -121.5 301.5t-290.5 120.5q-167 0 -286 -122.5t-119 -291.5q0 -171 119.5 -293.5
t287.5 -122.5z" />
    <glyph glyph-name="aring" unicode="&#xe5;" horiz-adv-x="1271" 
d="M631 1114q-74 0 -125 51.5t-51 126.5t51.5 129t124.5 54q76 0 130 -54t54 -129t-53.5 -126.5t-130.5 -51.5zM631 1407q-44 0 -76.5 -34t-32.5 -81q0 -46 32 -78t77 -32q49 0 83 32t34 78q0 48 -34 81.5t-83 33.5zM1010 739v217h90v-956h-90v223q-60 -112 -171 -180
t-245 -68q-132 0 -245.5 67t-180 183t-66.5 254q0 136 66 251.5t179.5 183t248.5 67.5q131 0 243 -66.5t171 -175.5zM600 63q110 0 204 53t150 147t56 208q0 181 -121.5 301.5t-290.5 120.5q-167 0 -286 -122.5t-119 -291.5q0 -171 119.5 -293.5t287.5 -122.5z" />
    <glyph glyph-name="ae" unicode="&#xe6;" horiz-adv-x="1902" 
d="M1804 481v-39h-858q12 -170 120.5 -274.5t270.5 -104.5q106 0 195.5 50t144.5 137l78 -39q-65 -111 -176 -173.5t-244 -62.5q-136 0 -248.5 66.5t-175.5 183.5q-202 -248 -483 -248q-153 0 -246.5 75.5t-93.5 199.5q0 128 102 207.5t275 79.5q91 0 196.5 -23t190.5 -61
v131q0 159 -90 234t-252 75q-173 0 -301 -125l-59 61q70 80 170.5 115t203.5 35q155 0 255.5 -61t140.5 -177q62 111 171.5 174.5t243.5 63.5q206 0 337.5 -138t131.5 -362zM946 520h768q-10 169 -115 271t-264 102q-166 0 -270.5 -100.5t-118.5 -272.5zM422 63
q126 0 256 70.5t196 169.5l-22 68q-83 40 -188.5 63t-198.5 23q-135 0 -212 -56t-77 -145q0 -87 67 -140t179 -53z" />
    <glyph glyph-name="ccedilla" unicode="&#xe7;" horiz-adv-x="1013" 
d="M672 -20l51 -119q18 -45 18 -80q0 -83 -52.5 -133.5t-137.5 -50.5t-137 56t-52 148h76q5 -60 34.5 -94.5t78.5 -34.5q52 0 82.5 30.5t30.5 80.5q0 27 -11 49l-57 143q-206 5 -349 146t-143 360q0 146 69 261.5t183 177t250 61.5q183 0 324 -115l-53 -65q-120 92 -271 92
q-173 0 -292 -115t-119 -297q0 -184 119.5 -301t291.5 -117q150 0 271 93l55 -66q-112 -92 -260 -110z" />
    <glyph glyph-name="egrave" unicode="&#xe8;" horiz-adv-x="1155" 
d="M436 1411l193 -311h-88l-215 311h110zM1057 481v-39h-860q13 -172 121 -275.5t272 -103.5q106 0 195.5 50t142.5 137l80 -39q-65 -110 -176.5 -173t-243.5 -63q-205 0 -344.5 141.5t-139.5 364.5q0 110 38 204.5t103.5 159t154 100.5t188.5 36q206 0 337.5 -138
t131.5 -362zM197 520h770q-10 169 -115 271t-264 102q-162 0 -269 -100t-122 -273z" />
    <glyph glyph-name="eacute" unicode="&#xe9;" horiz-adv-x="1155" 
d="M725 1411h109l-218 -311h-88zM1057 481v-39h-860q13 -172 121 -275.5t272 -103.5q106 0 195.5 50t142.5 137l80 -39q-65 -110 -176.5 -173t-243.5 -63q-205 0 -344.5 141.5t-139.5 364.5q0 110 38 204.5t103.5 159t154 100.5t188.5 36q206 0 337.5 -138t131.5 -362z
M197 520h770q-10 169 -115 271t-264 102q-162 0 -269 -100t-122 -273z" />
    <glyph glyph-name="ecircumflex" unicode="&#xea;" horiz-adv-x="1155" 
d="M772 1100l-199 237l-198 -237h-88l233 311h105l233 -311h-86zM1057 481v-39h-860q13 -172 121 -275.5t272 -103.5q106 0 195.5 50t142.5 137l80 -39q-65 -110 -176.5 -173t-243.5 -63q-205 0 -344.5 141.5t-139.5 364.5q0 110 38 204.5t103.5 159t154 100.5t188.5 36
q206 0 337.5 -138t131.5 -362zM197 520h770q-10 169 -115 271t-264 102q-162 0 -269 -100t-122 -273z" />
    <glyph glyph-name="edieresis" unicode="&#xeb;" horiz-adv-x="1155" 
d="M416 1192q-32 0 -55 20.5t-23 51.5q0 32 22.5 52.5t55.5 20.5t56.5 -20.5t23.5 -52.5q0 -30 -23.5 -51t-56.5 -21zM727 1192q-32 0 -55 20.5t-23 51.5q0 32 22.5 52.5t55.5 20.5q34 0 57 -20.5t23 -52.5q0 -31 -23 -51.5t-57 -20.5zM1057 481v-39h-860
q13 -172 121 -275.5t272 -103.5q106 0 195.5 50t142.5 137l80 -39q-65 -110 -176.5 -173t-243.5 -63q-205 0 -344.5 141.5t-139.5 364.5q0 110 38 204.5t103.5 159t154 100.5t188.5 36q206 0 337.5 -138t131.5 -362zM197 520h770q-10 169 -115 271t-264 102
q-162 0 -269 -100t-122 -273z" />
    <glyph glyph-name="igrave" unicode="&#xec;" horiz-adv-x="434" 
d="M258 1110h-88l-213 309h109zM262 0h-90v956h90v-956z" />
    <glyph glyph-name="iacute" unicode="&#xed;" horiz-adv-x="434" 
d="M260 1110h-90l199 309h108zM262 0h-90v956h90v-956z" />
    <glyph glyph-name="icircumflex" unicode="&#xee;" horiz-adv-x="434" 
d="M18 1110h-86l234 309h104l234 -309h-88l-199 236zM262 0h-90v956h90v-956z" />
    <glyph glyph-name="idieresis" unicode="&#xef;" horiz-adv-x="434" 
d="M61 1204q-33 0 -56 21t-23 51q0 32 23 53t56 21t55.5 -21t22.5 -53q0 -31 -23 -51.5t-55 -20.5zM373 1204q-33 0 -56.5 21t-23.5 51q0 32 23.5 53t56.5 21t56.5 -21t23.5 -53q0 -30 -23.5 -51t-56.5 -21zM262 0h-90v956h90v-956z" />
    <glyph glyph-name="eth" unicode="&#xf0;" horiz-adv-x="1210" 
d="M627 1268l360 -459q117 -137 117 -328q0 -148 -68.5 -265t-182 -179t-249.5 -62q-137 0 -250.5 62t-181.5 178.5t-68 265.5q0 148 68 263t181.5 176t250.5 61q76 0 164 -31l-223 283l-260 -105l-27 60l246 98l-150 191h109l123 -156l194 78l27 -60zM604 63q112 0 205 51
t149 147.5t56 219.5q0 182 -119 297t-291 115q-173 0 -291 -115t-118 -297q0 -185 118 -301.5t291 -116.5z" />
    <glyph glyph-name="ntilde" unicode="&#xf1;" horiz-adv-x="1157" 
d="M479 1249q-29 0 -49.5 -27t-21.5 -73h-76q4 84 45 130t102 46q42 0 77.5 -26.5t65 -53t56.5 -26.5q29 0 50 26.5t22 71.5h75q-4 -84 -45 -130t-102 -46q-32 0 -62.5 17t-49.5 37t-42.5 37t-44.5 17zM608 981q172 0 280.5 -114t108.5 -306v-561h-90v557q0 151 -86 242.5
t-219 91.5q-66 0 -124 -20t-106.5 -60.5t-78 -110t-31.5 -161.5v-539h-90v956h90v-196q39 111 136.5 166t209.5 55z" />
    <glyph glyph-name="ograve" unicode="&#xf2;" horiz-adv-x="1208" 
d="M662 1100h-91l-213 311h109zM604 -25q-137 0 -250.5 62t-181.5 178.5t-68 265.5q0 148 68 263t181.5 176t250.5 61q136 0 249.5 -61t182 -176.5t68.5 -262.5q0 -148 -68.5 -265t-182 -179t-249.5 -62zM604 63q112 0 205 51t149 147.5t56 219.5q0 182 -119 297t-291 115
q-173 0 -291 -115t-118 -297q0 -185 118 -301.5t291 -116.5z" />
    <glyph glyph-name="oacute" unicode="&#xf3;" horiz-adv-x="1208" 
d="M649 1100h-90l197 311h108zM604 -25q-137 0 -250.5 62t-181.5 178.5t-68 265.5q0 148 68 263t181.5 176t250.5 61q136 0 249.5 -61t182 -176.5t68.5 -262.5q0 -148 -68.5 -265t-182 -179t-249.5 -62zM604 63q112 0 205 51t149 147.5t56 219.5q0 182 -119 297t-291 115
q-173 0 -291 -115t-118 -297q0 -185 118 -301.5t291 -116.5z" />
    <glyph glyph-name="ocircumflex" unicode="&#xf4;" horiz-adv-x="1208" 
d="M406 1100h-87l234 311h102l234 -311h-86l-199 237zM604 -25q-137 0 -250.5 62t-181.5 178.5t-68 265.5q0 148 68 263t181.5 176t250.5 61q136 0 249.5 -61t182 -176.5t68.5 -262.5q0 -148 -68.5 -265t-182 -179t-249.5 -62zM604 63q112 0 205 51t149 147.5t56 219.5
q0 182 -119 297t-291 115q-173 0 -291 -115t-118 -297q0 -185 118 -301.5t291 -116.5z" />
    <glyph glyph-name="otilde" unicode="&#xf5;" horiz-adv-x="1208" 
d="M434 1149h-78q4 83 45.5 129.5t102.5 46.5q33 0 63 -16.5t48 -36.5t41.5 -36.5t45.5 -16.5q30 0 50.5 26t21.5 72h76q-4 -83 -45.5 -129.5t-102.5 -46.5q-32 0 -62.5 17t-49 37t-42 37t-44.5 17q-29 0 -49 -27t-21 -73zM604 -25q-137 0 -250.5 62t-181.5 178.5t-68 265.5
q0 148 68 263t181.5 176t250.5 61q136 0 249.5 -61t182 -176.5t68.5 -262.5q0 -148 -68.5 -265t-182 -179t-249.5 -62zM604 63q112 0 205 51t149 147.5t56 219.5q0 182 -119 297t-291 115q-173 0 -291 -115t-118 -297q0 -185 118 -301.5t291 -116.5z" />
    <glyph glyph-name="odieresis" unicode="&#xf6;" horiz-adv-x="1208" 
d="M446 1192q-32 0 -54.5 20.5t-22.5 51.5q0 32 22 52.5t55 20.5q34 0 57 -20.5t23 -52.5q0 -31 -23 -51.5t-57 -20.5zM758 1192q-32 0 -55 20.5t-23 51.5q0 32 22.5 52.5t55.5 20.5q34 0 57 -20.5t23 -52.5q0 -31 -23 -51.5t-57 -20.5zM604 -25q-137 0 -250.5 62
t-181.5 178.5t-68 265.5q0 148 68 263t181.5 176t250.5 61q136 0 249.5 -61t182 -176.5t68.5 -262.5q0 -148 -68.5 -265t-182 -179t-249.5 -62zM604 63q112 0 205 51t149 147.5t56 219.5q0 182 -119 297t-291 115q-173 0 -291 -115t-118 -297q0 -185 118 -301.5t291 -116.5z
" />
    <glyph glyph-name="divide" unicode="&#xf7;" horiz-adv-x="1146" 
d="M573 750q-34 0 -56.5 21.5t-22.5 53.5t22.5 53t56.5 21t58 -21t24 -53t-24 -53.5t-58 -21.5zM995 430h-841v88h841v-88zM573 43q-34 0 -56.5 21t-22.5 53q0 33 22.5 54.5t56.5 21.5t58 -21.5t24 -54.5q0 -32 -24 -53t-58 -21z" />
    <glyph glyph-name="oslash" unicode="&#xf8;" horiz-adv-x="1224" 
d="M1061 981l55 -53l-117 -119q113 -136 113 -328q0 -148 -68.5 -265t-182 -179t-249.5 -62q-188 0 -323 113l-117 -117l-57 58l114 116q-116 139 -116 336q0 148 67.5 263t181 176t250.5 61q193 0 332 -117zM203 481q0 -156 92 -272l586 590q-118 94 -269 94
q-173 0 -291 -115t-118 -297zM1022 481q0 153 -88 262l-584 -589q115 -91 262 -91q112 0 205 51t149 147.5t56 219.5z" />
    <glyph glyph-name="ugrave" unicode="&#xf9;" horiz-adv-x="1157" 
d="M442 1411l193 -311h-88l-213 311h108zM893 416v540h90v-956h-90v190q-27 -73 -85.5 -123.5t-123.5 -71t-135 -20.5q-172 0 -281.5 114t-109.5 306v561h90v-559q0 -151 87 -242.5t220 -91.5q65 0 123 20t106.5 60.5t77.5 110.5t31 162z" />
    <glyph glyph-name="uacute" unicode="&#xfa;" horiz-adv-x="1157" 
d="M731 1411h109l-217 -311h-88zM893 416v540h90v-956h-90v190q-27 -73 -85.5 -123.5t-123.5 -71t-135 -20.5q-172 0 -281.5 114t-109.5 306v561h90v-559q0 -151 87 -242.5t220 -91.5q65 0 123 20t106.5 60.5t77.5 110.5t31 162z" />
    <glyph glyph-name="ucircumflex" unicode="&#xfb;" horiz-adv-x="1157" 
d="M778 1100l-198 237l-199 -237h-88l233 311h105l233 -311h-86zM893 416v540h90v-956h-90v190q-27 -73 -85.5 -123.5t-123.5 -71t-135 -20.5q-172 0 -281.5 114t-109.5 306v561h90v-559q0 -151 87 -242.5t220 -91.5q65 0 123 20t106.5 60.5t77.5 110.5t31 162z" />
    <glyph glyph-name="udieresis" unicode="&#xfc;" horiz-adv-x="1157" 
d="M422 1192q-32 0 -55 20.5t-23 51.5q0 32 22.5 52.5t55.5 20.5q34 0 57 -20.5t23 -52.5q0 -31 -23 -51.5t-57 -20.5zM733 1192q-32 0 -55 20.5t-23 51.5q0 32 22.5 52.5t55.5 20.5q34 0 57 -20.5t23 -52.5q0 -31 -23 -51.5t-57 -20.5zM893 416v540h90v-956h-90v190
q-27 -73 -85.5 -123.5t-123.5 -71t-135 -20.5q-172 0 -281.5 114t-109.5 306v561h90v-559q0 -151 87 -242.5t220 -91.5q65 0 123 20t106.5 60.5t77.5 110.5t31 162z" />
    <glyph glyph-name="yacute" unicode="&#xfd;" horiz-adv-x="1013" 
d="M662 1411h110l-217 -311h-90zM508 113l360 843h99l-605 -1419h-96l193 461l-404 958h99z" />
    <glyph glyph-name="thorn" unicode="&#xfe;" horiz-adv-x="1273" 
d="M678 981q133 0 246 -66t179 -181.5t66 -254.5q0 -211 -144 -357.5t-347 -146.5q-132 0 -244.5 66.5t-171.5 175.5v-680h-90v1940h90v-738q60 109 171.5 175.5t244.5 66.5zM674 63q167 0 286 122t119 294t-119 293t-286 121q-169 0 -290.5 -119.5t-121.5 -302.5
q0 -174 121 -291t291 -117z" />
    <glyph glyph-name="ydieresis" unicode="&#xff;" horiz-adv-x="1013" 
d="M352 1192q-32 0 -55 20.5t-23 51.5q0 32 22.5 52.5t55.5 20.5q34 0 57 -20.5t23 -52.5q0 -31 -23 -51.5t-57 -20.5zM664 1192q-32 0 -55 20.5t-23 51.5q0 32 22.5 52.5t55.5 20.5q34 0 56.5 -20.5t22.5 -52.5q0 -31 -22.5 -51.5t-56.5 -20.5zM508 113l360 843h99
l-605 -1419h-96l193 461l-404 958h99z" />
    <glyph glyph-name="Amacron" unicode="&#x100;" 
d="M371 1733h479v-80h-479v80zM1196 0h-96l-146 385h-688l-147 -385h-99l541 1411h98zM610 1288l-313 -821h625z" />
    <glyph glyph-name="amacron" unicode="&#x101;" horiz-adv-x="1271" 
d="M397 1278h477v-80h-477v80zM1010 739v217h90v-956h-90v223q-60 -112 -171 -180t-245 -68q-132 0 -245.5 67t-180 183t-66.5 254q0 136 66 251.5t179.5 183t248.5 67.5q131 0 243 -66.5t171 -175.5zM600 63q110 0 204 53t150 147t56 208q0 181 -121.5 301.5t-290.5 120.5
q-167 0 -286 -122.5t-119 -291.5q0 -171 119.5 -293.5t287.5 -122.5z" />
    <glyph glyph-name="Abreve" unicode="&#x102;" 
d="M608 1589q-118 0 -175.5 69t-57.5 177h82q0 -78 36.5 -124t114.5 -46q71 0 112.5 45.5t41.5 124.5h82q0 -115 -64.5 -180.5t-171.5 -65.5zM1196 0h-96l-146 385h-688l-147 -385h-99l541 1411h98zM610 1288l-313 -821h625z" />
    <glyph glyph-name="abreve" unicode="&#x103;" horiz-adv-x="1271" 
d="M633 1135q-116 0 -174 68.5t-58 176.5h80q0 -77 38 -123.5t114 -46.5q72 0 112.5 45t40.5 125h82q0 -115 -64 -180t-171 -65zM1010 739v217h90v-956h-90v223q-60 -112 -171 -180t-245 -68q-132 0 -245.5 67t-180 183t-66.5 254q0 136 66 251.5t179.5 183t248.5 67.5
q131 0 243 -66.5t171 -175.5zM600 63q110 0 204 53t150 147t56 208q0 181 -121.5 301.5t-290.5 120.5q-167 0 -286 -122.5t-119 -291.5q0 -171 119.5 -293.5t287.5 -122.5z" />
    <glyph glyph-name="Aogonek" unicode="&#x104;" 
d="M1309 -199h75q0 -92 -51.5 -148t-136.5 -56t-137.5 50.5t-52.5 133.5q0 35 18 80l68 159l-140 365h-686l-147 -385h-99l541 1411h98l537 -1411h-37l-65 -168q-13 -26 -13 -49q0 -50 31.5 -80.5t83.5 -30.5q49 0 78.5 34.5t34.5 94.5zM610 1286l-313 -819h625z" />
    <glyph glyph-name="aogonek" unicode="&#x105;" horiz-adv-x="1271" 
d="M1227 -199h76q0 -92 -52 -148t-137 -56t-137.5 50.5t-52.5 133.5q0 35 18 80l68 157v205q-60 -112 -171 -180t-245 -68q-132 0 -245.5 67t-180 183t-66.5 254q0 136 66 251.5t179.5 183t248.5 67.5q131 0 243 -66.5t171 -175.5v217h90v-956h-23l-65 -168q-13 -26 -13 -49
q0 -50 31.5 -80.5t83.5 -30.5q49 0 78.5 34.5t34.5 94.5zM600 63q110 0 204 53t150 147t56 208q0 181 -121.5 301.5t-290.5 120.5q-167 0 -286 -122.5t-119 -291.5q0 -171 119.5 -293.5t287.5 -122.5z" />
    <glyph glyph-name="Cacute" unicode="&#x106;" horiz-adv-x="1366" 
d="M723 1554h-88l196 312h109zM813 -25q-144 0 -273.5 58t-222.5 155.5t-147.5 232t-54.5 281.5q0 198 92 366.5t253 268t353 99.5q137 0 260 -51t217 -142l-63 -61q-82 77 -189 121.5t-225 44.5q-166 0 -306 -88t-220 -236.5t-80 -321.5q0 -172 80 -319t219.5 -233.5
t306.5 -86.5q238 0 412 164l63 -61q-92 -91 -215 -141t-260 -50z" />
    <glyph glyph-name="cacute" unicode="&#x107;" horiz-adv-x="1013" 
d="M559 1100h-88l197 311h108zM606 -25q-137 0 -251 62.5t-182.5 179t-68.5 264.5q0 147 68.5 262t182.5 176.5t251 61.5q183 0 324 -115l-56 -65q-117 92 -268 92q-174 0 -292.5 -115t-118.5 -297q0 -184 118.5 -301t292.5 -117q151 0 268 93l58 -66q-141 -115 -326 -115z
" />
    <glyph glyph-name="Cdotaccent" unicode="&#x10a;" horiz-adv-x="1366" 
d="M776 1628q-33 0 -56.5 21t-23.5 51q0 32 23.5 53t56.5 21q34 0 57 -21t23 -53q0 -31 -23 -51.5t-57 -20.5zM813 -25q-144 0 -273.5 58t-222.5 155.5t-147.5 232t-54.5 281.5q0 198 92 366.5t253 268t353 99.5q137 0 260 -51t217 -142l-63 -61q-82 77 -189 121.5
t-225 44.5q-166 0 -306 -88t-220 -236.5t-80 -321.5q0 -172 80 -319t219.5 -233.5t306.5 -86.5q238 0 412 164l63 -61q-92 -91 -215 -141t-260 -50z" />
    <glyph glyph-name="cdotaccent" unicode="&#x10b;" horiz-adv-x="1013" 
d="M563 1174q-33 0 -55.5 20.5t-22.5 50.5q0 32 22.5 53t55.5 21q34 0 58 -21t24 -53q0 -30 -24 -50.5t-58 -20.5zM606 -25q-137 0 -251 62.5t-182.5 179t-68.5 264.5q0 147 68.5 262t182.5 176.5t251 61.5q183 0 324 -115l-56 -65q-117 92 -268 92q-174 0 -292.5 -115
t-118.5 -297q0 -184 118.5 -301t292.5 -117q151 0 268 93l58 -66q-141 -115 -326 -115z" />
    <glyph glyph-name="Ccaron" unicode="&#x10c;" horiz-adv-x="1366" 
d="M821 1554h-104l-234 312h88l199 -236l199 236h86zM813 -25q-144 0 -273.5 58t-222.5 155.5t-147.5 232t-54.5 281.5q0 198 92 366.5t253 268t353 99.5q137 0 260 -51t217 -142l-63 -61q-82 77 -189 121.5t-225 44.5q-166 0 -306 -88t-220 -236.5t-80 -321.5
q0 -172 80 -319t219.5 -233.5t306.5 -86.5q238 0 412 164l63 -61q-92 -91 -215 -141t-260 -50z" />
    <glyph glyph-name="ccaron" unicode="&#x10d;" horiz-adv-x="1013" 
d="M618 1100h-104l-233 311h86l198 -235l199 235h88zM606 -25q-137 0 -251 62.5t-182.5 179t-68.5 264.5q0 147 68.5 262t182.5 176.5t251 61.5q183 0 324 -115l-56 -65q-117 92 -268 92q-174 0 -292.5 -115t-118.5 -297q0 -184 118.5 -301t292.5 -117q151 0 268 93l58 -66
q-141 -115 -326 -115z" />
    <glyph glyph-name="Dcaron" unicode="&#x10e;" horiz-adv-x="1488" 
d="M950 1866l-233 -312h-105l-233 312h86l199 -236l200 236h86zM217 1411h528q145 0 263.5 -54.5t196.5 -150t120.5 -224.5t42.5 -280q0 -201 -72.5 -359t-215 -250.5t-335.5 -92.5h-528v1411zM309 88h436q167 0 288.5 81.5t182 219t60.5 313.5q0 177 -60.5 316t-182.5 222
t-288 83h-436v-1235z" />
    <glyph glyph-name="dcaron" unicode="&#x10f;" horiz-adv-x="1314" 
d="M1010 741v736h90v-1477h-90v213q-59 -107 -171.5 -172.5t-242.5 -65.5q-205 0 -349.5 146.5t-144.5 357.5q0 139 66.5 254.5t180 181.5t247.5 66q131 0 242 -65.5t172 -174.5zM1303 1436h90q1 -111 -25 -184.5t-82 -151.5l-67 16q99 154 84 320zM600 63q111 0 204.5 52
t149.5 146.5t56 209.5q0 183 -121 302.5t-289 119.5t-287.5 -121.5t-119.5 -292.5q0 -172 120 -294t287 -122z" />
    <glyph glyph-name="Dcroat" unicode="&#x110;" horiz-adv-x="1499" 
d="M229 1411h527q146 0 264.5 -54.5t196 -150t119.5 -224.5t42 -280q0 -201 -71.5 -358.5t-214 -250.5t-336.5 -93h-527v659h-166v76h166v676zM322 88h434q167 0 288.5 81.5t181.5 219t60 313.5q0 177 -60 316t-182 222t-288 83h-434v-588h430v-76h-430v-571z" />
    <glyph glyph-name="dcroat" unicode="&#x111;" horiz-adv-x="1273" 
d="M1100 1268h184v-70h-184v-1198h-90v213q-59 -107 -171.5 -172.5t-242.5 -65.5q-205 0 -349.5 146.5t-144.5 357.5q0 139 66.5 254.5t180 181.5t247.5 66q131 0 242 -65.5t172 -174.5v457h-334v70h334v209h90v-209zM600 63q111 0 204.5 52t149.5 146.5t56 209.5
q0 183 -121 302.5t-289 119.5t-287.5 -121.5t-119.5 -292.5q0 -172 120 -294t287 -122z" />
    <glyph glyph-name="Emacron" unicode="&#x112;" horiz-adv-x="1132" 
d="M334 1733h477v-80h-477v80zM309 647v-559h715v-88h-807v1411h782v-88h-690v-586h604v-90h-604z" />
    <glyph glyph-name="emacron" unicode="&#x113;" horiz-adv-x="1155" 
d="M334 1278h479v-80h-479v80zM1057 481v-39h-860q13 -172 121 -275.5t272 -103.5q106 0 195.5 50t142.5 137l80 -39q-65 -110 -176.5 -173t-243.5 -63q-205 0 -344.5 141.5t-139.5 364.5q0 110 38 204.5t103.5 159t154 100.5t188.5 36q206 0 337.5 -138t131.5 -362z
M197 520h770q-10 169 -115 271t-264 102q-162 0 -269 -100t-122 -273z" />
    <glyph glyph-name="Edotaccent" unicode="&#x116;" horiz-adv-x="1132" 
d="M571 1628q-33 0 -56 21t-23 51q0 32 23 53t56 21q34 0 57 -21t23 -53q0 -31 -23 -51.5t-57 -20.5zM309 647v-559h715v-88h-807v1411h782v-88h-690v-586h604v-90h-604z" />
    <glyph glyph-name="edotaccent" unicode="&#x117;" horiz-adv-x="1155" 
d="M571 1174q-33 0 -55 20t-22 51q0 32 22 53t55 21q34 0 57 -21t23 -53q0 -31 -23 -51t-57 -20zM1057 481v-39h-860q13 -172 121 -275.5t272 -103.5q106 0 195.5 50t142.5 137l80 -39q-65 -110 -176.5 -173t-243.5 -63q-205 0 -344.5 141.5t-139.5 364.5q0 110 38 204.5
t103.5 159t154 100.5t188.5 36q206 0 337.5 -138t131.5 -362zM197 520h770q-10 169 -115 271t-264 102q-162 0 -269 -100t-122 -273z" />
    <glyph glyph-name="Eogonek" unicode="&#x118;" horiz-adv-x="1132" 
d="M1024 0h-227l-68 -168q-8 -16 -8 -49q0 -50 31.5 -80.5t83.5 -30.5q47 0 77.5 34.5t34.5 94.5h76q0 -92 -51.5 -148t-136.5 -56t-138 50.5t-53 133.5q0 33 19 80l57 139h-504v1411h782v-88h-690v-586h604v-90h-604v-559h715v-88z" />
    <glyph glyph-name="eogonek" unicode="&#x119;" horiz-adv-x="1155" 
d="M1057 481v-39h-860q13 -172 121 -275.5t272 -103.5q106 0 195.5 50t142.5 137l80 -39q-86 -148 -252 -207l-70 -172q-8 -16 -8 -49q0 -50 31.5 -80.5t83.5 -30.5q47 0 77.5 34.5t34.5 94.5h76q0 -92 -51.5 -148t-136.5 -56t-138 50.5t-53 133.5q0 33 19 80l49 121
q-47 -7 -82 -7q-205 0 -344.5 141.5t-139.5 364.5q0 110 38 204.5t103.5 159t154 100.5t188.5 36q206 0 337.5 -138t131.5 -362zM197 520h770q-10 169 -115 271t-264 102q-162 0 -269 -100t-122 -273z" />
    <glyph glyph-name="Ecaron" unicode="&#x11a;" horiz-adv-x="1132" 
d="M858 1866l-233 -312h-105l-233 312h86l198 -236l199 236h88zM309 647v-559h715v-88h-807v1411h782v-88h-690v-586h604v-90h-604z" />
    <glyph glyph-name="ecaron" unicode="&#x11b;" horiz-adv-x="1155" 
d="M858 1411l-233 -311h-105l-233 311h88l198 -235l199 235h86zM1057 481v-39h-860q13 -172 121 -275.5t272 -103.5q106 0 195.5 50t142.5 137l80 -39q-65 -110 -176.5 -173t-243.5 -63q-205 0 -344.5 141.5t-139.5 364.5q0 110 38 204.5t103.5 159t154 100.5t188.5 36
q206 0 337.5 -138t131.5 -362zM197 520h770q-10 169 -115 271t-264 102q-162 0 -269 -100t-122 -273z" />
    <glyph glyph-name="Gbreve" unicode="&#x11e;" horiz-adv-x="1560" 
d="M778 1589q-116 0 -174.5 69.5t-58.5 176.5h82q0 -78 36.5 -124t114.5 -46q72 0 113 45.5t41 124.5h82q0 -115 -64.5 -180.5t-171.5 -65.5zM823 -25q-147 0 -278.5 57.5t-225.5 155t-149 232t-55 282.5q0 198 93 366.5t256 268t359 99.5q242 0 430 -148l-59 -67
q-163 127 -371 127q-128 0 -242.5 -52t-196 -139.5t-129.5 -206.5t-48 -248q0 -173 80.5 -319.5t222.5 -233t313 -86.5q238 0 389 137t168 380h-438v86h537q-3 -170 -53.5 -303t-138.5 -217.5t-205.5 -127.5t-258.5 -43z" />
    <glyph glyph-name="gbreve" unicode="&#x11f;" horiz-adv-x="1273" 
d="M635 1135q-118 0 -176 68.5t-58 176.5h80q0 -78 38 -124t116 -46q71 0 112 45.5t41 124.5h82q0 -115 -64 -180t-171 -65zM1010 743v213h90v-827q0 -139 -24.5 -245.5t-68 -176t-109 -113.5t-141.5 -62.5t-171 -18.5q-121 0 -226.5 54.5t-175.5 160.5l76 45
q58 -85 144 -128.5t182 -43.5q99 0 173.5 25.5t132.5 83.5t88 162.5t30 252.5v86q-59 -106 -171.5 -171t-242.5 -65q-205 0 -349.5 146.5t-144.5 357.5q0 139 66.5 254.5t180 181.5t247.5 66q131 0 242 -65t172 -173zM600 63q111 0 204.5 52t149.5 146.5t56 209.5
q0 183 -121 302.5t-289 119.5t-287.5 -121.5t-119.5 -292.5q0 -172 120 -294t287 -122z" />
    <glyph glyph-name="Gdotaccent" unicode="&#x120;" horiz-adv-x="1560" 
d="M778 1628q-32 0 -55 20.5t-23 51.5q0 32 22.5 53t55.5 21q34 0 58 -21t24 -53q0 -30 -24 -51t-58 -21zM823 -25q-147 0 -278.5 57.5t-225.5 155t-149 232t-55 282.5q0 198 93 366.5t256 268t359 99.5q242 0 430 -148l-59 -67q-163 127 -371 127q-128 0 -242.5 -52
t-196 -139.5t-129.5 -206.5t-48 -248q0 -173 80.5 -319.5t222.5 -233t313 -86.5q238 0 389 137t168 380h-438v86h537q-3 -170 -53.5 -303t-138.5 -217.5t-205.5 -127.5t-258.5 -43z" />
    <glyph glyph-name="gdotaccent" unicode="&#x121;" horiz-adv-x="1273" 
d="M635 1174q-33 0 -56.5 20.5t-23.5 50.5q0 32 23.5 53t56.5 21q34 0 57 -21t23 -53q0 -31 -23 -51t-57 -20zM1010 743v213h90v-827q0 -139 -24.5 -245.5t-68 -176t-109 -113.5t-141.5 -62.5t-171 -18.5q-121 0 -226.5 54.5t-175.5 160.5l76 45q58 -85 144 -128.5
t182 -43.5q99 0 173.5 25.5t132.5 83.5t88 162.5t30 252.5v86q-59 -106 -171.5 -171t-242.5 -65q-205 0 -349.5 146.5t-144.5 357.5q0 139 66.5 254.5t180 181.5t247.5 66q131 0 242 -65t172 -173zM600 63q111 0 204.5 52t149.5 146.5t56 209.5q0 183 -121 302.5t-289 119.5
t-287.5 -121.5t-119.5 -292.5q0 -172 120 -294t287 -122z" />
    <glyph glyph-name="uni0122" unicode="&#x122;" horiz-adv-x="1560" 
d="M823 -25q-147 0 -278.5 57.5t-225.5 155t-149 232t-55 282.5q0 198 93 366.5t256 268t359 99.5q242 0 430 -148l-59 -67q-163 127 -371 127q-128 0 -242.5 -52t-196 -139.5t-129.5 -206.5t-48 -248q0 -173 80.5 -319.5t222.5 -233t313 -86.5q238 0 389 137t168 380h-438
v86h537q-3 -170 -53.5 -303t-138.5 -217.5t-205.5 -127.5t-258.5 -43zM674 -449l-56 27q121 130 115 344h96q0 -106 -44.5 -212t-110.5 -159z" />
    <glyph glyph-name="uni0123" unicode="&#x123;" horiz-adv-x="1273" 
d="M719 1481l55 -27q-120 -132 -117 -344h-94q0 106 44.5 212.5t111.5 158.5zM1010 743v213h90v-827q0 -139 -24.5 -245.5t-68 -176t-109 -113.5t-141.5 -62.5t-171 -18.5q-121 0 -226.5 54.5t-175.5 160.5l76 45q58 -85 144 -128.5t182 -43.5q99 0 173.5 25.5t132.5 83.5
t88 162.5t30 252.5v86q-59 -106 -171.5 -171t-242.5 -65q-205 0 -349.5 146.5t-144.5 357.5q0 139 66.5 254.5t180 181.5t247.5 66q131 0 242 -65t172 -173zM600 63q111 0 204.5 52t149.5 146.5t56 209.5q0 183 -121 302.5t-289 119.5t-287.5 -121.5t-119.5 -292.5
q0 -172 120 -294t287 -122z" />
    <glyph glyph-name="Hbar" unicode="&#x126;" horiz-adv-x="1478" 
d="M1255 1137h152v-72h-152v-1065h-92v659h-850v-659h-92v1065h-135v72h135v274h92v-274h850v274h92v-274zM313 743h850v322h-850v-322z" />
    <glyph glyph-name="hbar" unicode="&#x127;" horiz-adv-x="1157" 
d="M608 981q172 0 280.5 -114t108.5 -306v-561h-90v557q0 151 -86 242.5t-219 91.5q-66 0 -124 -20t-106.5 -60.5t-78 -110t-31.5 -161.5v-539h-90v1198h-125v70h125v209h90v-209h400v-70h-400v-438q39 111 136.5 166t209.5 55z" />
    <glyph glyph-name="Itilde" unicode="&#x128;" horiz-adv-x="528" 
d="M94 1604h-78q4 83 45.5 129.5t102.5 46.5q42 0 77.5 -27t64.5 -53.5t56 -26.5q29 0 50 26.5t22 72.5h76q-4 -84 -45.5 -130.5t-102.5 -46.5q-32 0 -62.5 17t-49 37.5t-42 37.5t-44.5 17q-29 0 -49 -27t-21 -73zM309 0h-92v1411h92v-1411z" />
    <glyph glyph-name="itilde" unicode="&#x129;" horiz-adv-x="434" 
d="M47 1149h-78q4 83 45.5 129.5t102.5 46.5q33 0 63.5 -16.5t49 -36.5t41.5 -36.5t44 -16.5q30 0 50.5 26t21.5 72h76q-3 -83 -45 -129.5t-103 -46.5q-32 0 -62.5 17t-49 37t-42 37t-44.5 17q-29 0 -49 -27t-21 -73zM262 0h-90v956h90v-956z" />
    <glyph glyph-name="Imacron" unicode="&#x12a;" horiz-adv-x="528" 
d="M504 1653h-479v80h479v-80zM309 0h-92v1411h92v-1411z" />
    <glyph glyph-name="imacron" unicode="&#x12b;" horiz-adv-x="434" 
d="M457 1198h-480v80h480v-80zM262 0h-90v956h90v-956z" />
    <glyph glyph-name="Iogonek" unicode="&#x12e;" horiz-adv-x="528" 
d="M434 -199h76q0 -92 -52.5 -148t-138.5 -56q-85 0 -137.5 50.5t-52.5 133.5q0 28 21 80l67 164v1386h92v-1411h-22l-70 -168q-10 -27 -10 -49q0 -50 30.5 -80.5t81.5 -30.5q49 0 79.5 34.5t35.5 94.5z" />
    <glyph glyph-name="iogonek" unicode="&#x12f;" horiz-adv-x="436" 
d="M217 1237q-32 0 -55 20.5t-23 51.5q0 32 22.5 52.5t55.5 20.5q34 0 58 -20.5t24 -52.5q0 -30 -24 -51t-58 -21zM272 -403q-85 0 -137.5 50.5t-52.5 133.5q0 35 18 80l72 172v923h90v-956h-26l-66 -168q-10 -20 -10 -49q0 -50 30 -80.5t82 -30.5q49 0 78.5 34.5t34.5 94.5
h76q0 -92 -52 -148t-137 -56z" />
    <glyph glyph-name="Idotaccent" unicode="&#x130;" horiz-adv-x="528" 
d="M262 1628q-32 0 -55 20.5t-23 51.5q0 32 22.5 53t55.5 21q34 0 57 -21t23 -53q0 -31 -23 -51.5t-57 -20.5zM309 0h-92v1411h92v-1411z" />
    <glyph glyph-name="dotlessi" unicode="&#x131;" horiz-adv-x="434" 
d="M262 0h-90v956h90v-956z" />
    <glyph glyph-name="IJ" unicode="&#x132;" horiz-adv-x="1073" 
d="M309 0h-92v1411h92v-1411zM444 -477q-44 0 -106 10l12 88q62 -8 94 -8q85 0 147.5 27t99 76t54 110.5t17.5 136.5v1448h92v-1448q0 -93 -22.5 -170.5t-69.5 -139t-128 -96t-190 -34.5z" />
    <glyph glyph-name="ij" unicode="&#x133;" horiz-adv-x="886" 
d="M217 1237q-32 0 -55 20.5t-23 51.5q0 32 22.5 52.5t55.5 20.5q34 0 57 -20.5t23 -52.5q0 -31 -23 -51.5t-57 -20.5zM670 1237q-33 0 -56.5 21t-23.5 51q0 32 23.5 52.5t56.5 20.5q34 0 57 -20.5t23 -52.5q0 -31 -23 -51.5t-57 -20.5zM262 0h-90v956h90v-956zM389 -463
h-82v86h78q240 0 240 318v1015h90v-1015q0 -404 -326 -404z" />
    <glyph glyph-name="Jcircumflex" unicode="&#x134;" horiz-adv-x="544" 
d="M82 1554h-86l231 312h105l233 -312h-86l-198 238zM-84 -477q-44 0 -106 10l12 88q62 -8 94 -8q85 0 147.5 27t99 76t53.5 110.5t17 136.5v1448h93v-1448q0 -93 -22.5 -170.5t-69.5 -139t-128 -96t-190 -34.5z" />
    <glyph glyph-name="jcircumflex" unicode="&#x135;" horiz-adv-x="450" 
d="M35 1110h-86l233 309h105l231 -309h-86l-199 236zM188 -59v1015h91v-1015q0 -404 -324 -404h-84v86h80q237 0 237 318z" />
    <glyph glyph-name="uni0136" unicode="&#x136;" horiz-adv-x="1079" 
d="M999 1411l-604 -737l701 -674h-129l-658 631v-631h-92v1411h92v-702l574 702h116zM444 -449l-55 27q123 132 117 344h94q0 -106 -44.5 -212.5t-111.5 -158.5z" />
    <glyph glyph-name="uni0137" unicode="&#x137;" horiz-adv-x="897" 
d="M772 956l-412 -417l549 -539h-127l-520 508v-508h-90v1477h90v-912l383 391h127zM414 -78h94q1 -105 -43.5 -211.5t-110.5 -159.5l-57 27q123 132 117 344z" />
    <glyph glyph-name="kgreenlandic" unicode="&#x138;" horiz-adv-x="872" 
d="M350 457l518 -457h-133l-473 412v-412h-90v956h90v-464l432 464h117z" />
    <glyph glyph-name="Lacute" unicode="&#x139;" horiz-adv-x="980" 
d="M420 1866h110l-217 -312h-90zM309 1411v-1323h621v-88h-713v1411h92z" />
    <glyph glyph-name="lacute" unicode="&#x13a;" horiz-adv-x="434" 
d="M262 1554h-88l197 312h108zM262 0h-90v1477h90v-1477z" />
    <glyph glyph-name="uni013B" unicode="&#x13b;" horiz-adv-x="980" 
d="M309 1411v-1323h621v-88h-713v1411h92zM393 -449l-55 27q121 130 115 344h96q0 -105 -45 -211.5t-111 -159.5z" />
    <glyph glyph-name="uni013C" unicode="&#x13c;" horiz-adv-x="434" 
d="M262 0h-90v1477h90v-1477zM111 -449l-56 27q120 129 117 344h94q0 -107 -44 -213t-111 -158z" />
    <glyph glyph-name="Lcaron" unicode="&#x13d;" horiz-adv-x="987" 
d="M930 0h-713v1411h92v-1323h621v-88zM651 1075l-69 17q99 154 84 319h92q0 -110 -26 -183t-81 -153z" />
    <glyph glyph-name="lcaron" unicode="&#x13e;" horiz-adv-x="475" 
d="M262 0h-90v1477h90v-1477zM449 1100l-68 16q99 154 84 320h90q1 -110 -25 -183t-81 -153z" />
    <glyph glyph-name="Lslash" unicode="&#x141;" horiz-adv-x="1009" 
d="M340 610v-522h618v-88h-710v553l-160 -100v84l160 100v774h92v-717l227 142v-82z" />
    <glyph glyph-name="lslash" unicode="&#x142;" horiz-adv-x="585" 
d="M315 758l215 135v-84l-215 -135v-674h-90v618l-139 -88v82l139 88v777h90v-719z" />
    <glyph glyph-name="Nacute" unicode="&#x143;" horiz-adv-x="1417" 
d="M862 1866h109l-217 -312h-90zM1106 150v1261h92v-1411h-102l-787 1260v-1260h-92v1411h105z" />
    <glyph glyph-name="nacute" unicode="&#x144;" horiz-adv-x="1157" 
d="M731 1411h109l-217 -311h-88zM608 981q172 0 280.5 -114t108.5 -306v-561h-90v557q0 151 -86 242.5t-219 91.5q-66 0 -124 -20t-106.5 -60.5t-78 -110t-31.5 -161.5v-539h-90v956h90v-196q39 111 136.5 166t209.5 55z" />
    <glyph glyph-name="uni0145" unicode="&#x145;" horiz-adv-x="1417" 
d="M1106 150v1261h92v-1411h-102l-787 1260v-1260h-92v1411h105zM602 -449l-55 27q123 132 117 344h94q0 -106 -44.5 -212.5t-111.5 -158.5z" />
    <glyph glyph-name="uni0146" unicode="&#x146;" horiz-adv-x="1157" 
d="M608 981q172 0 280.5 -114t108.5 -306v-561h-90v557q0 151 -86 242.5t-219 91.5q-66 0 -124 -20t-106.5 -60.5t-78 -110t-31.5 -161.5v-539h-90v956h90v-196q39 111 136.5 166t209.5 55zM473 -449l-55 27q120 129 114 344h97q0 -105 -45 -211.5t-111 -159.5z" />
    <glyph glyph-name="Ncaron" unicode="&#x147;" horiz-adv-x="1417" 
d="M993 1866l-231 -312h-105l-233 312h86l199 -236l198 236h86zM1106 150v1261h92v-1411h-102l-787 1260v-1260h-92v1411h105z" />
    <glyph glyph-name="ncaron" unicode="&#x148;" horiz-adv-x="1157" 
d="M864 1411l-233 -311h-105l-233 311h88l199 -235l198 235h86zM608 981q172 0 280.5 -114t108.5 -306v-561h-90v557q0 151 -86 242.5t-219 91.5q-66 0 -124 -20t-106.5 -60.5t-78 -110t-31.5 -161.5v-539h-90v956h90v-196q39 111 136.5 166t209.5 55z" />
    <glyph glyph-name="napostrophe" unicode="&#x149;" horiz-adv-x="1234" 
d="M127 1075l-70 17q102 158 84 319h92q0 -111 -26 -184t-80 -152zM686 981q172 0 281.5 -114t109.5 -306v-561h-90v557q0 151 -86.5 242.5t-218.5 91.5q-66 0 -124.5 -20t-107 -60.5t-77.5 -110t-31 -161.5v-539h-90v956h90v-190q27 73 85.5 123.5t123.5 71t135 20.5z" />
    <glyph glyph-name="Eng" unicode="&#x14a;" horiz-adv-x="1417" 
d="M1106 150v1261h92v-1434q0 -75 -13.5 -139t-45 -120t-78 -96t-116.5 -62.5t-157 -22.5q-48 0 -106 10l12 88q62 -8 94 -8q84 0 146.5 27t99.5 76t54.5 110.5t17.5 136.5l-12 25l-785 1260v-1262h-92v1411h105z" />
    <glyph glyph-name="eng" unicode="&#x14b;" horiz-adv-x="1157" 
d="M608 981q172 0 280.5 -114t108.5 -306v-620q0 -404 -323 -404h-84v86h80q237 0 237 318v616q0 151 -86 242.5t-219 91.5q-66 0 -124 -20t-106.5 -60.5t-78 -110t-31.5 -161.5v-539h-90v956h90v-192q26 74 84.5 124.5t124.5 71.5t137 21z" />
    <glyph glyph-name="Omacron" unicode="&#x14c;" horiz-adv-x="1648" 
d="M1065 1653h-479v80h479v-80zM823 -25q-195 0 -358 98t-256.5 265t-93.5 364q0 198 93.5 366.5t256.5 268t358 99.5q147 0 280 -58.5t227.5 -157.5t150 -234.5t55.5 -283.5q0 -197 -94 -364t-258 -265t-361 -98zM823 63q128 0 243.5 51t198 137.5t131 204t48.5 246.5
q0 173 -82 321.5t-225.5 236.5t-313.5 88q-169 0 -311.5 -88t-223.5 -236.5t-81 -321.5q0 -129 48 -246.5t130 -204t196.5 -137.5t241.5 -51z" />
    <glyph glyph-name="omacron" unicode="&#x14d;" horiz-adv-x="1208" 
d="M844 1198h-479v80h479v-80zM604 -25q-137 0 -250.5 62t-181.5 178.5t-68 265.5q0 148 68 263t181.5 176t250.5 61q136 0 249.5 -61t182 -176.5t68.5 -262.5q0 -148 -68.5 -265t-182 -179t-249.5 -62zM604 63q112 0 205 51t149 147.5t56 219.5q0 182 -119 297t-291 115
q-173 0 -291 -115t-118 -297q0 -185 118 -301.5t291 -116.5z" />
    <glyph glyph-name="Ohungarumlaut" unicode="&#x150;" horiz-adv-x="1648" 
d="M754 1554h-84l186 312h98zM991 1554h-84l193 312h98zM823 -25q-195 0 -358 98t-256.5 265t-93.5 364q0 198 93.5 366.5t256.5 268t358 99.5q147 0 280 -58.5t227.5 -157.5t150 -234.5t55.5 -283.5q0 -197 -94 -364t-258 -265t-361 -98zM823 63q128 0 243.5 51t198 137.5
t131 204t48.5 246.5q0 173 -82 321.5t-225.5 236.5t-313.5 88q-169 0 -311.5 -88t-223.5 -236.5t-81 -321.5q0 -129 48 -246.5t130 -204t196.5 -137.5t241.5 -51z" />
    <glyph glyph-name="ohungarumlaut" unicode="&#x151;" horiz-adv-x="1208" 
d="M532 1100h-83l186 311h98zM770 1100h-84l193 311h98zM604 -25q-137 0 -250.5 62t-181.5 178.5t-68 265.5q0 148 68 263t181.5 176t250.5 61q136 0 249.5 -61t182 -176.5t68.5 -262.5q0 -148 -68.5 -265t-182 -179t-249.5 -62zM604 63q112 0 205 51t149 147.5t56 219.5
q0 182 -119 297t-291 115q-173 0 -291 -115t-118 -297q0 -185 118 -301.5t291 -116.5z" />
    <glyph glyph-name="OE" unicode="&#x152;" horiz-adv-x="2359" 
d="M1536 647v-559h715v-88h-807v356q-88 -173 -254 -277t-367 -104q-195 0 -358 98t-256.5 265t-93.5 364q0 198 93.5 366.5t256.5 268t358 99.5q200 0 366.5 -105.5t254.5 -279.5v360h782v-88h-690v-586h604v-90h-604zM823 63q128 0 243.5 51t198 137.5t131 204t48.5 246.5
q0 173 -82 321.5t-225.5 236.5t-313.5 88q-169 0 -311.5 -88t-223.5 -236.5t-81 -321.5q0 -129 48 -246.5t130 -204t196.5 -137.5t241.5 -51z" />
    <glyph glyph-name="oe" unicode="&#x153;" horiz-adv-x="2064" 
d="M1966 481v-39h-860q12 -172 120 -275.5t273 -103.5q106 0 195.5 50t142.5 137l80 -39q-65 -110 -176.5 -173t-243.5 -63q-147 0 -265 77t-175 210q-58 -133 -180 -210t-273 -77q-137 0 -250.5 62t-181.5 178.5t-68 265.5q0 148 68 263t181.5 176t250.5 61
q151 0 273 -75.5t180 -207.5q57 132 174.5 207.5t265.5 75.5q205 0 337 -138.5t132 -361.5zM604 63q112 0 205 51t149 147.5t56 219.5q0 183 -119 297.5t-291 114.5q-173 0 -291 -114.5t-118 -297.5q0 -185 118 -301.5t291 -116.5zM1106 520h770q-10 169 -115 271t-264 102
q-161 0 -266.5 -99.5t-124.5 -273.5z" />
    <glyph glyph-name="Racute" unicode="&#x154;" horiz-adv-x="1249" 
d="M780 1866h109l-217 -312h-90zM737 569h-32l401 -569h-113l-401 569h-283v-569h-92v1411h520q103 0 181 -35.5t123 -96.5t67 -134t22 -156q0 -82 -22.5 -155t-67.5 -133.5t-123 -96t-180 -35.5zM739 1323h-430v-666h410q84 0 147 27t99.5 74t54.5 105t18 126q0 67 -18 126
t-53 106t-93.5 74.5t-134.5 27.5z" />
    <glyph glyph-name="racute" unicode="&#x155;" horiz-adv-x="745" 
d="M532 1411h109l-217 -311h-88zM588 981q73 0 141 -23l-22 -86q-59 21 -121 21q-74 0 -132 -33.5t-92.5 -86t-57.5 -124t-32 -138.5t-10 -140v-371h-90v956h90v-262q32 128 117 207.5t209 79.5z" />
    <glyph glyph-name="uni0156" unicode="&#x156;" horiz-adv-x="1249" 
d="M737 569h-32l401 -569h-113l-401 569h-283v-569h-92v1411h520q103 0 181 -35.5t123 -96.5t67 -134t22 -156q0 -82 -22.5 -155t-67.5 -133.5t-123 -96t-180 -35.5zM739 1323h-430v-666h410q84 0 147 27t99.5 74t54.5 105t18 126q0 67 -18 126t-53 106t-93.5 74.5
t-134.5 27.5zM520 -449l-55 27q123 132 117 344h94q0 -106 -44.5 -212.5t-111.5 -158.5z" />
    <glyph glyph-name="uni0157" unicode="&#x157;" horiz-adv-x="745" 
d="M588 981q73 0 141 -23l-22 -86q-59 21 -121 21q-74 0 -132 -33.5t-92.5 -86t-57.5 -124t-32 -138.5t-10 -140v-371h-90v956h90v-262q32 128 117 207.5t209 79.5zM174 -78h94q1 -105 -43 -211.5t-110 -159.5l-58 27q123 132 117 344z" />
    <glyph glyph-name="Rcaron" unicode="&#x158;" horiz-adv-x="1249" 
d="M913 1866l-233 -312h-105l-233 312h86l199 -236l198 236h88zM737 569h-32l401 -569h-113l-401 569h-283v-569h-92v1411h520q103 0 181 -35.5t123 -96.5t67 -134t22 -156q0 -82 -22.5 -155t-67.5 -133.5t-123 -96t-180 -35.5zM739 1323h-430v-666h410q84 0 147 27t99.5 74
t54.5 105t18 126q0 67 -18 126t-53 106t-93.5 74.5t-134.5 27.5z" />
    <glyph glyph-name="rcaron" unicode="&#x159;" horiz-adv-x="745" 
d="M666 1411l-234 -311h-104l-234 311h86l199 -235l199 235h88zM588 981q73 0 141 -23l-22 -86q-59 21 -121 21q-74 0 -132 -33.5t-92.5 -86t-57.5 -124t-32 -138.5t-10 -140v-371h-90v956h90v-262q32 128 117 207.5t209 79.5z" />
    <glyph glyph-name="Sacute" unicode="&#x15a;" horiz-adv-x="1146" 
d="M618 1554h-88l197 312h109zM571 -25q-95 0 -178.5 31.5t-140.5 84.5t-92.5 120.5t-42.5 140.5h92q16 -117 115.5 -203t246.5 -86q75 0 139 19.5t107.5 51t74.5 73t45.5 84.5t14.5 86q0 61 -24 110.5t-68 84t-95.5 57.5t-115.5 39l-196 45q-326 75 -326 342
q0 108 62.5 196.5t162 136.5t211.5 48q178 0 299 -98.5t131 -262.5h-92q-9 123 -104 198t-234 75q-136 0 -240 -84.5t-104 -208.5q0 -29 4.5 -53.5t20 -56t42 -56.5t74.5 -49.5t113 -40.5l197 -47q171 -42 272.5 -132t101.5 -237q0 -71 -30 -141.5t-86 -131t-149.5 -98
t-207.5 -37.5z" />
    <glyph glyph-name="sacute" unicode="&#x15b;" horiz-adv-x="866" 
d="M477 1100h-88l197 311h108zM432 -25q-127 0 -225 68t-117 190h86q22 -73 84.5 -123.5t171.5 -50.5q112 0 179 54.5t67 140.5q0 134 -170 178l-141 33q-238 55 -238 254q0 114 87 188t218 74q124 0 209 -65.5t92 -178.5h-88q-9 71 -68 115.5t-143 44.5q-95 0 -156 -50
t-61 -126q0 -138 170 -174l141 -33q125 -30 181.5 -100t56.5 -162q0 -123 -93.5 -200t-242.5 -77z" />
    <glyph glyph-name="Scedilla" unicode="&#x15e;" horiz-adv-x="1146" 
d="M1044 383q0 -66 -25 -131t-72.5 -122.5t-126 -98t-175.5 -51.5l49 -119q19 -48 19 -80q0 -83 -53 -133.5t-138 -50.5t-136.5 56t-51.5 148h76q5 -61 34 -95t78 -34q52 0 83.5 30.5t31.5 80.5q0 25 -12 49l-58 143q-125 1 -226.5 55.5t-158 139t-65.5 182.5h92
q16 -117 115.5 -203t246.5 -86q75 0 139 19.5t107.5 51t74.5 73t45.5 84.5t14.5 86q0 61 -24 110.5t-68 84t-95.5 57.5t-115.5 39l-196 45q-326 75 -326 342q0 108 62.5 196.5t162 136.5t211.5 48q178 0 299 -98.5t131 -262.5h-92q-9 123 -104 198t-234 75
q-136 0 -240 -84.5t-104 -208.5q0 -29 4.5 -53.5t20 -56t42 -56.5t74.5 -49.5t113 -40.5l197 -47q171 -42 272.5 -132t101.5 -237z" />
    <glyph glyph-name="scedilla" unicode="&#x15f;" horiz-adv-x="866" 
d="M768 252q0 -105 -69 -177.5t-185 -92.5l51 -121q19 -48 19 -80q0 -83 -53 -133.5t-138 -50.5t-136.5 56t-51.5 148h76q5 -61 34 -95t78 -34q52 0 82.5 30.5t30.5 80.5q0 29 -10 49l-58 143h-6q-127 0 -225 68t-117 190h86q22 -73 84.5 -123.5t171.5 -50.5q112 0 179 54.5
t67 140.5q0 134 -170 178l-141 33q-238 55 -238 254q0 114 87 188t218 74q124 0 209 -65.5t92 -178.5h-88q-9 71 -68 115.5t-143 44.5q-95 0 -156 -50t-61 -126q0 -138 170 -174l141 -33q125 -30 181.5 -100t56.5 -162z" />
    <glyph glyph-name="Scaron" unicode="&#x160;" horiz-adv-x="1146" 
d="M627 1554h-105l-233 312h86l198 -236l201 236h86zM571 -25q-95 0 -178.5 31.5t-140.5 84.5t-92.5 120.5t-42.5 140.5h92q16 -117 115.5 -203t246.5 -86q75 0 139 19.5t107.5 51t74.5 73t45.5 84.5t14.5 86q0 61 -24 110.5t-68 84t-95.5 57.5t-115.5 39l-196 45
q-326 75 -326 342q0 108 62.5 196.5t162 136.5t211.5 48q178 0 299 -98.5t131 -262.5h-92q-9 123 -104 198t-234 75q-136 0 -240 -84.5t-104 -208.5q0 -29 4.5 -53.5t20 -56t42 -56.5t74.5 -49.5t113 -40.5l197 -47q171 -42 272.5 -132t101.5 -237q0 -71 -30 -141.5
t-86 -131t-149.5 -98t-207.5 -37.5z" />
    <glyph glyph-name="scaron" unicode="&#x161;" horiz-adv-x="866" 
d="M485 1100h-104l-234 311h86l199 -235l201 235h86zM432 -25q-127 0 -225 68t-117 190h86q22 -73 84.5 -123.5t171.5 -50.5q112 0 179 54.5t67 140.5q0 134 -170 178l-141 33q-238 55 -238 254q0 114 87 188t218 74q124 0 209 -65.5t92 -178.5h-88q-9 71 -68 115.5
t-143 44.5q-95 0 -156 -50t-61 -126q0 -138 170 -174l141 -33q125 -30 181.5 -100t56.5 -162q0 -123 -93.5 -200t-242.5 -77z" />
    <glyph glyph-name="uni0162" unicode="&#x162;" horiz-adv-x="1114" 
d="M1069 1411v-88h-467v-1319l60 -143q18 -45 18 -80q0 -83 -51.5 -133.5t-136.5 -50.5q-86 0 -138.5 56t-52.5 148h76q5 -60 35.5 -94.5t79.5 -34.5q51 0 81.5 30.5t30.5 80.5q0 22 -10 49l-68 168h-16v1323h-465v88h1024z" />
    <glyph glyph-name="uni0163" unicode="&#x163;" horiz-adv-x="583" 
d="M549 956v-79h-232v-848l72 -168q19 -48 19 -80q0 -83 -53 -133.5t-138 -50.5t-136.5 56t-51.5 148h75q5 -60 34.5 -94.5t78.5 -34.5q52 0 83.5 30.5t31.5 80.5q0 23 -13 49l-67 168h-25v877h-174v79h174v357h90v-357h232z" />
    <glyph glyph-name="Tcaron" unicode="&#x164;" horiz-adv-x="1114" 
d="M842 1866l-232 -312h-104l-234 312h86l199 -236l199 236h86zM45 1411h1024v-88h-467v-1323h-92v1323h-465v88z" />
    <glyph glyph-name="tcaron" unicode="&#x165;" horiz-adv-x="583" 
d="M608 1411h92q0 -111 -26 -184t-80 -152l-70 17q102 158 84 319zM227 1313h90v-357h232v-79h-232v-877h-90v877h-174v79h174v357z" />
    <glyph glyph-name="Tbar" unicode="&#x166;" horiz-adv-x="1144" 
d="M1085 1411v-88h-467v-524h259v-76h-259v-723h-92v723h-262v76h262v524h-467v88h1026z" />
    <glyph glyph-name="tbar" unicode="&#x167;" horiz-adv-x="591" 
d="M551 956v-79h-229v-336h147v-72h-147v-469h-91v469h-125v72h125v336h-174v79h174v357h91v-357h229z" />
    <glyph glyph-name="Umacron" unicode="&#x16a;" horiz-adv-x="1388" 
d="M934 1653h-479v80h479v-80zM694 -25q-100 0 -190 35t-157 97.5t-106.5 155.5t-39.5 202v946h92v-946q0 -181 115.5 -290t285.5 -109t286 109t116 290v946h92v-946q0 -145 -68 -258.5t-179.5 -172.5t-246.5 -59z" />
    <glyph glyph-name="umacron" unicode="&#x16b;" horiz-adv-x="1157" 
d="M340 1278h479v-80h-479v80zM893 416v540h90v-956h-90v190q-27 -73 -85.5 -123.5t-123.5 -71t-135 -20.5q-172 0 -281.5 114t-109.5 306v561h90v-559q0 -151 87 -242.5t220 -91.5q65 0 123 20t106.5 60.5t77.5 110.5t31 162z" />
    <glyph glyph-name="Uring" unicode="&#x16e;" horiz-adv-x="1388" 
d="M690 1569q-74 0 -125 51.5t-51 126.5t51.5 128.5t124.5 53.5q76 0 129 -53.5t53 -128.5t-52.5 -126.5t-129.5 -51.5zM690 1636q49 0 82 32.5t33 78.5q0 48 -33 81.5t-82 33.5q-45 0 -76.5 -33.5t-31.5 -81.5q0 -46 31.5 -78.5t76.5 -32.5zM694 -25q-100 0 -190 35
t-157 97.5t-106.5 155.5t-39.5 202v946h92v-946q0 -181 115.5 -290t285.5 -109t286 109t116 290v946h92v-946q0 -145 -68 -258.5t-179.5 -172.5t-246.5 -59z" />
    <glyph glyph-name="uring" unicode="&#x16f;" horiz-adv-x="1157" 
d="M575 1114q-74 0 -126 51.5t-52 126.5t52.5 129t125.5 54q76 0 129.5 -54t53.5 -129t-53 -126.5t-130 -51.5zM575 1407q-45 0 -76.5 -33.5t-31.5 -81.5q0 -46 31 -78t77 -32q47 0 81 32t34 78q0 47 -34 81t-81 34zM893 416v540h90v-956h-90v190q-27 -73 -85.5 -123.5
t-123.5 -71t-135 -20.5q-172 0 -281.5 114t-109.5 306v561h90v-559q0 -151 87 -242.5t220 -91.5q65 0 123 20t106.5 60.5t77.5 110.5t31 162z" />
    <glyph glyph-name="Uhungarumlaut" unicode="&#x170;" horiz-adv-x="1388" 
d="M623 1554h-84l186 312h98zM860 1554h-84l193 312h98zM694 -25q-100 0 -190 35t-157 97.5t-106.5 155.5t-39.5 202v946h92v-946q0 -181 115.5 -290t285.5 -109t286 109t116 290v946h92v-946q0 -145 -68 -258.5t-179.5 -172.5t-246.5 -59z" />
    <glyph glyph-name="uhungarumlaut" unicode="&#x171;" horiz-adv-x="1157" 
d="M610 1411h99l-201 -311h-84zM952 1411l-207 -311h-83l192 311h98zM893 416v540h90v-956h-90v190q-27 -73 -85.5 -123.5t-123.5 -71t-135 -20.5q-172 0 -281.5 114t-109.5 306v561h90v-559q0 -151 87 -242.5t220 -91.5q65 0 123 20t106.5 60.5t77.5 110.5t31 162z" />
    <glyph glyph-name="Uogonek" unicode="&#x172;" horiz-adv-x="1388" 
d="M1096 465v946h92v-946q0 -106 -37 -196.5t-100.5 -153t-148.5 -99.5t-181 -41l-57 -143q-9 -18 -9 -49q0 -50 30.5 -80.5t82.5 -30.5q49 0 78.5 34.5t34.5 94.5h75q0 -93 -51 -148.5t-137 -55.5q-85 0 -137.5 50.5t-52.5 133.5q0 30 20 80l49 116q-191 15 -318.5 148.5
t-127.5 339.5v946h92v-946q0 -181 115.5 -290t285.5 -109t286 109t116 290z" />
    <glyph glyph-name="uogonek" unicode="&#x173;" horiz-adv-x="1157" 
d="M1106 -199h76q0 -92 -52 -148t-137 -56t-137.5 50.5t-52.5 133.5q0 35 18 80l72 172v157q-27 -73 -85.5 -123.5t-123.5 -71t-135 -20.5q-172 0 -281.5 114t-109.5 306v561h90v-559q0 -151 87 -242.5t220 -91.5q65 0 123 20t106.5 60.5t77.5 110.5t31 162v540h90v-956h-27
l-65 -168q-12 -24 -12 -49q0 -50 31 -80.5t83 -30.5q49 0 78.5 34.5t34.5 94.5z" />
    <glyph glyph-name="Wcircumflex" unicode="&#x174;" horiz-adv-x="1857" 
d="M1128 1554l-200 238l-199 -238h-86l234 312h104l233 -312h-86zM1284 135l428 1276h98l-479 -1411h-96l-307 1051l-305 -1051h-97l-479 1411h96l428 -1274l310 1057h96z" />
    <glyph glyph-name="wcircumflex" unicode="&#x175;" horiz-adv-x="1634" 
d="M1026 1100l-201 237l-198 -237h-86l233 311h105l233 -311h-86zM1178 137l307 819h96l-358 -956h-84l-324 844l-313 -844h-86l-367 956h96l314 -821l305 821h102z" />
    <glyph glyph-name="Ycircumflex" unicode="&#x176;" horiz-adv-x="1193" 
d="M797 1554l-201 238l-199 -238h-86l234 312h104l234 -312h-86zM596 758l469 653h111l-535 -741v-670h-92v672l-529 739h111z" />
    <glyph glyph-name="ycircumflex" unicode="&#x177;" horiz-adv-x="1013" 
d="M709 1100l-199 237l-199 -237h-86l234 311h104l232 -311h-86zM508 113l360 843h99l-605 -1419h-96l193 461l-404 958h99z" />
    <glyph glyph-name="Ydieresis" unicode="&#x178;" horiz-adv-x="1193" 
d="M440 1647q-33 0 -56.5 20.5t-23.5 50.5q0 32 23.5 53t56.5 21t56.5 -21t23.5 -53q0 -30 -23.5 -50.5t-56.5 -20.5zM752 1647q-33 0 -56.5 20.5t-23.5 50.5q0 32 23.5 53t56.5 21t56 -21t23 -53q0 -30 -23 -50.5t-56 -20.5zM596 758l469 653h111l-535 -741v-670h-92v672
l-529 739h111z" />
    <glyph glyph-name="Zacute" unicode="&#x179;" horiz-adv-x="1093" 
d="M700 1866h109l-217 -312h-90zM88 1411h920v-70l-803 -1253h803v-88h-926v63l805 1260h-799v88z" />
    <glyph glyph-name="zacute" unicode="&#x17a;" horiz-adv-x="968" 
d="M637 1411h108l-217 -311h-88zM92 956h789v-67l-660 -801h660v-88h-795v63l659 805h-653v88z" />
    <glyph glyph-name="Zdotaccent" unicode="&#x17b;" horiz-adv-x="1093" 
d="M547 1628q-33 0 -56.5 21t-23.5 51q0 32 23.5 53t56.5 21q34 0 57 -21t23 -53q0 -31 -23 -51.5t-57 -20.5zM88 1411h920v-70l-803 -1253h803v-88h-926v63l805 1260h-799v88z" />
    <glyph glyph-name="zdotaccent" unicode="&#x17c;" horiz-adv-x="968" 
d="M483 1174q-33 0 -56.5 20.5t-23.5 50.5q0 32 23.5 53t56.5 21q34 0 57 -21t23 -53q0 -31 -23 -51t-57 -20zM92 956h789v-67l-660 -801h660v-88h-795v63l659 805h-653v88z" />
    <glyph glyph-name="Zcaron" unicode="&#x17d;" horiz-adv-x="1093" 
d="M834 1866l-234 -312h-104l-234 312h86l199 -236l198 236h89zM88 1411h920v-70l-803 -1253h803v-88h-926v63l805 1260h-799v88z" />
    <glyph glyph-name="zcaron" unicode="&#x17e;" horiz-adv-x="968" 
d="M770 1411l-233 -311h-105l-233 311h88l198 -235l199 235h86zM92 956h789v-67l-660 -801h660v-88h-795v63l659 805h-653v88z" />
    <glyph glyph-name="longs" unicode="&#x17f;" horiz-adv-x="501" 
d="M567 1477h78v-88h-70q-247 0 -247 -314v-1075h-90v877h-193v79h193v113q0 90 17.5 161.5t54.5 128.5t102 87.5t155 30.5z" />
    <glyph glyph-name="florin" unicode="&#x192;" horiz-adv-x="1005" 
d="M874 1354h89l-15 -86h-82q-235 0 -288 -316l-25 -141h252v-82h-266l-86 -477q-71 -416 -385 -416h-97l17 84h82q234 0 288 320l86 489h-182v82h199l24 143q12 70 31 127t50.5 109t73.5 87.5t101.5 56t132.5 20.5z" />
    <glyph glyph-name="uni01CD" unicode="&#x1cd;" 
d="M895 1866l-233 -312h-105l-231 312h86l198 -236l199 236h86zM1196 0h-96l-146 385h-688l-147 -385h-99l541 1411h98zM610 1288l-313 -821h625z" />
    <glyph glyph-name="uni01CE" unicode="&#x1ce;" horiz-adv-x="1271" 
d="M922 1411l-234 -311h-104l-234 311h86l199 -235l199 235h88zM1010 739v217h90v-956h-90v223q-60 -112 -171 -180t-245 -68q-132 0 -245.5 67t-180 183t-66.5 254q0 136 66 251.5t179.5 183t248.5 67.5q131 0 243 -66.5t171 -175.5zM600 63q110 0 204 53t150 147t56 208
q0 181 -121.5 301.5t-290.5 120.5q-167 0 -286 -122.5t-119 -291.5q0 -171 119.5 -293.5t287.5 -122.5z" />
    <glyph glyph-name="uni01CF" unicode="&#x1cf;" horiz-adv-x="528" 
d="M315 1554h-104l-231 312h86l198 -236l199 236h86zM309 0h-92v1411h92v-1411z" />
    <glyph glyph-name="uni01D0" unicode="&#x1d0;" horiz-adv-x="434" 
d="M270 1100h-104l-234 311h86l199 -235l199 235h86zM262 0h-90v956h90v-956z" />
    <glyph glyph-name="uni01D1" unicode="&#x1d1;" horiz-adv-x="1648" 
d="M877 1554h-103l-233 312h86l198 -236l199 236h86zM823 -25q-195 0 -358 98t-256.5 265t-93.5 364q0 198 93.5 366.5t256.5 268t358 99.5q147 0 280 -58.5t227.5 -157.5t150 -234.5t55.5 -283.5q0 -197 -94 -364t-258 -265t-361 -98zM823 63q128 0 243.5 51t198 137.5
t131 204t48.5 246.5q0 173 -82 321.5t-225.5 236.5t-313.5 88q-169 0 -311.5 -88t-223.5 -236.5t-81 -321.5q0 -129 48 -246.5t130 -204t196.5 -137.5t241.5 -51z" />
    <glyph glyph-name="uni01D2" unicode="&#x1d2;" horiz-adv-x="1208" 
d="M655 1100h-102l-234 311h87l198 -235l199 235h86zM604 -25q-137 0 -250.5 62t-181.5 178.5t-68 265.5q0 148 68 263t181.5 176t250.5 61q136 0 249.5 -61t182 -176.5t68.5 -262.5q0 -148 -68.5 -265t-182 -179t-249.5 -62zM604 63q112 0 205 51t149 147.5t56 219.5
q0 182 -119 297t-291 115q-173 0 -291 -115t-118 -297q0 -185 118 -301.5t291 -116.5z" />
    <glyph glyph-name="uni01D3" unicode="&#x1d3;" horiz-adv-x="1388" 
d="M745 1554h-104l-231 312h86l198 -236l199 236h86zM694 -25q-100 0 -190 35t-157 97.5t-106.5 155.5t-39.5 202v946h92v-946q0 -181 115.5 -290t285.5 -109t286 109t116 290v946h92v-946q0 -145 -68 -258.5t-179.5 -172.5t-246.5 -59z" />
    <glyph glyph-name="uni01D4" unicode="&#x1d4;" horiz-adv-x="1157" 
d="M864 1411l-233 -311h-105l-233 311h88l199 -235l198 235h86zM893 416v540h90v-956h-90v190q-27 -73 -85.5 -123.5t-123.5 -71t-135 -20.5q-172 0 -281.5 114t-109.5 306v561h90v-559q0 -151 87 -242.5t220 -91.5q65 0 123 20t106.5 60.5t77.5 110.5t31 162z" />
    <glyph glyph-name="uni01D5" unicode="&#x1d5;" horiz-adv-x="1388" 
d="M934 1958h-479v82h479v-82zM537 1647q-33 0 -55.5 20.5t-22.5 50.5q0 32 22.5 53t55.5 21q34 0 56.5 -21t22.5 -53q0 -31 -22.5 -51t-56.5 -20zM848 1647q-33 0 -55.5 20.5t-22.5 50.5q0 32 22.5 53t55.5 21q34 0 57 -21t23 -53q0 -31 -23 -51t-57 -20zM694 -25
q-100 0 -190 35t-157 97.5t-106.5 155.5t-39.5 202v946h92v-946q0 -181 115.5 -290t285.5 -109t286 109t116 290v946h92v-946q0 -145 -68 -258.5t-179.5 -172.5t-246.5 -59z" />
    <glyph glyph-name="uni01D6" unicode="&#x1d6;" horiz-adv-x="1157" 
d="M340 1579h479v-80h-479v80zM344 1264q0 32 22.5 52.5t55.5 20.5q34 0 57 -20.5t23 -52.5q0 -31 -23 -51.5t-57 -20.5q-32 0 -55 20.5t-23 51.5zM655 1264q0 32 22.5 52.5t55.5 20.5q34 0 57 -20.5t23 -52.5q0 -31 -23 -51.5t-57 -20.5q-32 0 -55 20.5t-23 51.5zM893 416
v540h90v-956h-90v190q-27 -73 -85.5 -123.5t-123.5 -71t-135 -20.5q-172 0 -281.5 114t-109.5 306v561h90v-559q0 -151 87 -242.5t220 -91.5q65 0 123 20t106.5 60.5t77.5 110.5t31 162z" />
    <glyph glyph-name="uni01D7" unicode="&#x1d7;" horiz-adv-x="1388" 
d="M737 1876h-88l197 311h108zM537 1647q-33 0 -55.5 20.5t-22.5 50.5q0 32 22.5 53t55.5 21q34 0 56.5 -21t22.5 -53q0 -31 -22.5 -51t-56.5 -20zM848 1647q-33 0 -55.5 20.5t-22.5 50.5q0 32 22.5 53t55.5 21q34 0 57 -21t23 -53q0 -31 -23 -51t-57 -20zM694 -25
q-100 0 -190 35t-157 97.5t-106.5 155.5t-39.5 202v946h92v-946q0 -181 115.5 -290t285.5 -109t286 109t116 290v946h92v-946q0 -145 -68 -258.5t-179.5 -172.5t-246.5 -59z" />
    <glyph glyph-name="uni01D8" unicode="&#x1d8;" horiz-adv-x="1157" 
d="M731 1733h109l-217 -312h-88zM422 1192q-32 0 -55 20.5t-23 51.5q0 32 22.5 52.5t55.5 20.5q34 0 57 -20.5t23 -52.5q0 -31 -23 -51.5t-57 -20.5zM655 1264q0 32 22.5 52.5t55.5 20.5q34 0 57 -20.5t23 -52.5q0 -31 -23 -51.5t-57 -20.5q-32 0 -55 20.5t-23 51.5z
M893 416v540h90v-956h-90v190q-27 -73 -85.5 -123.5t-123.5 -71t-135 -20.5q-172 0 -281.5 114t-109.5 306v561h90v-559q0 -151 87 -242.5t220 -91.5q65 0 123 20t106.5 60.5t77.5 110.5t31 162z" />
    <glyph glyph-name="uni01D9" unicode="&#x1d9;" horiz-adv-x="1388" 
d="M745 1876h-104l-231 311h86l198 -235l199 235h86zM537 1647q-33 0 -55.5 20.5t-22.5 50.5q0 32 22.5 53t55.5 21q34 0 56.5 -21t22.5 -53q0 -31 -22.5 -51t-56.5 -20zM848 1647q-33 0 -55.5 20.5t-22.5 50.5q0 32 22.5 53t55.5 21q34 0 57 -21t23 -53q0 -31 -23 -51
t-57 -20zM694 -25q-100 0 -190 35t-157 97.5t-106.5 155.5t-39.5 202v946h92v-946q0 -181 115.5 -290t285.5 -109t286 109t116 290v946h92v-946q0 -145 -68 -258.5t-179.5 -172.5t-246.5 -59z" />
    <glyph glyph-name="uni01DA" unicode="&#x1da;" horiz-adv-x="1157" 
d="M864 1733l-233 -312h-105l-233 312h88l199 -238l198 238h86zM344 1264q0 32 22.5 52.5t55.5 20.5q34 0 57 -20.5t23 -52.5q0 -31 -23 -51.5t-57 -20.5q-32 0 -55 20.5t-23 51.5zM655 1264q0 32 22.5 52.5t55.5 20.5q34 0 57 -20.5t23 -52.5q0 -31 -23 -51.5t-57 -20.5
q-32 0 -55 20.5t-23 51.5zM893 416v540h90v-956h-90v190q-27 -73 -85.5 -123.5t-123.5 -71t-135 -20.5q-172 0 -281.5 114t-109.5 306v561h90v-559q0 -151 87 -242.5t220 -91.5q65 0 123 20t106.5 60.5t77.5 110.5t31 162z" />
    <glyph glyph-name="uni01DB" unicode="&#x1db;" horiz-adv-x="1388" 
d="M752 1876h-90l-213 311h108zM537 1647q-33 0 -55.5 20.5t-22.5 50.5q0 32 22.5 53t55.5 21q34 0 56.5 -21t22.5 -53q0 -31 -22.5 -51t-56.5 -20zM848 1647q-33 0 -55.5 20.5t-22.5 50.5q0 32 22.5 53t55.5 21q34 0 57 -21t23 -53q0 -31 -23 -51t-57 -20zM694 -25
q-100 0 -190 35t-157 97.5t-106.5 155.5t-39.5 202v946h92v-946q0 -181 115.5 -290t285.5 -109t286 109t116 290v946h92v-946q0 -145 -68 -258.5t-179.5 -172.5t-246.5 -59z" />
    <glyph glyph-name="uni01DC" unicode="&#x1dc;" horiz-adv-x="1157" 
d="M442 1733l193 -312h-88l-213 312h108zM344 1264q0 32 22.5 52.5t55.5 20.5q34 0 57 -20.5t23 -52.5q0 -31 -23 -51.5t-57 -20.5q-32 0 -55 20.5t-23 51.5zM733 1192q-32 0 -55 20.5t-23 51.5q0 32 22.5 52.5t55.5 20.5q34 0 57 -20.5t23 -52.5q0 -31 -23 -51.5t-57 -20.5
zM893 416v540h90v-956h-90v190q-27 -73 -85.5 -123.5t-123.5 -71t-135 -20.5q-172 0 -281.5 114t-109.5 306v561h90v-559q0 -151 87 -242.5t220 -91.5q65 0 123 20t106.5 60.5t77.5 110.5t31 162z" />
    <glyph glyph-name="uni01E3" unicode="&#x1e3;" horiz-adv-x="1902" 
d="M709 1278h477v-80h-477v80zM1804 481v-39h-858q12 -170 120.5 -274.5t270.5 -104.5q106 0 195.5 50t144.5 137l78 -39q-65 -111 -176 -173.5t-244 -62.5q-136 0 -248.5 66.5t-175.5 183.5q-202 -248 -483 -248q-153 0 -246.5 75.5t-93.5 199.5q0 128 102 207.5t275 79.5
q91 0 196.5 -23t190.5 -61v131q0 159 -90 234t-252 75q-173 0 -301 -125l-59 61q70 80 170.5 115t203.5 35q155 0 255.5 -61t140.5 -177q62 111 171.5 174.5t243.5 63.5q206 0 337.5 -138t131.5 -362zM946 520h768q-10 169 -115 271t-264 102q-166 0 -270.5 -100.5
t-118.5 -272.5zM422 63q126 0 256 70.5t196 169.5l-22 68q-83 40 -188.5 63t-198.5 23q-135 0 -212 -56t-77 -145q0 -87 67 -140t179 -53z" />
    <glyph glyph-name="Aringacute" unicode="&#x1fa;" 
d="M606 1477q-74 0 -125 51.5t-51 126.5q0 67 41 117.5t104 62.5l66 107h109l-84 -115q55 -19 88.5 -66t33.5 -106q0 -75 -52.5 -126.5t-129.5 -51.5zM606 1769q-46 0 -77 -32.5t-31 -81.5q0 -46 31.5 -78.5t76.5 -32.5q47 0 81 32.5t34 78.5q0 49 -33.5 81.5t-81.5 32.5z
M1196 0h-96l-146 385h-688l-147 -385h-99l541 1411h98zM610 1288l-313 -821h625z" />
    <glyph glyph-name="aringacute" unicode="&#x1fb;" horiz-adv-x="1271" 
d="M631 1114q-74 0 -125 51.5t-51 126.5q0 70 44.5 121.5t110.5 59.5l107 172h108l-129 -183q53 -21 86 -66.5t33 -103.5q0 -75 -53.5 -126.5t-130.5 -51.5zM631 1407q-44 0 -76.5 -34t-32.5 -81q0 -46 32 -78t77 -32q49 0 83 32t34 78q0 48 -34 81.5t-83 33.5zM1010 739
v217h90v-956h-90v223q-60 -112 -171 -180t-245 -68q-132 0 -245.5 67t-180 183t-66.5 254q0 136 66 251.5t179.5 183t248.5 67.5q131 0 243 -66.5t171 -175.5zM600 63q110 0 204 53t150 147t56 208q0 181 -121.5 301.5t-290.5 120.5q-167 0 -286 -122.5t-119 -291.5
q0 -171 119.5 -293.5t287.5 -122.5z" />
    <glyph glyph-name="AEacute" unicode="&#x1fc;" horiz-adv-x="1912" 
d="M1118 1866h109l-217 -312h-88zM1090 647v-559h712v-88h-805v389h-669l-250 -389h-107l906 1411h903v-88h-690v-586h604v-90h-604zM926 1321l-541 -842h612v842h-71z" />
    <glyph glyph-name="aeacute" unicode="&#x1fd;" horiz-adv-x="1902" 
d="M1100 1411h108l-217 -311h-90zM1804 481v-39h-858q12 -170 120.5 -274.5t270.5 -104.5q106 0 195.5 50t144.5 137l78 -39q-65 -111 -176 -173.5t-244 -62.5q-136 0 -248.5 66.5t-175.5 183.5q-202 -248 -483 -248q-153 0 -246.5 75.5t-93.5 199.5q0 128 102 207.5
t275 79.5q91 0 196.5 -23t190.5 -61v131q0 159 -90 234t-252 75q-173 0 -301 -125l-59 61q70 80 170.5 115t203.5 35q155 0 255.5 -61t140.5 -177q62 111 171.5 174.5t243.5 63.5q206 0 337.5 -138t131.5 -362zM946 520h768q-10 169 -115 271t-264 102q-166 0 -270.5 -100.5
t-118.5 -272.5zM422 63q126 0 256 70.5t196 169.5l-22 68q-83 40 -188.5 63t-198.5 23q-135 0 -212 -56t-77 -145q0 -87 67 -140t179 -53z" />
    <glyph glyph-name="Oslashacute" unicode="&#x1fe;" horiz-adv-x="1675" 
d="M993 1866h109l-215 -312h-90zM1503 1427l56 -53l-187 -188q84 -98 130 -222.5t46 -261.5q0 -197 -94 -364t-258 -265t-360 -98q-135 0 -256.5 48t-217.5 135l-178 -181l-55 56l178 180q-182 207 -182 489q0 148 55.5 283.5t150 234.5t226.5 157.5t279 58.5
q139 0 263 -51.5t220 -143.5zM217 702q0 -240 156 -423l882 899q-178 170 -419 170q-169 0 -312 -88t-225 -236.5t-82 -321.5zM1456 702q0 237 -147 418l-883 -897q178 -160 410 -160q128 0 243.5 51t197.5 137.5t130.5 204t48.5 246.5z" />
    <glyph glyph-name="oslashacute" unicode="&#x1ff;" horiz-adv-x="1224" 
d="M768 1411h109l-218 -311h-88zM1061 981l55 -53l-117 -119q113 -136 113 -328q0 -148 -68.5 -265t-182 -179t-249.5 -62q-188 0 -323 113l-117 -117l-57 58l114 116q-116 139 -116 336q0 148 67.5 263t181 176t250.5 61q193 0 332 -117zM203 481q0 -156 92 -272l586 590
q-118 94 -269 94q-173 0 -291 -115t-118 -297zM1022 481q0 153 -88 262l-584 -589q115 -91 262 -91q112 0 205 51t149 147.5t56 219.5z" />
    <glyph glyph-name="uni0218" unicode="&#x218;" horiz-adv-x="1146" 
d="M571 -25q-95 0 -178.5 31.5t-140.5 84.5t-92.5 120.5t-42.5 140.5h92q16 -117 115.5 -203t246.5 -86q75 0 139 19.5t107.5 51t74.5 73t45.5 84.5t14.5 86q0 61 -24 110.5t-68 84t-95.5 57.5t-115.5 39l-196 45q-326 75 -326 342q0 108 62.5 196.5t162 136.5t211.5 48
q178 0 299 -98.5t131 -262.5h-92q-9 123 -104 198t-234 75q-136 0 -240 -84.5t-104 -208.5q0 -29 4.5 -53.5t20 -56t42 -56.5t74.5 -49.5t113 -40.5l197 -47q171 -42 272.5 -132t101.5 -237q0 -71 -30 -141.5t-86 -131t-149.5 -98t-207.5 -37.5zM469 -449l-57 27
q122 131 116 344h95q1 -105 -43.5 -211.5t-110.5 -159.5z" />
    <glyph glyph-name="uni0219" unicode="&#x219;" horiz-adv-x="866" 
d="M432 -25q-127 0 -225 68t-117 190h86q22 -73 84.5 -123.5t171.5 -50.5q112 0 179 54.5t67 140.5q0 134 -170 178l-141 33q-238 55 -238 254q0 114 87 188t218 74q124 0 209 -65.5t92 -178.5h-88q-9 71 -68 115.5t-143 44.5q-95 0 -156 -50t-61 -126q0 -138 170 -174
l141 -33q125 -30 181.5 -100t56.5 -162q0 -123 -93.5 -200t-242.5 -77zM328 -449l-58 27q123 132 117 344h94q1 -105 -43 -211.5t-110 -159.5z" />
    <glyph glyph-name="uni021A" unicode="&#x21a;" horiz-adv-x="1114" 
d="M45 1323v88h1024v-88h-467v-1323h-92v1323h-465zM451 -449l-56 27q120 129 117 344h94q0 -107 -44 -213t-111 -158z" />
    <glyph glyph-name="uni021B" unicode="&#x21b;" horiz-adv-x="583" 
d="M317 1313v-357h232v-79h-232v-877h-90v877h-174v79h174v357h90zM254 -78h94q1 -105 -43 -211.5t-110 -159.5l-58 27q123 132 117 344z" />
    <glyph glyph-name="uni02BC" unicode="&#x2bc;" horiz-adv-x="446" 
d="M154 897l-62 23q83 119 125 271t35 318h92q7 -171 -44 -332t-146 -280z" />
    <glyph glyph-name="circumflex" unicode="&#x2c6;" horiz-adv-x="1001" 
d="M301 1110h-86l234 309h104l233 -309h-88l-198 236z" />
    <glyph glyph-name="caron" unicode="&#x2c7;" horiz-adv-x="1001" 
d="M553 1110h-104l-234 309h86l199 -235l198 235h88z" />
    <glyph glyph-name="breve" unicode="&#x2d8;" horiz-adv-x="1075" 
d="M537 1143q-117 0 -175.5 69.5t-58.5 176.5h82q0 -77 38 -123.5t114 -46.5q72 0 112.5 45t40.5 125h82q0 -115 -64 -180.5t-171 -65.5z" />
    <glyph glyph-name="dotaccent" unicode="&#x2d9;" horiz-adv-x="978" 
d="M489 1186q-33 0 -56 20.5t-23 50.5q0 32 23 53t56 21t56.5 -21t23.5 -53q0 -30 -23.5 -50.5t-56.5 -20.5z" />
    <glyph glyph-name="ring" unicode="&#x2da;" horiz-adv-x="1015" 
d="M504 1114q-74 0 -125 51.5t-51 126.5t51.5 129t124.5 54q76 0 130 -54t54 -129t-53.5 -126.5t-130.5 -51.5zM504 1182q49 0 83 32t34 78q0 48 -34 81.5t-83 33.5q-44 0 -76.5 -34t-32.5 -81q0 -46 32.5 -78t76.5 -32z" />
    <glyph glyph-name="ogonek" unicode="&#x2db;" horiz-adv-x="1032" 
d="M518 -403q-85 0 -137.5 50.5t-52.5 133.5q0 35 18 80l70 164h73l-77 -193q-6 -16 -6 -49q0 -50 30 -80.5t82 -30.5q49 0 78.5 34.5t34.5 94.5h76q0 -92 -52 -148t-137 -56z" />
    <glyph glyph-name="tilde" unicode="&#x2dc;" horiz-adv-x="946" 
d="M303 1157h-76q3 84 44.5 131t103.5 47q32 0 62 -17t48.5 -37t41.5 -37t44 -17q30 0 50.5 26t21.5 72h76q-3 -83 -45 -129.5t-103 -46.5q-32 0 -62 17t-49 37t-42 37t-43 17q-30 0 -50.5 -27t-21.5 -73z" />
    <glyph glyph-name="hungarumlaut" unicode="&#x2dd;" horiz-adv-x="831" 
d="M248 1110h-84l186 309h99zM485 1110h-84l193 309h98z" />
    <glyph glyph-name="gravecomb" unicode="&#x300;" horiz-adv-x="0" 
d="M-362 1100h-89l-213 311h109z" />
    <glyph glyph-name="acutecomb" unicode="&#x301;" horiz-adv-x="0" 
d="M-553 1100h-88l197 311h108z" />
    <glyph glyph-name="uni0302" unicode="&#x302;" horiz-adv-x="0" 
d="M-700 1100h-86l233 311h104l234 -311h-88l-199 237z" />
    <glyph glyph-name="tildecomb" unicode="&#x303;" horiz-adv-x="0" 
d="M-643 1149h-76q3 84 44.5 130t103.5 46q32 0 62 -16.5t48.5 -36.5t41.5 -36.5t44 -16.5q30 0 50.5 26t21.5 72h76q-3 -83 -45 -129.5t-103 -46.5q-32 0 -62 17t-49 37t-42 37t-43 17q-30 0 -50.5 -27t-21.5 -73z" />
    <glyph glyph-name="uni0304" unicode="&#x304;" horiz-adv-x="0" 
d="M-246 1198h-479v80h479v-80z" />
    <glyph glyph-name="uni0306" unicode="&#x306;" horiz-adv-x="0" 
d="M-539 1135q-117 0 -175 69t-58 176h82q0 -78 37.5 -124t113.5 -46q72 0 113 45.5t41 124.5h82q0 -115 -64.5 -180t-171.5 -65z" />
    <glyph glyph-name="uni0307" unicode="&#x307;" horiz-adv-x="0" 
d="M-489 1174q-33 0 -56.5 20.5t-23.5 50.5q0 32 23.5 53t56.5 21t56 -21t23 -53q0 -30 -23 -50.5t-56 -20.5z" />
    <glyph glyph-name="uni0308" unicode="&#x308;" horiz-adv-x="0" 
d="M-637 1192q-32 0 -55 20.5t-23 51.5q0 32 22.5 52.5t55.5 20.5q34 0 57 -20.5t23 -52.5q0 -31 -23 -51.5t-57 -20.5zM-326 1192q-32 0 -54.5 20.5t-22.5 51.5q0 32 22 52.5t55 20.5q34 0 57 -20.5t23 -52.5q0 -31 -23 -51.5t-57 -20.5z" />
    <glyph glyph-name="uni030A" unicode="&#x30a;" horiz-adv-x="0" 
d="M-512 1114q-74 0 -125 51.5t-51 126.5t51.5 129t124.5 54q76 0 130 -54t54 -129t-53.5 -126.5t-130.5 -51.5zM-512 1182q49 0 83 32t34 78q0 48 -34 81.5t-83 33.5q-44 0 -76.5 -34t-32.5 -81q0 -46 32.5 -78t76.5 -32z" />
    <glyph glyph-name="uni030B" unicode="&#x30b;" horiz-adv-x="0" 
d="M-584 1100h-84l187 311h98zM-346 1100h-84l192 311h99z" />
    <glyph glyph-name="uni030C" unicode="&#x30c;" horiz-adv-x="0" 
d="M-449 1100h-104l-233 311h86l198 -235l199 235h88z" />
    <glyph glyph-name="uni0326" unicode="&#x326;" horiz-adv-x="0" 
d="M-299 -449l-55 27q119 128 116 344h95q0 -106 -44.5 -212.5t-111.5 -158.5z" />
    <glyph glyph-name="uni0327" unicode="&#x327;" horiz-adv-x="0" 
d="M-516 -403q-85 0 -137 56t-52 148h76q5 -60 34.5 -94.5t78.5 -34.5q52 0 83.5 30.5t31.5 80.5q0 23 -13 49l-75 193h77l68 -164q18 -45 18 -80q0 -83 -52.5 -133.5t-137.5 -50.5z" />
    <glyph glyph-name="uni0328" unicode="&#x328;" horiz-adv-x="0" 
d="M-514 -403q-85 0 -138 50.5t-53 133.5q0 33 19 80l70 164h73l-78 -193q-6 -16 -6 -49q0 -50 30.5 -80.5t82.5 -30.5q49 0 78.5 34.5t34.5 94.5h75q0 -92 -51.5 -148t-136.5 -56z" />
    <glyph glyph-name="uni0374" unicode="&#x374;" horiz-adv-x="1146" 
d="M561 934h-84l133 477h97z" />
    <glyph glyph-name="uni0375" unicode="&#x375;" horiz-adv-x="1044" 
d="M537 477h84l-134 -477h-96z" />
    <glyph glyph-name="uni037E" unicode="&#x37e;" horiz-adv-x="495" 
d="M258 827q-34 0 -57 21.5t-23 52.5q0 33 23 54.5t57 21.5t58 -21.5t24 -54.5q0 -31 -24 -52.5t-58 -21.5zM129 -365l-66 25q83 117 125.5 269t36.5 319h94q6 -172 -44.5 -333.5t-145.5 -279.5z" />
    <glyph glyph-name="tonos" unicode="&#x384;" horiz-adv-x="882" 
d="M352 1100h-88l197 311h108z" />
    <glyph glyph-name="dieresistonos" unicode="&#x385;" horiz-adv-x="839" 
d="M406 1100h-74l86 315h96zM197 1192q-31 0 -53.5 21t-22.5 51q0 31 22 51t54 20q33 0 55 -19.5t22 -51.5q0 -31 -22.5 -51.5t-54.5 -20.5zM635 1192q-31 0 -53.5 21t-22.5 51q0 31 22 51t54 20q34 0 57 -19.5t23 -51.5q0 -31 -23 -51.5t-57 -20.5z" />
    <glyph glyph-name="Alphatonos" unicode="&#x386;" horiz-adv-x="1275" 
d="M1255 0h-98l-145 385h-688l-148 -385h-96l538 1411h99zM272 1411h111l-121 -362h-86zM668 1288l-314 -821h625z" />
    <glyph glyph-name="anoteleia" unicode="&#x387;" horiz-adv-x="464" 
d="M231 414q-33 0 -56 20.5t-23 52.5t23 54t56 22q34 0 58 -22t24 -54t-24 -52.5t-58 -20.5z" />
    <glyph glyph-name="Epsilontonos" unicode="&#x388;" horiz-adv-x="1267" 
d="M131 1049h-84l96 362h109zM444 647v-559h715v-88h-807v1411h783v-88h-691v-586h605v-90h-605z" />
    <glyph glyph-name="Etatonos" unicode="&#x389;" horiz-adv-x="1605" 
d="M131 1049h-84l96 362h109zM1294 743v668h92v-1411h-92v659h-850v-659h-92v1411h92v-668h850z" />
    <glyph glyph-name="Iotatonos" unicode="&#x38a;" horiz-adv-x="663" 
d="M131 1049h-84l96 362h109zM444 0h-92v1411h92v-1411z" />
    <glyph glyph-name="Omicrontonos" unicode="&#x38c;" horiz-adv-x="1789" 
d="M965 -25q-147 0 -279 58t-226.5 155.5t-150 232t-55.5 281.5q0 148 55.5 283.5t150 234.5t226.5 157.5t279 58.5q196 0 359.5 -99.5t257 -268t93.5 -366.5q0 -197 -93.5 -364t-257 -265t-359.5 -98zM158 1049h-86l96 362h108zM965 63q128 0 243 51t197 137.5t130 204
t48 246.5t-48 248t-130 206.5t-197 139.5t-243 52q-170 0 -313 -88t-224.5 -236.5t-81.5 -321.5q0 -172 81.5 -319t224.5 -233.5t313 -86.5z" />
    <glyph glyph-name="Upsilontonos" unicode="&#x38e;" horiz-adv-x="1503" 
d="M152 1049h-86l96 362h110zM907 758l469 653h109l-533 -741v-670h-92v672l-528 739h108z" />
    <glyph glyph-name="Omegatonos" unicode="&#x38f;" horiz-adv-x="1812" 
d="M1681 709q0 -208 -107.5 -377t-275.5 -244h363v-88h-592v86q222 37 371 212.5t149 410.5q0 173 -81 319.5t-223 233t-312 86.5q-127 0 -242 -51t-197.5 -137t-131 -204t-48.5 -247q0 -235 149.5 -410.5t373.5 -212.5v-86h-592v88h360q-167 76 -275 245t-108 376
q0 148 55.5 282.5t150 232t226.5 155t279 57.5q195 0 358 -97.5t256.5 -264.5t93.5 -365zM74 1049l96 362h109l-121 -362h-84z" />
    <glyph glyph-name="iotadieresistonos" unicode="&#x390;" horiz-adv-x="479" 
d="M233 1100h-73l88 315h96zM27 1192q-32 0 -55 20.5t-23 51.5q0 32 22.5 51.5t55.5 19.5t55 -19.5t22 -51.5q0 -31 -22.5 -51.5t-54.5 -20.5zM465 1192q-32 0 -55 20.5t-23 51.5q0 32 22.5 51.5t55.5 19.5t55.5 -19.5t22.5 -51.5q0 -31 -23 -51.5t-55 -20.5zM442 -12h-57
q-113 0 -167 54.5t-54 190.5v723h90v-725q0 -80 30.5 -117.5t112.5 -37.5h45v-88z" />
    <glyph glyph-name="Alpha" unicode="&#x391;" 
d="M1196 0h-96l-146 385h-688l-147 -385h-99l541 1411h98zM610 1288l-313 -821h625z" />
    <glyph glyph-name="Beta" unicode="&#x392;" horiz-adv-x="1282" 
d="M891 754q92 -28 155.5 -91t90 -134.5t26.5 -147.5q0 -75 -27.5 -143.5t-76.5 -121.5t-123.5 -84.5t-161.5 -31.5h-557v1411h500q168 0 267 -88.5t99 -249.5q0 -106 -49 -194.5t-143 -124.5zM991 1069q0 121 -74 187.5t-202 66.5h-406v-535h449q109 0 171 80.5t62 200.5z
M309 88h455q138 0 222.5 87.5t84.5 209.5q0 134 -93 228t-233 94h-436v-619z" />
    <glyph glyph-name="Gamma" unicode="&#x393;" horiz-adv-x="935" 
d="M217 0v1411h670v-88h-578v-1323h-92z" />
    <glyph glyph-name="uni0394" unicode="&#x394;" horiz-adv-x="1236" 
d="M569 1411h99l528 -1345v-66h-1159v66zM618 1290l-473 -1202h945z" />
    <glyph glyph-name="uni0394" unicode="&#x2206;" horiz-adv-x="1236" 
d="M569 1411h99l528 -1345v-66h-1159v66zM618 1290l-473 -1202h945z" />
    <glyph glyph-name="Epsilon" unicode="&#x395;" horiz-adv-x="1132" 
d="M309 647v-559h715v-88h-807v1411h782v-88h-690v-586h604v-90h-604z" />
    <glyph glyph-name="Zeta" unicode="&#x396;" horiz-adv-x="1093" 
d="M88 1411h920v-70l-803 -1253h803v-88h-926v63l805 1260h-799v88z" />
    <glyph glyph-name="Eta" unicode="&#x397;" horiz-adv-x="1470" 
d="M1159 743v668h92v-1411h-92v659h-850v-659h-92v1411h92v-668h850z" />
    <glyph glyph-name="Theta" unicode="&#x398;" horiz-adv-x="1648" 
d="M823 -25q-195 0 -358 98t-256.5 265t-93.5 364q0 198 93.5 366.5t256.5 268t358 99.5q147 0 280 -58.5t227.5 -157.5t150 -234.5t55.5 -283.5q0 -197 -94 -364t-258 -265t-361 -98zM823 63q128 0 243.5 51t198 137.5t131 204t48.5 246.5q0 173 -82 321.5t-225.5 236.5
t-313.5 88q-169 0 -311.5 -88t-223.5 -236.5t-81 -321.5q0 -129 48 -246.5t130 -204t196.5 -137.5t241.5 -51zM1192 666h-733v79h733v-79z" />
    <glyph glyph-name="Iota" unicode="&#x399;" horiz-adv-x="528" 
d="M309 0h-92v1411h92v-1411z" />
    <glyph glyph-name="Kappa" unicode="&#x39a;" horiz-adv-x="1079" 
d="M395 674l701 -674h-129l-658 631v-631h-92v1411h92v-702l574 702h116z" />
    <glyph glyph-name="Lambda" unicode="&#x39b;" 
d="M659 1411l537 -1411h-96l-490 1284l-491 -1284h-99l541 1411h98z" />
    <glyph glyph-name="Mu" unicode="&#x39c;" horiz-adv-x="1957" 
d="M1645 1411l178 -1411h-92l-158 1251l-547 -1112h-92l-551 1116l-158 -1255h-90l178 1411h90l578 -1182l573 1182h91z" />
    <glyph glyph-name="Nu" unicode="&#x39d;" horiz-adv-x="1417" 
d="M1106 150v1261h92v-1411h-102l-787 1260v-1260h-92v1411h105z" />
    <glyph glyph-name="Xi" unicode="&#x39e;" horiz-adv-x="1075" 
d="M129 1323v88h823v-88h-823zM866 647h-698v90h698v-90zM129 0v88h848v-88h-848z" />
    <glyph glyph-name="Omicron" unicode="&#x39f;" horiz-adv-x="1648" 
d="M823 -25q-195 0 -358 98t-256.5 265t-93.5 364q0 198 93.5 366.5t256.5 268t358 99.5q147 0 280 -58.5t227.5 -157.5t150 -234.5t55.5 -283.5q0 -197 -94 -364t-258 -265t-361 -98zM823 63q128 0 243.5 51t198 137.5t131 204t48.5 246.5q0 173 -82 321.5t-225.5 236.5
t-313.5 88q-169 0 -311.5 -88t-223.5 -236.5t-81 -321.5q0 -129 48 -246.5t130 -204t196.5 -137.5t241.5 -51z" />
    <glyph glyph-name="Pi" unicode="&#x3a0;" horiz-adv-x="1470" 
d="M1251 1411v-1411h-92v1327h-850v-1327h-92v1411h1034z" />
    <glyph glyph-name="Rho" unicode="&#x3a1;" horiz-adv-x="1239" 
d="M217 1411h551q101 0 178.5 -35.5t122 -96.5t66.5 -134t22 -156t-22 -156t-67.5 -133.5t-124.5 -95.5t-183 -35h-451v-569h-92v1411zM309 657h447q81 0 142.5 28t97 75.5t52.5 105t17 123.5t-16.5 123.5t-51 106t-94 76.5t-137.5 28h-457v-666z" />
    <glyph glyph-name="Sigma" unicode="&#x3a3;" horiz-adv-x="1163" 
d="M770 686l-563 -598h893v-88h-1022v74l590 633l-590 630v74h973v-88h-844l563 -594v-43z" />
    <glyph glyph-name="Tau" unicode="&#x3a4;" horiz-adv-x="1114" 
d="M45 1411h1024v-88h-467v-1323h-92v1323h-465v88z" />
    <glyph glyph-name="Upsilon" unicode="&#x3a5;" horiz-adv-x="1193" 
d="M596 758l469 653h111l-535 -741v-670h-92v672l-529 739h111z" />
    <glyph glyph-name="Phi" unicode="&#x3a6;" horiz-adv-x="1630" 
d="M1530 702q0 -110 -47 -210t-132 -177.5t-211.5 -126t-277.5 -55.5v-182h-92v180q-150 7 -277 56t-211.5 126.5t-132 178t-47.5 210.5q1 110 48.5 211.5t132.5 179.5t211.5 127t275.5 56v160h92v-162q151 -7 277.5 -55.5t211.5 -126.5t132 -178.5t47 -211.5zM195 702
q0 -187 159 -328t416 -153v965q-129 -6 -238.5 -48.5t-182.5 -109t-113.5 -151t-40.5 -175.5zM862 1186v-965q130 7 239.5 49t182.5 108t113.5 150t40.5 174q0 91 -40.5 175.5t-113.5 150.5t-182.5 108.5t-239.5 49.5z" />
    <glyph glyph-name="Chi" unicode="&#x3a7;" horiz-adv-x="1175" 
d="M641 762l510 -762h-113l-452 688l-453 -688h-108l507 762l-436 649h111l379 -575l381 575h112z" />
    <glyph glyph-name="Psi" unicode="&#x3a8;" horiz-adv-x="1529" 
d="M1341 1100v311h95l-2 -311q0 -305 -165.5 -465t-457.5 -172v-463h-92v463q-292 12 -457.5 172t-165.5 465v311h92v-311q0 -263 140.5 -398.5t390.5 -146.5v856h92v-858q251 11 390.5 146.5t139.5 400.5z" />
    <glyph glyph-name="uni03A9" unicode="&#x3a9;" horiz-adv-x="1681" 
d="M1550 709q0 -208 -107.5 -377t-275.5 -244h363v-88h-594v86q224 37 373 212.5t149 410.5q0 173 -81 319.5t-223.5 233t-313.5 86.5q-170 0 -312 -86.5t-223.5 -233t-81.5 -319.5q0 -235 149 -410.5t373 -212.5v-86h-593v88h362q-168 75 -275.5 244t-107.5 377
q0 148 55.5 282.5t150 232t226 155t277.5 57.5q147 0 279 -57.5t226 -155t149.5 -232t55.5 -282.5z" />
    <glyph glyph-name="uni03A9" unicode="&#x2126;" horiz-adv-x="1681" 
d="M1550 709q0 -208 -107.5 -377t-275.5 -244h363v-88h-594v86q224 37 373 212.5t149 410.5q0 173 -81 319.5t-223.5 233t-313.5 86.5q-170 0 -312 -86.5t-223.5 -233t-81.5 -319.5q0 -235 149 -410.5t373 -212.5v-86h-593v88h362q-168 75 -275.5 244t-107.5 377
q0 148 55.5 282.5t150 232t226 155t277.5 57.5q147 0 279 -57.5t226 -155t149.5 -232t55.5 -282.5z" />
    <glyph glyph-name="Iotadieresis" unicode="&#x3aa;" horiz-adv-x="528" 
d="M106 1647q-33 0 -55 20t-22 51q0 32 22 53t55 21q34 0 57 -21t23 -53q0 -31 -23 -51t-57 -20zM418 1647q-33 0 -55.5 20.5t-22.5 50.5q0 32 22.5 53t55.5 21q34 0 57 -21t23 -53q0 -31 -23 -51t-57 -20zM309 0h-92v1411h92v-1411z" />
    <glyph glyph-name="Upsilondieresis" unicode="&#x3ab;" horiz-adv-x="1193" 
d="M440 1647q-33 0 -56.5 20.5t-23.5 50.5q0 32 23.5 53t56.5 21t56.5 -21t23.5 -53q0 -30 -23.5 -50.5t-56.5 -20.5zM752 1647q-33 0 -56.5 20.5t-23.5 50.5q0 32 23.5 53t56.5 21t56 -21t23 -53q0 -30 -23 -50.5t-56 -20.5zM596 758l469 653h111l-535 -741v-670h-92v672
l-529 739h111z" />
    <glyph glyph-name="alphatonos" unicode="&#x3ac;" horiz-adv-x="1325" 
d="M745 1411h109l-217 -311h-90zM1243 76h43v-88h-55q-110 0 -164 52t-57 181q-60 -111 -171 -178.5t-245 -67.5q-132 0 -245.5 67t-180 183t-66.5 254q0 136 66 251.5t179.5 183t248.5 67.5q132 0 243.5 -65.5t170.5 -174.5v215h90v-725q0 -81 30 -118t113 -37zM600 63
q110 0 204 53t150 147t56 208q0 181 -121.5 301.5t-290.5 120.5q-167 0 -286 -122.5t-119 -291.5q0 -171 119.5 -293.5t287.5 -122.5z" />
    <glyph glyph-name="epsilontonos" unicode="&#x3ad;" horiz-adv-x="927" 
d="M502 1411h108l-217 -311h-88zM827 135l35 -88q-134 -72 -338 -72q-195 0 -309.5 76t-114.5 209q0 92 58.5 158.5t163.5 91.5q-73 27 -114.5 85.5t-41.5 129.5q0 113 103 184.5t268 71.5q161 0 290 -57l-34 -78q-103 47 -248 47q-128 0 -208.5 -46.5t-80.5 -129.5
q0 -76 69.5 -125t188.5 -49h150v-76h-160q-143 0 -228.5 -55t-85.5 -144q0 -97 94 -151t242 -54q185 0 301 72z" />
    <glyph glyph-name="etatonos" unicode="&#x3ae;" horiz-adv-x="1157" 
d="M623 1411h108l-217 -311h-88zM608 981q172 0 280.5 -114t108.5 -306v-1032h-90v1028q0 151 -86 242.5t-219 91.5q-66 0 -124 -20t-106.5 -60.5t-78 -110t-31.5 -161.5v-539h-90v956h90v-196q39 111 136.5 166t209.5 55z" />
    <glyph glyph-name="iotatonos" unicode="&#x3af;" horiz-adv-x="479" 
d="M252 1100h-88l196 311h109zM442 -12h-57q-113 0 -167 54.5t-54 190.5v723h90v-725q0 -80 30.5 -117.5t112.5 -37.5h45v-88z" />
    <glyph glyph-name="upsilondieresistonos" unicode="&#x3b0;" horiz-adv-x="1091" 
d="M481 1100h-73l86 315h98zM274 1192q-32 0 -54.5 20.5t-22.5 51.5q0 32 22 51.5t55 19.5t55.5 -19.5t22.5 -51.5q0 -31 -23 -51.5t-55 -20.5zM713 1192q-32 0 -55 20.5t-23 51.5q0 32 22.5 51.5t55.5 19.5t55.5 -19.5t22.5 -51.5q0 -31 -23 -51.5t-55 -20.5zM563 -25
q-179 0 -292 119.5t-113 313.5v548h90v-548q0 -155 88.5 -250t226.5 -95q150 0 240 111.5t90 286.5q0 126 -47.5 255.5t-132.5 239.5h94q80 -93 128 -224.5t48 -268.5q0 -217 -115.5 -352.5t-304.5 -135.5z" />
    <glyph glyph-name="alpha" unicode="&#x3b1;" horiz-adv-x="1325" 
d="M1243 76h43v-88h-55q-110 0 -164 52t-57 181q-60 -111 -171 -178.5t-245 -67.5q-132 0 -245.5 67t-180 183t-66.5 254q0 136 66 251.5t179.5 183t248.5 67.5q132 0 243.5 -65.5t170.5 -174.5v215h90v-725q0 -81 30 -118t113 -37zM600 63q110 0 204 53t150 147t56 208
q0 181 -121.5 301.5t-290.5 120.5q-167 0 -286 -122.5t-119 -291.5q0 -171 119.5 -293.5t287.5 -122.5z" />
    <glyph glyph-name="beta" unicode="&#x3b2;" horiz-adv-x="1216" 
d="M766 793q152 -14 251 -125.5t99 -274.5q0 -122 -64 -219t-167.5 -148t-225.5 -51q-123 0 -231.5 50.5t-165.5 136.5v-621h-90v1516q0 202 118 323t306 121q90 0 164 -32t120.5 -85t71.5 -119t25 -137q0 -115 -57.5 -202t-153.5 -133zM649 63q158 0 267.5 90.5
t109.5 239.5q0 165 -108 255.5t-293 90.5h-144v82h107q134 0 216.5 82t82.5 217q0 120 -77 206.5t-216 86.5q-149 0 -240.5 -97t-91.5 -259v-762q55 -107 156.5 -169.5t230.5 -62.5z" />
    <glyph glyph-name="gamma" unicode="&#x3b3;" horiz-adv-x="1015" 
d="M868 956h99l-416 -972v-455h-90v459l-410 968h99l356 -854z" />
    <glyph glyph-name="delta" unicode="&#x3b4;" horiz-adv-x="1208" 
d="M338 1389l479 -420q34 -29 47 -40.5t50.5 -48t56.5 -61t49 -68t45 -82.5t27 -91t12 -105q0 -213 -141.5 -355.5t-358.5 -142.5q-110 0 -204.5 40t-158.5 107t-100.5 156.5t-36.5 188.5q0 211 144 361.5t377 193.5l-435 381v74h840v-88h-692zM604 63q176 0 293 118
t117 292q0 42 -9.5 83.5t-20.5 73t-36 69t-39 57.5t-47.5 54t-43.5 43t-46 40l-35 31l-41 37q-226 -37 -363.5 -171t-137.5 -321q0 -170 116.5 -288t292.5 -118z" />
    <glyph glyph-name="epsilon" unicode="&#x3b5;" horiz-adv-x="927" 
d="M827 135l35 -88q-134 -72 -338 -72q-195 0 -309.5 76t-114.5 209q0 92 58.5 158.5t163.5 91.5q-73 27 -114.5 85.5t-41.5 129.5q0 113 103 184.5t268 71.5q161 0 290 -57l-34 -78q-103 47 -248 47q-128 0 -208.5 -46.5t-80.5 -129.5q0 -76 69.5 -125t188.5 -49h150v-76
h-160q-143 0 -228.5 -55t-85.5 -144q0 -97 94 -151t242 -54q185 0 301 72z" />
    <glyph glyph-name="zeta" unicode="&#x3b6;" horiz-adv-x="876" 
d="M856 1477v-82q-181 -123 -328 -276t-239 -323t-92 -315q0 -80 27 -144t65 -103t92.5 -68t97.5 -42t92 -22l273 -55l-107 -381h-94l92 316l-184 36q-62 12 -118 30.5t-118 55t-106.5 85t-73.5 123.5t-29 167q0 147 83 315.5t214 317.5t295 277h-483v88h641z" />
    <glyph glyph-name="eta" unicode="&#x3b7;" horiz-adv-x="1157" 
d="M608 981q172 0 280.5 -114t108.5 -306v-1032h-90v1028q0 151 -86 242.5t-219 91.5q-66 0 -124 -20t-106.5 -60.5t-78 -110t-31.5 -161.5v-539h-90v956h90v-196q39 111 136.5 166t209.5 55z" />
    <glyph glyph-name="theta" unicode="&#x3b8;" horiz-adv-x="1236" 
d="M621 1501q152 0 262.5 -95.5t167.5 -266.5t57 -400q0 -230 -57 -401.5t-167.5 -267t-262.5 -95.5q-153 0 -265.5 95.5t-170.5 267.5t-58 401q0 228 58 399.5t170.5 267t265.5 95.5zM621 1413q-183 0 -289.5 -171t-114.5 -460h801q-8 290 -112 460.5t-285 170.5zM621 63
q182 0 285.5 171.5t111.5 463.5h-801q8 -292 113.5 -463.5t290.5 -171.5z" />
    <glyph glyph-name="iota" unicode="&#x3b9;" horiz-adv-x="479" 
d="M442 -12h-57q-113 0 -167 54.5t-54 190.5v723h90v-725q0 -80 30.5 -117.5t112.5 -37.5h45v-88z" />
    <glyph glyph-name="kappa" unicode="&#x3ba;" horiz-adv-x="903" 
d="M350 459l522 -459h-133l-477 418v-418h-90v956h90v-471l440 471h150v-84h-111z" />
    <glyph glyph-name="lambda" unicode="&#x3bb;" horiz-adv-x="1021" 
d="M473 1190l506 -1190h-98l-379 885l-338 -885h-98l387 995l-56 142q-61 146 -129.5 211t-177.5 65h-67v88h67q139 0 227 -76t156 -235z" />
    <glyph glyph-name="uni03BC" unicode="&#x3bc;" horiz-adv-x="1208" 
d="M1126 76h43v-88h-55q-105 0 -158.5 46t-60.5 159q-26 -74 -84.5 -125t-124.5 -72t-137 -21q-95 0 -175 42t-126 114v-600h-90v1425h90v-559q0 -151 87 -242.5t220 -91.5q52 0 100 12t91.5 39.5t76 67.5t51.5 100t19 134v540h90v-725q0 -80 30.5 -117.5t112.5 -37.5z" />
    <glyph glyph-name="nu" unicode="&#x3bd;" horiz-adv-x="1015" 
d="M506 102l362 854h99l-408 -956h-102l-406 956h99z" />
    <glyph glyph-name="xi" unicode="&#x3be;" horiz-adv-x="935" 
d="M580 133l278 -63l-115 -404h-94l99 338l-179 41q-219 53 -345 164t-126 268q0 71 27 133.5t72.5 107t100.5 74t114 42.5q-95 39 -154 128t-59 187q0 157 116 254.5t297 97.5q124 0 226 -45l-29 -80q-90 37 -193 37q-141 0 -234 -73t-93 -189q0 -122 94.5 -202.5
t226.5 -80.5h109v-84h-137q-167 0 -280.5 -85t-113.5 -224q0 -120 107.5 -209.5t284.5 -132.5z" />
    <glyph glyph-name="omicron" unicode="&#x3bf;" horiz-adv-x="1208" 
d="M604 -25q-137 0 -250.5 62t-181.5 178.5t-68 265.5q0 148 68 263t181.5 176t250.5 61q136 0 249.5 -61t182 -176.5t68.5 -262.5q0 -148 -68.5 -265t-182 -179t-249.5 -62zM604 63q112 0 205 51t149 147.5t56 219.5q0 182 -119 297t-291 115q-173 0 -291 -115t-118 -297
q0 -185 118 -301.5t291 -116.5z" />
    <glyph glyph-name="pi" unicode="&#x3c0;" horiz-adv-x="1175" 
d="M1047 76h43v-88h-56q-113 0 -167 54.5t-54 190.5v635h-496v-868h-90v868h-172v88h1028v-88h-180v-637q0 -80 30.5 -117.5t113.5 -37.5z" />
    <glyph glyph-name="rho" unicode="&#x3c1;" horiz-adv-x="1249" 
d="M647 981q136 0 251 -67.5t182 -183t67 -251.5q0 -138 -66.5 -254t-180 -183t-245.5 -67q-130 0 -241 63.5t-174 168.5l2 -678h-92v920q0 85 17 158t46 126t69.5 96t84.5 71t93.5 46.5t95.5 26.5t91 8zM649 63q167 0 287.5 123t120.5 293q0 169 -120.5 291.5t-287.5 122.5
q-168 0 -288.5 -120.5t-120.5 -301.5q0 -173 120 -290.5t289 -117.5z" />
    <glyph glyph-name="uni03C2" unicode="&#x3c2;" horiz-adv-x="993" 
d="M197 481q0 -178 114.5 -284t296.5 -134l281 -43l-98 -354h-95l82 283l-170 26q-86 13 -161 39.5t-138 69.5t-108 99.5t-70 132.5t-25 165q0 147 68.5 262t182.5 176.5t251 61.5q183 0 324 -115l-55 -65q-117 92 -269 92q-174 0 -292.5 -115t-118.5 -297z" />
    <glyph glyph-name="sigma" unicode="&#x3c3;" horiz-adv-x="1247" 
d="M608 956h584v-88h-289q92 -62 146.5 -166.5t54.5 -232.5q0 -148 -68.5 -262t-181.5 -173t-250 -59q-138 0 -251 59t-181 173t-68 262t67.5 260t181.5 169.5t255 57.5zM1014 469q0 182 -118.5 291.5t-291.5 109.5q-174 0 -291.5 -109.5t-117.5 -291.5q0 -183 117.5 -294.5
t291.5 -111.5q173 0 291.5 112t118.5 294z" />
    <glyph glyph-name="tau" unicode="&#x3c4;" horiz-adv-x="899" 
d="M838 956v-88h-365v-637q0 -81 30 -118t113 -37h105v-88h-117q-113 0 -167 54.5t-54 190.5v635h-342v88h797z" />
    <glyph glyph-name="upsilon" unicode="&#x3c5;" horiz-adv-x="1091" 
d="M563 -25q-179 0 -292 119.5t-113 313.5v548h90v-548q0 -155 88.5 -250t226.5 -95q150 0 240 111.5t90 286.5q0 126 -47.5 255.5t-132.5 239.5h94q80 -93 128 -224.5t48 -268.5q0 -217 -115.5 -352.5t-304.5 -135.5z" />
    <glyph glyph-name="phi" unicode="&#x3c6;" horiz-adv-x="1615" 
d="M1516 477q0 -199 -182 -344.5t-480 -157.5v-446h-92v446q-298 12 -481 157.5t-183 344.5q2 200 184.5 346t479.5 158v365h92v-365q298 -12 480 -158t182 -346zM190 477q0 -164 157 -285t415 -133v838q-258 -12 -415 -133.5t-157 -286.5zM854 897v-838q257 12 413 133
t156 285t-156 286t-413 134z" />
    <glyph glyph-name="chi" unicode="&#x3c7;" horiz-adv-x="1015" 
d="M563 326l510 -797h-108l-457 725l-459 -725h-106l510 799l-428 628h108l373 -557l377 557h108z" />
    <glyph glyph-name="psi" unicode="&#x3c8;" horiz-adv-x="1527" 
d="M1300 608v348h91v-348q0 -303 -154.5 -462t-427.5 -171v-446h-90v446q-272 12 -427 171t-155 462v348h90v-348q0 -262 130 -396.5t362 -145.5v1280h90v-1280q232 11 361.5 145.5t129.5 396.5z" />
    <glyph glyph-name="omega" unicode="&#x3c9;" horiz-adv-x="1409" 
d="M436 -25q-143 0 -233 139t-90 359q0 132 48 262t126 221h92q-79 -103 -127.5 -233.5t-48.5 -249.5q0 -181 68 -295.5t171 -114.5q89 0 154.5 74t65.5 180v396h86v-396q0 -106 65.5 -180t155.5 -74q101 0 169 114.5t68 295.5q0 119 -48.5 249.5t-127.5 233.5h92
q78 -91 126 -221t48 -262q0 -220 -90 -359t-233 -139q-91 0 -162.5 47t-103.5 130h-5q-32 -83 -103.5 -130t-162.5 -47z" />
    <glyph glyph-name="iotadieresis" unicode="&#x3ca;" horiz-adv-x="479" 
d="M90 1192q-31 0 -54.5 21t-23.5 51q0 31 23 52t55 21q34 0 57 -20.5t23 -52.5q0 -31 -23 -51.5t-57 -20.5zM401 1192q-32 0 -54.5 20.5t-22.5 51.5q0 32 22 52.5t55 20.5q34 0 57 -20.5t23 -52.5q0 -31 -23 -51.5t-57 -20.5zM442 -12h-57q-113 0 -167 54.5t-54 190.5v723
h90v-725q0 -80 30.5 -117.5t112.5 -37.5h45v-88z" />
    <glyph glyph-name="upsilondieresis" unicode="&#x3cb;" horiz-adv-x="1091" 
d="M303 1192q-32 0 -55 20.5t-23 51.5q0 32 22.5 52.5t55.5 20.5q34 0 57 -20.5t23 -52.5q0 -31 -23 -51.5t-57 -20.5zM614 1192q-32 0 -54.5 20.5t-22.5 51.5q0 32 22 52.5t55 20.5q34 0 57 -20.5t23 -52.5q0 -31 -23 -51.5t-57 -20.5zM563 -25q-179 0 -292 119.5
t-113 313.5v548h90v-548q0 -155 88.5 -250t226.5 -95q150 0 240 111.5t90 286.5q0 126 -47.5 255.5t-132.5 239.5h94q80 -93 128 -224.5t48 -268.5q0 -217 -115.5 -352.5t-304.5 -135.5z" />
    <glyph glyph-name="omicrontonos" unicode="&#x3cc;" horiz-adv-x="1208" 
d="M633 1100h-88l196 311h109zM604 -25q-137 0 -250.5 62t-181.5 178.5t-68 265.5q0 148 68 263t181.5 176t250.5 61q136 0 249.5 -61t182 -176.5t68.5 -262.5q0 -148 -68.5 -265t-182 -179t-249.5 -62zM604 63q112 0 205 51t149 147.5t56 219.5q0 182 -119 297t-291 115
q-173 0 -291 -115t-118 -297q0 -185 118 -301.5t291 -116.5z" />
    <glyph glyph-name="upsilontonos" unicode="&#x3cd;" horiz-adv-x="1091" 
d="M514 1100h-90l199 311h108zM563 -25q-179 0 -292 119.5t-113 313.5v548h90v-548q0 -155 88.5 -250t226.5 -95q150 0 240 111.5t90 286.5q0 126 -47.5 255.5t-132.5 239.5h94q80 -93 128 -224.5t48 -268.5q0 -217 -115.5 -352.5t-304.5 -135.5z" />
    <glyph glyph-name="omegatonos" unicode="&#x3ce;" horiz-adv-x="1409" 
d="M715 1100h-88l196 311h109zM436 -25q-143 0 -233 139t-90 359q0 132 48 262t126 221h92q-79 -103 -127.5 -233.5t-48.5 -249.5q0 -181 68 -295.5t171 -114.5q89 0 154.5 74t65.5 180v396h86v-396q0 -106 65.5 -180t155.5 -74q101 0 169 114.5t68 295.5q0 119 -48.5 249.5
t-127.5 233.5h92q78 -91 126 -221t48 -262q0 -220 -90 -359t-233 -139q-91 0 -162.5 47t-103.5 130h-5q-32 -83 -103.5 -130t-162.5 -47z" />
    <glyph glyph-name="uni03CF" unicode="&#x3cf;" horiz-adv-x="1079" 
d="M999 1411l-604 -737l701 -674l-129 -334h-90l118 305l-686 658v-629h-92v1411h92v-702l574 702h116z" />
    <glyph glyph-name="uni03D7" unicode="&#x3d7;" horiz-adv-x="903" 
d="M741 872l-391 -413l522 -459l-129 -334h-90l119 303l-510 447v-416h-90v956h90v-471l440 471h150v-84h-111z" />
    <glyph glyph-name="uni0400" unicode="&#x400;" horiz-adv-x="1132" 
d="M434 1866l195 -312h-88l-215 312h108zM309 647v-559h715v-88h-807v1411h782v-88h-690v-586h604v-90h-604z" />
    <glyph glyph-name="uni0401" unicode="&#x401;" horiz-adv-x="1132" 
d="M416 1647q-33 0 -56.5 20.5t-23.5 50.5q0 32 23.5 53t56.5 21t55.5 -21t22.5 -53q0 -30 -22.5 -50.5t-55.5 -20.5zM727 1647q-33 0 -56.5 20.5t-23.5 50.5q0 32 23.5 53t56.5 21t56.5 -21t23.5 -53q0 -30 -23.5 -50.5t-56.5 -20.5zM309 647v-559h715v-88h-807v1411h782
v-88h-690v-586h604v-90h-604z" />
    <glyph glyph-name="uni0402" unicode="&#x402;" horiz-adv-x="1613" 
d="M1008 915q244 0 379 -114.5t135 -347.5q-1 -228 -121.5 -345t-339.5 -120h-103v86h103q171 3 268.5 95t97.5 284q0 374 -421 374q-201 0 -404 -45v-782h-92v1323h-465v88h1038v-88h-481v-453q206 45 406 45z" />
    <glyph glyph-name="uni0403" unicode="&#x403;" horiz-adv-x="935" 
d="M547 1554h-90l198 312h109zM217 0v1411h670v-88h-578v-1323h-92z" />
    <glyph glyph-name="uni0404" unicode="&#x404;" horiz-adv-x="1382" 
d="M813 63q238 0 412 164l63 -61q-92 -91 -215 -141t-260 -50q-144 0 -273.5 58t-222.5 155.5t-147.5 232t-54.5 281.5q0 198 92 366.5t253 268t353 99.5q137 0 260 -51t217 -142l-63 -61q-82 77 -189 121.5t-225 44.5q-161 0 -297.5 -83t-218 -223t-90.5 -305h848v-90h-846
q10 -120 61 -227.5t130 -186t187 -124.5t226 -46z" />
    <glyph glyph-name="uni0405" unicode="&#x405;" horiz-adv-x="1146" 
d="M571 -25q-95 0 -178.5 31.5t-140.5 84.5t-92.5 120.5t-42.5 140.5h92q16 -117 115.5 -203t246.5 -86q75 0 139 19.5t107.5 51t74.5 73t45.5 84.5t14.5 86q0 61 -24 110.5t-68 84t-95.5 57.5t-115.5 39l-196 45q-326 75 -326 342q0 108 62.5 196.5t162 136.5t211.5 48
q178 0 299 -98.5t131 -262.5h-92q-9 123 -104 198t-234 75q-136 0 -240 -84.5t-104 -208.5q0 -29 4.5 -53.5t20 -56t42 -56.5t74.5 -49.5t113 -40.5l197 -47q171 -42 272.5 -132t101.5 -237q0 -71 -30 -141.5t-86 -131t-149.5 -98t-207.5 -37.5z" />
    <glyph glyph-name="uni0406" unicode="&#x406;" horiz-adv-x="528" 
d="M309 0h-92v1411h92v-1411z" />
    <glyph glyph-name="uni0407" unicode="&#x407;" horiz-adv-x="528" 
d="M106 1647q-33 0 -55 20t-22 51q0 32 22 53t55 21q34 0 57 -21t23 -53q0 -31 -23 -51t-57 -20zM418 1647q-33 0 -55.5 20.5t-22.5 50.5q0 32 22.5 53t55.5 21q34 0 57 -21t23 -53q0 -31 -23 -51t-57 -20zM309 0h-92v1411h92v-1411z" />
    <glyph glyph-name="uni0408" unicode="&#x408;" horiz-adv-x="544" 
d="M-84 -477q-44 0 -106 10l12 88q62 -8 94 -8q85 0 147.5 27t99 76t53.5 110.5t17 136.5v1448h93v-1448q0 -93 -22.5 -170.5t-69.5 -139t-128 -96t-190 -34.5z" />
    <glyph glyph-name="uni0409" unicode="&#x409;" horiz-adv-x="2050" 
d="M1155 842h379q102 0 186.5 -34t139.5 -92t85.5 -134t30.5 -160t-30.5 -160t-85.5 -134.5t-139.5 -93t-186.5 -34.5h-471v1323h-580l-88 -903q-39 -418 -336 -418h-24v88h20q111 0 171 82.5t75 249.5l96 991l758 -2v-569zM1155 88h379q157 0 253.5 99t96.5 235t-96.5 234
t-253.5 98h-379v-666z" />
    <glyph glyph-name="uni040A" unicode="&#x40a;" horiz-adv-x="2109" 
d="M1214 842h379q135 0 237 -59t153 -153.5t51 -207.5q0 -175 -120 -298.5t-321 -123.5h-471v659h-813v-659h-92v1411h92v-668h813v668h92v-569zM1214 88h379q157 0 253 98.5t96 235.5q0 136 -96 234t-253 98h-379v-666z" />
    <glyph glyph-name="uni040B" unicode="&#x40b;" horiz-adv-x="1619" 
d="M1051 918q215 0 337.5 -121t122.5 -365v-432h-92v430q0 206 -98 302.5t-274 96.5q-230 0 -445 -47v-782h-92v1323h-465v88h1038v-88h-481v-453q222 48 449 48z" />
    <glyph glyph-name="uni040C" unicode="&#x40c;" horiz-adv-x="1206" 
d="M743 1866h109l-217 -312h-88zM1196 0h-119l-524 653h-244v-653h-92v1411h92v-674h248l457 674h104l-479 -717z" />
    <glyph glyph-name="uni040D" unicode="&#x40d;" horiz-adv-x="1417" 
d="M569 1866l195 -312h-88l-215 312h108zM309 150l785 1261h104v-1411h-92v1260l-784 -1260h-105v1411h92v-1261z" />
    <glyph glyph-name="uni040E" unicode="&#x40e;" horiz-adv-x="1155" 
d="M582 1589q-115 0 -174.5 68t-59.5 178h80q0 -78 38 -124t116 -46q71 0 112 44.5t41 125.5h82q0 -114 -64 -180t-171 -66zM608 543l443 868h104l-731 -1411h-105l238 451l-551 960h105z" />
    <glyph glyph-name="uni040F" unicode="&#x40f;" horiz-adv-x="1474" 
d="M1165 1411h92v-1411h-473v-328h-92v328h-475v1411h92v-1323h856v1323z" />
    <glyph glyph-name="uni0410" unicode="&#x410;" 
d="M1196 0h-96l-146 385h-688l-147 -385h-99l541 1411h98zM610 1288l-313 -821h625z" />
    <glyph glyph-name="uni0411" unicode="&#x411;" horiz-adv-x="1214" 
d="M309 842h379q102 0 186.5 -34t139.5 -92t85.5 -134t30.5 -160t-30.5 -160t-85.5 -134.5t-139.5 -93t-186.5 -34.5h-471v1411h760v-88h-668v-481zM309 88h379q157 0 253.5 99t96.5 235t-96.5 234t-253.5 98h-379v-666z" />
    <glyph glyph-name="uni0412" unicode="&#x412;" horiz-adv-x="1282" 
d="M891 754q92 -28 155.5 -91t90 -134.5t26.5 -147.5q0 -75 -27.5 -143.5t-76.5 -121.5t-123.5 -84.5t-161.5 -31.5h-557v1411h500q168 0 267 -88.5t99 -249.5q0 -106 -49 -194.5t-143 -124.5zM991 1069q0 121 -74 187.5t-202 66.5h-406v-535h449q109 0 171 80.5t62 200.5z
M309 88h455q138 0 222.5 87.5t84.5 209.5q0 134 -93 228t-233 94h-436v-619z" />
    <glyph glyph-name="uni0413" unicode="&#x413;" horiz-adv-x="935" 
d="M217 0v1411h670v-88h-578v-1323h-92z" />
    <glyph glyph-name="uni0414" unicode="&#x414;" horiz-adv-x="1329" 
d="M1098 1411v-1323h100v-416h-92v328h-975v-328h-92v416h20q110 0 168 96t80 301l101 926h690zM496 1323l-97 -840q-17 -154 -45 -249t-86 -146h738v1235h-510z" />
    <glyph glyph-name="uni0415" unicode="&#x415;" horiz-adv-x="1132" 
d="M309 647v-559h715v-88h-807v1411h782v-88h-690v-586h604v-90h-604z" />
    <glyph glyph-name="uni0416" unicode="&#x416;" horiz-adv-x="1808" 
d="M1804 0h-121l-548 659h-185v-659h-92v659h-184l-549 -659h-121l586 700l-488 711h109l457 -668h190v668h92v-668h191l458 668h109l-489 -711z" />
    <glyph glyph-name="uni0417" unicode="&#x417;" horiz-adv-x="1095" 
d="M700 756q128 -31 204.5 -128.5t76.5 -234.5q0 -190 -143.5 -304t-364.5 -114q-125 0 -236.5 36.5t-175.5 97.5l43 81q59 -59 156 -93t209 -34q187 0 303.5 92t116.5 242q0 136 -99 223t-260 87h-157v86h153q129 0 205 74.5t76 193.5q0 129 -91.5 208t-242.5 79
q-88 0 -175.5 -26.5t-145.5 -68.5l-33 78q62 47 159.5 76t196.5 29q190 0 307 -102.5t117 -264.5q0 -107 -52.5 -190t-146.5 -123z" />
    <glyph glyph-name="uni0418" unicode="&#x418;" horiz-adv-x="1417" 
d="M309 150l785 1261h104v-1411h-92v1260l-784 -1260h-105v1411h92v-1261z" />
    <glyph glyph-name="uni0419" unicode="&#x419;" horiz-adv-x="1417" 
d="M707 1589q-115 0 -174.5 68t-59.5 178h80q0 -78 38 -124t116 -46q71 0 111 44.5t40 125.5h82q0 -115 -63 -180.5t-170 -65.5zM309 150l785 1261h104v-1411h-92v1260l-784 -1260h-105v1411h92v-1261z" />
    <glyph glyph-name="uni041A" unicode="&#x41a;" horiz-adv-x="1206" 
d="M1196 0h-119l-524 653h-244v-653h-92v1411h92v-674h248l457 674h104l-479 -717z" />
    <glyph glyph-name="uni041B" unicode="&#x41b;" horiz-adv-x="1312" 
d="M303 420l103 991h688v-1411h-93v1323h-507l-99 -905q-45 -418 -336 -418h-24v88h20q109 0 170 83t78 249z" />
    <glyph glyph-name="uni041C" unicode="&#x41c;" horiz-adv-x="1957" 
d="M1645 1411l178 -1411h-92l-158 1251l-547 -1112h-92l-551 1116l-158 -1255h-90l178 1411h90l578 -1182l573 1182h91z" />
    <glyph glyph-name="uni041D" unicode="&#x41d;" horiz-adv-x="1470" 
d="M1159 743v668h92v-1411h-92v659h-850v-659h-92v1411h92v-668h850z" />
    <glyph glyph-name="uni041E" unicode="&#x41e;" horiz-adv-x="1648" 
d="M823 -25q-195 0 -358 98t-256.5 265t-93.5 364q0 198 93.5 366.5t256.5 268t358 99.5q147 0 280 -58.5t227.5 -157.5t150 -234.5t55.5 -283.5q0 -197 -94 -364t-258 -265t-361 -98zM823 63q128 0 243.5 51t198 137.5t131 204t48.5 246.5q0 173 -82 321.5t-225.5 236.5
t-313.5 88q-169 0 -311.5 -88t-223.5 -236.5t-81 -321.5q0 -129 48 -246.5t130 -204t196.5 -137.5t241.5 -51z" />
    <glyph glyph-name="uni041F" unicode="&#x41f;" horiz-adv-x="1437" 
d="M217 0v1411h1002v-1411h-93v1323h-817v-1323h-92z" />
    <glyph glyph-name="uni0420" unicode="&#x420;" horiz-adv-x="1239" 
d="M217 1411h551q101 0 178.5 -35.5t122 -96.5t66.5 -134t22 -156t-22 -156t-67.5 -133.5t-124.5 -95.5t-183 -35h-451v-569h-92v1411zM309 657h447q81 0 142.5 28t97 75.5t52.5 105t17 123.5t-16.5 123.5t-51 106t-94 76.5t-137.5 28h-457v-666z" />
    <glyph glyph-name="uni0421" unicode="&#x421;" horiz-adv-x="1366" 
d="M813 -25q-144 0 -273.5 58t-222.5 155.5t-147.5 232t-54.5 281.5q0 198 92 366.5t253 268t353 99.5q137 0 260 -51t217 -142l-63 -61q-82 77 -189 121.5t-225 44.5q-166 0 -306 -88t-220 -236.5t-80 -321.5q0 -172 80 -319t219.5 -233.5t306.5 -86.5q238 0 412 164
l63 -61q-92 -91 -215 -141t-260 -50z" />
    <glyph glyph-name="uni0422" unicode="&#x422;" horiz-adv-x="1114" 
d="M45 1411h1024v-88h-467v-1323h-92v1323h-465v88z" />
    <glyph glyph-name="uni0423" unicode="&#x423;" horiz-adv-x="1155" 
d="M608 543l443 868h104l-731 -1411h-105l238 451l-551 960h105z" />
    <glyph glyph-name="uni0424" unicode="&#x424;" horiz-adv-x="1679" 
d="M1575 702q0 -234 -167.5 -367t-520.5 -142v-193h-92v193q-353 9 -521 141.5t-168 367.5q1 155 71 265t225.5 175.5t392.5 71.5v197h92v-197q353 -9 520.5 -143t167.5 -369zM199 702q0 -194 144.5 -304t451.5 -117v845q-307 -7 -451.5 -117.5t-144.5 -306.5zM887 1126
v-845q306 9 451 118.5t145 302.5q0 195 -145 305t-451 119z" />
    <glyph glyph-name="uni0425" unicode="&#x425;" horiz-adv-x="1175" 
d="M641 762l510 -762h-113l-452 688l-453 -688h-108l507 762l-436 649h111l379 -575l381 575h112z" />
    <glyph glyph-name="uni0426" unicode="&#x426;" horiz-adv-x="1488" 
d="M1257 1411v-1323h99v-416h-92v328h-1047v1411h92v-1323h856v1323h92z" />
    <glyph glyph-name="uni0427" unicode="&#x427;" horiz-adv-x="1331" 
d="M1022 655v756h92v-1411h-92v567q-206 -47 -449 -47q-215 0 -338.5 121t-123.5 365v405h92v-403q0 -205 99.5 -302.5t275.5 -97.5q227 0 444 47z" />
    <glyph glyph-name="uni0428" unicode="&#x428;" horiz-adv-x="2099" 
d="M1790 88v1323h92v-1411h-1665v1411h92v-1323h695v1323h92v-1323h694z" />
    <glyph glyph-name="uni0429" unicode="&#x429;" horiz-adv-x="2113" 
d="M1882 1411v-1323h98v-416h-92v328h-1671v1411h92v-1323h695v1323h92v-1323h694v1323h92z" />
    <glyph glyph-name="uni042A" unicode="&#x42a;" horiz-adv-x="1406" 
d="M512 842h379q102 0 186 -34t139 -92.5t85 -134t30 -159.5q0 -175 -119.5 -298.5t-320.5 -123.5h-471v1323h-377v88h469v-569zM512 88h379q157 0 252.5 98.5t95.5 235.5q0 136 -95.5 234t-252.5 98h-379v-666z" />
    <glyph glyph-name="uni042B" unicode="&#x42b;" horiz-adv-x="1671" 
d="M309 842h379q102 0 186.5 -34t139.5 -92t85.5 -134t30.5 -160t-30.5 -160t-85.5 -134.5t-139.5 -93t-186.5 -34.5h-471v1411h92v-569zM1360 0v1411h92v-1411h-92zM309 88h379q157 0 253.5 99t96.5 235t-96.5 234t-253.5 98h-379v-666z" />
    <glyph glyph-name="uni042C" unicode="&#x42c;" horiz-adv-x="1206" 
d="M309 842h379q102 0 186.5 -34t139.5 -92t85.5 -134t30.5 -160t-30.5 -160t-85.5 -134.5t-139.5 -93t-186.5 -34.5h-471v1411h92v-569zM309 88h379q157 0 253.5 99t96.5 235t-96.5 234t-253.5 98h-379v-666z" />
    <glyph glyph-name="uni042D" unicode="&#x42d;" horiz-adv-x="1382" 
d="M569 1436q192 0 353 -99.5t253.5 -268t92.5 -366.5q0 -197 -92.5 -364t-253.5 -265t-353 -98q-137 0 -260 50t-215 141l64 61q174 -164 411 -164q118 0 226 46t187.5 124.5t130.5 186t61 227.5h-846v90h848q-9 165 -91 305t-218.5 223t-297.5 83q-232 0 -413 -166l-64 61
q94 91 217 142t260 51z" />
    <glyph glyph-name="uni042E" unicode="&#x42e;" horiz-adv-x="2172" 
d="M1348 1427q147 0 279 -57.5t227 -154.5t150.5 -231t55.5 -282q0 -147 -55.5 -280.5t-150.5 -230.5t-227 -154t-279 -57q-189 0 -348.5 90.5t-255 246t-105.5 342.5h-330v-659h-92v1411h92v-668h330q7 142 65 268.5t151.5 217.5t222 144.5t270.5 53.5zM1348 68
q128 0 243.5 50.5t197.5 135.5t130.5 202t48.5 246q0 173 -81.5 319t-224.5 232t-314 86q-127 0 -242 -50.5t-197.5 -136t-131 -203.5t-48.5 -247q0 -172 82 -317.5t224.5 -231t312.5 -85.5z" />
    <glyph glyph-name="uni042F" unicode="&#x42f;" horiz-adv-x="1249" 
d="M510 1411h520v-1411h-92v569h-281l-401 -569h-113l400 569h-31q-102 0 -180 35.5t-123 96t-67.5 133.5t-22.5 155q0 83 22 156t66.5 134t122.5 96.5t180 35.5zM530 657h408v666h-428q-76 0 -135 -27.5t-94 -74.5t-52.5 -106t-17.5 -126q0 -68 17.5 -126t54 -105t100 -74
t147.5 -27z" />
    <glyph glyph-name="uni0430" unicode="&#x430;" horiz-adv-x="1271" 
d="M1010 739v217h90v-956h-90v223q-60 -112 -171 -180t-245 -68q-132 0 -245.5 67t-180 183t-66.5 254q0 136 66 251.5t179.5 183t248.5 67.5q131 0 243 -66.5t171 -175.5zM600 63q110 0 204 53t150 147t56 208q0 181 -121.5 301.5t-290.5 120.5q-167 0 -286 -122.5
t-119 -291.5q0 -171 119.5 -293.5t287.5 -122.5z" />
    <glyph glyph-name="uni0431" unicode="&#x431;" horiz-adv-x="1239" 
d="M639 981q134 0 246.5 -61t181 -176.5t68.5 -262.5q0 -223 -146.5 -364.5t-355.5 -141.5q-241 0 -370.5 157t-129.5 468q0 81 8 153.5t28 148.5t52.5 139t84.5 120.5t120.5 98.5t163.5 68.5t211 33.5q38 2 64 12.5t38.5 23t32.5 38.5l74 -47q-68 -106 -191 -111
q-152 -6 -265 -49.5t-177.5 -115t-96 -153.5t-36.5 -178q61 91 166.5 145t228.5 54zM633 63q173 0 292 116.5t119 301.5q0 183 -119 297.5t-292 114.5q-164 0 -286 -106t-122 -234q0 -104 23 -190.5t70.5 -154.5t127.5 -106.5t187 -38.5z" />
    <glyph glyph-name="uni0432" unicode="&#x432;" horiz-adv-x="1075" 
d="M784 510q93 -26 140 -96t47 -152q0 -107 -78 -184.5t-209 -77.5h-512v956h471q123 0 196.5 -62t73.5 -171q0 -70 -32 -128.5t-97 -84.5zM823 713q0 74 -49 114.5t-133 40.5h-379v-323h404q73 0 115 47t42 121zM262 88h412q95 0 151 52.5t56 129.5q0 81 -61 139t-156 58
h-402v-379z" />
    <glyph glyph-name="uni0433" unicode="&#x433;" horiz-adv-x="745" 
d="M172 956h530v-88h-440v-868h-90v956z" />
    <glyph glyph-name="uni0434" unicode="&#x434;" horiz-adv-x="1101" 
d="M915 956v-868h74v-364h-92v276h-764v-276h-90v356h51q79 0 117 64.5t61 215.5l90 596h553zM444 868l-82 -518q-12 -75 -19 -111t-25 -81.5t-44 -69.5h551v780h-381z" />
    <glyph glyph-name="uni0435" unicode="&#x435;" horiz-adv-x="1155" 
d="M1057 481v-39h-860q13 -172 121 -275.5t272 -103.5q106 0 195.5 50t142.5 137l80 -39q-65 -110 -176.5 -173t-243.5 -63q-205 0 -344.5 141.5t-139.5 364.5q0 110 38 204.5t103.5 159t154 100.5t188.5 36q206 0 337.5 -138t131.5 -362zM197 520h770q-10 169 -115 271
t-264 102q-162 0 -269 -100t-122 -273z" />
    <glyph glyph-name="uni0436" unicode="&#x436;" horiz-adv-x="1486" 
d="M1454 0h-108l-351 446h-202v-446h-91v446h-210l-351 -446h-108l377 481l-320 475h103l286 -430h223v430h91v-430h215l286 430h103l-320 -475z" />
    <glyph glyph-name="uni0437" unicode="&#x437;" horiz-adv-x="915" 
d="M596 510q101 -22 160 -89.5t59 -160.5q0 -133 -113 -209t-305 -76q-199 0 -327 72l30 88q116 -72 295 -72q146 0 238 54t92 151q0 89 -83.5 144t-223.5 55h-156v76h148q116 0 184 49t68 125q0 83 -79 129.5t-204 46.5q-140 0 -244 -49l-35 80q126 57 287 57
q162 0 263.5 -71.5t101.5 -184.5q0 -69 -42 -127.5t-114 -87.5z" />
    <glyph glyph-name="uni0438" unicode="&#x438;" horiz-adv-x="1161" 
d="M262 137l641 819h86v-956h-90v823l-645 -823h-82v956h90v-819z" />
    <glyph glyph-name="uni0439" unicode="&#x439;" horiz-adv-x="1161" 
d="M528 1139q-114 0 -172.5 67.5t-58.5 177.5h80q0 -78 37.5 -124t113.5 -46q71 0 112.5 44.5t41.5 125.5h82q0 -115 -64 -180t-172 -65zM262 137l641 819h86v-956h-90v823l-645 -823h-82v956h90v-819z" />
    <glyph glyph-name="uni043A" unicode="&#x43a;" horiz-adv-x="1009" 
d="M977 0h-109l-348 446h-258v-446h-90v956h90v-430h273l284 430h101l-316 -477z" />
    <glyph glyph-name="uni043B" unicode="&#x43b;" horiz-adv-x="1071" 
d="M260 309l86 647h553v-956h-90v868h-379l-80 -563q-22 -153 -83 -229t-173 -76h-49v84h39q79 0 120 53.5t56 171.5z" />
    <glyph glyph-name="uni043C" unicode="&#x43c;" horiz-adv-x="1449" 
d="M1206 956l131 -956h-86l-108 803l-377 -705h-80l-375 703l-110 -801h-88l131 956h78l405 -766l403 766h76z" />
    <glyph glyph-name="uni043D" unicode="&#x43d;" horiz-adv-x="1157" 
d="M895 516v440h90v-956h-90v436h-633v-436h-90v956h90v-440h633z" />
    <glyph glyph-name="uni043E" unicode="&#x43e;" horiz-adv-x="1208" 
d="M604 -25q-137 0 -250.5 62t-181.5 178.5t-68 265.5q0 148 68 263t181.5 176t250.5 61q136 0 249.5 -61t182 -176.5t68.5 -262.5q0 -148 -68.5 -265t-182 -179t-249.5 -62zM604 63q112 0 205 51t149 147.5t56 219.5q0 182 -119 297t-291 115q-173 0 -291 -115t-118 -297
q0 -185 118 -301.5t291 -116.5z" />
    <glyph glyph-name="uni043F" unicode="&#x43f;" horiz-adv-x="1157" 
d="M172 0v956h813v-956h-90v868h-633v-868h-90z" />
    <glyph glyph-name="uni0440" unicode="&#x440;" horiz-adv-x="1273" 
d="M678 981q203 0 347 -146.5t144 -357.5q0 -139 -66 -254.5t-179 -181.5t-246 -66t-244.5 66.5t-171.5 175.5v-680h-90v1419h90v-217q59 109 171.5 175.5t244.5 66.5zM674 63q167 0 286 121t119 293t-119 294t-286 122q-170 0 -291 -117t-121 -291q0 -183 121.5 -302.5
t290.5 -119.5z" />
    <glyph glyph-name="uni0441" unicode="&#x441;" horiz-adv-x="1013" 
d="M606 -25q-137 0 -251 62.5t-182.5 179t-68.5 264.5q0 147 68.5 262t182.5 176.5t251 61.5q183 0 324 -115l-56 -65q-117 92 -268 92q-174 0 -292.5 -115t-118.5 -297q0 -184 118.5 -301t292.5 -117q151 0 268 93l58 -66q-141 -115 -326 -115z" />
    <glyph glyph-name="uni0442" unicode="&#x442;" horiz-adv-x="845" 
d="M41 956h762v-88h-336v-868h-90v868h-336v88z" />
    <glyph glyph-name="uni0443" unicode="&#x443;" horiz-adv-x="1013" 
d="M508 113l360 843h99l-605 -1419h-96l193 461l-404 958h99z" />
    <glyph glyph-name="uni0444" unicode="&#x444;" horiz-adv-x="1406" 
d="M1303 469q0 -221 -142.5 -352.5t-412.5 -141.5v-438h-89v438q-271 10 -413 141t-142 353q0 225 143.5 362.5t411.5 149.5v496h89v-496q267 -12 410 -150t145 -362zM195 469q0 -183 118.5 -289.5t345.5 -116.5v830q-224 -10 -344 -124t-120 -300zM748 891v-828
q227 10 345.5 117t118.5 289q-2 185 -120.5 298.5t-343.5 123.5z" />
    <glyph glyph-name="uni0445" unicode="&#x445;" horiz-adv-x="929" 
d="M522 530l379 -530h-110l-324 451l-328 -451h-110l383 530l-310 426h113l252 -350l250 350h112z" />
    <glyph glyph-name="uni0446" unicode="&#x446;" horiz-adv-x="1144" 
d="M952 956v-868h90v-364h-90v276h-780v956h90v-868h600v868h90z" />
    <glyph glyph-name="uni0447" unicode="&#x447;" horiz-adv-x="1036" 
d="M774 465v491h90v-956h-90v381q-164 -35 -301 -35q-183 0 -281 96t-98 279v235h90v-235q0 -289 297 -289q141 0 293 33z" />
    <glyph glyph-name="uni0448" unicode="&#x448;" horiz-adv-x="1495" 
d="M1231 88v868h90v-956h-1149v956h90v-868h438v868h91v-868h440z" />
    <glyph glyph-name="uni0449" unicode="&#x449;" horiz-adv-x="1517" 
d="M1321 956v-868h102v-364h-90v276h-1161v956h90v-868h438v868h91v-868h440v868h90z" />
    <glyph glyph-name="uni044A" unicode="&#x44a;" horiz-adv-x="1126" 
d="M381 582h371q78 0 137.5 -24t93 -65.5t50 -91.5t16.5 -108t-16.5 -108.5t-49.5 -93t-91 -67t-134 -24.5h-467v868h-248v88h338v-374zM381 88h371q103 0 154.5 57.5t51.5 145.5q0 90 -52.5 146.5t-164.5 56.5h-360v-406z" />
    <glyph glyph-name="uni044B" unicode="&#x44b;" horiz-adv-x="1294" 
d="M262 582h352q78 0 136.5 -24t92 -65.5t50 -91.5t16.5 -108t-16 -108.5t-49 -93t-90.5 -67t-132.5 -24.5h-449v956h90v-374zM1032 0v956h90v-956h-90zM262 88h352q103 0 154 57.5t51 145.5q0 90 -52.5 146.5t-162.5 56.5h-342v-406z" />
    <glyph glyph-name="uni044C" unicode="&#x44c;" horiz-adv-x="1026" 
d="M262 582h391q78 0 137 -24t93 -65.5t50.5 -92t16.5 -107.5q0 -58 -16.5 -108.5t-49.5 -93t-91 -67t-134 -24.5h-487v956h90v-374zM262 88h391q103 0 154 57.5t51 145.5q0 91 -51.5 147t-163.5 56h-381v-406z" />
    <glyph glyph-name="uni044D" unicode="&#x44d;" horiz-adv-x="1050" 
d="M440 981q139 0 256.5 -69t184.5 -185t67 -250t-67 -249t-184.5 -184t-256.5 -69q-102 0 -193.5 38.5t-158.5 107.5l64 55q119 -113 288 -113q160 0 277.5 106t136.5 259h-582v84h582q-12 159 -130.5 270t-283.5 111q-169 0 -288 -113l-66 56q69 68 160.5 106.5
t193.5 38.5z" />
    <glyph glyph-name="uni044E" unicode="&#x44e;" horiz-adv-x="1593" 
d="M989 981q136 0 249.5 -61t182 -176.5t68.5 -262.5q0 -148 -68.5 -265t-182 -179t-249.5 -62q-199 0 -340.5 127t-156.5 334h-230v-436h-90v956h90v-440h227q13 208 155.5 336.5t344.5 128.5zM989 63q112 0 205 51t149 147.5t56 219.5q0 183 -119 297.5t-291 114.5
q-173 0 -291 -114.5t-118 -297.5q0 -185 118 -301.5t291 -116.5z" />
    <glyph glyph-name="uni044F" unicode="&#x44f;" horiz-adv-x="1075" 
d="M399 956h504v-956h-90v377h-303l-283 -377h-108l282 377q-77 1 -135 25.5t-91.5 66t-49.5 91.5t-16 108q0 57 16.5 107t49.5 91.5t91 65.5t133 24zM418 461h395v407h-410q-102 0 -153 -56t-51 -144q0 -92 53.5 -149.5t165.5 -57.5z" />
    <glyph glyph-name="uni0450" unicode="&#x450;" horiz-adv-x="1155" 
d="M436 1411l193 -311h-88l-215 311h110zM1057 481v-39h-860q13 -172 121 -275.5t272 -103.5q106 0 195.5 50t142.5 137l80 -39q-65 -110 -176.5 -173t-243.5 -63q-205 0 -344.5 141.5t-139.5 364.5q0 110 38 204.5t103.5 159t154 100.5t188.5 36q206 0 337.5 -138
t131.5 -362zM197 520h770q-10 169 -115 271t-264 102q-162 0 -269 -100t-122 -273z" />
    <glyph glyph-name="uni0451" unicode="&#x451;" horiz-adv-x="1155" 
d="M416 1192q-32 0 -55 20.5t-23 51.5q0 32 22.5 52.5t55.5 20.5t56.5 -20.5t23.5 -52.5q0 -30 -23.5 -51t-56.5 -21zM727 1192q-32 0 -55 20.5t-23 51.5q0 32 22.5 52.5t55.5 20.5q34 0 57 -20.5t23 -52.5q0 -31 -23 -51.5t-57 -20.5zM1057 481v-39h-860
q13 -172 121 -275.5t272 -103.5q106 0 195.5 50t142.5 137l80 -39q-65 -110 -176.5 -173t-243.5 -63q-205 0 -344.5 141.5t-139.5 364.5q0 110 38 204.5t103.5 159t154 100.5t188.5 36q206 0 337.5 -138t131.5 -362zM197 520h770q-10 169 -115 271t-264 102
q-162 0 -269 -100t-122 -273z" />
    <glyph glyph-name="uni0452" unicode="&#x452;" horiz-adv-x="1157" 
d="M997 481l4 -479q-3 -229 -123.5 -347t-338.5 -118h-39v84h41q169 0 267.5 94t98.5 287v475q0 151 -86 242.5t-219 91.5q-66 0 -124 -20t-106.5 -60.5t-78 -110t-31.5 -161.5v-459h-90v1198h-125v70h125v209h90v-209h400v-70h-400v-518q26 75 84.5 126.5t124.5 73
t137 21.5q172 0 280.5 -114t108.5 -306z" />
    <glyph glyph-name="uni0453" unicode="&#x453;" horiz-adv-x="745" 
d="M537 1411h108l-217 -311h-88zM172 956h530v-88h-440v-868h-90v956z" />
    <glyph glyph-name="uni0454" unicode="&#x454;" horiz-adv-x="1050" 
d="M610 63q166 0 289 113l64 -55q-67 -69 -159 -107.5t-196 -38.5q-138 0 -255 69t-184 184.5t-67 248.5q0 134 67 250t183.5 185t255.5 69q103 0 195.5 -38.5t161.5 -106.5l-66 -56q-123 113 -289 113q-165 0 -284 -111t-131 -270h581v-84h-581q19 -153 137 -259t278 -106z
" />
    <glyph glyph-name="uni0455" unicode="&#x455;" horiz-adv-x="866" 
d="M432 -25q-127 0 -225 68t-117 190h86q22 -73 84.5 -123.5t171.5 -50.5q112 0 179 54.5t67 140.5q0 134 -170 178l-141 33q-238 55 -238 254q0 114 87 188t218 74q124 0 209 -65.5t92 -178.5h-88q-9 71 -68 115.5t-143 44.5q-95 0 -156 -50t-61 -126q0 -138 170 -174
l141 -33q125 -30 181.5 -100t56.5 -162q0 -123 -93.5 -200t-242.5 -77z" />
    <glyph glyph-name="uni0456" unicode="&#x456;" horiz-adv-x="434" 
d="M217 1237q-32 0 -55 20.5t-23 51.5q0 32 22.5 52.5t55.5 20.5q34 0 57 -20.5t23 -52.5q0 -31 -23 -51.5t-57 -20.5zM262 0h-90v956h90v-956z" />
    <glyph glyph-name="uni0457" unicode="&#x457;" horiz-adv-x="434" 
d="M61 1204q-33 0 -56 21t-23 51q0 32 23 53t56 21t55.5 -21t22.5 -53q0 -31 -23 -51.5t-55 -20.5zM373 1204q-33 0 -56.5 21t-23.5 51q0 32 23.5 53t56.5 21t56.5 -21t23.5 -53q0 -30 -23.5 -51t-56.5 -21zM262 0h-90v956h90v-956z" />
    <glyph glyph-name="uni0458" unicode="&#x458;" horiz-adv-x="450" 
d="M233 1237q-32 0 -54.5 20.5t-22.5 51.5q0 32 22 52.5t55 20.5q34 0 57 -20.5t23 -52.5q0 -31 -23 -51.5t-57 -20.5zM-45 -463h-84v86h80q237 0 237 318v1015h91v-1015q0 -404 -324 -404z" />
    <glyph glyph-name="uni0459" unicode="&#x459;" horiz-adv-x="1644" 
d="M881 582h389q78 0 137.5 -24t93 -65.5t50 -91.5t16.5 -108t-16.5 -108.5t-49.5 -93t-91 -67t-134 -24.5h-488v868h-360l-78 -563q-22 -153 -83 -229t-173 -76h-49v84h39q79 0 120 53.5t56 171.5l86 647h535v-374zM881 88h391q102 0 153.5 57.5t51.5 145.5
q0 90 -52.5 146.5t-164.5 56.5h-379v-406z" />
    <glyph glyph-name="uni045A" unicode="&#x45a;" horiz-adv-x="1718" 
d="M954 582h389q78 0 137.5 -24t93 -65.5t50 -91.5t16.5 -108q0 -46 -9.5 -87t-32 -79.5t-55 -66t-82.5 -44t-111 -16.5h-488v436h-600v-436h-90v956h90v-440h600v440h92v-374zM954 88h392q102 0 153 57.5t51 145.5q0 90 -52.5 146.5t-164.5 56.5h-379v-406z" />
    <glyph glyph-name="uni045B" unicode="&#x45b;" horiz-adv-x="1157" 
d="M608 901q172 0 280.5 -114t108.5 -306v-481h-90v477q0 151 -86 242.5t-219 91.5q-66 0 -124 -20t-106.5 -60.5t-78 -110t-31.5 -161.5v-459h-90v1198h-125v70h125v209h90v-209h400v-70h-400v-518q39 111 136.5 166t209.5 55z" />
    <glyph glyph-name="uni045C" unicode="&#x45c;" horiz-adv-x="1009" 
d="M657 1415h109l-217 -311h-90zM977 0h-109l-348 446h-258v-446h-90v956h90v-430h273l284 430h101l-316 -477z" />
    <glyph glyph-name="uni045D" unicode="&#x45d;" horiz-adv-x="1161" 
d="M393 1415l195 -311h-88l-215 311h108zM262 137l641 819h86v-956h-90v823l-645 -823h-82v956h90v-819z" />
    <glyph glyph-name="uni045E" unicode="&#x45e;" horiz-adv-x="1013" 
d="M508 1135q-114 0 -174 68t-60 177h82q0 -77 38 -123.5t114 -46.5q71 0 112.5 44.5t41.5 125.5h81q0 -114 -64 -179.5t-171 -65.5zM508 113l360 843h99l-605 -1419h-96l193 461l-404 958h99z" />
    <glyph glyph-name="uni045F" unicode="&#x45f;" horiz-adv-x="1124" 
d="M862 956h90v-956h-344v-276h-90v276h-346v956h90v-868h600v868z" />
    <glyph glyph-name="uni0462" unicode="&#x462;" horiz-adv-x="1282" 
d="M387 842h379q102 0 186 -34t139 -92.5t85 -134t30 -159.5q0 -175 -119.5 -298.5t-320.5 -123.5h-471v1104h-242v76h242v231h92v-231h391v-76h-391v-262zM387 88h379q157 0 252.5 98.5t95.5 235.5q0 136 -95.5 234t-252.5 98h-379v-666z" />
    <glyph glyph-name="uni0463" unicode="&#x463;" horiz-adv-x="1144" 
d="M381 582h389q78 0 137.5 -24t93 -65.5t50 -91.5t16.5 -108t-16.5 -108.5t-49.5 -93t-91 -67t-134 -24.5h-485v1014h-254v69h254v394h90v-394h420v-69h-420v-432zM381 88h391q102 0 153.5 57.5t51.5 145.5q0 90 -52.5 146.5t-164.5 56.5h-379v-406z" />
    <glyph glyph-name="uni0472" unicode="&#x472;" horiz-adv-x="1648" 
d="M823 1436q147 0 280 -58.5t227.5 -157.5t150 -234.5t55.5 -283.5q0 -197 -94 -364t-258 -265t-361 -98q-195 0 -358 98t-256.5 265t-93.5 364q0 198 93.5 366.5t256.5 268t358 99.5zM823 1348q-122 0 -233 -47.5t-191.5 -128.5t-131.5 -191.5t-58 -232.5h1233
q-9 122 -60 232.5t-132.5 191.5t-192.5 128.5t-234 47.5zM823 63q123 0 235.5 48t194 128.5t132 191.5t57.5 233h-1233q9 -164 91.5 -301.5t220.5 -218.5t302 -81z" />
    <glyph glyph-name="uni0473" unicode="&#x473;" horiz-adv-x="1208" 
d="M604 981q136 0 249.5 -61t182 -176.5t68.5 -262.5q0 -148 -68.5 -265t-182 -179t-249.5 -62q-137 0 -250.5 62t-181.5 178.5t-68 265.5q0 148 68 263t181.5 176t250.5 61zM604 893q-164 0 -280.5 -105t-126.5 -274h815q-10 168 -127.5 273.5t-280.5 105.5zM604 63
q163 0 279.5 105.5t128.5 275.5h-815q12 -171 127.5 -276t279.5 -105z" />
    <glyph glyph-name="uni0474" unicode="&#x474;" horiz-adv-x="1273" 
d="M604 0h-110l-426 1411h98l383 -1282l301 1014q15 54 28 89t37 74t53.5 61t76.5 37t108 15h53v-88h-55q-42 0 -75 -12t-53 -28.5t-36.5 -45.5t-24.5 -51t-18 -57z" />
    <glyph glyph-name="uni0475" unicode="&#x475;" horiz-adv-x="1095" 
d="M997 981h27v-88h-29q-44 0 -77.5 -15t-55.5 -45t-35.5 -57t-29.5 -67q-3 -7 -4 -11l-263 -698h-104l-369 956h99l321 -858l221 607q16 42 24.5 63.5t25.5 56t31 53t37 41.5t47.5 34.5t59 19.5t74.5 8z" />
    <glyph glyph-name="uni0490" unicode="&#x490;" horiz-adv-x="935" 
d="M799 1739h90l-2 -416h-578v-1323h-92v1411h582v328z" />
    <glyph glyph-name="uni0491" unicode="&#x491;" horiz-adv-x="745" 
d="M612 1245h90v-377h-440v-868h-90v956h440v289z" />
    <glyph glyph-name="uni0492" unicode="&#x492;" horiz-adv-x="964" 
d="M903 1411v-88h-577v-522h376v-76h-376v-725h-93v725h-186v76h186v610h670z" />
    <glyph glyph-name="uni0493" unicode="&#x493;" horiz-adv-x="784" 
d="M733 956v-88h-440v-307h356v-72h-356v-489h-90v489h-158v72h158v395h530z" />
    <glyph glyph-name="uni0496" unicode="&#x496;" horiz-adv-x="1884" 
d="M1221 698l512 -610h153v-416h-92v328h-111l-548 659h-185v-659h-92v659h-184l-549 -659h-121l586 698l-488 713h109l457 -668h190v668h92v-668h191l458 668h109z" />
    <glyph glyph-name="uni0497" unicode="&#x497;" horiz-adv-x="1548" 
d="M1075 481l307 -393h140v-364h-90v276h-86l-349 446h-204v-446h-91v446h-210l-351 -446h-108l377 481l-320 475h103l286 -430h223v430h91v-430h215l286 430h103z" />
    <glyph glyph-name="uni049A" unicode="&#x49a;" horiz-adv-x="1290" 
d="M639 694l489 -606h144v-416h-92v328h-103l-524 653h-244v-653h-92v1411h92v-674h248l457 674h104z" />
    <glyph glyph-name="uni049B" unicode="&#x49b;" horiz-adv-x="1071" 
d="M604 479l305 -391h135v-364h-90v276h-86l-344 446h-262v-446h-90v956h90v-430h273l284 430h101z" />
    <glyph glyph-name="uni04A2" unicode="&#x4a2;" horiz-adv-x="1488" 
d="M1251 1411v-1323h125v-416h-92v328h-125v659h-850v-659h-92v1411h92v-668h850v668h92z" />
    <glyph glyph-name="uni04A3" unicode="&#x4a3;" horiz-adv-x="1183" 
d="M985 956v-868h107v-364h-88v276h-109v436h-633v-436h-90v956h90v-440h633v440h90z" />
    <glyph glyph-name="uni04AE" unicode="&#x4ae;" horiz-adv-x="1193" 
d="M596 758l469 653h111l-535 -741v-670h-92v672l-529 739h111z" />
    <glyph glyph-name="uni04AF" unicode="&#x4af;" horiz-adv-x="1013" 
d="M504 109l362 847h99l-412 -962v-457h-98v457l-404 962h99z" />
    <glyph glyph-name="uni04B0" unicode="&#x4b0;" horiz-adv-x="1226" 
d="M1081 1411h111l-526 -733h358v-76h-365v-602h-92v602h-360v76h356l-524 733h108l467 -651z" />
    <glyph glyph-name="uni04B1" unicode="&#x4b1;" horiz-adv-x="1017" 
d="M868 956h99l-379 -886h274v-70h-305l-2 -6v-457h-98v457l-2 6h-299v70h268l-371 886h99l356 -850z" />
    <glyph glyph-name="uni04B2" unicode="&#x4b2;" horiz-adv-x="1243" 
d="M639 762l453 -674h145v-416h-92v328h-107l-452 686l-453 -686h-110l509 762l-438 649h111l381 -573l379 573h112z" />
    <glyph glyph-name="uni04B3" unicode="&#x4b3;" horiz-adv-x="1003" 
d="M524 530l314 -442h141v-364h-88v276h-100l-326 453l-326 -453h-110l381 528l-308 428h113l252 -350l250 350h112z" />
    <glyph glyph-name="uni04B6" unicode="&#x4b6;" horiz-adv-x="1349" 
d="M1114 1411v-1323h123v-416h-92v328h-123v567q-206 -47 -449 -47q-215 0 -338.5 121t-123.5 365v405h92v-403q0 -205 99.5 -302.5t275.5 -97.5q227 0 444 47v756h92z" />
    <glyph glyph-name="uni04B7" unicode="&#x4b7;" horiz-adv-x="1062" 
d="M864 956v-868h107v-364h-90v276h-107v381q-164 -35 -301 -35q-183 0 -281 96t-98 279v235h90v-235q0 -289 297 -289q141 0 293 33v491h90z" />
    <glyph glyph-name="uni04BA" unicode="&#x4ba;" horiz-adv-x="1327" 
d="M758 918q215 0 339 -121t124 -365v-432h-93v430q0 205 -99 302t-275 97q-228 0 -445 -47v-782h-92v1411h92v-541q222 48 449 48z" />
    <glyph glyph-name="uni04BB" unicode="&#x4bb;" horiz-adv-x="1157" 
d="M608 981q172 0 280.5 -114t108.5 -306v-561h-90v557q0 151 -86 242.5t-219 91.5q-66 0 -124 -20t-106.5 -60.5t-78 -110t-31.5 -161.5v-539h-90v1477h90v-717q39 111 136.5 166t209.5 55z" />
    <glyph glyph-name="uni04C0" unicode="&#x4c0;" horiz-adv-x="528" 
d="M309 0h-92v1411h92v-1411z" />
    <glyph glyph-name="uni04CF" unicode="&#x4cf;" horiz-adv-x="434" 
d="M262 0h-90v1477h90v-1477z" />
    <glyph glyph-name="uni04D8" unicode="&#x4d8;" horiz-adv-x="1638" 
d="M815 1436q146 0 278 -58t226 -155.5t149.5 -232t55.5 -281.5q0 -198 -93.5 -366.5t-257 -268t-358.5 -99.5q-147 0 -280 58.5t-227.5 157.5t-150 234.5t-55.5 283.5q0 27 2 43h1326q-9 163 -92 299.5t-221.5 216.5t-301.5 80q-165 0 -304.5 -82.5t-223.5 -221.5l-84 39
q94 162 256 257.5t356 95.5zM815 63q164 0 302.5 82t221 221t91.5 304h-1233q9 -165 92 -304t222 -221t304 -82z" />
    <glyph glyph-name="uni04D9" unicode="&#x4d9;" horiz-adv-x="1157" 
d="M567 981q205 0 344.5 -141.5t139.5 -364.5q0 -110 -38 -204.5t-103.5 -159t-154 -100.5t-188.5 -36q-205 0 -337 138.5t-132 361.5v39h860q-13 172 -121 275.5t-272 103.5q-107 0 -196 -49.5t-142 -136.5l-80 38q65 110 176.5 173t243.5 63zM567 63q162 0 269 100
t122 273h-770q10 -169 115 -271t264 -102z" />
    <glyph glyph-name="uni04E2" unicode="&#x4e2;" horiz-adv-x="1417" 
d="M469 1733h477v-80h-477v80zM309 150l785 1261h104v-1411h-92v1260l-784 -1260h-105v1411h92v-1261z" />
    <glyph glyph-name="uni04E3" unicode="&#x4e3;" horiz-adv-x="1161" 
d="M293 1282h477v-80h-477v80zM262 137l641 819h86v-956h-90v823l-645 -823h-82v956h90v-819z" />
    <glyph glyph-name="uni04E8" unicode="&#x4e8;" horiz-adv-x="1648" 
d="M823 1436q147 0 280 -58.5t227.5 -157.5t150 -234.5t55.5 -283.5q0 -197 -94 -364t-258 -265t-361 -98q-195 0 -358 98t-256.5 265t-93.5 364q0 198 93.5 366.5t256.5 268t358 99.5zM823 1348q-122 0 -233 -47.5t-191.5 -128.5t-131.5 -191.5t-58 -232.5h1233
q-9 122 -60 232.5t-132.5 191.5t-192.5 128.5t-234 47.5zM823 63q123 0 235.5 48t194 128.5t132 191.5t57.5 233h-1233q9 -164 91.5 -301.5t220.5 -218.5t302 -81z" />
    <glyph glyph-name="uni04E9" unicode="&#x4e9;" horiz-adv-x="1208" 
d="M604 981q136 0 249.5 -61t182 -176.5t68.5 -262.5q0 -148 -68.5 -265t-182 -179t-249.5 -62q-137 0 -250.5 62t-181.5 178.5t-68 265.5q0 148 68 263t181.5 176t250.5 61zM604 893q-164 0 -280.5 -105t-126.5 -274h815q-10 168 -127.5 273.5t-280.5 105.5zM604 63
q163 0 279.5 105.5t128.5 275.5h-815q12 -171 127.5 -276t279.5 -105z" />
    <glyph glyph-name="uni04EE" unicode="&#x4ee;" horiz-adv-x="1155" 
d="M338 1733h479v-80h-479v80zM608 543l443 868h104l-731 -1411h-105l238 451l-551 960h105z" />
    <glyph glyph-name="uni04EF" unicode="&#x4ef;" horiz-adv-x="1013" 
d="M270 1278h480v-80h-480v80zM508 113l360 843h99l-605 -1419h-96l193 461l-404 958h99z" />
    <glyph glyph-name="Wgrave" unicode="&#x1e80;" horiz-adv-x="1857" 
d="M791 1866l194 -312h-88l-215 312h109zM1284 135l428 1276h98l-479 -1411h-96l-307 1051l-305 -1051h-97l-479 1411h96l428 -1274l310 1057h96z" />
    <glyph glyph-name="wgrave" unicode="&#x1e81;" horiz-adv-x="1634" 
d="M688 1411l195 -311h-88l-215 311h108zM1178 137l307 819h96l-358 -956h-84l-324 844l-313 -844h-86l-367 956h96l314 -821l305 821h102z" />
    <glyph glyph-name="Wacute" unicode="&#x1e82;" horiz-adv-x="1857" 
d="M1081 1866h109l-217 -312h-88zM1284 135l428 1276h98l-479 -1411h-96l-307 1051l-305 -1051h-97l-479 1411h96l428 -1274l310 1057h96z" />
    <glyph glyph-name="wacute" unicode="&#x1e83;" horiz-adv-x="1634" 
d="M979 1411h108l-217 -311h-88zM1178 137l307 819h96l-358 -956h-84l-324 844l-313 -844h-86l-367 956h96l314 -821l305 821h102z" />
    <glyph glyph-name="Wdieresis" unicode="&#x1e84;" horiz-adv-x="1857" 
d="M772 1647q-33 0 -56.5 20.5t-23.5 50.5q0 32 23.5 53t56.5 21t55.5 -21t22.5 -53q0 -30 -22.5 -50.5t-55.5 -20.5zM1083 1647q-33 0 -56 20.5t-23 50.5q0 32 23 53t56 21t56.5 -21t23.5 -53q0 -30 -23.5 -50.5t-56.5 -20.5zM1284 135l428 1276h98l-479 -1411h-96
l-307 1051l-305 -1051h-97l-479 1411h96l428 -1274l310 1057h96z" />
    <glyph glyph-name="wdieresis" unicode="&#x1e85;" horiz-adv-x="1634" 
d="M670 1192q-33 0 -56.5 21t-23.5 51q0 32 23.5 52.5t56.5 20.5t55.5 -20.5t22.5 -52.5q0 -31 -23 -51.5t-55 -20.5zM981 1192q-33 0 -56.5 21t-23.5 51q0 32 23.5 52.5t56.5 20.5t56.5 -20.5t23.5 -52.5q0 -30 -23.5 -51t-56.5 -21zM1178 137l307 819h96l-358 -956h-84
l-324 844l-313 -844h-86l-367 956h96l314 -821l305 821h102z" />
    <glyph glyph-name="uni1E9E" unicode="&#x1e9e;" horiz-adv-x="1357" 
d="M1143 1331l-320 -481q197 -24 314.5 -143t117.5 -285q0 -202 -136.5 -324.5t-360.5 -122.5q-109 0 -215 29l22 84q73 -27 191 -27q183 0 295 99.5t112 263.5q0 136 -106.5 232.5t-278.5 113.5l-53 4l-14 68l303 456q-55 22 -139.5 36t-151.5 14q-220 0 -325 -107
t-105 -356v-885h-92v885q0 289 130.5 420t393.5 131q99 0 222 -24.5t196 -61.5v-19z" />
    <glyph glyph-name="Ygrave" unicode="&#x1ef2;" horiz-adv-x="1193" 
d="M459 1866l194 -312h-88l-215 312h109zM596 758l469 653h111l-535 -741v-670h-92v672l-529 739h111z" />
    <glyph glyph-name="ygrave" unicode="&#x1ef3;" horiz-adv-x="1013" 
d="M373 1411l194 -311h-90l-213 311h109zM508 113l360 843h99l-605 -1419h-96l193 461l-404 958h99z" />
    <glyph glyph-name="uni2009" unicode="&#x2009;" horiz-adv-x="405" 
 />
    <glyph glyph-name="endash" unicode="&#x2013;" horiz-adv-x="1155" 
d="M1028 416h-901v86h901v-86z" />
    <glyph glyph-name="emdash" unicode="&#x2014;" horiz-adv-x="1568" 
d="M1444 416h-1317v86h1317v-86z" />
    <glyph glyph-name="quoteleft" unicode="&#x2018;" horiz-adv-x="446" 
d="M221 897h-92q-6 172 46 333.5t147 278.5l61 -22q-84 -119 -126.5 -271t-35.5 -319z" />
    <glyph glyph-name="quoteright" unicode="&#x2019;" horiz-adv-x="446" 
d="M154 897l-62 23q83 119 125 271t35 318h92q7 -171 -44 -332t-146 -280z" />
    <glyph glyph-name="quotesinglbase" unicode="&#x201a;" horiz-adv-x="425" 
d="M76 -293l-62 23q84 117 126.5 269.5t35.5 319.5h92q6 -172 -45.5 -333.5t-146.5 -278.5z" />
    <glyph glyph-name="quotedblleft" unicode="&#x201c;" horiz-adv-x="684" 
d="M217 897h-88q-6 175 43.5 336t144.5 276l62 -22q-84 -119 -126.5 -271t-35.5 -319zM459 897h-86q-7 173 42 334.5t144 277.5l62 -22q-84 -119 -126.5 -271t-35.5 -319z" />
    <glyph glyph-name="quotedblright" unicode="&#x201d;" horiz-adv-x="684" 
d="M154 897l-62 23q83 119 125 271t35 318h88q6 -173 -43 -334t-143 -278zM395 897l-61 23q84 118 126 269.5t36 319.5h86q6 -173 -43.5 -334t-143.5 -278z" />
    <glyph glyph-name="quotedblbase" unicode="&#x201e;" horiz-adv-x="663" 
d="M76 -293l-62 23q84 117 126.5 269.5t35.5 319.5h86q6 -174 -43 -335t-143 -277zM317 -293l-61 23q84 117 126.5 269.5t35.5 319.5h86q7 -173 -42.5 -334t-144.5 -278z" />
    <glyph glyph-name="dagger" unicode="&#x2020;" horiz-adv-x="833" 
d="M461 -270h-90v1183h-269v91h269v401h90v-401h270v-91h-270v-1183z" />
    <glyph glyph-name="daggerdbl" unicode="&#x2021;" horiz-adv-x="833" 
d="M461 -270h-90v456h-269v88h269v639h-269v91h269v401h90v-401h270v-91h-270v-639h270v-88h-270v-456z" />
    <glyph glyph-name="bullet" unicode="&#x2022;" horiz-adv-x="901" 
d="M451 240q-107 0 -180.5 68.5t-73.5 170.5q0 103 73.5 172.5t180.5 69.5q105 0 179.5 -69.5t74.5 -172.5q0 -102 -74.5 -170.5t-179.5 -68.5z" />
    <glyph glyph-name="ellipsis" unicode="&#x2026;" horiz-adv-x="1277" 
d="M227 -20q-34 0 -57 21.5t-23 53.5t23 53t57 21t57 -21t23 -53t-23 -53.5t-57 -21.5zM637 -20q-33 0 -56.5 21.5t-23.5 53.5t23.5 53t56.5 21q34 0 58 -21t24 -53t-24 -53.5t-58 -21.5zM1049 -20q-33 0 -56.5 21.5t-23.5 53.5t23.5 53t56.5 21q34 0 57.5 -21t23.5 -53
t-23.5 -53.5t-57.5 -21.5z" />
    <glyph glyph-name="perthousand" unicode="&#x2030;" horiz-adv-x="1812" 
d="M309 0h-82l686 1411h80zM328 872q-107 0 -179.5 72.5t-72.5 179.5q0 106 72.5 180t179.5 74q106 0 180 -74t74 -180q0 -107 -74 -179.5t-180 -72.5zM328 950q73 0 124.5 50.5t51.5 123.5q0 72 -52 124t-124 52q-73 0 -123.5 -51.5t-50.5 -124.5q0 -74 50 -124t124 -50z
M879 -18q-107 0 -179.5 72t-72.5 179q0 105 73 179.5t179 74.5q105 0 179.5 -74.5t74.5 -179.5q0 -107 -74 -179t-180 -72zM1491 -18q-106 0 -179 72t-73 179q0 105 73.5 179.5t178.5 74.5t179.5 -74.5t74.5 -179.5q0 -107 -74 -179t-180 -72zM879 59q73 0 124.5 50.5
t51.5 123.5q0 72 -52 124.5t-124 52.5q-73 0 -123.5 -52t-50.5 -125t50.5 -123.5t123.5 -50.5zM1491 59q74 0 125 50.5t51 123.5q0 72 -51.5 124.5t-124.5 52.5t-122.5 -52t-49.5 -125q0 -74 49.5 -124t122.5 -50z" />
    <glyph glyph-name="guilsinglleft" unicode="&#x2039;" horiz-adv-x="614" 
d="M502 51h-99l-282 424l282 424h97l-283 -424z" />
    <glyph glyph-name="guilsinglright" unicode="&#x203a;" horiz-adv-x="614" 
d="M213 51h-98l282 424l-282 424h98l283 -424z" />
    <glyph glyph-name="fraction" unicode="&#x2044;" horiz-adv-x="368" 
d="M-236 -20h-90l920 1396h88z" />
    <glyph glyph-name="uni2070" unicode="&#x2070;" horiz-adv-x="712" 
d="M356 1069q-76 0 -129 29t-81.5 83.5t-41 120t-12.5 150.5q0 84 12.5 149.5t41 120t81.5 84t129 29.5t130 -29.5t83 -84t41.5 -120t12.5 -149.5q0 -85 -12.5 -150.5t-41.5 -120t-82.5 -83.5t-130.5 -29zM356 1147q185 0 185 305q0 307 -185 307q-182 0 -182 -307
q0 -305 182 -305z" />
    <glyph glyph-name="uni2074" unicode="&#x2074;" horiz-adv-x="698" 
d="M518 1311h117v-76h-117v-154h-82v154h-385v25l424 565h43v-514zM436 1663l-260 -352h260v352z" />
    <glyph glyph-name="uni2075" unicode="&#x2075;" horiz-adv-x="663" 
d="M352 1552q103 0 169.5 -65.5t66.5 -167.5q0 -111 -76 -180.5t-186 -69.5q-81 0 -149 39t-107 106l65 41q27 -48 77 -78t107 -30q82 0 134.5 47.5t52.5 124.5q0 72 -48.5 118t-123.5 46q-96 0 -195 -62l-43 35l64 369h379v-76h-310l-47 -244q79 47 170 47z" />
    <glyph glyph-name="uni2076" unicode="&#x2076;" horiz-adv-x="692" 
d="M367 1548q107 0 175 -68t68 -167q0 -97 -67.5 -170.5t-190.5 -73.5q-124 0 -193 82t-69 238q0 59 5.5 113t24 117.5t48.5 109t83.5 76t125.5 30.5q159 0 221 -137l-68 -37q-46 98 -151 98q-54 0 -94.5 -25.5t-63.5 -69.5t-34 -94t-13 -106q31 39 82.5 61.5t110.5 22.5z
M352 1147q79 0 127.5 49t48.5 119q0 68 -48 115t-122 47q-68 0 -124 -37.5t-56 -108.5q0 -89 50 -136.5t124 -47.5z" />
    <glyph glyph-name="uni2077" unicode="&#x2077;" horiz-adv-x="604" 
d="M70 1747v78h491v-10l-377 -734h-92l342 666h-364z" />
    <glyph glyph-name="uni2078" unicode="&#x2078;" horiz-adv-x="694" 
d="M467 1507q66 -25 107.5 -81.5t41.5 -125.5q0 -99 -77.5 -165t-190.5 -66q-115 0 -192.5 66.5t-77.5 164.5q0 69 40.5 125.5t106.5 81.5q-38 19 -61 58.5t-23 87.5q0 77 58.5 129.5t148.5 52.5q89 0 148 -52.5t59 -129.5q0 -48 -24.5 -87.5t-63.5 -58.5zM348 1761
q-55 0 -91 -32.5t-36 -79.5q0 -48 35.5 -81t91.5 -34q55 1 91 34t36 81q0 46 -36.5 79t-90.5 33zM348 1145q79 0 131.5 46.5t52.5 115.5q0 68 -52.5 114.5t-131.5 46.5q-81 0 -132.5 -46.5t-51.5 -114.5q0 -69 52.5 -115.5t131.5 -46.5z" />
    <glyph glyph-name="uni2079" unicode="&#x2079;" horiz-adv-x="692" 
d="M338 1835q123 0 193.5 -84.5t70.5 -230.5q0 -42 -2.5 -80.5t-10.5 -85t-20.5 -85.5t-35 -77t-52 -64.5t-72.5 -42.5t-96 -16q-157 0 -219 137l68 37q45 -96 151 -96q55 0 95.5 25.5t63.5 69.5t34 94t12 106q-29 -40 -80 -63t-112 -23q-108 0 -176 68t-68 167q0 98 67 171
t189 73zM334 1427q67 0 123.5 37.5t56.5 108.5q0 89 -50.5 136.5t-125.5 47.5q-77 0 -125.5 -49t-48.5 -119q0 -68 48 -115t122 -47z" />
    <glyph glyph-name="uni207A" unicode="&#x207a;" horiz-adv-x="606" 
d="M336 1399h192v-66h-192v-192h-68v192h-190v66h190v190h68v-190z" />
    <glyph glyph-name="uni207B" unicode="&#x207b;" horiz-adv-x="634" 
d="M545 1343h-455v68h455v-68z" />
    <glyph glyph-name="uni207C" unicode="&#x207c;" horiz-adv-x="729" 
d="M618 1462h-507v66h507v-66zM618 1229h-507v65h507v-65z" />
    <glyph glyph-name="uni207D" unicode="&#x207d;" horiz-adv-x="454" 
d="M393 952v-63q-138 6 -222.5 143t-84.5 365q0 227 84.5 364.5t222.5 143.5v-66q-99 -5 -166 -120.5t-67 -321.5q0 -207 67 -323.5t166 -121.5z" />
    <glyph glyph-name="uni207E" unicode="&#x207e;" horiz-adv-x="454" 
d="M61 889v63q99 5 165.5 121.5t66.5 323.5q0 206 -66.5 321.5t-165.5 120.5v66q138 -6 223 -144t85 -364q0 -228 -85 -365t-223 -143z" />
    <glyph glyph-name="colonmonetary" unicode="&#x20a1;" horiz-adv-x="1300" 
d="M764 111q220 0 369 143l61 -59q-84 -82 -195.5 -128.5t-234.5 -46.5q-82 0 -156 21l-55 -188l-64 20l56 188q-76 27 -144 76l-65 -221l-64 21l72 247q-101 93 -158 221t-57 273q1 163 73 304.5t197 232.5t279 112l67 236l66 -21l-61 -209h14q70 0 145 -16l54 182l65 -20
l-53 -183q128 -47 221 -137l-61 -59q-77 74 -185 114l-317 -1087q69 -16 131 -16zM723 1243l-295 -1014q58 -49 141 -82l316 1086q-59 12 -121 12q-27 0 -41 -2zM219 678q0 -233 154 -397l276 952q-187 -40 -308.5 -195.5t-121.5 -359.5z" />
    <glyph glyph-name="lira" unicode="&#x20a4;" horiz-adv-x="1280" 
d="M391 641h262v-74h-522v74h170v332q0 178 119.5 285.5t284.5 107.5q157 0 266.5 -97.5t118.5 -258.5h-91q-9 123 -92.5 196.5t-206.5 73.5q-126 0 -217.5 -84t-91.5 -223v-332zM1087 176v92h91v-92q0 -74 -45 -125t-115 -51h-922v88h205v305h-170v74h522v-74h-262v-305
h617q34 0 56.5 25t22.5 63z" />
    <glyph glyph-name="uni20A6" unicode="&#x20a6;" horiz-adv-x="1538" 
d="M1436 827v-67h-176v-162h176v-68h-176v-530h-103l-344 530h-442v-530h-92v530h-177v68h177v162h-177v67h177v527h104l340 -527h444v527h93v-527h176zM621 827l-250 383v-383h250zM371 760v-162h397l-104 162h-293zM872 598h295v162h-399zM915 530l252 -389v389h-252z" />
    <glyph glyph-name="peseta" unicode="&#x20a7;" horiz-adv-x="2693" 
d="M233 1411h549q101 0 179 -35.5t123 -96t67.5 -134t22.5 -156.5t-22.5 -156t-68.5 -133.5t-125.5 -95.5t-183.5 -35h-448v-569h-93v1411zM1466 1352h90v-396h230v-79h-230v-877h-90v877h-174v79h174v396zM326 657h446q81 0 142.5 28t97 75.5t52.5 105t17 123.5t-17 123.5
t-51.5 106t-93.5 76.5t-137 28h-456v-666zM2189 547l142 -33q125 -30 181 -100t56 -162q0 -123 -93.5 -200t-242.5 -77q-127 0 -227 68t-127 190h98q20 -72 83 -123t173 -51q112 0 179 54.5t67 140.5q0 134 -172 178l-139 33q-238 55 -238 254q0 114 86.5 188t218.5 74
q123 0 207.5 -65.5t93.5 -178.5h-90q-7 71 -66 115.5t-143 44.5q-95 0 -156 -50t-61 -126q0 -138 170 -174z" />
    <glyph glyph-name="uni20A8" unicode="&#x20a8;" horiz-adv-x="1159" 
d="M1053 1282h-324q109 -83 139 -238h215l-30 -73h-176q2 -12 2 -39q0 -83 -21 -154.5t-64.5 -131t-119.5 -95t-178 -37.5l360 -514h-111l-362 514l-240 -2v90h332q81 0 142 27t96.5 74.5t53 105t17.5 123.5q0 27 -2 39h-639v73h629q-27 104 -101 163t-188 59h-340l-2 88
h942z" />
    <glyph glyph-name="uni20A9" unicode="&#x20a9;" horiz-adv-x="1945" 
d="M1739 1354h96l-182 -537h168v-67h-191l-53 -160h244v-68h-269l-176 -522h-98l-152 522h-307l-153 -522h-97l-178 522h-266v68h244l-56 160h-188v67h166l-182 537h96l180 -537h428l111 377h98l108 -377h429zM1040 817l-67 232l-68 -232h135zM795 750h-385l53 -160h285z
M885 750l-47 -160h268l-47 160h-174zM1198 590h285l53 160h-385zM485 522l129 -385l113 385h-242zM1217 522l112 -387l131 387h-243z" />
    <glyph glyph-name="uni20AA" unicode="&#x20aa;" horiz-adv-x="1613" 
d="M309 0h-92v1354h408q187 0 302 -116.5t115 -289.5v-495h-90v495q0 136 -90 227t-237 91h-316v-1266zM1395 0h-406q-187 0 -302.5 116.5t-115.5 289.5v497h91v-497q0 -134 90 -225t237 -91h316v1264h90v-1354z" />
    <glyph glyph-name="dong" unicode="&#x20ab;" horiz-adv-x="1388" 
d="M1128 1319h166v-72h-166v-1130h-90v219q-59 -110 -170.5 -175t-244.5 -65t-246 65.5t-179.5 180.5t-66.5 254t66.5 253.5t179 179.5t246.5 65t245 -64t170 -172v389h-426v72h426v158h90v-158zM627 184q170 0 290.5 115.5t120.5 290.5q0 182 -120.5 300t-290.5 118
q-168 0 -287 -120t-119 -290q0 -171 119 -292.5t287 -121.5zM1073 -129h-799v74h799v-74z" />
    <glyph glyph-name="Euro" unicode="&#x20ac;" horiz-adv-x="1607" 
d="M416 801h624v-70h-923v70h205q50 248 237 409.5t438 161.5q133 0 254.5 -49.5t216.5 -138.5l-59 -64q-182 164 -412 164q-213 0 -373.5 -137t-207.5 -346zM997 63q233 0 410 162l61 -63q-95 -89 -216.5 -138t-254.5 -49q-253 0 -439 163.5t-234 414.5h-207v70h923v-70
h-624q45 -211 206.5 -350.5t374.5 -139.5z" />
    <glyph glyph-name="uni20AE" unicode="&#x20ae;" horiz-adv-x="1163" 
d="M1098 1354v-88h-467v-418l235 172v-82l-235 -172v-119l235 172v-82l-235 -172v-565h-92v498l-234 -172v82l234 172v118l-234 -172v82l234 172v486h-465v88h1024z" />
    <glyph glyph-name="uni20B1" unicode="&#x20b1;" horiz-adv-x="1380" 
d="M1092 1108h188v-66h-174q6 -37 6 -73q0 -22 -4 -58h172v-65h-184q-32 -116 -126 -187t-255 -71h-365v-588h-92v846h-131v65h131v131h-131v66h131v246h465q151 0 242.5 -67.5t126.5 -178.5zM721 1266h-371v-158h643q-31 72 -99 115t-173 43zM1020 969q0 35 -6 73h-664
v-131h666q4 36 4 58zM350 678h361q221 0 286 168h-647v-168z" />
    <glyph glyph-name="uni20B4" unicode="&#x20b4;" horiz-adv-x="1157" 
d="M846 866l-72 -63h244v-72h-866v72h501l127 121q39 38 57.5 58.5t35 54t16.5 69.5q0 74 -55.5 118t-145.5 44h-475v86h481q130 0 208.5 -66t78.5 -178q0 -17 -2.5 -33.5t-4.5 -29t-9 -28t-10.5 -24t-15 -24t-15.5 -21.5t-18.5 -22t-18 -20t-21 -21.5zM360 553h-208v72h866
v-72h-535l-131 -123q-38 -38 -55.5 -58t-34 -53.5t-16.5 -68.5q0 -74 55 -118t145 -44h517v-88h-523q-130 0 -208 66t-78 178q0 19 2 36t7.5 33.5t9 28t15 28t15.5 23.5t20.5 25t20 22t23 24t22.5 23z" />
    <glyph glyph-name="uni20BA" unicode="&#x20ba;" horiz-adv-x="1255" 
d="M1038 690v125h90v-125q0 -313 -159 -501.5t-424 -188.5h-271v655l-151 -110v82l151 110v117l-151 -111v82l151 111v418h91v-350l319 233v-82l-319 -233v-117l319 233v-82l-319 -233v-633h180q224 0 358.5 164t134.5 436z" />
    <glyph glyph-name="uni20BD" unicode="&#x20bd;" horiz-adv-x="1234" 
d="M729 596h-362v-172h555v-80h-555v-344h-93v344h-147v80h147v172h-147v84h147v674h463q102 0 179 -31.5t121.5 -85.5t66.5 -120t22 -142q0 -77 -22 -143t-67.5 -120t-124 -85t-183.5 -31zM735 1266h-368v-582h358q158 0 233.5 82t75.5 209q0 126 -73.5 208.5t-225.5 82.5z
" />
    <glyph glyph-name="uni20BF" unicode="&#x20bf;" horiz-adv-x="1282" 
d="M862 750q90 -25 153 -83t89 -123.5t26 -133.5q0 -143 -107 -248t-280 -105h-65v-221h-76v221h-115v-221h-77v221h-162v1297h162v207h77v-207h115v207h76v-207h6q169 0 269 -82t100 -230q0 -97 -49 -177.5t-142 -114.5zM961 1038q0 109 -75 169.5t-202 60.5h-344v-484h387
q109 0 171.5 72t62.5 182zM340 143h393q138 0 221.5 79.5t83.5 191.5q0 122 -91 205t-232 83h-375v-559z" />
    <glyph glyph-name="uni2113" unicode="&#x2113;" horiz-adv-x="772" 
d="M418 432h-166v-123q0 -104 38.5 -161.5t133.5 -57.5h184v-90h-190q-59 0 -104 15.5t-73.5 42.5t-46.5 67t-25 84.5t-7 99.5v811q0 69 12 122t40 96t79.5 66t124.5 23q132 0 191 -83t59 -224v-379q0 -148 -57.5 -228.5t-192.5 -80.5zM418 1341q-92 0 -129 -57.5
t-37 -161.5v-608h162q164 0 164 215v393q0 219 -160 219z" />
    <glyph glyph-name="uni2116" unicode="&#x2116;" horiz-adv-x="1968" 
d="M1647 946q-100 0 -170 70t-70 170q0 99 70 168t170 69t168.5 -68.5t68.5 -168.5t-69 -170t-168 -70zM322 1411l784 -1261v1261h92v-1411h-102l-787 1260v-1260h-92v1411h105zM1647 1343q-66 0 -113 -45.5t-47 -111.5t47 -113t113 -47t111.5 47t45.5 113t-45.5 111.5
t-111.5 45.5zM1876 797h-459v63h459v-63z" />
    <glyph glyph-name="uni2117" unicode="&#x2117;" horiz-adv-x="1699" 
d="M850 1427q147 0 280 -57.5t228.5 -155t152 -231.5t56.5 -281q0 -196 -95.5 -362.5t-260.5 -263t-361 -96.5q-147 0 -279.5 57t-228 154t-151.5 230.5t-56 280.5t56 281t151.5 231.5t228 155t279.5 57.5zM850 57q175 0 322 86.5t232 235t85 323.5q0 176 -85 325.5
t-232 237t-322 87.5t-322 -87.5t-232 -237t-85 -325.5q0 -175 85 -323.5t232 -235t322 -86.5zM643 1069h272q113 0 169.5 -69.5t56.5 -170.5q0 -44 -12 -84t-37 -75.5t-71 -56.5t-108 -21h-188v-258h-82v735zM725 672h186q76 0 112 45t36 112q0 68 -35.5 114t-108.5 46h-190
v-317z" />
    <glyph glyph-name="uni2120" unicode="&#x2120;" horiz-adv-x="2002" 
d="M373 1055l110 -27q228 -57 228 -229q0 -99 -79.5 -172.5t-211.5 -73.5q-118 0 -195.5 69t-83.5 166h86q8 -64 61.5 -108.5t133.5 -44.5q94 0 148.5 48.5t54.5 111.5q0 112 -162 153l-115 27q-201 52 -201 215q0 101 80.5 166t190.5 65t185 -62t79 -165h-88
q-3 67 -52.5 107t-125.5 40q-73 0 -126.5 -42t-53.5 -107q0 -100 137 -137zM1751 1411l107 -846h-89l-83 692l-297 -606h-76l-297 606l-86 -692h-86l104 846h80l324 -668l321 668h78z" />
    <glyph glyph-name="trademark" unicode="&#x2122;" horiz-adv-x="1951" 
d="M336 1331h-266v80h622v-80h-268v-766h-88v766zM1690 1411l106 -846h-88l-86 688l-295 -602h-78l-295 606l-86 -692h-88l107 846h80l323 -668l320 668h80z" />
    <glyph glyph-name="estimated" unicode="&#x212e;" horiz-adv-x="1363" 
d="M694 -20q-122 0 -227 47.5t-176.5 128t-111.5 189t-40 228.5q0 164 66.5 298t196.5 215t300 81q127 0 233.5 -48t177.5 -129.5t110 -189.5t39 -229h-879v-395q135 -129 311 -129q67 0 124.5 14.5t99.5 36.5t81 58t66.5 70t58.5 81l64 -39q-43 -67 -87 -115.5t-103 -89.5
t-135 -62t-169 -21zM383 973v-334h633v334q-59 54 -144 90.5t-170 36.5q-195 0 -319 -127z" />
    <glyph glyph-name="oneeighth" unicode="&#x215b;" horiz-adv-x="1521" 
d="M135 -20l918 1396h90l-920 -1396h-88zM334 612h-80v639l-168 -71v77l242 109h6v-754zM1294 426q68 -23 110 -80t42 -127q0 -98 -78 -164.5t-192 -66.5t-191.5 66.5t-77.5 164.5q0 70 41 127t107 80q-84 50 -84 147q0 76 58.5 128.5t146.5 52.5q89 0 148.5 -52.5
t59.5 -128.5q0 -48 -24.5 -87t-65.5 -60zM1176 682q-54 0 -90.5 -33.5t-36.5 -81.5q0 -46 36 -79.5t91 -34.5q56 1 92.5 34.5t36.5 79.5q0 48 -37 81.5t-92 33.5zM1176 66q81 0 133.5 45.5t52.5 113.5t-52.5 115t-133.5 47q-80 0 -132.5 -46.5t-52.5 -113.5q0 -69 53 -115
t132 -46z" />
    <glyph glyph-name="threeeighths" unicode="&#x215c;" horiz-adv-x="1726" 
d="M338 -20l919 1396h89l-918 -1396h-90zM582 821q0 -97 -76 -158t-193 -61q-76 0 -138.5 36t-94.5 99l59 43q27 -48 72 -75t100 -27q81 0 134 41t53 106q0 66 -46 108t-116 42h-76v67h64q62 0 98.5 34.5t36.5 90.5t-40 89.5t-106 33.5q-45 0 -86 -22t-63 -56l-49 50
q33 47 87 75.5t117 28.5q99 0 160.5 -54t61.5 -141q0 -51 -27 -92t-74 -65q62 -19 102 -71.5t40 -121.5zM1499 426q68 -23 110 -80t42 -127q0 -98 -78.5 -164.5t-192.5 -66.5t-191 66.5t-77 164.5q0 70 39.5 126t105.5 81q-81 50 -81 147q0 76 58 128.5t146 52.5
t147.5 -52.5t59.5 -128.5q0 -48 -24 -87t-64 -60zM1380 682q-55 0 -91 -33.5t-36 -81.5q0 -47 35.5 -80t91.5 -34q55 1 92 34.5t37 79.5q0 48 -37 81.5t-92 33.5zM1380 66q79 0 133 45.5t54 113.5t-54 115t-133 47q-80 0 -132 -46.5t-52 -113.5q0 -69 52.5 -115t131.5 -46z
" />
    <glyph glyph-name="fiveeighths" unicode="&#x215d;" horiz-adv-x="1736" 
d="M350 -20l920 1396h88l-918 -1396h-90zM600 850q0 -111 -76 -180.5t-186 -69.5q-80 0 -148.5 39.5t-107.5 105.5l65 41q29 -49 78.5 -78.5t108.5 -29.5q80 0 132 47.5t52 124.5q0 73 -48.5 118.5t-123.5 45.5q-92 0 -194 -62l-43 35l65 369h377v-76h-309l-45 -244
q74 49 170 49q101 0 167 -66t66 -169zM1511 426q67 -23 108.5 -80t41.5 -127q0 -98 -77.5 -164.5t-190.5 -66.5q-115 0 -193 66.5t-78 164.5q0 70 40.5 126t107.5 81q-84 50 -84 147q0 76 58.5 128.5t148.5 52.5q88 0 147 -52.5t59 -128.5q0 -48 -24 -87t-64 -60zM1393 682
q-55 0 -91 -33.5t-36 -81.5q0 -47 35.5 -80t91.5 -34q55 1 91 34.5t36 79.5q0 48 -36.5 81.5t-90.5 33.5zM1393 66q79 0 131.5 45.5t52.5 113.5t-52.5 115t-131.5 47q-81 0 -133 -46.5t-52 -113.5q0 -69 53 -115t132 -46z" />
    <glyph glyph-name="seveneighths" unicode="&#x215e;" horiz-adv-x="1552" 
d="M188 -20l920 1396h88l-917 -1396h-91zM596 1346l-377 -734h-94l342 668h-363v76h492v-10zM1325 426q68 -23 110 -80t42 -127q0 -98 -78.5 -164.5t-192.5 -66.5t-191 66.5t-77 164.5q0 70 39.5 126t105.5 81q-82 51 -82 147q0 76 58.5 128.5t146.5 52.5t147.5 -52.5
t59.5 -128.5q0 -48 -24 -87t-64 -60zM1206 682q-55 0 -91 -33.5t-36 -81.5q0 -47 35.5 -80t91.5 -34q55 1 92 34.5t37 79.5q0 48 -37 81.5t-92 33.5zM1206 66q79 0 133 45.5t54 113.5t-54 115t-133 47q-80 0 -132 -46.5t-52 -113.5q0 -69 52.5 -115t131.5 -46z" />
    <glyph glyph-name="arrowleft" unicode="&#x2190;" horiz-adv-x="1759" 
d="M287 752h1335v-88h-1331l387 -388l-62 -59l-491 494l491 493l62 -59z" />
    <glyph glyph-name="arrowup" unicode="&#x2191;" horiz-adv-x="1120" 
d="M559 1468l496 -491l-62 -62l-387 388v-1303h-88v1307l-393 -392l-59 62z" />
    <glyph glyph-name="arrowright" unicode="&#x2192;" horiz-adv-x="1759" 
d="M1081 1145l62 59l491 -493l-491 -494l-62 59l387 388h-1331v88h1336z" />
    <glyph glyph-name="arrowdown" unicode="&#x2193;" horiz-adv-x="1114" 
d="M604 102l387 390l60 -62l-494 -493l-494 493l60 62l393 -394v1313h88v-1309z" />
    <glyph glyph-name="arrowboth" unicode="&#x2194;" horiz-adv-x="2156" 
d="M1483 1143l61 61l494 -495l-492 -494l-61 59l393 396l-1597 -2l395 -396l-62 -59l-493 494l491 497l64 -61l-387 -387l1581 2z" />
    <glyph glyph-name="arrowupdn" unicode="&#x2195;" horiz-adv-x="1136" 
d="M608 1559v-1600l396 395l59 -61l-494 -494l-495 494l61 61l385 -387v1583l-385 -387l-61 62l495 493l494 -493l-59 -62z" />
    <glyph glyph-name="partialdiff" unicode="&#x2202;" horiz-adv-x="1138" 
d="M625 1292l12 80q522 0 340 -915q-42 -215 -177 -348.5t-319 -133.5q-177 0 -284 119t-88 297q22 184 153 312t307 128q113 0 212 -59t137 -168q48 349 -22.5 518.5t-270.5 169.5zM866 422q15 142 -73.5 231.5t-231.5 89.5q-140 -1 -243.5 -102.5t-118.5 -245.5
q-15 -142 69.5 -235.5t225.5 -93.5q138 1 244 103t128 253z" />
    <glyph glyph-name="emptyset" unicode="&#x2205;" horiz-adv-x="1701" 
d="M1559 1364l-177 -178q85 -97 132 -222t47 -262q0 -147 -55.5 -280.5t-150 -230.5t-226.5 -154t-279 -57q-139 0 -263.5 49.5t-219.5 140.5l-177 -176l-47 53l174 174q-85 97 -131.5 221t-46.5 260q0 198 94 364.5t257.5 263.5t359.5 97q139 0 263.5 -49.5t219.5 -140.5
l176 176zM217 702q0 -239 156 -426l907 908q-183 168 -430 168q-174 0 -320 -87.5t-229.5 -236.5t-83.5 -326zM850 57q175 0 321 87t230 235t84 323q0 246 -158 431l-905 -908q183 -168 428 -168z" />
    <glyph glyph-name="product" unicode="&#x220f;" horiz-adv-x="1472" 
d="M1253 1411v-1741h-92v1657h-850v-1657h-92v1741h1034z" />
    <glyph glyph-name="summation" unicode="&#x2211;" horiz-adv-x="1181" 
d="M74 1411h1028v-84h-903l516 -784l-518 -789h905v-84h-1028v54l536 819l-536 815v53z" />
    <glyph glyph-name="minus" unicode="&#x2212;" horiz-adv-x="1144" 
d="M997 496h-850v86h850v-86z" />
    <glyph glyph-name="radical" unicode="&#x221a;" horiz-adv-x="1214" 
d="M561 -197l569 1899h97l-611 -2032h-110l-283 934h-227v78h299z" />
    <glyph glyph-name="infinity" unicode="&#x221e;" horiz-adv-x="1777" 
d="M1323 926q140 0 231 -89.5t91 -232.5q0 -141 -91.5 -230t-230.5 -89q-86 0 -160 35.5t-151 109.5l-123 117l-123 -117q-151 -145 -311 -145q-139 0 -230.5 89t-91.5 230q0 143 91 232.5t231 89.5q165 0 311 -146l123 -118l123 118q149 146 311 146zM709 483l120 121
l-124 125q-109 109 -244 109q-106 0 -173 -63.5t-67 -170.5t67 -169t173 -62q132 0 248 110zM1317 373q106 0 171.5 62t65.5 169t-65.5 170.5t-171.5 63.5q-135 0 -248 -113l-121 -121l119 -121q118 -110 250 -110z" />
    <glyph glyph-name="integral" unicode="&#x222b;" horiz-adv-x="647" 
d="M522 1509h78v-88h-70q-137 0 -201.5 -88t-45.5 -223l172 -1055q28 -165 -62.5 -275t-267.5 -110h-78v88h70q136 0 203 88.5t45 221.5l-172 1036q-28 177 60 291t269 114z" />
    <glyph glyph-name="approxequal" unicode="&#x2248;" horiz-adv-x="1404" 
d="M1194 819l43 -61q-52 -54 -129.5 -92.5t-157.5 -38.5q-42 0 -84 8.5t-65 17t-62.5 26t-50.5 21.5q-8 3 -46.5 20.5t-59.5 25t-60.5 16t-77.5 8.5q-60 0 -126 -31t-117 -80l-43 64q53 53 130 91t156 38q42 0 84.5 -8.5t64.5 -16.5t63.5 -25.5t50.5 -21.5q10 -4 46.5 -20.5
t58.5 -25t61 -17t77 -8.5q59 0 125.5 31t118.5 79zM1206 426l43 -61q-52 -55 -130.5 -93.5t-157.5 -38.5q-42 0 -84 9t-64 17t-63 26t-50 22t-46.5 20.5t-59 24.5t-60.5 16.5t-77 8.5q-60 0 -126.5 -31t-119.5 -80l-43 64q53 53 131.5 91t157.5 38q42 0 84 -8.5t65.5 -17.5
t62 -26t50.5 -22q9 -4 46.5 -20.5t58.5 -24.5t60 -16.5t77 -8.5q60 0 126 31t119 80z" />
    <glyph glyph-name="notequal" unicode="&#x2260;" horiz-adv-x="1239" 
d="M311 25h-90l156 223h-219v88h276l244 338h-520v88h575l148 211h90l-146 -211h252v-88h-309l-244 -338h553v-88h-610z" />
    <glyph glyph-name="lessequal" unicode="&#x2264;" horiz-adv-x="1318" 
d="M1174 305v-96l-1043 399v99l1043 397v-96l-926 -353zM1174 0h-1024v86h1024v-86z" />
    <glyph glyph-name="greaterequal" unicode="&#x2265;" horiz-adv-x="1318" 
d="M1188 608l-1041 -399v96l924 350l-924 353v96l1041 -397v-99zM1169 0h-1022v86h1022v-86z" />
    <glyph glyph-name="filledbox" unicode="&#x25a0;" horiz-adv-x="1429" 
d="M164 162v1102h1102v-1102h-1102z" />
    <glyph glyph-name="uni25A1" unicode="&#x25a1;" horiz-adv-x="1247" 
d="M150 162v1102h1101v-1102h-1101zM1169 1182h-938v-938h938v938z" />
    <glyph glyph-name="triagup" unicode="&#x25b2;" horiz-adv-x="1595" 
d="M1432 139l-1268 2l633 1096z" />
    <glyph glyph-name="uni25B6" unicode="&#x25b6;" horiz-adv-x="1425" 
d="M164 109l2 1269l1096 -633z" />
    <glyph glyph-name="triagdn" unicode="&#x25bc;" horiz-adv-x="1595" 
d="M797 139l-633 1096l1268 2z" />
    <glyph glyph-name="uni25C0" unicode="&#x25c0;" horiz-adv-x="1425" 
d="M164 745l1096 633l2 -1269z" />
    <glyph glyph-name="lozenge" unicode="&#x25ca;" horiz-adv-x="1228" 
d="M541 1454h41l456 -729l-456 -725h-41l-457 725zM561 115l383 610l-383 610l-383 -610z" />
    <glyph glyph-name="circle" unicode="&#x25cb;" horiz-adv-x="1421" 
d="M1319 723q0 -165 -81.5 -305t-221.5 -221.5t-305 -81.5t-305.5 81.5t-222 221.5t-81.5 305t81.5 305t222 221.5t305.5 81.5t305 -81.5t221.5 -221.5t81.5 -305zM1237 723q0 106 -42 203.5t-112.5 168t-168 112.5t-203.5 42q-142 0 -263.5 -70.5t-192.5 -192t-71 -263.5
t71 -263.5t192.5 -192t263.5 -70.5q106 0 203.5 42t168 112.5t112.5 168t42 203.5z" />
    <glyph glyph-name="uni2605" unicode="&#x2605;" horiz-adv-x="1800" 
d="M1677 862l-481 -350l184 -563l-481 348l-479 -348l182 563l-479 350h594l182 565l184 -565h594z" />
    <glyph glyph-name="uni2610" unicode="&#x2610;" horiz-adv-x="1347" 
d="M674 -12q-116 0 -222 45.5t-182.5 121.5t-122 182t-45.5 222q0 155 77 286t208.5 207t286.5 76t286.5 -76.5t208 -207.5t76.5 -285q0 -155 -76.5 -286.5t-208 -208t-286.5 -76.5zM674 66q134 0 247.5 66t179.5 179.5t66 247.5q0 99 -39 190t-105 157.5t-157.5 105.5
t-191.5 39q-134 0 -247.5 -66t-180 -179.5t-66.5 -246.5q0 -134 66.5 -247.5t180 -179.5t247.5 -66z" />
    <glyph glyph-name="uni2611" unicode="&#x2611;" horiz-adv-x="1439" 
d="M1266 1417l77 -39l-258 -438q148 -161 148 -381q0 -155 -76.5 -286.5t-208 -208t-286.5 -76.5q-116 0 -222 45.5t-182.5 121.5t-122 182t-45.5 222q0 155 77 286t208.5 207t286.5 76q202 0 358 -127zM1155 559q0 175 -111 311l-378 -641h-29l-334 471l70 52l272 -383
l336 565q-136 117 -319 117q-134 0 -247.5 -66t-180 -179.5t-66.5 -246.5q0 -134 66.5 -247.5t180 -179.5t247.5 -66t247.5 66t179.5 179.5t66 247.5z" />
    <glyph glyph-name="uni261C" unicode="&#x261c;" horiz-adv-x="2095" 
d="M102 940q3 63 43 100t111 37l709 -2l-45 96q-28 53 -12.5 113t53.5 82q31 17 57 23.5t57.5 2.5t66 -28.5t72.5 -69.5l361 -444v70q0 36 26 62t62 26h174q35 0 61.5 -27.5t26.5 -60.5v-832q0 -32 -27 -60t-61 -28h-174q-36 0 -62 26t-26 62v94h-793q-83 10 -122 47t-33 90
q6 39 32 62q-144 18 -129 149q7 34 23 56q-69 21 -99 56t-18 89q10 48 33 66l-213 4q-74 2 -115.5 37.5t-38.5 101.5zM262 887l582 -10q86 -1 128 -48t36 -116q-6 -58 -31 -74q64 -8 91.5 -45.5t27.5 -83.5q0 -75 -62 -102q38 -10 49 -59.5t-4 -80.5l496 -2l2 453l-428 508
q-6 6 -18.5 19t-18.5 18.5t-16 14.5t-16.5 12t-15.5 5.5t-18 0.5t-18 -7q-30 -17 -32.5 -45t11.5 -55.5t44 -69.5l202 -282q9 -13 6.5 -31.5t-14.5 -24.5q-18 -11 -36.5 -6t-30.5 23l-138 178l-778 6q-61 0 -61 -49q0 -47 61 -47zM569 674h275q62 0 69 51q5 31 -18 51.5
t-66 20.5l-235 -2q-40 0 -60.5 -17t-17.5 -55q3 -44 53 -49zM668 461l272 -4q29 0 47.5 14t18.5 41q0 70 -68 70l-260 -4q-31 0 -46 -13.5t-18 -42.5q-3 -55 54 -61zM780 274l160 -4q70 -3 70 41q0 29 -14.5 40.5t-51.5 13.5l-174 6q-51 3 -51 -41q0 -27 11.5 -41t49.5 -15z
" />
    <glyph glyph-name="uni261E" unicode="&#x261e;" horiz-adv-x="2095" 
d="M1995 940q3 -66 -38.5 -101.5t-115.5 -37.5l-213 -4q23 -18 33 -66q12 -54 -18 -89t-99 -56q16 -22 23 -56q15 -131 -129 -149q26 -23 32 -62q6 -53 -33 -90t-122 -47h-793v-94q0 -36 -26 -62t-62 -26h-174q-34 0 -61 28t-27 60v832q0 33 26.5 60.5t61.5 27.5h174
q36 0 62 -26t26 -62v-70l361 444q38 45 72.5 69.5t66.5 28.5t58 -2.5t57 -23.5q38 -22 53.5 -82t-12.5 -113l-45 -96l708 2q71 0 111 -37t43 -100zM1253 877l582 10q61 0 61 47q0 49 -61 49l-778 -6q-112 -143 -137 -178q-12 -18 -31 -23t-37 6q-12 6 -14.5 24.5t6.5 31.5
l203 282q30 42 43.5 69.5t11 55.5t-32.5 45q-9 5 -18 7t-18 -0.5t-15.5 -5.5t-16.5 -12t-16 -14.5t-18.5 -18.5t-18.5 -19l-428 -508l2 -453l496 2q-15 31 -4 80.5t49 59.5q-62 27 -62 102q0 46 27.5 83.5t91.5 45.5q-24 15 -30 74q-6 69 35.5 116t127.5 48zM1253 674h275
q50 5 53 49q3 38 -17.5 55t-60.5 17l-235 2q-43 0 -66 -20.5t-18 -51.5q7 -51 69 -51zM1157 457l273 4q56 6 53 61q-3 29 -18 42.5t-46 13.5l-260 4q-67 0 -67 -70q0 -27 18 -41t47 -14zM1157 270l160 4q38 1 49.5 15t11.5 41q0 44 -51 41l-174 -6q-37 -2 -51.5 -13.5
t-14.5 -40.5q0 -44 70 -41z" />
    <glyph glyph-name="diamond" unicode="&#x2666;" horiz-adv-x="1251" 
d="M1161 696l-499 -747l-498 747l498 748z" />
    <glyph glyph-name="uni267C" unicode="&#x267c;" horiz-adv-x="1777" 
d="M889 -20q-196 0 -363 97t-264.5 264t-97.5 364q0 196 97.5 363t264.5 264.5t363 97.5q197 0 364 -97.5t264 -264.5t97 -363q0 -197 -97 -364t-264 -264t-364 -97zM489 963l234 -134l145 256q18 18 31 -4l84 -141l-80 -49l264 2l129 229l-86 -51l-57 94q-16 26 -41 42.5
t-42 20.5l-17 3l-332 2q-39 -4 -68 -21.5t-38 -33.5l-9 -15zM909 354l133 -229v100l111 2q30 1 57 15t38 28l12 13l165 286q16 36 16 70t-8 50l-8 16l-116 198l-232 -131l148 -258q4 -9 -1.5 -15.5t-17.5 -6.5l-166 -3v95zM618 225h232l-2 267h-295q-11 2 -14.5 9.5
t2.5 18.5l82 146l82 -48l-136 228l-262 -2l86 -49l-53 -97q-15 -27 -16.5 -57t4.5 -47l6 -16l166 -287q24 -32 53.5 -48.5t46.5 -16.5z" />
    <glyph glyph-name="uni2713" unicode="&#x2713;" horiz-adv-x="1228" 
d="M637 369l620 1048l78 -39l-680 -1149h-26l-336 471l72 52z" />
    <glyph glyph-name="uni2B24" unicode="&#x2b24;" horiz-adv-x="1544" 
d="M1380 723q0 -165 -81.5 -305t-221.5 -221.5t-305 -81.5t-305 81.5t-221.5 221.5t-81.5 305t81.5 305t221.5 221.5t305 81.5t305 -81.5t221.5 -221.5t81.5 -305z" />
    <glyph glyph-name="uniF6DD" unicode="&#xf6dd;" horiz-adv-x="2435" 
d="M1128 989q0 -66 -13 -125.5t-43.5 -114t-75.5 -94t-113.5 -63t-153.5 -23.5h-27l402 -569h-111l-405 569h-279v-569h-92v1411h520q103 0 180.5 -35.5t122.5 -96.5t66.5 -134t21.5 -156zM309 1323v-666h408q84 0 147.5 27t100 74t54 105t17.5 126q0 67 -17.5 126t-52 106
t-93 74.5t-134.5 27.5h-430zM1839 981q205 0 349.5 -146.5t144.5 -357.5q0 -139 -66.5 -254.5t-180 -181.5t-247.5 -66q-130 0 -241.5 65.5t-172.5 174.5v-678h-90v1419h90v-213q59 107 171.5 172.5t242.5 65.5zM1835 63q168 0 288 121.5t120 292.5t-120 293.5t-288 122.5
q-111 0 -204.5 -52t-149.5 -146.5t-56 -209.5q0 -183 121 -302.5t289 -119.5z" />
    <glyph glyph-name="uniF8FF" unicode="&#xf8ff;" horiz-adv-x="2009" 
d="M1845 0h-1681v1434h1681v-1434zM1067 752q25 0 33 14h2l4 -12h16v149h-22v-39q0 -10 2 -18h-2q-10 16 -31 16q-22 0 -33 -14q-10 -17 -10 -41t10 -41q11 -14 31 -14zM1378 889q0 -6 2 -10q2 -2 11 -2q8 0 10 2q2 4 2 10t-2 10q-2 2 -10 2q-9 0 -11 -2q-2 -4 -2 -10z
M391 754h21l41 116h2q0 -8 -2 -20v-96h22v141h-33l-41 -113l-39 113h-32v-141h20v67q0 33 -2 51h2zM780 770q-8 0 -10 4q-4 2 -4 12v58h31v16h-31v25h-14l-9 -23l-16 -8v-10h16v-60q0 -32 31 -32h12q2 1 6 2t5 2v16q-4 -2 -17 -2zM610 807q0 24 -14 41q-11 14 -37 14
q-25 0 -39 -14q-12 -15 -12 -41q0 -17 6 -29q6 -14 18 -20q9 -6 27 -6q26 0 37 14q14 18 14 41zM713 784q0 5 -4 13q-1 2 -9 10q-13 7 -20 8q-5 2 -21 10q-4 4 -4 9q0 10 19 10q10 0 28 -6l9 16q-16 8 -37 8q-20 0 -31 -8q-10 -7 -10 -20t6 -19q5 -7 25 -14l16 -8q6 0 6 -5
q4 -4 4 -8q0 -12 -22 -12q-11 0 -35 8v-18q12 -6 35 -6q21 0 32 8q13 10 13 24zM891 754h14v71q0 21 -10 29q-8 8 -31 8q-12 0 -18 -2q-14 -4 -21 -8l9 -16q6 6 14 6q6 2 16 2q13 0 15 -4q4 -4 4 -17v-4l-19 -2q-26 0 -37 -8q-12 -9 -12 -25t8 -24t25 -8q16 0 20 2
q9 6 17 14zM1008 862h-11q-12 0 -18 -6q-12 -8 -14 -14h-2l-2 18h-19v-106h23v55q0 10 8 22q11 11 22 11q7 0 11 -2zM1206 752h21l16 6v18l-18 -6q-2 0 -8 -1t-9 -1q-15 0 -22 10q-8 5 -8 23h71v12q0 25 -12 37t-35 12q-24 0 -35 -14q-14 -14 -14 -43q0 -25 14 -39t39 -14z
M1350 784q0 9 -2 13q-1 2 -9 10q-13 7 -20 8q-5 2 -21 10q-4 4 -4 9q0 10 19 10q10 0 28 -6l9 16q-16 8 -37 8q-20 0 -31 -8q-10 -7 -10 -20t6 -19q5 -7 25 -14l16 -8q6 0 6 -5q2 -2 2 -8q0 -12 -20 -12q-11 0 -35 8v-18q12 -6 35 -6q21 0 32 8t11 24zM1530 860h-37
q-1 0 -3.5 1t-4.5 1h-10q-21 0 -31 -10q-12 -9 -12 -27q0 -12 6 -18q6 -9 14 -12q-2 -1 -10 -9q-4 -4 -4 -10l2 -8q3 -6 8 -6q-8 -2 -16 -10q-7 -7 -7 -17q0 -14 11 -22q16 -8 34 -8q26 0 43 10q15 9 15 28q0 15 -8 23q-9 6 -29 6h-18q-3 0 -8 1l-5 1q-4 4 -4 6q0 7 8 11h11
q19 0 30 8q13 10 13 26q0 2 -1 6t-1 5q-3 6 -5 8l19 4v12zM1649 754v69q0 39 -39 39q-9 0 -21 -4q-8 -3 -14 -12l-4 14h-19v-106h25v53q0 20 6 29q5 8 21 8q10 0 16 -6q4 -4 4 -19v-65h25zM1403 754v106h-25v-106h25zM1454 825q0 11 6 17q3 6 15 6q11 0 14 -6q6 -6 6 -17
q0 -20 -20 -20q-7 0 -15 4q-6 6 -6 16zM1202 846q9 0 17 -8t8 -21h-49q0 16 8 21q8 8 16 8zM530 807q0 18 9 27q7 10 20 10q27 0 27 -37t-27 -37q-29 0 -29 37zM1073 770q-13 0 -18 8q-6 9 -6 29q0 18 6 27q7 10 18 10q16 0 21 -8q8 -8 8 -29v-4q0 -20 -8 -25q-5 -8 -21 -8z
M856 768q-8 0 -12 4q-4 2 -4 12q0 9 6 15q12 4 24 4l13 2v-10q0 -13 -6 -19q-8 -8 -21 -8zM1446 735q0 11 4 15q8 4 16 4h17q14 0 18 -4q6 -3 6 -11q0 -9 -10 -12q-9 -6 -27 -6q-10 0 -18 4q-6 3 -6 10zM1391 512q20 0 30 16h2l4 -14h17v152h-23v-39q0 -1 1 -8t1 -11
q-12 15 -32 15q-21 0 -33 -15q-10 -17 -10 -41t10 -41q11 -14 33 -14zM379 514v123h43v18h-107v-18h41v-123h23zM883 514v59h53v19h-53v45h57v18h-80v-141h23zM428 623l43 -109l-4 -10q-6 -19 -23 -19h-12v-16q6 -2 14 -2q32 0 43 33l46 123h-25q-6 -20 -11.5 -36.5
t-9.5 -26.5l-4 -11q-2 -4 -2 -12h-2q0 12 -6 24l-22 62h-25zM610 512q17 0 31 14q12 15 12 41q0 29 -12 41q-9 15 -31 15q-21 0 -32 -17l-5 17h-18v-156h23v59q11 -14 32 -14zM731 512q13 0 19 2q10 0 16 6v19q-10 -7 -16 -7q-6 -2 -19 -2t-22 9q-9 13 -9 24h72v12
q0 23 -12 35q-13 13 -33 13q-25 0 -37 -15t-12 -41t12 -41q14 -14 41 -14zM1063 567q0 27 -14 41q-12 15 -37 15t-37 -15q-14 -11 -14 -41q0 -16 6 -28t18 -21q12 -6 27 -6q23 0 37 14t14 41zM1169 514h17v109h-23v-56q0 -19 -6 -28q-9 -9 -20 -9q-10 0 -17 7q-6 6 -6 18v68
h-22v-72q0 -19 10 -29t28 -10q9 0 21 4q11 7 14 12zM1317 514v70q0 39 -37 39q-12 0 -20 -5q-8 -2 -15 -10l-4 15h-18v-109h22v53q0 17 8 29q5 8 21 8q10 0 16 -6q4 -8 4 -18v-66h23zM1546 623h-10q-10 0 -18 -5t-15 -16l-4 21h-18v-109h22v55q0 15 10 25q5 8 21 8h10z
M1554 623l43 -109l-4 -10q-6 -19 -22 -19h-12v-16q6 -2 14 -2q32 0 43 33l45 123h-25q-9 -30 -24 -74q-2 -4 -2 -12h-2q0 12 -6 24l-23 62h-25zM727 606q10 0 16 -6q7 -10 7 -20h-50q3 10 9 20q6 6 18 6zM604 604q14 0 19 -8q6 -9 6 -29q0 -17 -6 -26q-7 -11 -19 -11
q-13 0 -20 11q-6 6 -6 26v4q0 19 6 25q5 8 20 8zM985 567q0 20 6 29q5 8 21 8q26 0 26 -37t-26 -37q-27 0 -27 37zM1397 530q-14 0 -21 11q-6 9 -6 26t6 29q8 8 19 8q14 0 22 -8q6 -9 6 -29v-2q0 -17 -6 -26q-9 -9 -20 -9z" />
    <glyph glyph-name="IJ.alt" horiz-adv-x="1337" 
d="M309 0h-92v1411h92v-1411zM719 -25q-41 0 -105 11l11 88q62 -8 94 -8q85 0 148 27t99.5 76t54 110.5t17.5 136.5v995h92v-995q0 -93 -22.5 -170.5t-69.5 -139.5t-128.5 -96.5t-190.5 -34.5z" />
    <glyph glyph-name="J.alt" horiz-adv-x="753" 
d="M139 -25q-40 0 -104 11l10 88q62 -8 94 -8q85 0 148 27t100 76t54.5 110.5t17.5 136.5v995h92v-995q0 -93 -22.5 -170.5t-70 -139.5t-129 -96.5t-190.5 -34.5z" />
    <glyph glyph-name="Jcircumflex.alt" horiz-adv-x="753" 
d="M305 1554h-86l234 312h104l231 -312h-86l-198 238zM135 -25q-40 0 -104 11l10 88q62 -8 94 -8q85 0 148 27t100 76t54.5 110.5t17.5 136.5v995h92v-995q0 -93 -22.5 -170.5t-70 -139.5t-129 -96.5t-190.5 -34.5z" />
    <glyph glyph-name="W.alt" horiz-adv-x="1851" 
d="M1311 141l383 1270h100l-436 -1411h-96l-336 1212l-334 -1212h-98l-435 1411h99l383 -1270l338 1219h96z" />
    <glyph glyph-name="Wacute.alt" horiz-adv-x="1851" 
d="M1094 1866h108l-217 -312h-90zM1311 141l383 1270h100l-436 -1411h-96l-336 1212l-334 -1212h-98l-435 1411h99l383 -1270l338 1219h96z" />
    <glyph glyph-name="Wcircumflex.alt" horiz-adv-x="1851" 
d="M1139 1554l-199 238l-199 -238h-86l234 312h104l232 -312h-86zM1311 141l383 1270h100l-436 -1411h-96l-336 1212l-334 -1212h-98l-435 1411h99l383 -1270l338 1219h96z" />
    <glyph glyph-name="Wdieresis.alt" horiz-adv-x="1851" 
d="M782 1647q-33 0 -55 20t-22 51q0 32 22 53t55 21q34 0 57 -21t23 -53q0 -31 -23 -51t-57 -20zM1094 1647q-33 0 -55.5 20.5t-22.5 50.5q0 32 22.5 53t55.5 21q34 0 57 -21t23 -53q0 -31 -23 -51t-57 -20zM1311 141l383 1270h100l-436 -1411h-96l-336 1212l-334 -1212h-98
l-435 1411h99l383 -1270l338 1219h96z" />
    <glyph glyph-name="Wgrave.alt" horiz-adv-x="1851" 
d="M803 1866l194 -312h-90l-213 312h109zM1311 141l383 1270h100l-436 -1411h-96l-336 1212l-334 -1212h-98l-435 1411h99l383 -1270l338 1219h96z" />
    <glyph glyph-name="i.loclTRK" horiz-adv-x="434" 
d="M215 1174q-33 0 -55.5 20.5t-22.5 50.5q0 32 22.5 53t55.5 21q34 0 58 -21t24 -53q0 -30 -24 -50.5t-58 -20.5zM262 0h-90v956h90v-956z" />
    <glyph glyph-name="a.alt" horiz-adv-x="1110" 
d="M532 981q189 0 303.5 -107t114.5 -284v-590h-90v168q-72 -86 -188.5 -139.5t-239.5 -53.5q-155 0 -249.5 75.5t-94.5 199.5q0 129 105 209t276 80q91 0 198 -23.5t193 -60.5v135q0 137 -94 221t-250 84q-184 0 -309 -119l-57 60q67 76 169 110.5t213 34.5zM426 61
q132 0 251.5 59.5t182.5 155.5v97q-82 38 -188 61t-203 23q-132 0 -212.5 -56t-80.5 -147q0 -88 68.5 -140.5t181.5 -52.5z" />
    <glyph glyph-name="aacute.alt" horiz-adv-x="1110" 
d="M713 1411h108l-217 -311h-90zM532 981q189 0 303.5 -107t114.5 -284v-590h-90v168q-72 -86 -188.5 -139.5t-239.5 -53.5q-155 0 -249.5 75.5t-94.5 199.5q0 129 105 209t276 80q91 0 198 -23.5t193 -60.5v135q0 137 -94 221t-250 84q-184 0 -309 -119l-57 60
q67 76 169 110.5t213 34.5zM426 61q132 0 251.5 59.5t182.5 155.5v97q-82 38 -188 61t-203 23q-132 0 -212.5 -56t-80.5 -147q0 -88 68.5 -140.5t181.5 -52.5z" />
    </font>
</defs>
</svg>
