<?xml version="1.0" standalone="no"?>
<!DOCTYPE svg PUBLIC "-//W3C//DTD SVG 1.1//EN" "http://www.w3.org/Graphics/SVG/1.1/DTD/svg11.dtd" >
<svg xmlns="http://www.w3.org/2000/svg" xmlns:xlink="http://www.w3.org/1999/xlink" version="1.1">
<metadata>
Created by FontForge 20201107 at Fri Oct  4 07:20:54 2024
 By 
Copyright (c) Olivier Gourvat - Mostardesign Type Foundry, 2022. All rights reserved.
</metadata>
<defs>
<font id="SofiaPro-Black" horiz-adv-x="1253" >
  <font-face 
    font-family="Sofia Pro Black"
    font-weight="900"
    font-stretch="normal"
    units-per-em="2048"
    panose-1="0 0 10 0 0 0 0 0 0 0"
    ascent="1477"
    descent="-571"
    x-height="956"
    cap-height="1411"
    bbox="-987 -520.338 3217 2329"
    underline-thickness="133"
    underline-position="-110"
    unicode-range="U+0020-FB02"
  />
<missing-glyph horiz-adv-x="1300" 
d="M1137 0h-973v1362h973v-1362zM549 532v-77h127v67q0 49 25.5 82t70.5 45q75 23 124.5 89.5t49.5 164.5q0 123 -85 200t-204 77q-117 0 -197.5 -82t-80.5 -215h127q0 76 43 123t108 47t114.5 -42t49.5 -108q0 -99 -116 -145q-84 -25 -120 -75.5t-36 -150.5zM614 180
q38 0 65.5 25.5t27.5 62.5t-27.5 62.5t-65.5 25.5q-39 0 -66.5 -25t-27.5 -63t27.5 -63t66.5 -25z" />
    <glyph glyph-name="fi" unicode="fi" horiz-adv-x="1333" 
d="M530 956h676v-956h-303v727h-373v-727h-303v727h-178v229h178v60q0 223 117 342t326 119h67v-281h-47q-160 0 -160 -149v-91zM1053 1100q-75 0 -131 52t-56 124q0 74 55.5 125t131.5 51q78 0 132 -50.5t54 -125.5q0 -72 -54 -124t-132 -52z" />
    <glyph glyph-name="fl" unicode="fl" horiz-adv-x="1333" 
d="M1206 1477v-1477h-303v1196h-170q-200 0 -203 -188v-52h205v-229h-205v-727h-303v727h-178v229h178v60q0 223 117 342t326 119h536z" />
    <glyph glyph-name="f_f" unicode="ff" horiz-adv-x="1542" 
d="M1442 1477h121v-281h-58q-199 0 -202 -188v-52h202v-229h-202v-727h-304v727h-469v-727h-303v727h-178v229h178v60q0 223 117 342t326 119h121v-281h-58q-200 0 -203 -188v-52h469v60q0 224 116 342.5t327 118.5z" />
    <glyph glyph-name="f_f_i" unicode="ffi" horiz-adv-x="2103" 
d="M1303 956h673v-956h-303v727h-370v-727h-304v727h-469v-727h-303v727h-178v229h178v60q0 223 117 342t326 119h121v-281h-58q-200 0 -203 -188v-52h469v60q0 224 116 342.5t327 118.5h51v-281h-41q-149 0 -149 -162v-78zM1825 1100q-77 0 -133 52t-56 124q0 74 56 125
t133 51t131.5 -51t54.5 -125q0 -72 -55 -124t-131 -52z" />
    <glyph glyph-name="f_f_l" unicode="ffl" horiz-adv-x="2103" 
d="M1976 1477v-1477h-301v1196h-170q-199 0 -202 -188v-52h202v-229h-202v-727h-304v727h-469v-727h-303v727h-178v229h178v60q0 223 117 342t326 119h121v-281h-58q-200 0 -203 -188v-52h469v60q0 224 116 342.5t327 118.5h534z" />
    <glyph glyph-name=".notdef" horiz-adv-x="1300" 
d="M1137 0h-973v1362h973v-1362zM549 532v-77h127v67q0 49 25.5 82t70.5 45q75 23 124.5 89.5t49.5 164.5q0 123 -85 200t-204 77q-117 0 -197.5 -82t-80.5 -215h127q0 76 43 123t108 47t114.5 -42t49.5 -108q0 -99 -116 -145q-84 -25 -120 -75.5t-36 -150.5zM614 180
q38 0 65.5 25.5t27.5 62.5t-27.5 62.5t-65.5 25.5q-39 0 -66.5 -25t-27.5 -63t27.5 -63t66.5 -25z" />
    <glyph glyph-name=".null" horiz-adv-x="0" 
 />
    <glyph glyph-name="nonmarkingreturn" horiz-adv-x="682" 
 />
    <glyph glyph-name="space" unicode=" " horiz-adv-x="477" 
 />
    <glyph glyph-name="exclam" unicode="!" horiz-adv-x="598" 
d="M416 498h-234l-43 913h320zM297 -25q-76 0 -130 52.5t-54 130.5q0 76 54 127t130 51q78 0 133 -51t55 -127q0 -78 -55 -130.5t-133 -52.5z" />
    <glyph glyph-name="quotedbl" unicode="&#x22;" horiz-adv-x="937" 
d="M373 799h-226l-41 612h308zM791 799h-224l-43 612h310z" />
    <glyph glyph-name="numbersign" unicode="#" horiz-adv-x="1511" 
d="M416 0h-215l108 330h-237l55 192h235l105 340h-234l56 193h237l107 356h221l-109 -356h238l111 356h219l-111 -356h240l-56 -193h-239l-107 -340h240l-57 -192h-238l-111 -330h-215l105 330h-240zM688 862l-108 -340h239l109 340h-240z" />
    <glyph glyph-name="dollar" unicode="$" horiz-adv-x="1169" 
d="M1063 422q0 -90 -33.5 -162.5t-91.5 -119t-129.5 -74.5t-153.5 -37v-199h-153v199q-181 22 -288.5 131t-107.5 272h318q0 -72 43 -110.5t125 -38.5q72 0 111.5 33t39.5 87q0 83 -131 125l-151 47q-83 24 -146.5 60t-100 74t-59.5 83.5t-30.5 83.5t-7.5 78
q0 152 107 257.5t278 127.5v203h153v-203q170 -22 272 -130t99 -271h-317q2 65 -34.5 103t-99.5 38q-62 0 -99.5 -33t-37.5 -85q0 -78 119 -113l131 -41q61 -19 110 -39.5t100.5 -54t86 -72.5t56.5 -95.5t22 -123.5z" />
    <glyph glyph-name="percent" unicode="%" horiz-adv-x="1312" 
d="M399 0h-159l704 1411h162zM338 825q-115 0 -193.5 78.5t-78.5 194.5q0 115 78.5 194.5t193.5 79.5q114 0 194 -80t80 -194q0 -115 -80 -194t-194 -79zM338 981q48 0 82.5 33.5t34.5 83.5q0 47 -35 81.5t-82 34.5q-50 0 -83.5 -34t-33.5 -82q0 -51 33 -84t84 -33zM977 -18
q-115 0 -193.5 78t-78.5 194q0 115 78.5 194.5t193.5 79.5q114 0 194 -80t80 -194q0 -115 -79.5 -193.5t-194.5 -78.5zM977 137q50 0 84.5 33.5t34.5 83.5t-35 84.5t-84 34.5q-50 0 -83.5 -34.5t-33.5 -84.5q0 -51 33 -84t84 -33z" />
    <glyph glyph-name="ampersand" unicode="&#x26;" horiz-adv-x="1378" 
d="M1257 262h54v-264h-66q-234 0 -336 154q-53 -85 -153.5 -131t-225.5 -46q-204 0 -325 114.5t-121 295.5q0 131 72.5 226.5t171.5 129.5q-80 31 -129 113t-49 188q0 161 129 277.5t327 116.5q99 0 197.5 -41t161.5 -109l-195 -207q-28 34 -71 55t-87 21
q-66 0 -110.5 -38.5t-44.5 -100.5q0 -70 51.5 -117t146.5 -47h174v145h277v-155h168v-228h-168v-163q0 -93 42 -141t109 -48zM573 256q116 0 186.5 71t69.5 189v98h-172q-120 0 -192 -53t-72 -141q0 -75 49 -119.5t131 -44.5z" />
    <glyph glyph-name="quotesingle" unicode="'" horiz-adv-x="530" 
d="M383 799h-236l-41 612h320z" />
    <glyph glyph-name="parenleft" unicode="(" horiz-adv-x="786" 
d="M741 -182v-215q-196 0 -347 119.5t-232.5 330t-81.5 477.5q0 199 47.5 370.5t133 294.5t209.5 193t271 70v-213q-51 0 -103.5 -22t-107 -76t-96.5 -133t-69 -204.5t-27 -279.5q0 -112 14 -209.5t38 -168.5t56.5 -129t68.5 -95.5t76 -62.5t77 -36t73 -11z" />
    <glyph glyph-name="parenright" unicode=")" horiz-adv-x="786" 
d="M45 -397v215q51 0 103 21.5t106.5 74.5t96 131t68.5 204t27 281q0 154 -26.5 279.5t-68.5 204.5t-96.5 133t-107 76t-102.5 22v213q196 0 347.5 -120t233 -331t81.5 -477q0 -267 -81.5 -477.5t-233 -330t-347.5 -119.5z" />
    <glyph glyph-name="asterisk" unicode="*" horiz-adv-x="948" 
d="M817 1292l49 -192l-241 -51l163 -185l-155 -123l-158 222l-162 -222l-151 123l164 185l-244 51l51 192l256 -84l-12 271h196l-12 -271z" />
    <glyph glyph-name="plus" unicode="+" horiz-adv-x="1048" 
d="M631 596h315v-215h-315v-313h-215v313h-312v215h312v313h215v-313z" />
    <glyph glyph-name="comma" unicode="," horiz-adv-x="561" 
d="M139 -336l-166 76q76 114 124.5 261t45.5 290h299q3 -176 -80.5 -347.5t-222.5 -279.5z" />
    <glyph glyph-name="hyphen" unicode="-" horiz-adv-x="964" 
d="M844 362h-725v263h725v-263z" />
    <glyph glyph-name="period" unicode="." horiz-adv-x="557" 
d="M276 -18q-76 0 -130 52t-54 130q0 76 54 127t130 51q78 0 133.5 -51.5t55.5 -126.5q0 -78 -55.5 -130t-133.5 -52z" />
    <glyph glyph-name="slash" unicode="/" horiz-adv-x="995" 
d="M276 0h-229l672 1411h231z" />
    <glyph glyph-name="zero" unicode="0" horiz-adv-x="1206" 
d="M606 -25q-506 0 -506 695q0 121 14.5 221t50.5 189.5t92.5 150t145 96t203.5 35.5q114 0 201 -35.5t143 -96t91.5 -150t50 -189t14.5 -221.5q0 -121 -14.5 -220.5t-50 -189.5t-91.5 -151.5t-143 -97.5t-201 -36zM606 256q69 0 113 57t61 146t17 211q0 413 -191 413
q-71 0 -116.5 -56.5t-63.5 -145t-18 -211.5q0 -122 18 -211t63.5 -146t116.5 -57z" />
    <glyph glyph-name="one" unicode="1" horiz-adv-x="837" 
d="M51 1118l596 244h27v-1362h-301v961l-322 -121v278z" />
    <glyph glyph-name="two" unicode="2" horiz-adv-x="1122" 
d="M862 614l-297 -333h453v-281h-928v170l533 639q73 82 73 147q0 56 -43 91.5t-112 35.5q-77 0 -123 -51.5t-58 -140.5l-276 43q29 197 148.5 312.5t324.5 115.5t327 -112.5t122 -297.5q0 -177 -144 -338z" />
    <glyph glyph-name="three" unicode="3" horiz-adv-x="1085" 
d="M760 725q111 -42 175 -130.5t64 -205.5q0 -182 -142 -298t-365 -116q-290 0 -443 218l201 169q105 -114 227 -114q96 0 154.5 48t58.5 122t-59 122t-154 48h-123v223h56q106 0 166.5 48.5t52.5 115.5q-4 51 -47.5 80.5t-110.5 29.5q-62 0 -122.5 -27.5t-98.5 -74.5
l-158 195q181 184 422 184q119 0 216 -45t154.5 -131.5t55.5 -198.5q0 -81 -48 -150t-132 -112z" />
    <glyph glyph-name="four" unicode="4" horiz-adv-x="1247" 
d="M961 516h210v-266h-210v-250h-310v250h-633v94l732 999h211v-827zM651 827l-221 -311h221v311z" />
    <glyph glyph-name="five" unicode="5" horiz-adv-x="1185" 
d="M659 930q193 0 318 -131.5t125 -325.5q0 -91 -29.5 -171t-81 -139t-119.5 -102t-147.5 -64.5t-163.5 -21.5q-141 0 -281.5 74t-205.5 189l231 161q29 -60 103 -100.5t139 -40.5q110 0 178 60.5t68 156.5q0 90 -63.5 148.5t-164.5 58.5q-75 0 -150 -32t-132 -85l-177 103
l119 678h783v-279h-533l-45 -201q100 64 229 64z" />
    <glyph glyph-name="six" unicode="6" horiz-adv-x="1218" 
d="M676 862q198 0 322 -122.5t124 -301.5q0 -203 -138 -333t-363 -130q-231 0 -379 178.5t-148 467.5q0 214 68 381.5t199.5 263.5t306.5 96q140 0 260.5 -70t177.5 -192l-238 -144q-26 59 -79.5 93t-116.5 34q-118 0 -192 -87.5t-85 -233.5q107 100 281 100zM623 256
q87 0 142.5 51.5t55.5 130.5q0 77 -54 126t-140 50q-90 0 -146.5 -48.5t-56.5 -125.5q0 -79 55.5 -131.5t143.5 -52.5z" />
    <glyph glyph-name="seven" unicode="7" horiz-adv-x="1073" 
d="M66 1063v280h991v-30l-551 -1313h-348l450 1063h-542z" />
    <glyph glyph-name="eight" unicode="8" horiz-adv-x="1220" 
d="M887 745q110 -30 181 -123.5t71 -218.5q0 -124 -71.5 -222.5t-192 -152t-265.5 -53.5q-144 0 -264.5 53.5t-192 152t-71.5 222.5q0 125 71.5 218.5t182.5 123.5q-67 28 -113.5 101.5t-46.5 167.5q0 156 124.5 252t309.5 96t309.5 -96t124.5 -252q0 -94 -45.5 -167.5
t-111.5 -101.5zM610 1108q-62 0 -104.5 -39t-42.5 -92t42.5 -91t104.5 -38q64 0 107 38t43 91t-43 92t-107 39zM610 244q95 0 156 54.5t61 133.5q0 80 -60.5 133t-156.5 53t-156.5 -53t-60.5 -133q0 -79 61.5 -133.5t155.5 -54.5z" />
    <glyph glyph-name="nine" unicode="9" horiz-adv-x="1216" 
d="M598 1362q231 0 378.5 -177t147.5 -462q0 -215 -67.5 -383.5t-199 -266.5t-306.5 -98q-140 0 -260 71t-178 194l235 141q27 -58 81 -91.5t116 -33.5q117 0 191.5 88.5t86.5 235.5q-115 -99 -280 -99q-198 0 -323.5 123.5t-125.5 302.5q0 202 139 328.5t365 126.5z
M592 729q89 0 145 49t58 127q0 78 -56 127t-145 49q-88 0 -142.5 -49t-54.5 -127q0 -77 54 -126t141 -50z" />
    <glyph glyph-name="colon" unicode=":" horiz-adv-x="598" 
d="M299 616q-76 0 -130 51.5t-54 127.5q0 78 54 130t130 52q77 0 130.5 -51.5t53.5 -130.5q0 -76 -53.5 -127.5t-130.5 -51.5zM299 -18q-76 0 -130 52t-54 130q0 76 54 127t130 51q77 0 130.5 -51t53.5 -127q0 -79 -53.5 -130.5t-130.5 -51.5z" />
    <glyph glyph-name="semicolon" unicode=";" horiz-adv-x="602" 
d="M307 616q-76 0 -130 51.5t-54 127.5q0 78 54 130t130 52t130.5 -52t54.5 -130q0 -76 -54.5 -127.5t-130.5 -51.5zM156 -336l-166 76q77 113 125 260t45 291h301q1 -176 -82.5 -347.5t-222.5 -279.5z" />
    <glyph glyph-name="less" unicode="&#x3c;" horiz-adv-x="1280" 
d="M102 750l1026 391v-232l-731 -282l731 -281v-231l-1026 393v242z" />
    <glyph glyph-name="equal" unicode="=" horiz-adv-x="1193" 
d="M1067 737h-942v205h942v-205zM1067 322h-942v204h942v-204z" />
    <glyph glyph-name="greater" unicode="&#x3e;" horiz-adv-x="1280" 
d="M152 909v232l1026 -391v-242l-1026 -393v231l731 281z" />
    <glyph glyph-name="question" unicode="?" horiz-adv-x="1011" 
d="M532 498h-237v26q-9 53 -4.5 103t21.5 91.5t60 79t111 66.5l76 33q82 32 82 123q0 60 -39.5 93.5t-105.5 33.5q-60 0 -104 -41.5t-44 -106.5h-278q0 211 118 324t312 113q191 0 309.5 -108t118.5 -290q0 -146 -72 -248.5t-194 -144.5q-26 -9 -36.5 -13.5t-30 -13
t-27.5 -16t-18.5 -19.5t-14 -27t-3.5 -34v-24zM414 -18q-76 0 -130.5 52t-54.5 130q0 76 54.5 127t130.5 51q78 0 133 -51t55 -127q0 -78 -55 -130t-133 -52z" />
    <glyph glyph-name="at" unicode="@" horiz-adv-x="2037" 
d="M1110 -344h-115q-183 0 -347.5 70t-282 189.5t-186 284.5t-68.5 349q0 183 68.5 349t186 287t282 192t347.5 71q247 0 458.5 -111t338.5 -310.5t127 -442.5q0 -77 -13 -156t-43.5 -160t-75 -144t-114.5 -102.5t-155 -39.5q-62 0 -115.5 17t-99 52.5t-71.5 99.5t-26 150
v258q0 98 -67.5 166t-163.5 68t-165 -68t-69 -166q0 -94 69.5 -162.5t164.5 -68.5q88 0 153 41v-197q-68 -33 -153 -33q-175 0 -298.5 122.5t-123.5 297.5q0 178 123 300t299 122q172 0 295 -118t129 -285v-287q0 -65 35.5 -96t83.5 -31q61 0 105 42.5t65 111.5t29.5 134
t8.5 132q0 143 -59 270t-158 215.5t-233 139.5t-281 51q-144 0 -273.5 -57t-222 -152.5t-146.5 -226.5t-54 -275q0 -194 92 -355t252 -253.5t352 -92.5h115v-192z" />
    <glyph glyph-name="A" unicode="A" horiz-adv-x="1357" 
d="M1376 0h-342l-106 328h-496l-104 -328h-344l522 1411h350zM678 1104l-158 -498h318z" />
    <glyph glyph-name="B" unicode="B" horiz-adv-x="1312" 
d="M958 754q132 -19 202.5 -118t70.5 -230q0 -60 -15.5 -116.5t-50.5 -109.5t-86.5 -92.5t-130 -63.5t-174.5 -24h-612v1411h571q191 0 307.5 -102.5t116.5 -261.5q0 -41 -9 -81.5t-29.5 -83.5t-61.5 -77t-99 -51zM836 995q0 58 -31.5 96.5t-93.5 38.5h-228v-270h226
q58 0 92.5 35.5t34.5 99.5zM483 281h252q82 0 127 46t45 111q0 63 -44 110.5t-128 47.5h-252v-315z" />
    <glyph glyph-name="C" unicode="C" horiz-adv-x="1437" 
d="M797 -25q-146 0 -279 58.5t-229 157.5t-152.5 234.5t-56.5 283.5q0 146 56.5 280.5t152.5 232.5t229 156t279 58q182 0 338.5 -85t255.5 -229l-250 -174q-119 185 -330 185q-176 0 -292 -123.5t-116 -300.5q0 -116 50.5 -214t144 -157t211.5 -59q214 0 332 184l250 -174
q-99 -144 -255.5 -229t-338.5 -85z" />
    <glyph glyph-name="D" unicode="D" horiz-adv-x="1447" 
d="M162 1411h557q150 0 272 -54.5t203 -150t124.5 -224.5t43.5 -280q0 -150 -43.5 -278t-124.5 -222.5t-203 -148t-272 -53.5h-557v1411zM483 281h236q77 0 138.5 35t100.5 94t59.5 134t20.5 158q0 114 -34.5 209t-109 157t-175.5 62h-236v-849z" />
    <glyph glyph-name="E" unicode="E" horiz-adv-x="1185" 
d="M483 551v-270h602v-281h-923v1411h905v-281h-584v-290h512v-289h-512z" />
    <glyph glyph-name="F" unicode="F" horiz-adv-x="1124" 
d="M1055 1411v-281h-572v-296h453v-279h-453v-555h-321v1411h893z" />
    <glyph glyph-name="G" unicode="G" horiz-adv-x="1554" 
d="M823 -25q-159 0 -298.5 58.5t-236.5 157.5t-152.5 233t-55.5 281q0 198 95.5 366t262.5 266.5t367 98.5q164 0 305.5 -64.5t235.5 -177.5l-238 -199q-123 142 -303 142q-169 0 -285.5 -127t-116.5 -305q0 -86 31 -166.5t84 -141.5t131 -98t166 -37q81 0 156 27
t125.5 80.5t50.5 119.5h-397v261h747q0 -195 -52 -346t-144.5 -243.5t-213 -139t-264.5 -46.5z" />
    <glyph glyph-name="H" unicode="H" horiz-adv-x="1433" 
d="M948 846v565h322v-1411h-322v557h-465v-557h-321v1411h321v-565h465z" />
    <glyph glyph-name="I" unicode="I" horiz-adv-x="647" 
d="M483 0h-321v1411h321v-1411z" />
    <glyph glyph-name="J" unicode="J" horiz-adv-x="663" 
d="M33 -483q-108 0 -217 34l28 291q60 -22 189 -22q74 0 109.5 49.5t35.5 128.5v1413h322v-1413q0 -101 -25.5 -185.5t-79 -152t-146 -105.5t-216.5 -38z" />
    <glyph glyph-name="K" unicode="K" horiz-adv-x="1294" 
d="M764 713l547 -713h-412l-416 553v-553h-321v1411h321v-569l367 569h383z" />
    <glyph glyph-name="L" unicode="L" horiz-adv-x="1042" 
d="M483 1411v-1130h518v-281h-839v1411h321z" />
    <glyph glyph-name="M" unicode="M" horiz-adv-x="1884" 
d="M1624 1411l172 -1411h-330l-92 803l-307 -641h-246l-307 639l-94 -801h-330l174 1411h268l412 -883l406 883h274z" />
    <glyph glyph-name="N" unicode="N" horiz-adv-x="1390" 
d="M907 610v801h322v-1411h-283l-463 811v-811h-321v1411h295z" />
    <glyph glyph-name="O" unicode="O" horiz-adv-x="1599" 
d="M801 -25q-148 0 -282 58.5t-230 157.5t-152.5 234t-56.5 282q0 197 95.5 364.5t261.5 266t364 98.5q117 0 227 -37t198 -105t154.5 -157.5t103 -200.5t36.5 -229q0 -147 -57 -282t-153 -234t-229.5 -157.5t-279.5 -58.5zM799 279q174 0 285.5 124t111.5 304t-111.5 303
t-285.5 123q-175 0 -285.5 -122.5t-110.5 -303.5t110.5 -304.5t285.5 -123.5z" />
    <glyph glyph-name="P" unicode="P" horiz-adv-x="1269" 
d="M162 1411h581q118 0 212 -40t150 -107t85 -148.5t29 -171.5q0 -91 -29 -172.5t-85.5 -148t-149.5 -105.5t-212 -39h-260v-479h-321v1411zM483 760h246q84 0 125 54t41 130t-40.5 131t-123.5 55h-248v-370z" />
    <glyph glyph-name="Q" unicode="Q" horiz-adv-x="1599" 
d="M1520 707q0 -178 -79.5 -333t-217.5 -257l135 -223l-225 -136l-146 242q-92 -25 -186 -25q-148 0 -282 58.5t-230 157.5t-152.5 234t-56.5 282q0 197 95.5 364.5t261.5 266t364 98.5q117 0 227 -37t198 -105t154.5 -157.5t103 -200.5t36.5 -229zM799 279h18l-112 188
l225 133l133 -219q63 59 98 143.5t35 182.5q0 180 -111.5 303t-285.5 123q-175 0 -285.5 -122.5t-110.5 -303.5t110.5 -304.5t285.5 -123.5z" />
    <glyph glyph-name="R" unicode="R" horiz-adv-x="1314" 
d="M1247 0h-375l-323 496h-66v-496h-321v1411h577q118 0 211.5 -40t149.5 -107t85 -148.5t29 -171.5q0 -149 -96 -274t-233 -156zM696 1130h-213v-380h205q99 0 151 54.5t52 131.5t-51.5 135.5t-143.5 58.5z" />
    <glyph glyph-name="S" unicode="S" horiz-adv-x="1202" 
d="M598 -25q-226 0 -368 121t-142 316h322q0 -67 58 -113.5t142 -46.5q80 0 132.5 39t52.5 106q0 46 -34.5 82.5t-121.5 65.5l-168 51q-89 24 -157.5 62t-108 79t-64 90.5t-33 91t-8.5 85.5q0 125 65.5 224t179.5 153.5t253 54.5q208 0 342.5 -118t134.5 -319h-321
q0 67 -41.5 111.5t-120.5 44.5q-73 0 -119.5 -42.5t-46.5 -102.5q0 -90 139 -129l148 -47q67 -20 120 -42.5t108.5 -58t92.5 -78.5t60.5 -105t23.5 -136q0 -109 -44.5 -195.5t-119.5 -138.5t-165.5 -78.5t-190.5 -26.5z" />
    <glyph glyph-name="T" unicode="T" horiz-adv-x="1148" 
d="M41 1411h1067v-281h-373v-1130h-321v1130h-373v281z" />
    <glyph glyph-name="U" unicode="U" horiz-adv-x="1394" 
d="M698 -25q-109 0 -209 37.5t-176 104.5t-121 167.5t-45 219.5v907h322v-883q0 -125 66 -186t163 -61q61 0 110.5 23.5t83.5 81t34 142.5v883h321v-907q0 -119 -45 -219.5t-120.5 -167.5t-175 -104.5t-208.5 -37.5z" />
    <glyph glyph-name="V" unicode="V" horiz-adv-x="1206" 
d="M602 518l236 893h338l-431 -1411h-284l-430 1411h334z" />
    <glyph glyph-name="W" unicode="W" horiz-adv-x="1853" 
d="M1231 563l260 848h350l-479 -1411h-250l-188 717l-183 -717h-252l-475 1411h346l261 -844l174 643h264z" />
    <glyph glyph-name="X" unicode="X" horiz-adv-x="1363" 
d="M872 752l490 -752h-379l-301 496l-301 -496h-377l485 752l-444 659h389l248 -403l252 403h385z" />
    <glyph glyph-name="Y" unicode="Y" horiz-adv-x="1406" 
d="M700 891l332 520h383l-551 -780v-631h-323v637l-549 774h383z" />
    <glyph glyph-name="Z" unicode="Z" horiz-adv-x="1220" 
d="M109 1411h1017v-231l-632 -899h632v-281h-1044v231l623 899h-596v281z" />
    <glyph glyph-name="bracketleft" unicode="[" horiz-adv-x="690" 
d="M637 1458v-213h-231v-1423h231v-219h-485v1855h485z" />
    <glyph glyph-name="backslash" unicode="\" horiz-adv-x="995" 
d="M948 0h-229l-674 1411h231z" />
    <glyph glyph-name="bracketright" unicode="]" horiz-adv-x="690" 
d="M53 1245v213h486v-1855h-486v219h232v1423h-232z" />
    <glyph glyph-name="asciicircum" unicode="^" horiz-adv-x="1122" 
d="M709 1411l344 -840h-314l-180 506l-176 -506h-313l344 840h295z" />
    <glyph glyph-name="underscore" unicode="_" horiz-adv-x="1488" 
d="M1397 -281h-1303v213h1303v-213z" />
    <glyph glyph-name="grave" unicode="`" horiz-adv-x="1110" 
d="M748 1126h-207l-277 351h293z" />
    <glyph glyph-name="a" unicode="a" horiz-adv-x="1263" 
d="M834 842v114h303v-956h-303v121q-49 -67 -131 -106.5t-173 -39.5q-202 0 -329 139t-127 363q0 225 128 364.5t333 139.5q89 0 169.5 -37t129.5 -102zM604 256q91 0 155 66t64 155q0 94 -64.5 158.5t-156.5 64.5q-95 0 -157 -64.5t-62 -158.5q0 -90 62.5 -155.5
t158.5 -65.5z" />
    <glyph glyph-name="b" unicode="b" horiz-adv-x="1261" 
d="M725 981q90 0 174 -35.5t148.5 -99t103.5 -159.5t39 -208t-39 -208.5t-103.5 -160t-148.5 -99.5t-174 -36q-81 0 -163.5 33t-131.5 98v-106h-303v1477h303v-625q49 63 131.5 96t163.5 33zM662 256q89 0 155 66t66 157q0 90 -65.5 155.5t-155.5 65.5q-88 0 -155 -65
t-67 -156t66.5 -157t155.5 -66z" />
    <glyph glyph-name="c" unicode="c" horiz-adv-x="1071" 
d="M598 -25q-104 0 -200 37t-168.5 102t-116 160.5t-43.5 206.5t43.5 205.5t116 158.5t168.5 100t200 36q134 0 240 -60t178 -165l-236 -148q-27 42 -78 67t-102 25q-101 0 -161 -63t-60 -156q0 -94 60 -159.5t161 -65.5q51 0 102 25t78 67l236 -147q-72 -106 -178.5 -166
t-239.5 -60z" />
    <glyph glyph-name="d" unicode="d" horiz-adv-x="1261" 
d="M834 852v625h301v-1477h-301v106q-49 -65 -132.5 -98t-164.5 -33q-89 0 -172.5 36t-148 99.5t-103.5 160t-39 208.5t39 208t103.5 159.5t148 99t172.5 35.5q81 0 164.5 -33t132.5 -96zM602 256q88 0 153.5 65.5t65.5 157.5q0 91 -66 156t-153 65q-90 0 -155.5 -65.5
t-65.5 -155.5q0 -91 66 -157t155 -66z" />
    <glyph glyph-name="e" unicode="e" horiz-adv-x="1157" 
d="M1092 498q0 -12 -1 -28t-2 -39.5t-2 -41.5h-700q22 -70 80 -109.5t143 -39.5q66 0 131.5 27t110.5 71l156 -197q-70 -76 -183.5 -121t-234.5 -45q-227 0 -371.5 140.5t-144.5 359.5q0 114 42 210t112.5 160t163.5 100t196 36q137 0 251.5 -59t183.5 -170.5t69 -253.5z
M385 567h406q-3 70 -59 114t-138 44q-74 0 -130.5 -38.5t-78.5 -119.5z" />
    <glyph glyph-name="f" unicode="f" horiz-adv-x="772" 
d="M791 1196h-58q-200 0 -203 -188v-52h205v-229h-205v-727h-303v727h-178v229h178v60q0 223 117 342t326 119h121v-281z" />
    <glyph glyph-name="g" unicode="g" horiz-adv-x="1261" 
d="M834 852v104h301v-841q0 -299 -148 -455t-412 -156q-160 0 -289.5 85.5t-187.5 222.5l250 100q27 -60 90.5 -100.5t136.5 -40.5q259 0 259 307v28q-51 -64 -134 -97.5t-163 -33.5q-89 0 -172.5 36t-148 99.5t-103.5 160t-39 208.5t39 208t103.5 159.5t148 99t172.5 35.5
q81 0 163.5 -33t133.5 -96zM602 256q88 0 153.5 65.5t65.5 157.5q0 91 -66 156t-153 65q-90 0 -155.5 -65.5t-65.5 -155.5q0 -91 66 -157t155 -66z" />
    <glyph glyph-name="h" unicode="h" horiz-adv-x="1198" 
d="M705 981q187 0 282.5 -121.5t95.5 -345.5v-514h-303v496q0 100 -50.5 152t-115.5 52q-33 0 -63.5 -10t-58.5 -31.5t-45 -63.5t-17 -99v-496h-303v1477h303v-674q16 57 67.5 99.5t106 60.5t101.5 18z" />
    <glyph glyph-name="i" unicode="i" horiz-adv-x="557" 
d="M279 1100q-77 0 -133 52t-56 124q0 74 56 125t133 51t130.5 -50.5t53.5 -125.5q0 -72 -54 -124t-130 -52zM430 0h-303v956h303v-956z" />
    <glyph glyph-name="j" unicode="j" horiz-adv-x="573" 
d="M295 1100q-75 0 -130.5 52t-55.5 124q0 74 55 125t131 51q78 0 132 -50.5t54 -125.5q0 -72 -54 -124t-132 -52zM6 -471h-125v272h121q66 0 103.5 48.5t37.5 130.5v976h303v-966q0 -224 -115.5 -342.5t-324.5 -118.5z" />
    <glyph glyph-name="k" unicode="k" horiz-adv-x="1073" 
d="M655 532l439 -532h-369l-295 389v-389h-303v1477h303v-789l205 268h381z" />
    <glyph glyph-name="l" unicode="l" horiz-adv-x="557" 
d="M430 0h-303v1477h303v-1477z" />
    <glyph glyph-name="m" unicode="m" horiz-adv-x="1781" 
d="M1305 981q178 0 270 -122t92 -345v-514h-303v506q0 102 -43 148t-109 46q-75 0 -119 -56.5t-44 -176.5v-467h-304v500q0 103 -42.5 151.5t-106.5 48.5q-72 0 -119 -45t-47 -155v-500h-303v956h303v-151q26 84 103.5 130t154.5 46q105 0 182.5 -47.5t120.5 -134.5
q46 88 137.5 135t176.5 47z" />
    <glyph glyph-name="n" unicode="n" horiz-adv-x="1198" 
d="M705 981q187 0 282.5 -121.5t95.5 -345.5v-514h-303v496q0 102 -50 153t-116 51q-34 0 -64 -9.5t-58.5 -31t-45 -63t-16.5 -98.5v-498h-303v956h303v-165q17 61 68 106.5t105 64.5t102 19z" />
    <glyph glyph-name="o" unicode="o" horiz-adv-x="1179" 
d="M590 -25q-102 0 -196 36.5t-165.5 101t-114 159.5t-42.5 205q0 89 27.5 168.5t76.5 140t114 105t142 67.5t158 23q102 0 196 -36.5t166 -101t115 -160.5t43 -206t-43 -205t-115 -159.5t-166 -101t-196 -36.5zM590 256q89 0 150 62t61 159t-61 160t-150 63t-150 -63
t-61 -160t61 -159t150 -62z" />
    <glyph glyph-name="p" unicode="p" horiz-adv-x="1261" 
d="M725 981q90 0 174 -36t148.5 -99.5t103.5 -159t39 -207.5t-39 -208.5t-103.5 -160t-148.5 -99.5t-174 -36q-80 0 -163 33.5t-132 97.5v-577h-303v1427h303v-102q49 62 132 94.5t163 32.5zM662 256q90 0 155.5 65.5t65.5 157.5q0 90 -65.5 155.5t-155.5 65.5
q-89 0 -155.5 -65t-66.5 -156q0 -92 67 -157.5t155 -65.5z" />
    <glyph glyph-name="q" unicode="q" horiz-adv-x="1261" 
d="M834 852v104h301v-1427h-301v580q-49 -65 -133 -99.5t-164 -34.5q-89 0 -172.5 36t-148 99.5t-103.5 160t-39 208.5t39 207.5t103.5 159t148 99.5t172.5 36q81 0 164.5 -33t132.5 -96zM602 256q88 0 153.5 65.5t65.5 157.5q0 91 -65 156t-154 65q-90 0 -155.5 -65.5
t-65.5 -155.5q0 -92 65.5 -157.5t155.5 -65.5z" />
    <glyph glyph-name="r" unicode="r" horiz-adv-x="862" 
d="M713 981q86 0 143 -29l-72 -288q-61 36 -137 36q-97 0 -157 -91.5t-60 -291.5v-317h-303v956h299v-202q39 113 116.5 170t170.5 57z" />
    <glyph glyph-name="s" unicode="s" horiz-adv-x="974" 
d="M489 -25q-81 0 -155 22t-132.5 63t-93 105.5t-34.5 143.5h286q0 -40 30.5 -71t90.5 -31q48 0 82.5 22.5t34.5 55.5q0 23 -20 36t-74 25l-125 33q-58 16 -104.5 37.5t-76 43.5t-51 50t-32.5 50t-17 50t-7 45t-1 39q0 111 112 199t279 88q57 0 111 -10.5t107 -35
t92.5 -60.5t63 -92.5t22.5 -125.5h-287q0 44 -28.5 68.5t-74.5 24.5q-40 0 -67 -18t-27 -48q0 -50 82 -70l166 -45q68 -19 118.5 -49t77 -59.5t42 -65.5t19 -59.5t3.5 -48.5q0 -61 -24.5 -113t-65 -88t-94 -61.5t-111.5 -37.5t-117 -12z" />
    <glyph glyph-name="t" unicode="t" horiz-adv-x="768" 
d="M528 956h201v-229h-201v-727h-303v727h-174v229h174v342h303v-342z" />
    <glyph glyph-name="u" unicode="u" horiz-adv-x="1198" 
d="M768 459v497h303v-956h-303v164q-15 -62 -66 -107t-105 -63.5t-103 -18.5q-188 0 -283.5 121t-95.5 344v516h303v-497q0 -102 49.5 -152.5t116.5 -50.5q33 0 63 9.5t58.5 31.5t45.5 63.5t17 98.5z" />
    <glyph glyph-name="v" unicode="v" horiz-adv-x="1075" 
d="M539 387l206 569h330l-405 -956h-264l-406 956h330z" />
    <glyph glyph-name="w" unicode="w" horiz-adv-x="1542" 
d="M1049 410l157 546h328l-332 -956h-258l-174 590l-166 -590h-258l-342 956h328l157 -546l158 546h244z" />
    <glyph glyph-name="x" unicode="x" horiz-adv-x="1089" 
d="M713 516l374 -516h-352l-190 279l-191 -279h-354l377 516l-316 440h355l133 -194l127 194h352z" />
    <glyph glyph-name="y" unicode="y" horiz-adv-x="1054" 
d="M537 461l194 495h326l-590 -1427h-324l236 586l-377 841h336z" />
    <glyph glyph-name="z" unicode="z" horiz-adv-x="1042" 
d="M109 956h839v-225l-430 -450h430v-281h-866v223l424 453h-397v280z" />
    <glyph glyph-name="braceleft" unicode="{" horiz-adv-x="796" 
d="M432 1034v-280q0 -76 -31 -135t-79 -87q49 -30 79.5 -87.5t30.5 -135.5v-282q0 -93 52 -152t167 -59h99v-213h-154q-175 0 -296 114t-120 297v318q0 56 -37.5 84t-87.5 28v174q49 0 87 28t38 85v316q-1 184 119.5 297.5t296.5 113.5h154v-211h-99q-115 0 -167 -59.5
t-52 -153.5z" />
    <glyph glyph-name="bar" unicode="|" horiz-adv-x="456" 
d="M305 -256h-153v1903h153v-1903z" />
    <glyph glyph-name="braceright" unicode="}" horiz-adv-x="796" 
d="M616 1047v-316q0 -57 38 -85t87 -28v-174q-50 0 -87.5 -28t-37.5 -84v-318q0 -183 -120 -297t-295 -114h-156v213h100q115 0 167.5 59.5t52.5 151.5v282q0 76 30.5 134.5t77.5 88.5q-47 28 -77.5 87t-30.5 135v280q0 94 -52.5 153.5t-167.5 59.5h-100v211h156
q175 0 295 -113.5t120 -297.5z" />
    <glyph glyph-name="asciitilde" unicode="~" horiz-adv-x="1366" 
d="M1133 707l124 -134q-57 -94 -144.5 -151t-190.5 -57q-31 0 -59.5 4t-59 14t-45.5 15.5t-49 21.5t-39 18q-10 4 -45 21t-54 25t-53.5 16t-68.5 8q-117 0 -226 -131l-112 139q62 89 149.5 146t192.5 57q39 0 77 -8.5t61 -17.5t58 -25.5t49 -22.5q10 -4 45 -21t54 -25
t53.5 -16t67.5 -8q111 0 215 132z" />
    <glyph glyph-name="uni00A0" unicode="&#xa0;" horiz-adv-x="477" 
 />
    <glyph glyph-name="exclamdown" unicode="&#xa1;" horiz-adv-x="571" 
d="M285 981q77 0 132.5 -52t55.5 -130q0 -75 -56 -126.5t-132 -51.5t-130.5 51t-54.5 127q0 78 54.5 130t130.5 52zM127 -471l43 913h233l43 -913h-319z" />
    <glyph glyph-name="cent" unicode="&#xa2;" horiz-adv-x="1134" 
d="M637 262q52 0 103.5 25t78.5 67l236 -147q-63 -92 -153.5 -150t-201.5 -71v-242h-153v244q-188 29 -313 162.5t-125 330.5q0 196 125 329.5t313 162.5v246h153v-244q111 -13 201.5 -71t153.5 -150l-236 -148q-27 42 -78.5 67t-103.5 25q-100 0 -160.5 -62.5t-60.5 -154.5
q0 -93 60.5 -156t160.5 -63z" />
    <glyph glyph-name="sterling" unicode="&#xa3;" horiz-adv-x="1376" 
d="M1004 340v102h301v-163q0 -118 -81.5 -198.5t-191.5 -80.5h-956v258h207v258h-138v131h138v260q0 208 119.5 328.5t314.5 120.5q102 0 184.5 -24.5t150 -78.5t105 -150.5t37.5 -230.5h-305q0 201 -158 201q-66 0 -105.5 -48.5t-39.5 -123.5v-254h219v-131h-219v-258h358
q34 0 47 21.5t13 60.5z" />
    <glyph glyph-name="currency" unicode="&#xa4;" horiz-adv-x="1208" 
d="M250 913l-148 148l138 137l147 -147q104 63 219 63q116 0 217 -63l146 147l137 -137l-148 -150q66 -111 66 -225q0 -115 -63 -209l145 -147l-137 -137l-146 147q-103 -64 -219 -64t-219 64l-145 -147l-138 137l146 147q-62 95 -62 215q0 118 64 221zM604 498q83 0 141 57
t58 139q0 83 -58 141t-141 58q-82 0 -139 -58t-57 -141q0 -82 57 -139t139 -57z" />
    <glyph glyph-name="yen" unicode="&#xa5;" horiz-adv-x="1515" 
d="M922 0h-328v188h-307v140h307v196h-307v144h284l-524 743h383l326 -520l331 520h381l-522 -743h283v-144h-307v-196h307v-140h-307v-188z" />
    <glyph glyph-name="brokenbar" unicode="&#xa6;" horiz-adv-x="468" 
d="M311 866h-153v781h153v-781zM311 -256h-153v784h153v-784z" />
    <glyph glyph-name="section" unicode="&#xa7;" horiz-adv-x="1116" 
d="M549 145q-186 0 -314.5 122t-128.5 317v405q0 129 60.5 230t161 153.5t221.5 52.5q72 0 141.5 -21t131.5 -62t106.5 -110t60.5 -157l-256 -76q-21 83 -72 120.5t-112 37.5q-73 0 -123.5 -46.5t-50.5 -121.5v-405q0 -82 54.5 -125t133.5 -43q41 0 86 6v-264
q-59 -13 -100 -13zM567 -401q-58 0 -114 12.5t-109.5 40.5t-97 68.5t-75.5 99.5t-44 131l254 76q23 -84 74.5 -122t111.5 -38q71 0 121.5 47.5t50.5 122.5v405q0 82 -54 125t-134 43q-39 0 -84 -8v266q47 11 100 11q185 0 314 -121.5t129 -315.5v-405q0 -130 -61 -231.5
t-161 -154t-221 -52.5z" />
    <glyph glyph-name="dieresis" unicode="&#xa8;" horiz-adv-x="1232" 
d="M399 1163q-63 0 -108 42.5t-45 103.5t45 103t108 42t106.5 -42t43.5 -103t-43.5 -103.5t-106.5 -42.5zM838 1163q-65 0 -110.5 42.5t-45.5 103.5t45.5 103t110.5 42q62 0 105.5 -42t43.5 -103t-43.5 -103.5t-105.5 -42.5z" />
    <glyph glyph-name="copyright" unicode="&#xa9;" horiz-adv-x="1660" 
d="M829 -20q-147 0 -279.5 57t-227.5 154t-151 230.5t-56 280.5q0 148 56 282t151 231t227.5 154.5t279.5 57.5t280 -57.5t228.5 -155t152 -231.5t56.5 -281q0 -196 -95.5 -362.5t-260.5 -263t-361 -96.5zM829 106q161 0 297 80t214.5 217t78.5 299q0 163 -78.5 300.5
t-214.5 217.5t-297 80q-121 0 -230 -47.5t-187.5 -128t-125 -191t-46.5 -231.5t46.5 -231t125 -190t187.5 -127.5t230 -47.5zM827 332q-150 0 -253 107t-103 257q0 151 103 257t253 106q89 0 167 -42.5t130 -115.5l-129 -94q-76 94 -168 94q-81 0 -134.5 -58.5t-53.5 -146.5
q0 -85 53.5 -143.5t134.5 -58.5q98 0 170 96l131 -94q-52 -75 -132 -119.5t-169 -44.5z" />
    <glyph glyph-name="ordfeminine" unicode="&#xaa;" horiz-adv-x="1085" 
d="M711 1393v84h235v-764h-235v88q-39 -51 -106.5 -77t-133.5 -26q-73 0 -140 28t-119 78t-83 126.5t-31 165.5q0 90 31 166.5t83 126.5t119 78t140 28q68 0 134.5 -25.5t105.5 -76.5zM520 915q75 0 130 53t55 128q0 76 -56 128t-129 52q-74 0 -128 -52t-54 -128
q0 -75 54 -128t128 -53zM920 428h-752v156h752v-156z" />
    <glyph glyph-name="guillemotleft" unicode="&#xab;" horiz-adv-x="1083" 
d="M606 53h-233l-283 424l283 424h233l-282 -424zM999 53h-233l-283 424l283 424h233l-282 -424z" />
    <glyph glyph-name="logicalnot" unicode="&#xac;" horiz-adv-x="1245" 
d="M113 510v260h995v-563h-264v303h-731z" />
    <glyph glyph-name="uni00AD" unicode="&#xad;" horiz-adv-x="964" 
d="M844 362h-725v263h725v-263z" />
    <glyph glyph-name="registered" unicode="&#xae;" horiz-adv-x="1660" 
d="M829 1427q147 0 280 -57.5t228.5 -155t152 -231.5t56.5 -281q0 -196 -95.5 -362.5t-260.5 -263t-361 -96.5q-147 0 -279.5 57t-227.5 154t-151 230.5t-56 280.5q0 148 56 282t151 231t227.5 154.5t279.5 57.5zM829 106q161 0 297 80t214.5 217t78.5 299
q0 163 -78.5 300.5t-214.5 217.5t-297 80q-121 0 -230 -47.5t-187.5 -128t-125 -191t-46.5 -231.5t46.5 -231t125 -190t187.5 -127.5t230 -47.5zM1108 817q0 -103 -44.5 -158.5t-117.5 -70.5l170 -234h-184l-160 228h-24v-228h-166v697h286q116 0 178 -68.5t62 -165.5z
M844 901h-96v-190h90q52 0 76 30.5t24 67.5q0 34 -23.5 63t-70.5 29z" />
    <glyph glyph-name="macron" unicode="&#xaf;" horiz-adv-x="1071" 
d="M825 1200h-579v176h579v-176z" />
    <glyph glyph-name="degree" unicode="&#xb0;" horiz-adv-x="735" 
d="M367 801q-119 0 -205 86t-86 207q0 120 86 205t205 85q121 0 206.5 -85t85.5 -205q0 -122 -85.5 -207.5t-206.5 -85.5zM367 952q61 0 101 40t40 102q0 59 -40 100t-101 41q-58 0 -99 -41t-41 -100q0 -61 40.5 -101.5t99.5 -40.5z" />
    <glyph glyph-name="plusminus" unicode="&#xb1;" horiz-adv-x="1073" 
d="M645 1108v-289h313v-215h-313v-291h-215v291h-315v215h315v289h215zM958 -2h-843v217h843v-217z" />
    <glyph glyph-name="uni00B2" unicode="&#xb2;" horiz-adv-x="643" 
d="M475 1399l-135 -158h233v-158h-503l2 82l254 312q27 33 37 47t20 36t10 42q0 27 -23.5 45t-62.5 18q-48 0 -74 -28.5t-24 -75.5l-148 28q6 104 71.5 168t178.5 64q114 0 182 -64t68 -166q0 -41 -24.5 -94t-61.5 -98z" />
    <glyph glyph-name="uni00B3" unicode="&#xb3;" horiz-adv-x="606" 
d="M426 1473q53 -22 83 -66.5t30 -101.5q0 -104 -70.5 -168t-185.5 -64q-81 0 -148.5 35t-97.5 96l125 84q19 -28 49.5 -44.5t64.5 -16.5q43 0 69 21.5t26 56.5q0 43 -33 69.5t-88 26.5h-49v125h28q54 0 84.5 24t30.5 64q-1 28 -24.5 45.5t-51.5 17.5q-62 0 -104 -45l-88 97
q29 42 87.5 67t127.5 25q98 0 158.5 -55t60.5 -148q0 -102 -84 -145z" />
    <glyph glyph-name="acute" unicode="&#xb4;" horiz-adv-x="1110" 
d="M471 1126h-207l193 351h291z" />
    <glyph glyph-name="uni00B5" unicode="&#xb5;" horiz-adv-x="1304" 
d="M1161 274h76v-286h-143q-218 0 -285 151q-30 -74 -104 -119t-142 -45q-78 0 -145 31v-477h-291v1425h303v-497q0 -104 50 -151.5t132 -47.5q63 0 115.5 49.5t52.5 149.5v499h303v-591q0 -91 78 -91z" />
    <glyph glyph-name="paragraph" unicode="&#xb6;" horiz-adv-x="1497" 
d="M723 -96h-221v618q-176 11 -300 139.5t-124 305.5q0 185 129 314.5t315 129.5h201v-1507zM801 -430h-301v192h276q41 0 64.5 28.5t23.5 68.5v1552h297q118 0 199.5 -84t81.5 -197v-176h-197v154q0 40 -27.5 64t-66.5 24h-76v-1346q0 -111 -77 -195.5t-197 -84.5z" />
    <glyph glyph-name="periodcentered" unicode="&#xb7;" horiz-adv-x="577" 
d="M289 334q-78 0 -131.5 51t-53.5 129q0 77 53.5 127.5t131.5 50.5q77 0 131.5 -50.5t54.5 -127.5q0 -78 -54.5 -129t-131.5 -51z" />
    <glyph glyph-name="cedilla" unicode="&#xb8;" horiz-adv-x="1089" 
d="M551 -436q-97 0 -163 61.5t-66 181.5h147q0 -104 76 -104q29 0 49 21t20 55q0 24 -8 45l-106 225h147l92 -172q23 -39 23 -102q0 -91 -62 -151t-149 -60z" />
    <glyph glyph-name="uni00B9" unicode="&#xb9;" horiz-adv-x="475" 
d="M49 1690l316 131h8v-738h-166v506l-158 -57v158z" />
    <glyph glyph-name="ordmasculine" unicode="&#xba;" horiz-adv-x="1042" 
d="M520 682q-109 0 -203 48.5t-152.5 141t-58.5 209.5t58.5 209.5t152.5 140.5t203 48t203.5 -48t153.5 -140.5t59 -209.5t-59 -209.5t-153.5 -141t-203.5 -48.5zM520 897q75 0 125.5 51t50.5 133q0 81 -50.5 132t-125.5 51q-74 0 -125 -51.5t-51 -131.5q0 -81 51 -132.5
t125 -51.5zM145 412v155h752v-155h-752z" />
    <glyph glyph-name="guillemotright" unicode="&#xbb;" horiz-adv-x="1083" 
d="M317 53h-233l283 424l-283 424h233l283 -424zM713 53h-236l283 424l-283 424h236l282 -424z" />
    <glyph glyph-name="onequarter" unicode="&#xbc;" horiz-adv-x="1476" 
d="M127 -18l926 1384h182l-924 -1384h-184zM397 614h-166v508l-157 -57v158l315 131h8v-740zM1311 276h98v-139h-98v-137h-168v137h-346v41l460 551h54v-453zM1143 410l-111 -134h111v134z" />
    <glyph glyph-name="onehalf" unicode="&#xbd;" horiz-adv-x="1511" 
d="M123 -18l926 1384h182l-924 -1384h-184zM393 614h-166v508l-157 -57v158l315 131h8v-740zM1339 317l-137 -159h236v-158h-504l2 84l254 309q27 33 37 47.5t20 36.5t10 43q0 26 -24 45t-62 19q-48 0 -74 -30t-24 -77l-147 31q6 104 71.5 166.5t178.5 62.5q115 0 182 -62.5
t67 -166.5q0 -41 -24.5 -94.5t-61.5 -96.5z" />
    <glyph glyph-name="threequarters" unicode="&#xbe;" horiz-adv-x="1611" 
d="M258 -18l926 1384h184l-924 -1384h-186zM567 836q0 -103 -70.5 -167.5t-185.5 -64.5q-80 0 -148 35.5t-100 95.5l127 86q17 -28 48 -44.5t65 -16.5q44 0 70 21.5t26 56.5q0 43 -32.5 68.5t-87.5 25.5h-50v127h27q54 0 85.5 24t29.5 64q0 28 -22.5 44.5t-51.5 16.5
q-64 0 -104 -43l-91 97q30 41 89 66.5t128 25.5q97 0 158.5 -55.5t61.5 -149.5q0 -47 -23 -85t-63 -60q54 -22 84 -66t30 -102zM1442 276h100v-139h-100v-137h-166v137h-348v41l463 551h51v-453zM1276 410l-111 -134h111v134z" />
    <glyph glyph-name="questiondown" unicode="&#xbf;" horiz-adv-x="989" 
d="M584 981q76 0 130 -52t54 -130q0 -76 -54 -127t-130 -51q-78 0 -133.5 51.5t-55.5 126.5q0 78 55.5 130t133.5 52zM465 463h231l6 -41q9 -53 4.5 -103t-21.5 -92t-60.5 -80t-112.5 -67l-74 -31q-84 -37 -84 -119q0 -60 40.5 -92.5t107.5 -32.5q59 0 102.5 40.5
t44.5 107.5h279q0 -211 -118.5 -323.5t-313.5 -112.5q-190 0 -309 107.5t-119 289.5q0 144 72.5 243t195.5 144q75 27 96 45q33 27 33 78v39z" />
    <glyph glyph-name="Agrave" unicode="&#xc0;" horiz-adv-x="1357" 
d="M600 1927l193 -350h-207l-279 350h293zM1376 0h-342l-106 328h-496l-104 -328h-344l522 1411h350zM678 1104l-158 -498h318z" />
    <glyph glyph-name="Aacute" unicode="&#xc1;" horiz-adv-x="1357" 
d="M766 1927h293l-277 -350h-207zM1376 0h-342l-106 328h-496l-104 -328h-344l522 1411h350zM678 1104l-158 -498h318z" />
    <glyph glyph-name="Acircumflex" unicode="&#xc2;" horiz-adv-x="1357" 
d="M840 1577l-162 182l-162 -182h-213l225 350h301l226 -350h-215zM1376 0h-342l-106 328h-496l-104 -328h-344l522 1411h350zM678 1104l-158 -498h318z" />
    <glyph glyph-name="Atilde" unicode="&#xc3;" horiz-adv-x="1357" 
d="M590 1704q-15 0 -33.5 -22.5t-19.5 -65.5h-150q7 135 67 198.5t136 63.5q29 0 57.5 -13t46.5 -29t38.5 -29t35.5 -13q17 0 35.5 20t19.5 64h150q-4 -71 -24.5 -123.5t-51.5 -80.5t-63.5 -41t-65.5 -13q-34 0 -68.5 21t-62.5 42t-47 21zM1376 0h-342l-106 328h-496
l-104 -328h-344l522 1411h350zM678 1104l-158 -498h318z" />
    <glyph glyph-name="Adieresis" unicode="&#xc4;" horiz-adv-x="1357" 
d="M463 1614q-64 0 -109 42t-45 103q0 60 45.5 102t108.5 42t106 -42t43 -102q0 -61 -43 -103t-106 -42zM901 1614q-65 0 -110.5 42t-45.5 103q0 60 45.5 102t110.5 42q62 0 105 -42t43 -102q0 -61 -43 -103t-105 -42zM1376 0h-342l-106 328h-496l-104 -328h-344l522 1411
h350zM678 1104l-158 -498h318z" />
    <glyph glyph-name="Aring" unicode="&#xc5;" horiz-adv-x="1357" 
d="M678 1473q-105 0 -181.5 74t-76.5 179q0 107 76.5 183t181.5 76q108 0 185 -76t77 -183q0 -105 -77 -179t-185 -74zM678 1862q-54 0 -93.5 -39.5t-39.5 -96.5q0 -56 39 -92.5t94 -36.5q57 0 98 36.5t41 92.5t-41.5 96t-97.5 40zM1376 0h-342l-106 328h-496l-104 -328
h-344l522 1411h350zM678 1104l-158 -498h318z" />
    <glyph glyph-name="AE" unicode="&#xc6;" horiz-adv-x="1914" 
d="M1212 559v-276h603v-283h-922v317h-404l-151 -317h-387l731 1411h1116v-283h-586v-294h512v-275h-512zM874 1128l-253 -532h270v532h-17z" />
    <glyph glyph-name="Ccedilla" unicode="&#xc7;" horiz-adv-x="1437" 
d="M809 279q214 0 332 184l250 -174q-89 -130 -226 -212t-297 -97l56 -103q22 -43 22 -102q0 -91 -62 -151t-149 -60q-97 0 -164 61.5t-67 181.5h149q0 -104 76 -104q29 0 49.5 21t20.5 55q0 24 -8 45l-76 156q-177 21 -322.5 123.5t-229 262.5t-83.5 343q0 146 56.5 280.5
t152.5 232.5t229 156t279 58q182 0 338.5 -85t255.5 -229l-250 -174q-119 185 -330 185q-176 0 -292 -123.5t-116 -300.5q0 -116 50.5 -214t144 -157t211.5 -59z" />
    <glyph glyph-name="Egrave" unicode="&#xc8;" horiz-adv-x="1185" 
d="M514 1927l193 -350h-207l-279 350h293zM483 551v-270h602v-281h-923v1411h905v-281h-584v-290h512v-289h-512z" />
    <glyph glyph-name="Eacute" unicode="&#xc9;" horiz-adv-x="1185" 
d="M680 1927h293l-279 -350h-205zM483 551v-270h602v-281h-923v1411h905v-281h-584v-290h512v-289h-512z" />
    <glyph glyph-name="Ecircumflex" unicode="&#xca;" horiz-adv-x="1185" 
d="M754 1577l-162 182l-162 -182h-213l223 350h303l226 -350h-215zM483 551v-270h602v-281h-923v1411h905v-281h-584v-290h512v-289h-512z" />
    <glyph glyph-name="Edieresis" unicode="&#xcb;" horiz-adv-x="1185" 
d="M377 1614q-64 0 -109 42t-45 103q0 60 45.5 102t108.5 42q62 0 105.5 -42t43.5 -102q0 -61 -43.5 -103t-105.5 -42zM815 1614q-65 0 -110.5 42t-45.5 103q0 60 45.5 102t110.5 42q62 0 105 -42t43 -102q0 -61 -43 -103t-105 -42zM483 551v-270h602v-281h-923v1411h905
v-281h-584v-290h512v-289h-512z" />
    <glyph glyph-name="Igrave" unicode="&#xcc;" horiz-adv-x="647" 
d="M436 1577h-207l-276 350h291zM483 0h-321v1411h321v-1411z" />
    <glyph glyph-name="Iacute" unicode="&#xcd;" horiz-adv-x="647" 
d="M426 1577h-207l193 350h290zM483 0h-321v1411h321v-1411z" />
    <glyph glyph-name="Icircumflex" unicode="&#xce;" horiz-adv-x="647" 
d="M160 1577h-211l223 350h301l225 -350h-213l-163 182zM483 0h-321v1411h321v-1411z" />
    <glyph glyph-name="Idieresis" unicode="&#xcf;" horiz-adv-x="647" 
d="M106 1614q-63 0 -108 42t-45 103q0 60 45 102t108 42t106.5 -42t43.5 -102q0 -61 -43.5 -103t-106.5 -42zM545 1614q-64 0 -109 42t-45 103q0 60 45.5 102t108.5 42q62 0 105.5 -42t43.5 -102q0 -61 -43.5 -103t-105.5 -42zM483 0h-321v1411h321v-1411z" />
    <glyph glyph-name="Eth" unicode="&#xd0;" horiz-adv-x="1480" 
d="M197 1411h555q150 0 272 -54.5t203 -150t124.5 -224.5t43.5 -280q0 -150 -43.5 -278t-124.5 -222.5t-203 -148t-272 -53.5h-555v580h-154v235h154v596zM518 281h234q102 0 176 60.5t108.5 154t34.5 206.5q0 84 -20.5 160t-59 136.5t-100.5 96t-139 35.5h-234v-315h232
v-235h-232v-299z" />
    <glyph glyph-name="Ntilde" unicode="&#xd1;" horiz-adv-x="1390" 
d="M606 1704q-17 0 -35.5 -22t-19.5 -66h-150q7 135 68 198.5t137 63.5q37 0 71 -21t61 -42t46 -21q16 0 34.5 20.5t19.5 63.5h149q-3 -71 -23 -123.5t-51 -80.5t-63.5 -41t-65.5 -13q-35 0 -69.5 21t-62 42t-46.5 21zM907 610v801h322v-1411h-283l-463 811v-811h-321v1411
h295z" />
    <glyph glyph-name="Ograve" unicode="&#xd2;" horiz-adv-x="1599" 
d="M911 1577h-204l-279 350h293zM801 -25q-148 0 -282 58.5t-230 157.5t-152.5 234t-56.5 282q0 197 95.5 364.5t261.5 266t364 98.5q117 0 227 -37t198 -105t154.5 -157.5t103 -200.5t36.5 -229q0 -147 -57 -282t-153 -234t-229.5 -157.5t-279.5 -58.5zM799 279
q174 0 285.5 124t111.5 304t-111.5 303t-285.5 123q-175 0 -285.5 -122.5t-110.5 -303.5t110.5 -304.5t285.5 -123.5z" />
    <glyph glyph-name="Oacute" unicode="&#xd3;" horiz-adv-x="1599" 
d="M901 1577h-205l191 350h293zM801 -25q-148 0 -282 58.5t-230 157.5t-152.5 234t-56.5 282q0 197 95.5 364.5t261.5 266t364 98.5q117 0 227 -37t198 -105t154.5 -157.5t103 -200.5t36.5 -229q0 -147 -57 -282t-153 -234t-229.5 -157.5t-279.5 -58.5zM799 279
q174 0 285.5 124t111.5 304t-111.5 303t-285.5 123q-175 0 -285.5 -122.5t-110.5 -303.5t110.5 -304.5t285.5 -123.5z" />
    <glyph glyph-name="Ocircumflex" unicode="&#xd4;" horiz-adv-x="1599" 
d="M637 1577h-213l223 350h303l226 -350h-215l-162 182zM801 -25q-148 0 -282 58.5t-230 157.5t-152.5 234t-56.5 282q0 197 95.5 364.5t261.5 266t364 98.5q117 0 227 -37t198 -105t154.5 -157.5t103 -200.5t36.5 -229q0 -147 -57 -282t-153 -234t-229.5 -157.5
t-279.5 -58.5zM799 279q174 0 285.5 124t111.5 304t-111.5 303t-285.5 123q-175 0 -285.5 -122.5t-110.5 -303.5t110.5 -304.5t285.5 -123.5z" />
    <glyph glyph-name="Otilde" unicode="&#xd5;" horiz-adv-x="1599" 
d="M657 1616h-149q7 135 67 198.5t136 63.5q29 0 57.5 -13t46.5 -29t38.5 -29t35.5 -13q17 0 34.5 20t18.5 64h150q-3 -71 -23 -123.5t-51 -80.5t-63.5 -41t-65.5 -13q-35 0 -69.5 21t-62 42t-46.5 21q-17 0 -35 -22t-19 -66zM801 -25q-148 0 -282 58.5t-230 157.5
t-152.5 234t-56.5 282q0 197 95.5 364.5t261.5 266t364 98.5q117 0 227 -37t198 -105t154.5 -157.5t103 -200.5t36.5 -229q0 -147 -57 -282t-153 -234t-229.5 -157.5t-279.5 -58.5zM799 279q174 0 285.5 124t111.5 304t-111.5 303t-285.5 123q-175 0 -285.5 -122.5
t-110.5 -303.5t110.5 -304.5t285.5 -123.5z" />
    <glyph glyph-name="Odieresis" unicode="&#xd6;" horiz-adv-x="1599" 
d="M584 1614q-64 0 -109 42t-45 103q0 60 45.5 102t108.5 42q62 0 105.5 -42t43.5 -102q0 -61 -43.5 -103t-105.5 -42zM1022 1614q-65 0 -110.5 42t-45.5 103q0 60 45.5 102t110.5 42q61 0 104 -42t43 -102q0 -61 -42.5 -103t-104.5 -42zM801 -25q-148 0 -282 58.5
t-230 157.5t-152.5 234t-56.5 282q0 197 95.5 364.5t261.5 266t364 98.5q117 0 227 -37t198 -105t154.5 -157.5t103 -200.5t36.5 -229q0 -147 -57 -282t-153 -234t-229.5 -157.5t-279.5 -58.5zM799 279q174 0 285.5 124t111.5 304t-111.5 303t-285.5 123
q-175 0 -285.5 -122.5t-110.5 -303.5t110.5 -304.5t285.5 -123.5z" />
    <glyph glyph-name="multiply" unicode="&#xd7;" horiz-adv-x="960" 
d="M717 913l151 -151l-235 -236l235 -235l-151 -154l-238 238l-231 -232l-152 154l232 229l-234 232l152 153l233 -233z" />
    <glyph glyph-name="Oslash" unicode="&#xd8;" horiz-adv-x="1609" 
d="M1520 1341l-164 -167q80 -97 124 -217.5t44 -249.5q0 -147 -56.5 -282t-152.5 -234t-229.5 -157.5t-280.5 -58.5q-257 0 -455 164l-157 -164l-97 97l160 164q-81 97 -125.5 218.5t-44.5 252.5q0 197 95 364.5t260.5 266t363.5 98.5q257 0 457 -166l161 166zM410 707
q0 -140 65 -246l572 588q-105 84 -244 84q-174 0 -283.5 -122.5t-109.5 -303.5zM803 279q174 0 285.5 124t111.5 304q0 135 -63 239l-572 -588q102 -79 238 -79z" />
    <glyph glyph-name="Ugrave" unicode="&#xd9;" horiz-adv-x="1394" 
d="M809 1577h-207l-276 350h292zM698 -25q-109 0 -209 37.5t-176 104.5t-121 167.5t-45 219.5v907h322v-883q0 -125 66 -186t163 -61q61 0 110.5 23.5t83.5 81t34 142.5v883h321v-907q0 -119 -45 -219.5t-120.5 -167.5t-175 -104.5t-208.5 -37.5z" />
    <glyph glyph-name="Uacute" unicode="&#xda;" horiz-adv-x="1394" 
d="M799 1577h-207l192 350h293zM698 -25q-109 0 -209 37.5t-176 104.5t-121 167.5t-45 219.5v907h322v-883q0 -125 66 -186t163 -61q61 0 110.5 23.5t83.5 81t34 142.5v883h321v-907q0 -119 -45 -219.5t-120.5 -167.5t-175 -104.5t-208.5 -37.5z" />
    <glyph glyph-name="Ucircumflex" unicode="&#xdb;" horiz-adv-x="1394" 
d="M535 1577h-213l223 350h301l225 -350h-213l-162 182zM698 -25q-109 0 -209 37.5t-176 104.5t-121 167.5t-45 219.5v907h322v-883q0 -125 66 -186t163 -61q61 0 110.5 23.5t83.5 81t34 142.5v883h321v-907q0 -119 -45 -219.5t-120.5 -167.5t-175 -104.5t-208.5 -37.5z" />
    <glyph glyph-name="Udieresis" unicode="&#xdc;" horiz-adv-x="1394" 
d="M479 1614q-63 0 -108 42t-45 103q0 60 45 102t108 42t106.5 -42t43.5 -102q0 -61 -43.5 -103t-106.5 -42zM920 1614q-65 0 -110.5 42t-45.5 103q0 60 45.5 102t110.5 42q61 0 104 -42t43 -102q0 -61 -42.5 -103t-104.5 -42zM698 -25q-109 0 -209 37.5t-176 104.5
t-121 167.5t-45 219.5v907h322v-883q0 -125 66 -186t163 -61q61 0 110.5 23.5t83.5 81t34 142.5v883h321v-907q0 -119 -45 -219.5t-120.5 -167.5t-175 -104.5t-208.5 -37.5z" />
    <glyph glyph-name="Yacute" unicode="&#xdd;" horiz-adv-x="1406" 
d="M791 1927h292l-278 -350h-205zM700 891l332 520h383l-551 -780v-631h-323v637l-549 774h383z" />
    <glyph glyph-name="Thorn" unicode="&#xde;" horiz-adv-x="1277" 
d="M483 1174h250q203 0 337 -127t134 -336q0 -210 -134 -340.5t-337 -130.5h-250v-240h-321v1411h321v-237zM483 520h226q77 0 125.5 51.5t48.5 133.5q0 85 -49 136.5t-127 51.5h-224v-373z" />
    <glyph glyph-name="germandbls" unicode="&#xdf;" horiz-adv-x="1224" 
d="M842 823q143 -30 227 -138.5t84 -270.5q0 -197 -139.5 -318t-366.5 -121q-74 0 -145 23l69 260q43 -14 91 -14q81 0 132.5 60t51.5 147q0 85 -57 138.5t-146 53.5h-76v270h45q49 0 82 54t33 120q0 59 -39.5 94.5t-103.5 35.5q-70 0 -112 -58.5t-42 -157.5v-1001h-303
v1001q0 227 128 363.5t339 136.5q198 0 319 -104.5t121 -274.5q0 -95 -55 -181t-137 -118z" />
    <glyph glyph-name="agrave" unicode="&#xe0;" horiz-adv-x="1263" 
d="M547 1470l192 -350h-207l-276 350h291zM834 842v114h303v-956h-303v121q-49 -67 -131 -106.5t-173 -39.5q-202 0 -329 139t-127 363q0 225 128 364.5t333 139.5q89 0 169.5 -37t129.5 -102zM604 256q91 0 155 66t64 155q0 94 -64.5 158.5t-156.5 64.5q-95 0 -157 -64.5
t-62 -158.5q0 -90 62.5 -155.5t158.5 -65.5z" />
    <glyph glyph-name="aacute" unicode="&#xe1;" horiz-adv-x="1263" 
d="M713 1470h293l-277 -350h-207zM834 842v114h303v-956h-303v121q-49 -67 -131 -106.5t-173 -39.5q-202 0 -329 139t-127 363q0 225 128 364.5t333 139.5q89 0 169.5 -37t129.5 -102zM604 256q91 0 155 66t64 155q0 94 -64.5 158.5t-156.5 64.5q-95 0 -157 -64.5
t-62 -158.5q0 -90 62.5 -155.5t158.5 -65.5z" />
    <glyph glyph-name="acircumflex" unicode="&#xe2;" horiz-adv-x="1263" 
d="M788 1120l-163 183l-162 -183h-211l223 350h301l225 -350h-213zM834 842v114h303v-956h-303v121q-49 -67 -131 -106.5t-173 -39.5q-202 0 -329 139t-127 363q0 225 128 364.5t333 139.5q89 0 169.5 -37t129.5 -102zM604 256q91 0 155 66t64 155q0 94 -64.5 158.5
t-156.5 64.5q-95 0 -157 -64.5t-62 -158.5q0 -90 62.5 -155.5t158.5 -65.5z" />
    <glyph glyph-name="atilde" unicode="&#xe3;" horiz-adv-x="1263" 
d="M537 1247q-15 0 -34 -22.5t-20 -65.5h-149q4 70 24 123.5t50 82t62.5 42.5t66.5 14q29 0 57.5 -13t46.5 -29t38.5 -29t35.5 -13q17 0 35.5 20t19.5 64h150q-3 -71 -23.5 -123.5t-52 -80.5t-64 -41t-65.5 -13q-34 0 -68 21t-62 42t-48 21zM834 842v114h303v-956h-303v121
q-49 -67 -131 -106.5t-173 -39.5q-202 0 -329 139t-127 363q0 225 128 364.5t333 139.5q89 0 169.5 -37t129.5 -102zM604 256q91 0 155 66t64 155q0 94 -64.5 158.5t-156.5 64.5q-95 0 -157 -64.5t-62 -158.5q0 -90 62.5 -155.5t158.5 -65.5z" />
    <glyph glyph-name="adieresis" unicode="&#xe4;" horiz-adv-x="1263" 
d="M410 1157q-63 0 -108.5 42.5t-45.5 103.5q0 60 45.5 101.5t108.5 41.5t106 -41.5t43 -101.5q0 -62 -43 -104t-106 -42zM848 1157q-65 0 -110.5 42.5t-45.5 103.5q0 60 45.5 101.5t110.5 41.5q62 0 105.5 -41.5t43.5 -101.5q0 -61 -43.5 -103.5t-105.5 -42.5zM834 842v114
h303v-956h-303v121q-49 -67 -131 -106.5t-173 -39.5q-202 0 -329 139t-127 363q0 225 128 364.5t333 139.5q89 0 169.5 -37t129.5 -102zM604 256q91 0 155 66t64 155q0 94 -64.5 158.5t-156.5 64.5q-95 0 -157 -64.5t-62 -158.5q0 -90 62.5 -155.5t158.5 -65.5z" />
    <glyph glyph-name="aring" unicode="&#xe5;" horiz-adv-x="1263" 
d="M625 1094q-105 0 -180.5 74t-75.5 180q0 107 75.5 182.5t180.5 75.5q109 0 185.5 -75.5t76.5 -182.5t-76.5 -180.5t-185.5 -73.5zM625 1483q-55 0 -94 -39.5t-39 -95.5t39 -92.5t94 -36.5q57 0 98 36.5t41 92.5t-41.5 95.5t-97.5 39.5zM834 842v114h303v-956h-303v121
q-49 -67 -131 -106.5t-173 -39.5q-202 0 -329 139t-127 363q0 225 128 364.5t333 139.5q89 0 169.5 -37t129.5 -102zM604 256q91 0 155 66t64 155q0 94 -64.5 158.5t-156.5 64.5q-95 0 -157 -64.5t-62 -158.5q0 -90 62.5 -155.5t158.5 -65.5z" />
    <glyph glyph-name="ae" unicode="&#xe6;" horiz-adv-x="1783" 
d="M1720 498q0 -38 -6 -109h-694q22 -67 81.5 -108t137.5 -41q66 0 130 27t110 71l155 -197q-70 -76 -182.5 -121t-234.5 -45q-113 0 -207.5 37.5t-155.5 104.5q-84 -74 -190.5 -108t-204.5 -34q-172 0 -285 84.5t-113 221.5q0 96 57 163.5t140 97t180 29.5q151 0 262 -59
v41q0 74 -53 118t-127 44q-135 0 -227 -90l-164 161q157 195 434 195q205 0 326 -109q137 109 325 109q137 0 252 -59t184.5 -170.5t69.5 -253.5zM1020 567h397q-3 70 -58.5 114t-137.5 44q-72 0 -125 -40t-76 -118zM485 203q54 0 131.5 33.5t110.5 78.5l-8 19
q-34 24 -94.5 38.5t-120.5 14.5q-75 0 -105 -27.5t-30 -62.5q0 -40 31 -67t85 -27z" />
    <glyph glyph-name="ccedilla" unicode="&#xe7;" horiz-adv-x="1071" 
d="M600 256q51 0 102 25t80 67l234 -147q-121 -180 -326 -217l58 -107q20 -39 20 -102q0 -91 -61.5 -151t-149.5 -60q-97 0 -163 61.5t-66 181.5h149q0 -104 76 -104q28 0 48 21t20 55q0 21 -9 45l-73 153q-197 21 -332 159.5t-135 344.5q0 111 43 205.5t115.5 158.5
t168 100t199.5 36q134 0 240 -60t178 -165l-234 -148q-29 42 -80 67t-102 25q-101 0 -161 -63t-60 -156q0 -94 60 -159.5t161 -65.5z" />
    <glyph glyph-name="egrave" unicode="&#xe8;" horiz-adv-x="1157" 
d="M498 1470l190 -350h-207l-276 350h293zM1092 498q0 -12 -1 -28t-2 -39.5t-2 -41.5h-700q22 -70 80 -109.5t143 -39.5q66 0 131.5 27t110.5 71l156 -197q-70 -76 -183.5 -121t-234.5 -45q-227 0 -371.5 140.5t-144.5 359.5q0 114 42 210t112.5 160t163.5 100t196 36
q137 0 251.5 -59t183.5 -170.5t69 -253.5zM385 567h406q-3 70 -59 114t-138 44q-74 0 -130.5 -38.5t-78.5 -119.5z" />
    <glyph glyph-name="eacute" unicode="&#xe9;" horiz-adv-x="1157" 
d="M664 1470h290l-276 -350h-207zM1092 498q0 -12 -1 -28t-2 -39.5t-2 -41.5h-700q22 -70 80 -109.5t143 -39.5q66 0 131.5 27t110.5 71l156 -197q-70 -76 -183.5 -121t-234.5 -45q-227 0 -371.5 140.5t-144.5 359.5q0 114 42 210t112.5 160t163.5 100t196 36
q137 0 251.5 -59t183.5 -170.5t69 -253.5zM385 567h406q-3 70 -59 114t-138 44q-74 0 -130.5 -38.5t-78.5 -119.5z" />
    <glyph glyph-name="ecircumflex" unicode="&#xea;" horiz-adv-x="1157" 
d="M737 1120l-162 183l-163 -183h-211l223 350h301l225 -350h-213zM1092 498q0 -12 -1 -28t-2 -39.5t-2 -41.5h-700q22 -70 80 -109.5t143 -39.5q66 0 131.5 27t110.5 71l156 -197q-70 -76 -183.5 -121t-234.5 -45q-227 0 -371.5 140.5t-144.5 359.5q0 114 42 210t112.5 160
t163.5 100t196 36q137 0 251.5 -59t183.5 -170.5t69 -253.5zM385 567h406q-3 70 -59 114t-138 44q-74 0 -130.5 -38.5t-78.5 -119.5z" />
    <glyph glyph-name="edieresis" unicode="&#xeb;" horiz-adv-x="1157" 
d="M358 1157q-63 0 -108 42.5t-45 103.5q0 60 45 101.5t108 41.5t106.5 -41.5t43.5 -101.5q0 -61 -43.5 -103.5t-106.5 -42.5zM799 1157q-65 0 -110.5 42.5t-45.5 103.5q0 60 45.5 101.5t110.5 41.5q62 0 104.5 -41.5t42.5 -101.5q0 -61 -42.5 -103.5t-104.5 -42.5z
M1092 498q0 -12 -1 -28t-2 -39.5t-2 -41.5h-700q22 -70 80 -109.5t143 -39.5q66 0 131.5 27t110.5 71l156 -197q-70 -76 -183.5 -121t-234.5 -45q-227 0 -371.5 140.5t-144.5 359.5q0 114 42 210t112.5 160t163.5 100t196 36q137 0 251.5 -59t183.5 -170.5t69 -253.5z
M385 567h406q-3 70 -59 114t-138 44q-74 0 -130.5 -38.5t-78.5 -119.5z" />
    <glyph glyph-name="igrave" unicode="&#xec;" horiz-adv-x="557" 
d="M406 1126h-205l-279 351h293zM430 0h-303v956h303v-956z" />
    <glyph glyph-name="iacute" unicode="&#xed;" horiz-adv-x="557" 
d="M334 1126h-205l190 351h293zM430 0h-303v956h303v-956z" />
    <glyph glyph-name="icircumflex" unicode="&#xee;" horiz-adv-x="557" 
d="M115 1126h-211l223 351h301l225 -351h-213l-161 181zM430 0h-303v956h303v-956z" />
    <glyph glyph-name="idieresis" unicode="&#xef;" horiz-adv-x="557" 
d="M61 1163q-63 0 -108 42.5t-45 103.5t45 103t108 42t106.5 -42t43.5 -103t-43.5 -103.5t-106.5 -42.5zM500 1163q-63 0 -108.5 42.5t-45.5 103.5t45 103t109 42q63 0 106 -42t43 -103q0 -62 -43 -104t-106 -42zM430 0h-303v956h303v-956z" />
    <glyph glyph-name="eth" unicode="&#xf0;" horiz-adv-x="1161" 
d="M696 1214l299 -436q90 -125 90 -307q0 -110 -41.5 -204t-111 -157.5t-161.5 -99t-193 -35.5q-135 0 -249.5 60t-185.5 175t-71 261q0 135 68 242.5t181 166t248 58.5h13l-123 180l-215 -86l-60 105l205 82l-176 258h303l111 -162l170 69l59 -104zM578 256
q81 0 140.5 61.5t59.5 153.5q0 89 -59.5 149t-140.5 60q-79 0 -139 -60.5t-60 -148.5q0 -91 60 -153t139 -62z" />
    <glyph glyph-name="ntilde" unicode="&#xf1;" horiz-adv-x="1198" 
d="M508 1247q-15 0 -33.5 -22.5t-19.5 -65.5h-150q4 70 24 123.5t50 82t62.5 42.5t66.5 14q30 0 58.5 -13t46.5 -29t38.5 -29t36.5 -13t34 20.5t19 63.5h150q-3 -71 -23.5 -123.5t-51.5 -80.5t-63 -41t-65 -13q-35 0 -69.5 21t-63 42t-47.5 21zM705 981q187 0 282.5 -121.5
t95.5 -345.5v-514h-303v496q0 102 -50 153t-116 51q-34 0 -64 -9.5t-58.5 -31t-45 -63t-16.5 -98.5v-498h-303v956h303v-165q17 61 68 106.5t105 64.5t102 19z" />
    <glyph glyph-name="ograve" unicode="&#xf2;" horiz-adv-x="1179" 
d="M705 1120h-205l-279 350h293zM590 -25q-102 0 -196 36.5t-165.5 101t-114 159.5t-42.5 205q0 89 27.5 168.5t76.5 140t114 105t142 67.5t158 23q102 0 196 -36.5t166 -101t115 -160.5t43 -206t-43 -205t-115 -159.5t-166 -101t-196 -36.5zM590 256q89 0 150 62t61 159
t-61 160t-150 63t-150 -63t-61 -160t61 -159t150 -62z" />
    <glyph glyph-name="oacute" unicode="&#xf3;" horiz-adv-x="1179" 
d="M694 1120h-207l193 350h293zM590 -25q-102 0 -196 36.5t-165.5 101t-114 159.5t-42.5 205q0 89 27.5 168.5t76.5 140t114 105t142 67.5t158 23q102 0 196 -36.5t166 -101t115 -160.5t43 -206t-43 -205t-115 -159.5t-166 -101t-196 -36.5zM590 256q89 0 150 62t61 159
t-61 160t-150 63t-150 -63t-61 -160t61 -159t150 -62z" />
    <glyph glyph-name="ocircumflex" unicode="&#xf4;" horiz-adv-x="1179" 
d="M430 1120h-213l223 350h303l226 -350h-215l-162 183zM590 -25q-102 0 -196 36.5t-165.5 101t-114 159.5t-42.5 205q0 89 27.5 168.5t76.5 140t114 105t142 67.5t158 23q102 0 196 -36.5t166 -101t115 -160.5t43 -206t-43 -205t-115 -159.5t-166 -101t-196 -36.5zM590 256
q89 0 150 62t61 159t-61 160t-150 63t-150 -63t-61 -160t61 -159t150 -62z" />
    <glyph glyph-name="otilde" unicode="&#xf5;" horiz-adv-x="1179" 
d="M451 1159h-150q7 135 67 198.5t136 63.5q29 0 57.5 -13t46.5 -29t38.5 -29t35.5 -13q17 0 34.5 20t18.5 64h150q-3 -71 -23 -123.5t-51 -80.5t-63.5 -41t-65.5 -13q-35 0 -69.5 21t-62 42t-46.5 21q-16 0 -34 -22t-19 -66zM590 -25q-102 0 -196 36.5t-165.5 101
t-114 159.5t-42.5 205q0 89 27.5 168.5t76.5 140t114 105t142 67.5t158 23q102 0 196 -36.5t166 -101t115 -160.5t43 -206t-43 -205t-115 -159.5t-166 -101t-196 -36.5zM590 256q89 0 150 62t61 159t-61 160t-150 63t-150 -63t-61 -160t61 -159t150 -62z" />
    <glyph glyph-name="odieresis" unicode="&#xf6;" horiz-adv-x="1179" 
d="M377 1157q-63 0 -108.5 42.5t-45.5 103.5q0 60 45.5 101.5t108.5 41.5q62 0 105.5 -41.5t43.5 -101.5q0 -61 -43.5 -103.5t-105.5 -42.5zM815 1157q-65 0 -110.5 42.5t-45.5 103.5q0 60 45.5 101.5t110.5 41.5q62 0 105 -41.5t43 -101.5q0 -61 -43 -103.5t-105 -42.5z
M590 -25q-102 0 -196 36.5t-165.5 101t-114 159.5t-42.5 205q0 89 27.5 168.5t76.5 140t114 105t142 67.5t158 23q102 0 196 -36.5t166 -101t115 -160.5t43 -206t-43 -205t-115 -159.5t-166 -101t-196 -36.5zM590 256q89 0 150 62t61 159t-61 160t-150 63t-150 -63t-61 -160
t61 -159t150 -62z" />
    <glyph glyph-name="divide" unicode="&#xf7;" horiz-adv-x="1257" 
d="M627 772q-70 0 -118 44.5t-48 115.5q0 68 48 114t118 46q68 0 117 -46t49 -114q0 -70 -48.5 -115t-117.5 -45zM1147 444h-1036v205h1036v-205zM627 -8q-69 0 -117.5 46.5t-48.5 115.5t48 114t118 45q69 0 117.5 -45t48.5 -114q0 -68 -49 -115t-117 -47z" />
    <glyph glyph-name="oslash" unicode="&#xf8;" horiz-adv-x="1185" 
d="M1096 901l-101 -102q117 -137 117 -322q0 -110 -43 -205t-115 -159.5t-166 -101t-196 -36.5q-171 0 -305 95l-109 -111l-86 86l103 105q-121 141 -121 327q0 89 27.5 168.5t76.5 140t114 105t142 67.5t158 23q172 0 315 -100l103 104zM381 477q0 -54 27 -110l294 303
q-50 30 -110 30q-89 0 -150 -63t-61 -160zM592 256q91 0 152 62t61 159q0 52 -23 103l-290 -299q48 -25 100 -25z" />
    <glyph glyph-name="ugrave" unicode="&#xf9;" horiz-adv-x="1198" 
d="M516 1470l191 -350h-207l-277 350h293zM768 459v497h303v-956h-303v164q-15 -62 -66 -107t-105 -63.5t-103 -18.5q-188 0 -283.5 121t-95.5 344v516h303v-497q0 -102 49.5 -152.5t116.5 -50.5q33 0 63 9.5t58.5 31.5t45.5 63.5t17 98.5z" />
    <glyph glyph-name="uacute" unicode="&#xfa;" horiz-adv-x="1198" 
d="M682 1470h293l-279 -350h-207zM768 459v497h303v-956h-303v164q-15 -62 -66 -107t-105 -63.5t-103 -18.5q-188 0 -283.5 121t-95.5 344v516h303v-497q0 -102 49.5 -152.5t116.5 -50.5q33 0 63 9.5t58.5 31.5t45.5 63.5t17 98.5z" />
    <glyph glyph-name="ucircumflex" unicode="&#xfb;" horiz-adv-x="1198" 
d="M756 1120l-162 183l-162 -183h-213l223 350h301l226 -350h-213zM768 459v497h303v-956h-303v164q-15 -62 -66 -107t-105 -63.5t-103 -18.5q-188 0 -283.5 121t-95.5 344v516h303v-497q0 -102 49.5 -152.5t116.5 -50.5q33 0 63 9.5t58.5 31.5t45.5 63.5t17 98.5z" />
    <glyph glyph-name="udieresis" unicode="&#xfc;" horiz-adv-x="1198" 
d="M377 1157q-63 0 -108.5 42.5t-45.5 103.5q0 60 45.5 101.5t108.5 41.5t106 -41.5t43 -101.5q0 -62 -43 -104t-106 -42zM817 1157q-65 0 -110 42.5t-45 103.5q0 60 45 101.5t110 41.5q62 0 105 -41.5t43 -101.5q0 -61 -43 -103.5t-105 -42.5zM768 459v497h303v-956h-303
v164q-15 -62 -66 -107t-105 -63.5t-103 -18.5q-188 0 -283.5 121t-95.5 344v516h303v-497q0 -102 49.5 -152.5t116.5 -50.5q33 0 63 9.5t58.5 31.5t45.5 63.5t17 98.5z" />
    <glyph glyph-name="yacute" unicode="&#xfd;" horiz-adv-x="1054" 
d="M621 1470h292l-278 -350h-207zM537 461l194 495h326l-590 -1427h-324l236 586l-377 841h336z" />
    <glyph glyph-name="thorn" unicode="&#xfe;" horiz-adv-x="1261" 
d="M725 981q90 0 174 -35.5t148.5 -99t103.5 -159.5t39 -208t-39 -208.5t-103.5 -160t-148.5 -99.5t-174 -36q-81 0 -163.5 33t-131.5 98v-577h-303v1948h303v-625q49 63 131.5 96t163.5 33zM662 256q89 0 155 66t66 157q0 90 -65.5 155.5t-155.5 65.5q-88 0 -155 -65
t-67 -156t66.5 -157t155.5 -66z" />
    <glyph glyph-name="ydieresis" unicode="&#xff;" horiz-adv-x="1054" 
d="M315 1157q-62 0 -107.5 42.5t-45.5 103.5q0 59 45.5 101t107.5 42q63 0 106.5 -41.5t43.5 -101.5q0 -61 -43.5 -103.5t-106.5 -42.5zM756 1157q-65 0 -110.5 42.5t-45.5 103.5q0 60 45.5 101.5t110.5 41.5q62 0 104.5 -41.5t42.5 -101.5q0 -61 -42.5 -103.5t-104.5 -42.5
zM537 461l194 495h326l-590 -1427h-324l236 586l-377 841h336z" />
    <glyph glyph-name="Amacron" unicode="&#x100;" horiz-adv-x="1357" 
d="M391 1829h580v-176h-580v176zM1376 0h-342l-106 328h-496l-104 -328h-344l522 1411h350zM678 1104l-158 -498h318z" />
    <glyph glyph-name="amacron" unicode="&#x101;" horiz-adv-x="1263" 
d="M338 1374h580v-178h-580v178zM834 842v114h303v-956h-303v121q-49 -67 -131 -106.5t-173 -39.5q-202 0 -329 139t-127 363q0 225 128 364.5t333 139.5q89 0 169.5 -37t129.5 -102zM604 256q91 0 155 66t64 155q0 94 -64.5 158.5t-156.5 64.5q-95 0 -157 -64.5t-62 -158.5
q0 -90 62.5 -155.5t158.5 -65.5z" />
    <glyph glyph-name="Abreve" unicode="&#x102;" horiz-adv-x="1357" 
d="M680 1608q-126 0 -201.5 74t-75.5 194h179q0 -46 27 -75t71 -29q42 0 68 29.5t26 74.5h182q0 -122 -75 -195t-201 -73zM1376 0h-342l-106 328h-496l-104 -328h-344l522 1411h350zM678 1104l-158 -498h318z" />
    <glyph glyph-name="abreve" unicode="&#x103;" horiz-adv-x="1263" 
d="M627 1151q-126 0 -201.5 74.5t-75.5 195.5h178q0 -47 27.5 -76.5t71.5 -29.5q42 0 69 30t27 76h180q0 -122 -75 -196t-201 -74zM834 842v114h303v-956h-303v121q-49 -67 -131 -106.5t-173 -39.5q-202 0 -329 139t-127 363q0 225 128 364.5t333 139.5q89 0 169.5 -37
t129.5 -102zM604 256q91 0 155 66t64 155q0 94 -64.5 158.5t-156.5 64.5q-95 0 -157 -64.5t-62 -158.5q0 -90 62.5 -155.5t158.5 -65.5z" />
    <glyph glyph-name="Aogonek" unicode="&#x104;" horiz-adv-x="1357" 
d="M1128 -297q76 0 76 104h150q0 -120 -67 -181.5t-165 -61.5q-87 0 -149 60t-62 151q0 63 23 102l88 164l-94 287h-496l-104 -328h-344l522 1411h350l520 -1411h-225l-84 -176q-8 -21 -8 -45q0 -34 20 -55t49 -21zM678 1100l-158 -494h318z" />
    <glyph glyph-name="aogonek" unicode="&#x105;" horiz-adv-x="1263" 
d="M1024 -193h150q0 -120 -66.5 -181.5t-163.5 -61.5q-88 0 -150.5 60t-62.5 151q0 57 23 102l80 146v98q-49 -67 -131 -106.5t-173 -39.5q-202 0 -329 139t-127 363q0 225 128 364.5t333 139.5q89 0 169.5 -37t129.5 -102v114h303v-956h-164l-84 -176q-8 -21 -8 -45
q0 -34 20 -55t47 -21q76 0 76 104zM604 256q91 0 155 66t64 155q0 94 -64.5 158.5t-156.5 64.5q-95 0 -157 -64.5t-62 -158.5q0 -90 62.5 -155.5t158.5 -65.5z" />
    <glyph glyph-name="Cacute" unicode="&#x106;" horiz-adv-x="1437" 
d="M821 1577h-207l193 350h291zM797 -25q-146 0 -279 58.5t-229 157.5t-152.5 234.5t-56.5 283.5q0 146 56.5 280.5t152.5 232.5t229 156t279 58q182 0 338.5 -85t255.5 -229l-250 -174q-119 185 -330 185q-176 0 -292 -123.5t-116 -300.5q0 -116 50.5 -214t144 -157
t211.5 -59q214 0 332 184l250 -174q-99 -144 -255.5 -229t-338.5 -85z" />
    <glyph glyph-name="cacute" unicode="&#x107;" horiz-adv-x="1071" 
d="M643 1120h-207l193 350h293zM598 -25q-104 0 -200 37t-168.5 102t-116 160.5t-43.5 206.5t43.5 205.5t116 158.5t168.5 100t200 36q134 0 240 -60t178 -165l-236 -148q-27 42 -78 67t-102 25q-101 0 -161 -63t-60 -156q0 -94 60 -159.5t161 -65.5q51 0 102 25t78 67
l236 -147q-72 -106 -178.5 -166t-239.5 -60z" />
    <glyph glyph-name="Cdotaccent" unicode="&#x10a;" horiz-adv-x="1437" 
d="M795 1593q-71 0 -118.5 45t-47.5 115q0 69 47.5 113.5t118.5 44.5q68 0 115.5 -45t47.5 -113q0 -70 -47 -115t-116 -45zM797 -25q-146 0 -279 58.5t-229 157.5t-152.5 234.5t-56.5 283.5q0 146 56.5 280.5t152.5 232.5t229 156t279 58q182 0 338.5 -85t255.5 -229
l-250 -174q-119 185 -330 185q-176 0 -292 -123.5t-116 -300.5q0 -116 50.5 -214t144 -157t211.5 -59q214 0 332 184l250 -174q-99 -144 -255.5 -229t-338.5 -85z" />
    <glyph glyph-name="cdotaccent" unicode="&#x10b;" horiz-adv-x="1071" 
d="M582 1137q-70 0 -117 44.5t-47 114.5q0 68 47 113t117 45q68 0 115.5 -45t47.5 -113q0 -69 -47 -114t-116 -45zM598 -25q-104 0 -200 37t-168.5 102t-116 160.5t-43.5 206.5t43.5 205.5t116 158.5t168.5 100t200 36q134 0 240 -60t178 -165l-236 -148q-27 42 -78 67
t-102 25q-101 0 -161 -63t-60 -156q0 -94 60 -159.5t161 -65.5q51 0 102 25t78 67l236 -147q-72 -106 -178.5 -166t-239.5 -60z" />
    <glyph glyph-name="Ccaron" unicode="&#x10c;" horiz-adv-x="1437" 
d="M938 1577h-303l-223 350h213l161 -182l162 182h215zM797 -25q-146 0 -279 58.5t-229 157.5t-152.5 234.5t-56.5 283.5q0 146 56.5 280.5t152.5 232.5t229 156t279 58q182 0 338.5 -85t255.5 -229l-250 -174q-119 185 -330 185q-176 0 -292 -123.5t-116 -300.5
q0 -116 50.5 -214t144 -157t211.5 -59q214 0 332 184l250 -174q-99 -144 -255.5 -229t-338.5 -85z" />
    <glyph glyph-name="ccaron" unicode="&#x10d;" horiz-adv-x="1071" 
d="M721 1120h-301l-223 350h213l161 -182l162 182h213zM598 -25q-104 0 -200 37t-168.5 102t-116 160.5t-43.5 206.5t43.5 205.5t116 158.5t168.5 100t200 36q134 0 240 -60t178 -165l-236 -148q-27 42 -78 67t-102 25q-101 0 -161 -63t-60 -156q0 -94 60 -159.5t161 -65.5
q51 0 102 25t78 67l236 -147q-72 -106 -178.5 -166t-239.5 -60z" />
    <glyph glyph-name="Dcaron" unicode="&#x10e;" horiz-adv-x="1447" 
d="M1032 1927l-225 -350h-301l-223 350h213l161 -182l162 182h213zM162 1411h557q150 0 272 -54.5t203 -150t124.5 -224.5t43.5 -280q0 -150 -43.5 -278t-124.5 -222.5t-203 -148t-272 -53.5h-557v1411zM483 281h236q77 0 138.5 35t100.5 94t59.5 134t20.5 158
q0 114 -34.5 209t-109 157t-175.5 62h-236v-849z" />
    <glyph glyph-name="dcaron" unicode="&#x10f;" horiz-adv-x="1378" 
d="M834 852v625h301v-1477h-301v106q-49 -65 -132.5 -98t-164.5 -33q-89 0 -172.5 36t-148 99.5t-103.5 160t-39 208.5t39 208t103.5 159.5t148 99t172.5 35.5q81 0 164.5 -33t132.5 -96zM1323 1436h252q-32 -323 -232 -490l-143 78q68 97 95.5 185t27.5 227zM602 256
q88 0 153.5 65.5t65.5 157.5q0 91 -66 156t-153 65q-90 0 -155.5 -65.5t-65.5 -155.5q0 -91 66 -157t155 -66z" />
    <glyph glyph-name="Dcroat" unicode="&#x110;" horiz-adv-x="1480" 
d="M197 1411h555q150 0 272 -54.5t203 -150t124.5 -224.5t43.5 -280q0 -150 -43.5 -278t-124.5 -222.5t-203 -148t-272 -53.5h-555v580h-154v235h154v596zM518 281h234q102 0 176 60.5t108.5 154t34.5 206.5q0 84 -20.5 160t-59 136.5t-100.5 96t-139 35.5h-234v-315h232
v-235h-232v-299z" />
    <glyph glyph-name="dcroat" unicode="&#x111;" horiz-adv-x="1261" 
d="M1135 1276h141v-160h-141v-1116h-301v106q-49 -65 -132.5 -98t-164.5 -33q-89 0 -172.5 36t-148 99.5t-103.5 160t-39 208.5t39 208t103.5 159.5t148 99t172.5 35.5q81 0 164.5 -33t132.5 -96v264h-279v160h279v201h301v-201zM602 256q88 0 153.5 65.5t65.5 157.5
q0 91 -66 156t-153 65q-90 0 -155.5 -65.5t-65.5 -155.5q0 -91 66 -157t155 -66z" />
    <glyph glyph-name="Emacron" unicode="&#x112;" horiz-adv-x="1185" 
d="M305 1829h580v-176h-580v176zM483 551v-270h602v-281h-923v1411h905v-281h-584v-290h512v-289h-512z" />
    <glyph glyph-name="emacron" unicode="&#x113;" horiz-adv-x="1157" 
d="M287 1374h579v-178h-579v178zM1092 498q0 -12 -1 -28t-2 -39.5t-2 -41.5h-700q22 -70 80 -109.5t143 -39.5q66 0 131.5 27t110.5 71l156 -197q-70 -76 -183.5 -121t-234.5 -45q-227 0 -371.5 140.5t-144.5 359.5q0 114 42 210t112.5 160t163.5 100t196 36
q137 0 251.5 -59t183.5 -170.5t69 -253.5zM385 567h406q-3 70 -59 114t-138 44q-74 0 -130.5 -38.5t-78.5 -119.5z" />
    <glyph glyph-name="Edotaccent" unicode="&#x116;" horiz-adv-x="1185" 
d="M594 1593q-70 0 -117 45t-47 115q0 68 47 113t117 45t117 -45t47 -113q0 -70 -47 -115t-117 -45zM483 551v-270h602v-281h-923v1411h905v-281h-584v-290h512v-289h-512z" />
    <glyph glyph-name="edotaccent" unicode="&#x117;" horiz-adv-x="1157" 
d="M578 1137q-71 0 -118.5 44.5t-47.5 114.5q0 69 47.5 113.5t118.5 44.5q68 0 115.5 -45t47.5 -113q0 -69 -47 -114t-116 -45zM1092 498q0 -12 -1 -28t-2 -39.5t-2 -41.5h-700q22 -70 80 -109.5t143 -39.5q66 0 131.5 27t110.5 71l156 -197q-70 -76 -183.5 -121t-234.5 -45
q-227 0 -371.5 140.5t-144.5 359.5q0 114 42 210t112.5 160t163.5 100t196 36q137 0 251.5 -59t183.5 -170.5t69 -253.5zM385 567h406q-3 70 -59 114t-138 44q-74 0 -130.5 -38.5t-78.5 -119.5z" />
    <glyph glyph-name="Eogonek" unicode="&#x118;" horiz-adv-x="1185" 
d="M1085 0h-221l-84 -176q-6 -24 -6 -45q0 -34 19.5 -55t48.5 -21q76 0 76 104h149q0 -120 -66.5 -181.5t-162.5 -61.5q-88 0 -150.5 60t-62.5 151q0 59 22 102l66 123h-551v1411h905v-281h-584v-290h512v-289h-512v-270h602v-281z" />
    <glyph glyph-name="eogonek" unicode="&#x119;" horiz-adv-x="1157" 
d="M1092 498q0 -12 -1 -28t-2 -39.5t-2 -41.5h-700q22 -70 80 -109.5t143 -39.5q66 0 131.5 27t110.5 71l156 -197q-61 -67 -168 -114l-99 -203q-8 -21 -8 -45q0 -34 20.5 -55t49.5 -21q76 0 76 104h149q0 -120 -67 -181.5t-164 -61.5q-87 0 -149 60t-62 151q0 59 22 102
l56 103q-62 -5 -74 -5q-227 0 -371.5 140.5t-144.5 359.5q0 114 42 210t112.5 160t163.5 100t196 36q137 0 251.5 -59t183.5 -170.5t69 -253.5zM385 567h406q-3 70 -59 114t-138 44q-74 0 -130.5 -38.5t-78.5 -119.5z" />
    <glyph glyph-name="Ecaron" unicode="&#x11a;" horiz-adv-x="1185" 
d="M969 1927l-226 -350h-303l-223 350h213l162 -182l162 182h215zM483 551v-270h602v-281h-923v1411h905v-281h-584v-290h512v-289h-512z" />
    <glyph glyph-name="ecaron" unicode="&#x11b;" horiz-adv-x="1157" 
d="M950 1470l-225 -350h-301l-223 350h211l163 -182l162 182h213zM1092 498q0 -12 -1 -28t-2 -39.5t-2 -41.5h-700q22 -70 80 -109.5t143 -39.5q66 0 131.5 27t110.5 71l156 -197q-70 -76 -183.5 -121t-234.5 -45q-227 0 -371.5 140.5t-144.5 359.5q0 114 42 210t112.5 160
t163.5 100t196 36q137 0 251.5 -59t183.5 -170.5t69 -253.5zM385 567h406q-3 70 -59 114t-138 44q-74 0 -130.5 -38.5t-78.5 -119.5z" />
    <glyph glyph-name="Gbreve" unicode="&#x11e;" horiz-adv-x="1554" 
d="M772 1608q-126 0 -201 74t-75 194h178q0 -46 27 -75t71 -29q42 0 68 29.5t26 74.5h183q0 -122 -75.5 -195t-201.5 -73zM823 -25q-159 0 -298.5 58.5t-236.5 157.5t-152.5 233t-55.5 281q0 198 95.5 366t262.5 266.5t367 98.5q164 0 305.5 -64.5t235.5 -177.5l-238 -199
q-123 142 -303 142q-169 0 -285.5 -127t-116.5 -305q0 -86 31 -166.5t84 -141.5t131 -98t166 -37q81 0 156 27t125.5 80.5t50.5 119.5h-397v261h747q0 -195 -52 -346t-144.5 -243.5t-213 -139t-264.5 -46.5z" />
    <glyph glyph-name="gbreve" unicode="&#x11f;" horiz-adv-x="1261" 
d="M625 1151q-126 0 -201.5 74.5t-75.5 195.5h178q0 -47 27.5 -76.5t71.5 -29.5t70 30t26 76h182q0 -122 -76 -196t-202 -74zM834 852v104h301v-841q0 -299 -148 -455t-412 -156q-160 0 -289.5 85.5t-187.5 222.5l250 100q27 -60 90.5 -100.5t136.5 -40.5q259 0 259 307v28
q-51 -64 -134 -97.5t-163 -33.5q-89 0 -172.5 36t-148 99.5t-103.5 160t-39 208.5t39 208t103.5 159.5t148 99t172.5 35.5q81 0 163.5 -33t133.5 -96zM602 256q88 0 153.5 65.5t65.5 157.5q0 91 -66 156t-153 65q-90 0 -155.5 -65.5t-65.5 -155.5q0 -91 66 -157t155 -66z
" />
    <glyph glyph-name="Gdotaccent" unicode="&#x120;" horiz-adv-x="1554" 
d="M772 1593q-70 0 -117 45t-47 115q0 68 47 113t117 45t117 -45t47 -113q0 -70 -47 -115t-117 -45zM823 -25q-159 0 -298.5 58.5t-236.5 157.5t-152.5 233t-55.5 281q0 198 95.5 366t262.5 266.5t367 98.5q164 0 305.5 -64.5t235.5 -177.5l-238 -199q-123 142 -303 142
q-169 0 -285.5 -127t-116.5 -305q0 -86 31 -166.5t84 -141.5t131 -98t166 -37q81 0 156 27t125.5 80.5t50.5 119.5h-397v261h747q0 -195 -52 -346t-144.5 -243.5t-213 -139t-264.5 -46.5z" />
    <glyph glyph-name="gdotaccent" unicode="&#x121;" horiz-adv-x="1261" 
d="M627 1137q-71 0 -118.5 44.5t-47.5 114.5q0 69 47.5 113.5t118.5 44.5q68 0 116 -45t48 -113q0 -69 -47.5 -114t-116.5 -45zM834 852v104h301v-841q0 -299 -148 -455t-412 -156q-160 0 -289.5 85.5t-187.5 222.5l250 100q27 -60 90.5 -100.5t136.5 -40.5q259 0 259 307
v28q-51 -64 -134 -97.5t-163 -33.5q-89 0 -172.5 36t-148 99.5t-103.5 160t-39 208.5t39 208t103.5 159.5t148 99t172.5 35.5q81 0 163.5 -33t133.5 -96zM602 256q88 0 153.5 65.5t65.5 157.5q0 91 -66 156t-153 65q-90 0 -155.5 -65.5t-65.5 -155.5q0 -91 66 -157t155 -66z
" />
    <glyph glyph-name="uni0122" unicode="&#x122;" horiz-adv-x="1554" 
d="M823 -25q-159 0 -298.5 58.5t-236.5 157.5t-152.5 233t-55.5 281q0 198 95.5 366t262.5 266.5t367 98.5q164 0 305.5 -64.5t235.5 -177.5l-238 -199q-123 142 -303 142q-169 0 -285.5 -127t-116.5 -305q0 -86 31 -166.5t84 -141.5t131 -98t166 -37q81 0 156 27
t125.5 80.5t50.5 119.5h-397v261h747q0 -195 -52 -346t-144.5 -243.5t-213 -139t-264.5 -46.5zM680 -487l-143 79q96 106 92 328h278q1 -116 -65 -226.5t-162 -180.5z" />
    <glyph glyph-name="uni0123" unicode="&#x123;" horiz-adv-x="1261" 
d="M676 1534l143 -80q-99 -107 -92 -328h-281q0 115 67 226t163 182zM834 852v104h301v-841q0 -299 -148 -455t-412 -156q-160 0 -289.5 85.5t-187.5 222.5l250 100q27 -60 90.5 -100.5t136.5 -40.5q259 0 259 307v28q-51 -64 -134 -97.5t-163 -33.5q-89 0 -172.5 36
t-148 99.5t-103.5 160t-39 208.5t39 208t103.5 159.5t148 99t172.5 35.5q81 0 163.5 -33t133.5 -96zM602 256q88 0 153.5 65.5t65.5 157.5q0 91 -66 156t-153 65q-90 0 -155.5 -65.5t-65.5 -155.5q0 -91 66 -157t155 -66z" />
    <glyph glyph-name="Hbar" unicode="&#x126;" horiz-adv-x="1488" 
d="M1298 1200h152v-158h-152v-1042h-321v557h-465v-557h-322v1042h-151v158h151v211h322v-211h465v211h321v-211zM512 846h465v196h-465v-196z" />
    <glyph glyph-name="hbar" unicode="&#x127;" horiz-adv-x="1198" 
d="M705 981q187 0 282.5 -121.5t95.5 -345.5v-514h-303v496q0 100 -50.5 152t-115.5 52q-33 0 -63.5 -10t-58.5 -31.5t-45 -63.5t-17 -99v-496h-303v1116h-143v160h143v201h303v-201h315v-160h-315v-313q16 57 67.5 99.5t106 60.5t101.5 18z" />
    <glyph glyph-name="Itilde" unicode="&#x128;" horiz-adv-x="647" 
d="M180 1616h-149q4 70 24 123.5t50 82t62 42.5t66 14q38 0 72.5 -21t62 -42t46.5 -21q16 0 34 20.5t19 63.5h149q-3 -71 -23.5 -123.5t-51 -80.5t-62.5 -41t-65 -13q-35 0 -70 21t-63.5 42t-47.5 21q-15 0 -33.5 -22.5t-19.5 -65.5zM483 0h-321v1411h321v-1411z" />
    <glyph glyph-name="itilde" unicode="&#x129;" horiz-adv-x="557" 
d="M135 1159h-149q4 70 24 123.5t50 82t62 42.5t66 14q38 0 72.5 -21t62 -42t46.5 -21q16 0 34 20.5t19 63.5h149q-3 -71 -23.5 -123.5t-51 -80.5t-62.5 -41t-65 -13q-35 0 -70 21t-63.5 42t-47.5 21q-15 0 -33.5 -22.5t-19.5 -65.5zM430 0h-303v956h303v-956z" />
    <glyph glyph-name="Imacron" unicode="&#x12a;" horiz-adv-x="647" 
d="M614 1653h-579v176h579v-176zM483 0h-321v1411h321v-1411z" />
    <glyph glyph-name="imacron" unicode="&#x12b;" horiz-adv-x="557" 
d="M569 1196h-579v178h579v-178zM430 0h-303v956h303v-956z" />
    <glyph glyph-name="Iogonek" unicode="&#x12e;" horiz-adv-x="647" 
d="M360 -193h150q0 -120 -67 -181.5t-164 -61.5q-87 0 -149 60t-62 151q0 59 22 102l72 135v1399h321v-1411h-174l-86 -176q-8 -21 -8 -45q0 -34 20.5 -55t49.5 -21q43 0 59 27t16 77z" />
    <glyph glyph-name="iogonek" unicode="&#x12f;" horiz-adv-x="559" 
d="M281 1100q-77 0 -133 52t-56 124q0 74 56 125t133 51t130.5 -50.5t53.5 -125.5q0 -72 -54 -124t-130 -52zM231 -436q-87 0 -149 60t-62 151q0 63 23 102l86 162v917h303v-956h-172l-84 -176q-8 -21 -8 -45q0 -34 20.5 -55t49.5 -21q75 0 75 104h150q0 -120 -67 -181.5
t-165 -61.5z" />
    <glyph glyph-name="Idotaccent" unicode="&#x130;" horiz-adv-x="647" 
d="M324 1593q-70 0 -117 45t-47 115q0 68 47 113t117 45t117.5 -45t47.5 -113q0 -70 -47.5 -115t-117.5 -45zM483 0h-321v1411h321v-1411z" />
    <glyph glyph-name="dotlessi" unicode="&#x131;" horiz-adv-x="557" 
d="M430 0h-303v956h303v-956z" />
    <glyph glyph-name="IJ" unicode="&#x132;" horiz-adv-x="1310" 
d="M483 0h-321v1411h321v-1411zM680 -483q-111 0 -217 34l29 291q60 -22 188 -22q74 0 109.5 49.5t35.5 128.5v1413h322v-1413q0 -101 -25.5 -185.5t-79 -152t-146 -105.5t-216.5 -38z" />
    <glyph glyph-name="ij" unicode="&#x133;" horiz-adv-x="1130" 
d="M279 1100q-77 0 -133 52t-56 124q0 74 56 125t133 51t130.5 -50.5t53.5 -125.5q0 -72 -54 -124t-130 -52zM852 1100q-75 0 -130.5 52t-55.5 124q0 74 55 125t131 51q78 0 132 -50.5t54 -125.5q0 -72 -54 -124t-132 -52zM430 0h-303v956h303v-956zM561 -471h-123v272h121
q66 0 103.5 48.5t37.5 130.5v976h304v-966q0 -224 -116 -342.5t-327 -118.5z" />
    <glyph glyph-name="Jcircumflex" unicode="&#x134;" horiz-adv-x="663" 
d="M176 1577h-211l223 350h301l226 -350h-213l-164 182zM33 -483q-108 0 -217 34l28 291q60 -22 189 -22q74 0 109.5 49.5t35.5 128.5v1413h322v-1413q0 -101 -25.5 -185.5t-79 -152t-146 -105.5t-216.5 -38z" />
    <glyph glyph-name="jcircumflex" unicode="&#x135;" horiz-adv-x="573" 
d="M131 1126h-211l223 351h301l226 -351h-213l-164 181zM143 -20v976h303v-966q0 -224 -115.5 -342.5t-324.5 -118.5h-125v272h121q66 0 103.5 48.5t37.5 130.5z" />
    <glyph glyph-name="uni0136" unicode="&#x136;" horiz-adv-x="1294" 
d="M1233 1411l-469 -698l547 -713h-412l-416 553v-553h-321v1411h321v-569l367 569h383zM549 -487l-143 79q96 106 92 328h280q0 -116 -67 -226.5t-162 -180.5z" />
    <glyph glyph-name="uni0137" unicode="&#x137;" horiz-adv-x="1073" 
d="M1016 956l-361 -424l439 -532h-369l-295 389v-389h-303v1477h303v-789l205 268h381zM449 -487l-144 79q96 104 92 328h281q0 -116 -66.5 -227t-162.5 -180z" />
    <glyph glyph-name="kgreenlandic" unicode="&#x138;" horiz-adv-x="1046" 
d="M643 481l406 -481h-396l-225 322v-322h-301v956h301v-323l250 323h352z" />
    <glyph glyph-name="Lacute" unicode="&#x139;" horiz-adv-x="1042" 
d="M365 1927h290l-276 -350h-207zM483 1411v-1130h518v-281h-839v1411h321z" />
    <glyph glyph-name="lacute" unicode="&#x13a;" horiz-adv-x="557" 
d="M342 1577h-207l191 350h292zM430 0h-303v1477h303v-1477z" />
    <glyph glyph-name="uni013B" unicode="&#x13b;" horiz-adv-x="1042" 
d="M483 1411v-1130h518v-281h-839v1411h321zM432 -487l-143 79q96 106 92 328h278q0 -116 -66 -226.5t-161 -180.5z" />
    <glyph glyph-name="uni013C" unicode="&#x13c;" horiz-adv-x="557" 
d="M430 0h-303v1477h303v-1477zM186 -487l-143 79q96 106 92 328h281q0 -116 -67 -226.5t-163 -180.5z" />
    <glyph glyph-name="Lcaron" unicode="&#x13d;" horiz-adv-x="1087" 
d="M1001 0h-839v1411h321v-1130h518v-281zM788 928l-124 71q67 97 95 185.5t29 226.5h230q-9 -99 -32 -179.5t-56.5 -137t-66.5 -94.5t-75 -72z" />
    <glyph glyph-name="lcaron" unicode="&#x13e;" horiz-adv-x="673" 
d="M430 0h-303v1477h303v-1477zM639 946l-143 78q68 97 96 185t29 227h251q-32 -322 -233 -490z" />
    <glyph glyph-name="Lslash" unicode="&#x141;" horiz-adv-x="1105" 
d="M549 711v-430h516v-281h-838v510l-155 -96v184l155 96v717h322v-516l201 125v-184z" />
    <glyph glyph-name="lslash" unicode="&#x142;" horiz-adv-x="727" 
d="M506 881l168 100v-184l-168 -101v-696h-303v516l-137 -82v184l137 82v777h303v-596z" />
    <glyph glyph-name="Nacute" unicode="&#x143;" horiz-adv-x="1390" 
d="M782 1927h291l-276 -350h-207zM907 610v801h322v-1411h-283l-463 811v-811h-321v1411h295z" />
    <glyph glyph-name="nacute" unicode="&#x144;" horiz-adv-x="1198" 
d="M686 1470h291l-277 -350h-206zM705 981q187 0 282.5 -121.5t95.5 -345.5v-514h-303v496q0 102 -50 153t-116 51q-34 0 -64 -9.5t-58.5 -31t-45 -63t-16.5 -98.5v-498h-303v956h303v-165q17 61 68 106.5t105 64.5t102 19z" />
    <glyph glyph-name="uni0145" unicode="&#x145;" horiz-adv-x="1390" 
d="M907 610v801h322v-1411h-283l-463 811v-811h-321v1411h295zM602 -487l-143 79q96 104 92 328h280q0 -116 -66.5 -227t-162.5 -180z" />
    <glyph glyph-name="uni0146" unicode="&#x146;" horiz-adv-x="1198" 
d="M705 981q187 0 282.5 -121.5t95.5 -345.5v-514h-303v496q0 102 -50 153t-116 51q-34 0 -64 -9.5t-58.5 -31t-45 -63t-16.5 -98.5v-498h-303v956h303v-165q17 61 68 106.5t105 64.5t102 19zM506 -487l-144 79q97 105 93 328h280q0 -116 -67 -226.5t-162 -180.5z" />
    <glyph glyph-name="Ncaron" unicode="&#x147;" horiz-adv-x="1390" 
d="M1069 1927l-225 -350h-301l-224 350h213l162 -182l162 182h213zM907 610v801h322v-1411h-283l-463 811v-811h-321v1411h295z" />
    <glyph glyph-name="ncaron" unicode="&#x148;" horiz-adv-x="1198" 
d="M973 1470l-225 -350h-302l-223 350h211l162 -182l164 182h213zM705 981q187 0 282.5 -121.5t95.5 -345.5v-514h-303v496q0 102 -50 153t-116 51q-34 0 -64 -9.5t-58.5 -31t-45 -63t-16.5 -98.5v-498h-303v956h303v-165q17 61 68 106.5t105 64.5t102 19z" />
    <glyph glyph-name="napostrophe" unicode="&#x149;" horiz-adv-x="1462" 
d="M143 922l-143 77q68 97 95.5 185t27.5 227h252q-32 -322 -232 -489zM969 981q188 0 283.5 -121.5t95.5 -345.5v-514h-304v496q0 102 -50 153t-115 51q-34 0 -64 -9.5t-58.5 -31t-45.5 -63t-17 -98.5v-498h-303v956h303v-165q17 61 68 106.5t105 64.5t102 19z" />
    <glyph glyph-name="Eng" unicode="&#x14a;" horiz-adv-x="1390" 
d="M907 612v799h322v-1411q0 -101 -26 -185.5t-79.5 -152.5t-146.5 -106.5t-217 -38.5q-34 0 -98 10t-119 27l28 290q69 -24 189 -24q74 0 110.5 50.5t36.5 129.5v68l-424 743v-811h-321v1411h295z" />
    <glyph glyph-name="eng" unicode="&#x14b;" horiz-adv-x="1198" 
d="M735 981q172 0 260 -122t88 -345v-524q0 -224 -115.5 -342.5t-326.5 -118.5h-123v281h121q64 0 102.5 49t38.5 131v506q0 102 -50 153t-116 51q-34 0 -64 -9.5t-58.5 -31t-45 -63t-16.5 -98.5v-498h-303v956h303v-137q40 80 128 121t177 41z" />
    <glyph glyph-name="Omacron" unicode="&#x14c;" horiz-adv-x="1599" 
d="M1090 1653h-580v176h580v-176zM801 -25q-148 0 -282 58.5t-230 157.5t-152.5 234t-56.5 282q0 197 95.5 364.5t261.5 266t364 98.5q117 0 227 -37t198 -105t154.5 -157.5t103 -200.5t36.5 -229q0 -147 -57 -282t-153 -234t-229.5 -157.5t-279.5 -58.5zM799 279
q174 0 285.5 124t111.5 304t-111.5 303t-285.5 123q-175 0 -285.5 -122.5t-110.5 -303.5t110.5 -304.5t285.5 -123.5z" />
    <glyph glyph-name="omacron" unicode="&#x14d;" horiz-adv-x="1179" 
d="M883 1196h-580v178h580v-178zM590 -25q-102 0 -196 36.5t-165.5 101t-114 159.5t-42.5 205q0 89 27.5 168.5t76.5 140t114 105t142 67.5t158 23q102 0 196 -36.5t166 -101t115 -160.5t43 -206t-43 -205t-115 -159.5t-166 -101t-196 -36.5zM590 256q89 0 150 62t61 159
t-61 160t-150 63t-150 -63t-61 -160t61 -159t150 -62z" />
    <glyph glyph-name="Ohungarumlaut" unicode="&#x150;" horiz-adv-x="1599" 
d="M766 1577h-186l186 350h211zM1069 1577h-199l215 350h215zM801 -25q-148 0 -282 58.5t-230 157.5t-152.5 234t-56.5 282q0 197 95.5 364.5t261.5 266t364 98.5q117 0 227 -37t198 -105t154.5 -157.5t103 -200.5t36.5 -229q0 -147 -57 -282t-153 -234t-229.5 -157.5
t-279.5 -58.5zM799 279q174 0 285.5 124t111.5 304t-111.5 303t-285.5 123q-175 0 -285.5 -122.5t-110.5 -303.5t110.5 -304.5t285.5 -123.5z" />
    <glyph glyph-name="ohungarumlaut" unicode="&#x151;" horiz-adv-x="1179" 
d="M559 1120h-186l186 350h211zM862 1120h-198l215 350h215zM590 -25q-102 0 -196 36.5t-165.5 101t-114 159.5t-42.5 205q0 89 27.5 168.5t76.5 140t114 105t142 67.5t158 23q102 0 196 -36.5t166 -101t115 -160.5t43 -206t-43 -205t-115 -159.5t-166 -101t-196 -36.5z
M590 256q89 0 150 62t61 159t-61 160t-150 63t-150 -63t-61 -160t61 -159t150 -62z" />
    <glyph glyph-name="OE" unicode="&#x152;" horiz-adv-x="2217" 
d="M1518 551v-270h602v-281h-922v125q-74 -73 -180 -111.5t-217 -38.5q-148 0 -282 58.5t-230 157.5t-152.5 234t-56.5 282q0 197 95.5 364.5t261.5 266t364 98.5q237 0 397 -150v125h903v-281h-583v-290h512v-289h-512zM799 279q174 0 285.5 124t111.5 304t-111.5 303
t-285.5 123q-175 0 -285.5 -122.5t-110.5 -303.5t110.5 -304.5t285.5 -123.5z" />
    <glyph glyph-name="oe" unicode="&#x153;" horiz-adv-x="1886" 
d="M1821 498q0 -38 -6 -109h-699q24 -71 81 -110t142 -39q66 0 130.5 27t111.5 71l156 -197q-70 -76 -184 -121t-236 -45q-111 0 -205.5 37.5t-161.5 104.5q-73 -67 -166.5 -104.5t-193.5 -37.5q-136 0 -254 62t-191 179t-73 263q0 111 42.5 206t114 159t165.5 100.5
t196 36.5q101 0 195.5 -37t166.5 -104q71 68 165 104.5t198 36.5q137 0 252 -59t184.5 -170.5t69.5 -253.5zM1116 567h402q-1 69 -57.5 113.5t-137.5 44.5q-74 0 -130.5 -38.5t-76.5 -119.5zM590 256q89 0 150 63t61 160t-61 159t-150 62t-150 -62t-61 -159t61 -160t150 -63
z" />
    <glyph glyph-name="Racute" unicode="&#x154;" horiz-adv-x="1314" 
d="M741 1927h291l-276 -350h-207zM1247 0h-375l-323 496h-66v-496h-321v1411h577q118 0 211.5 -40t149.5 -107t85 -148.5t29 -171.5q0 -149 -96 -274t-233 -156zM696 1130h-213v-380h205q99 0 151 54.5t52 131.5t-51.5 135.5t-143.5 58.5z" />
    <glyph glyph-name="racute" unicode="&#x155;" horiz-adv-x="862" 
d="M518 1470h293l-279 -350h-206zM713 981q86 0 143 -29l-72 -288q-61 36 -137 36q-97 0 -157 -91.5t-60 -291.5v-317h-303v956h299v-202q39 113 116.5 170t170.5 57z" />
    <glyph glyph-name="uni0156" unicode="&#x156;" horiz-adv-x="1314" 
d="M885 514l362 -514h-375l-323 496h-66v-496h-321v1411h577q118 0 211.5 -40t149.5 -107t85 -148.5t29 -171.5q0 -149 -96 -274t-233 -156zM483 1130v-380h205q99 0 151 54.5t52 131.5t-51.5 135.5t-143.5 58.5h-213zM561 -487l-143 79q96 104 92 328h281
q0 -116 -67 -226.5t-163 -180.5z" />
    <glyph glyph-name="uni0157" unicode="&#x157;" horiz-adv-x="862" 
d="M713 981q86 0 143 -29l-72 -288q-61 36 -137 36q-97 0 -157 -91.5t-60 -291.5v-317h-303v956h299v-202q39 113 116.5 170t170.5 57zM190 -487l-143 79q96 104 92 328h281q0 -116 -67 -226.5t-163 -180.5z" />
    <glyph glyph-name="Rcaron" unicode="&#x158;" horiz-adv-x="1314" 
d="M1028 1927l-225 -350h-301l-223 350h210l164 -182l162 182h213zM1247 0h-375l-323 496h-66v-496h-321v1411h577q118 0 211.5 -40t149.5 -107t85 -148.5t29 -171.5q0 -149 -96 -274t-233 -156zM696 1130h-213v-380h205q99 0 151 54.5t52 131.5t-51.5 135.5t-143.5 58.5z
" />
    <glyph glyph-name="rcaron" unicode="&#x159;" horiz-adv-x="862" 
d="M807 1470l-225 -350h-303l-224 350h213l162 -182l162 182h215zM713 981q86 0 143 -29l-72 -288q-61 36 -137 36q-97 0 -157 -91.5t-60 -291.5v-317h-303v956h299v-202q39 113 116.5 170t170.5 57z" />
    <glyph glyph-name="Sacute" unicode="&#x15a;" horiz-adv-x="1202" 
d="M702 1577h-206l192 350h293zM598 -25q-226 0 -368 121t-142 316h322q0 -67 58 -113.5t142 -46.5q80 0 132.5 39t52.5 106q0 46 -34.5 82.5t-121.5 65.5l-168 51q-89 24 -157.5 62t-108 79t-64 90.5t-33 91t-8.5 85.5q0 125 65.5 224t179.5 153.5t253 54.5
q208 0 342.5 -118t134.5 -319h-321q0 67 -41.5 111.5t-120.5 44.5q-73 0 -119.5 -42.5t-46.5 -102.5q0 -90 139 -129l148 -47q67 -20 120 -42.5t108.5 -58t92.5 -78.5t60.5 -105t23.5 -136q0 -109 -44.5 -195.5t-119.5 -138.5t-165.5 -78.5t-190.5 -26.5z" />
    <glyph glyph-name="sacute" unicode="&#x15b;" horiz-adv-x="974" 
d="M590 1120h-207l192 350h291zM489 -25q-81 0 -155 22t-132.5 63t-93 105.5t-34.5 143.5h286q0 -40 30.5 -71t90.5 -31q48 0 82.5 22.5t34.5 55.5q0 23 -20 36t-74 25l-125 33q-58 16 -104.5 37.5t-76 43.5t-51 50t-32.5 50t-17 50t-7 45t-1 39q0 111 112 199t279 88
q57 0 111 -10.5t107 -35t92.5 -60.5t63 -92.5t22.5 -125.5h-287q0 44 -28.5 68.5t-74.5 24.5q-40 0 -67 -18t-27 -48q0 -50 82 -70l166 -45q68 -19 118.5 -49t77 -59.5t42 -65.5t19 -59.5t3.5 -48.5q0 -61 -24.5 -113t-65 -88t-94 -61.5t-111.5 -37.5t-117 -12z" />
    <glyph glyph-name="Scedilla" unicode="&#x15e;" horiz-adv-x="1202" 
d="M1118 414q0 -98 -36 -178t-98.5 -131.5t-139.5 -83t-166 -41.5l55 -103q23 -39 23 -102q0 -91 -62 -151t-149 -60q-98 0 -165 61.5t-67 181.5h150q0 -104 76 -104q29 0 49 21t20 55q0 24 -8 45l-74 156q-198 19 -318 136t-120 296h322q0 -67 58 -113.5t142 -46.5
q80 0 132.5 39t52.5 106q0 46 -34.5 82.5t-121.5 65.5l-168 51q-89 24 -157.5 62t-108 79t-64 90.5t-33 91t-8.5 85.5q0 125 65.5 224t179.5 153.5t253 54.5q208 0 342.5 -118t134.5 -319h-321q0 67 -41.5 111.5t-120.5 44.5q-73 0 -119.5 -42.5t-46.5 -102.5
q0 -90 139 -129l148 -47q67 -20 120 -42.5t108.5 -58t92.5 -78.5t60.5 -105t23.5 -136z" />
    <glyph glyph-name="scedilla" unicode="&#x15f;" horiz-adv-x="974" 
d="M901 287q0 -125 -92 -203t-227 -100l57 -107q23 -45 23 -102q0 -91 -62.5 -151t-150.5 -60q-97 0 -163.5 61.5t-66.5 181.5h150q0 -50 16 -77t59 -27q28 0 48 21t20 55q0 24 -8 45l-74 153q-150 16 -253 103.5t-103 228.5h286q0 -40 30.5 -71t90.5 -31q48 0 82.5 22.5
t34.5 55.5q0 23 -20 36t-74 25l-125 33q-58 16 -104.5 37.5t-76 43.5t-51 50t-32.5 50t-17 50t-7 45t-1 39q0 111 112 199t279 88q57 0 111 -10.5t107 -35t92.5 -60.5t63 -92.5t22.5 -125.5h-287q0 44 -28.5 68.5t-74.5 24.5q-40 0 -67 -18t-27 -48q0 -50 82 -70l166 -45
q68 -19 118.5 -49t77 -59.5t42 -65.5t19 -59.5t3.5 -48.5z" />
    <glyph glyph-name="Scaron" unicode="&#x160;" horiz-adv-x="1202" 
d="M752 1577h-303l-224 350h213l162 -182l162 182h215zM598 -25q-226 0 -368 121t-142 316h322q0 -67 58 -113.5t142 -46.5q80 0 132.5 39t52.5 106q0 46 -34.5 82.5t-121.5 65.5l-168 51q-89 24 -157.5 62t-108 79t-64 90.5t-33 91t-8.5 85.5q0 125 65.5 224t179.5 153.5
t253 54.5q208 0 342.5 -118t134.5 -319h-321q0 67 -41.5 111.5t-120.5 44.5q-73 0 -119.5 -42.5t-46.5 -102.5q0 -90 139 -129l148 -47q67 -20 120 -42.5t108.5 -58t92.5 -78.5t60.5 -105t23.5 -136q0 -109 -44.5 -195.5t-119.5 -138.5t-165.5 -78.5t-190.5 -26.5z" />
    <glyph glyph-name="scaron" unicode="&#x161;" horiz-adv-x="974" 
d="M637 1120h-301l-223 350h211l163 -182l162 182h213zM489 -25q-81 0 -155 22t-132.5 63t-93 105.5t-34.5 143.5h286q0 -40 30.5 -71t90.5 -31q48 0 82.5 22.5t34.5 55.5q0 23 -20 36t-74 25l-125 33q-58 16 -104.5 37.5t-76 43.5t-51 50t-32.5 50t-17 50t-7 45t-1 39
q0 111 112 199t279 88q57 0 111 -10.5t107 -35t92.5 -60.5t63 -92.5t22.5 -125.5h-287q0 44 -28.5 68.5t-74.5 24.5q-40 0 -67 -18t-27 -48q0 -50 82 -70l166 -45q68 -19 118.5 -49t77 -59.5t42 -65.5t19 -59.5t3.5 -48.5q0 -61 -24.5 -113t-65 -88t-94 -61.5t-111.5 -37.5
t-117 -12z" />
    <glyph glyph-name="uni0162" unicode="&#x162;" horiz-adv-x="1148" 
d="M1108 1130h-373v-1130h-86l66 -123q22 -43 22 -102q0 -91 -62 -151t-149 -60q-97 0 -164 61.5t-67 181.5h149q0 -104 76 -104q29 0 49.5 21t20.5 55q0 24 -8 45l-84 176h-84v1130h-373v281h1067v-281z" />
    <glyph glyph-name="uni0163" unicode="&#x163;" horiz-adv-x="768" 
d="M729 956v-229h-201v-700l82 -150q21 -41 21 -102q0 -91 -61.5 -151t-149.5 -60q-97 0 -163.5 61.5t-66.5 181.5h150q0 -104 76 -104q27 0 47 21t20 55q0 24 -8 45l-84 176h-166v727h-174v229h174v342h303v-342h201z" />
    <glyph glyph-name="Tcaron" unicode="&#x164;" horiz-adv-x="1148" 
d="M950 1927l-225 -350h-301l-225 350h213l161 -182l162 182h215zM41 1411h1067v-281h-373v-1130h-321v1130h-373v281z" />
    <glyph glyph-name="tcaron" unicode="&#x165;" horiz-adv-x="768" 
d="M793 1518h251q-32 -322 -233 -490l-143 78q68 97 96 185t29 227zM225 1298h303v-342h201v-229h-201v-727h-303v727h-174v229h174v342z" />
    <glyph glyph-name="Tbar" unicode="&#x166;" horiz-adv-x="1173" 
d="M1120 1411v-281h-372v-391h204v-155h-204v-584h-322v584h-205v155h205v391h-373v281h1067z" />
    <glyph glyph-name="tbar" unicode="&#x167;" horiz-adv-x="774" 
d="M731 956v-229h-201v-209h123v-153h-123v-365h-303v365h-110v153h110v209h-174v229h174v342h303v-342h201z" />
    <glyph glyph-name="Umacron" unicode="&#x16a;" horiz-adv-x="1394" 
d="M987 1653h-579v176h579v-176zM698 -25q-109 0 -209 37.5t-176 104.5t-121 167.5t-45 219.5v907h322v-883q0 -125 66 -186t163 -61q61 0 110.5 23.5t83.5 81t34 142.5v883h321v-907q0 -119 -45 -219.5t-120.5 -167.5t-175 -104.5t-208.5 -37.5z" />
    <glyph glyph-name="umacron" unicode="&#x16b;" horiz-adv-x="1198" 
d="M305 1374h580v-178h-580v178zM768 459v497h303v-956h-303v164q-15 -62 -66 -107t-105 -63.5t-103 -18.5q-188 0 -283.5 121t-95.5 344v516h303v-497q0 -102 49.5 -152.5t116.5 -50.5q33 0 63 9.5t58.5 31.5t45.5 63.5t17 98.5z" />
    <glyph glyph-name="Uring" unicode="&#x16e;" horiz-adv-x="1394" 
d="M696 1550q-106 0 -182 73.5t-76 180.5t76 181.5t182 74.5q108 0 184 -74.5t76 -181.5t-76 -180.5t-184 -73.5zM696 1673q57 0 97.5 37.5t40.5 93.5q0 55 -41 95t-97 40q-54 0 -93.5 -40t-39.5 -95q0 -56 39 -93.5t94 -37.5zM698 -25q-109 0 -209 37.5t-176 104.5
t-121 167.5t-45 219.5v907h322v-883q0 -125 66 -186t163 -61q61 0 110.5 23.5t83.5 81t34 142.5v883h321v-907q0 -119 -45 -219.5t-120.5 -167.5t-175 -104.5t-208.5 -37.5z" />
    <glyph glyph-name="uring" unicode="&#x16f;" horiz-adv-x="1198" 
d="M594 1094q-106 0 -182 73.5t-76 180.5t76 182.5t182 75.5q107 0 183.5 -75.5t76.5 -182.5t-76 -180.5t-184 -73.5zM594 1483q-54 0 -93.5 -39.5t-39.5 -95.5t39 -92.5t94 -36.5q57 0 97 36.5t40 92.5t-40.5 95.5t-96.5 39.5zM768 459v497h303v-956h-303v164
q-15 -62 -66 -107t-105 -63.5t-103 -18.5q-188 0 -283.5 121t-95.5 344v516h303v-497q0 -102 49.5 -152.5t116.5 -50.5q33 0 63 9.5t58.5 31.5t45.5 63.5t17 98.5z" />
    <glyph glyph-name="Uhungarumlaut" unicode="&#x170;" horiz-adv-x="1394" 
d="M664 1577h-187l187 350h210zM967 1577h-199l215 350h215zM698 -25q-109 0 -209 37.5t-176 104.5t-121 167.5t-45 219.5v907h322v-883q0 -125 66 -186t163 -61q61 0 110.5 23.5t83.5 81t34 142.5v883h321v-907q0 -119 -45 -219.5t-120.5 -167.5t-175 -104.5t-208.5 -37.5z
" />
    <glyph glyph-name="uhungarumlaut" unicode="&#x171;" horiz-adv-x="1198" 
d="M561 1470h211l-211 -350h-186zM1096 1470l-232 -350h-198l215 350h215zM768 459v497h303v-956h-303v164q-15 -62 -66 -107t-105 -63.5t-103 -18.5q-188 0 -283.5 121t-95.5 344v516h303v-497q0 -102 49.5 -152.5t116.5 -50.5q33 0 63 9.5t58.5 31.5t45.5 63.5t17 98.5z
" />
    <glyph glyph-name="Uogonek" unicode="&#x172;" horiz-adv-x="1394" 
d="M926 528v883h321v-907q0 -215 -134.5 -356.5t-336.5 -167.5l-76 -156q-8 -21 -8 -45q0 -34 20.5 -55t49.5 -21q76 0 76 104h149q0 -120 -67 -181.5t-164 -61.5q-87 0 -149 60t-62 151q0 59 22 102l56 103q-97 12 -183 54.5t-151.5 108t-103.5 159.5t-38 202v907h322v-883
q0 -125 66 -186t163 -61q61 0 110.5 23.5t83.5 81t34 142.5z" />
    <glyph glyph-name="uogonek" unicode="&#x173;" horiz-adv-x="1198" 
d="M950 -193h150q0 -120 -66.5 -181.5t-163.5 -61.5q-88 0 -150.5 60t-62.5 151q0 57 23 102l88 162v125q-15 -62 -66 -107t-105 -63.5t-103 -18.5q-188 0 -283.5 121t-95.5 344v516h303v-497q0 -102 49.5 -152.5t116.5 -50.5q33 0 63 9.5t58.5 31.5t45.5 63.5t17 98.5v497
h303v-956h-172l-84 -176q-8 -21 -8 -45q0 -34 20 -55t47 -21q76 0 76 104z" />
    <glyph glyph-name="Wcircumflex" unicode="&#x174;" horiz-adv-x="1853" 
d="M1087 1577l-161 182l-162 -182h-213l223 350h303l226 -350h-216zM1231 563l260 848h350l-479 -1411h-250l-188 717l-183 -717h-252l-475 1411h346l261 -844l174 643h264z" />
    <glyph glyph-name="wcircumflex" unicode="&#x175;" horiz-adv-x="1542" 
d="M932 1120l-162 183l-162 -183h-213l223 350h304l225 -350h-215zM1049 410l157 546h328l-332 -956h-258l-174 590l-166 -590h-258l-342 956h328l157 -546l158 546h244z" />
    <glyph glyph-name="Ycircumflex" unicode="&#x176;" horiz-adv-x="1406" 
d="M864 1577l-162 182l-161 -182h-213l223 350h303l225 -350h-215zM700 891l332 520h383l-551 -780v-631h-323v637l-549 774h383z" />
    <glyph glyph-name="ycircumflex" unicode="&#x177;" horiz-adv-x="1054" 
d="M694 1120l-162 183l-161 -183h-213l223 350h303l225 -350h-215zM537 461l194 495h326l-590 -1427h-324l236 586l-377 841h336z" />
    <glyph glyph-name="Ydieresis" unicode="&#x178;" horiz-adv-x="1406" 
d="M487 1614q-63 0 -108 42t-45 103q0 60 45 102t108 42q62 0 106 -42t44 -102q0 -61 -44 -103t-106 -42zM926 1614q-65 0 -110.5 42t-45.5 103q0 60 45.5 102t110.5 42q61 0 104 -42t43 -102q0 -61 -42.5 -103t-104.5 -42zM700 891l332 520h383l-551 -780v-631h-323v637
l-549 774h383z" />
    <glyph glyph-name="Zacute" unicode="&#x179;" horiz-adv-x="1220" 
d="M696 1927h293l-278 -350h-205zM109 1411h1017v-231l-632 -899h632v-281h-1044v231l623 899h-596v281z" />
    <glyph glyph-name="zacute" unicode="&#x17a;" horiz-adv-x="1042" 
d="M608 1470h293l-278 -350h-205zM109 956h839v-225l-430 -450h430v-281h-866v223l424 453h-397v280z" />
    <glyph glyph-name="Zdotaccent" unicode="&#x17b;" horiz-adv-x="1220" 
d="M610 1593q-70 0 -117 45t-47 115q0 68 47 113t117 45q68 0 116 -45t48 -113q0 -69 -47.5 -114.5t-116.5 -45.5zM109 1411h1017v-231l-632 -899h632v-281h-1044v231l623 899h-596v281z" />
    <glyph glyph-name="zdotaccent" unicode="&#x17c;" horiz-adv-x="1042" 
d="M522 1137q-70 0 -117 44.5t-47 114.5q0 68 47 113t117 45t117 -45t47 -113q0 -70 -47 -114.5t-117 -44.5zM109 956h839v-225l-430 -450h430v-281h-866v223l424 453h-397v280z" />
    <glyph glyph-name="Zcaron" unicode="&#x17d;" horiz-adv-x="1220" 
d="M985 1927l-225 -350h-303l-224 350h213l162 -182l162 182h215zM109 1411h1017v-231l-632 -899h632v-281h-1044v231l623 899h-596v281z" />
    <glyph glyph-name="zcaron" unicode="&#x17e;" horiz-adv-x="1042" 
d="M897 1470l-225 -350h-303l-224 350h213l162 -182l162 182h215zM109 956h839v-225l-430 -450h430v-281h-866v223l424 453h-397v280z" />
    <glyph glyph-name="longs" unicode="&#x17f;" horiz-adv-x="657" 
d="M670 1477h121v-281h-58q-200 0 -203 -188v-1008h-303v727h-178v229h178v60q0 223 117 342t326 119z" />
    <glyph glyph-name="florin" unicode="&#x192;" horiz-adv-x="1193" 
d="M1036 1343h123l-57 -282h-70q-56 0 -93.5 -11t-61 -36.5t-36 -56t-22.5 -80.5l-12 -62h188v-229h-231l-70 -371q-34 -183 -155 -285t-301 -102h-172l57 268h100q67 0 113 44.5t61 127.5l62 318h-135v229h180l12 66q21 115 57.5 197.5t97.5 143.5t151.5 91t213.5 30z" />
    <glyph glyph-name="uni01CD" unicode="&#x1cd;" horiz-adv-x="1357" 
d="M1055 1927l-226 -350h-301l-225 350h213l162 -182l162 182h215zM1376 0h-342l-106 328h-496l-104 -328h-344l522 1411h350zM678 1104l-158 -498h318z" />
    <glyph glyph-name="uni01CE" unicode="&#x1ce;" horiz-adv-x="1263" 
d="M1001 1470l-225 -350h-301l-223 350h211l162 -182l163 182h213zM834 842v114h303v-956h-303v121q-49 -67 -131 -106.5t-173 -39.5q-202 0 -329 139t-127 363q0 225 128 364.5t333 139.5q89 0 169.5 -37t129.5 -102zM604 256q91 0 155 66t64 155q0 94 -64.5 158.5
t-156.5 64.5q-95 0 -157 -64.5t-62 -158.5q0 -90 62.5 -155.5t158.5 -65.5z" />
    <glyph glyph-name="uni01CF" unicode="&#x1cf;" horiz-adv-x="647" 
d="M473 1577h-301l-223 350h211l162 -182l163 182h213zM483 0h-321v1411h321v-1411z" />
    <glyph glyph-name="uni01D0" unicode="&#x1d0;" horiz-adv-x="557" 
d="M428 1120h-301l-223 350h211l161 -182l164 182h213zM430 0h-303v956h303v-956z" />
    <glyph glyph-name="uni01D1" unicode="&#x1d1;" horiz-adv-x="1599" 
d="M950 1577h-303l-223 350h213l162 -182l162 182h215zM801 -25q-148 0 -282 58.5t-230 157.5t-152.5 234t-56.5 282q0 197 95.5 364.5t261.5 266t364 98.5q117 0 227 -37t198 -105t154.5 -157.5t103 -200.5t36.5 -229q0 -147 -57 -282t-153 -234t-229.5 -157.5
t-279.5 -58.5zM799 279q174 0 285.5 124t111.5 304t-111.5 303t-285.5 123q-175 0 -285.5 -122.5t-110.5 -303.5t110.5 -304.5t285.5 -123.5z" />
    <glyph glyph-name="uni01D2" unicode="&#x1d2;" horiz-adv-x="1179" 
d="M743 1120h-303l-223 350h213l162 -182l162 182h215zM590 -25q-102 0 -196 36.5t-165.5 101t-114 159.5t-42.5 205q0 89 27.5 168.5t76.5 140t114 105t142 67.5t158 23q102 0 196 -36.5t166 -101t115 -160.5t43 -206t-43 -205t-115 -159.5t-166 -101t-196 -36.5zM590 256
q89 0 150 62t61 159t-61 160t-150 63t-150 -63t-61 -160t61 -159t150 -62z" />
    <glyph glyph-name="uni01D3" unicode="&#x1d3;" horiz-adv-x="1394" 
d="M846 1577h-301l-223 350h213l161 -182l162 182h213zM698 -25q-109 0 -209 37.5t-176 104.5t-121 167.5t-45 219.5v907h322v-883q0 -125 66 -186t163 -61q61 0 110.5 23.5t83.5 81t34 142.5v883h321v-907q0 -119 -45 -219.5t-120.5 -167.5t-175 -104.5t-208.5 -37.5z" />
    <glyph glyph-name="uni01D4" unicode="&#x1d4;" horiz-adv-x="1198" 
d="M969 1470l-226 -350h-301l-223 350h213l162 -182l162 182h213zM768 459v497h303v-956h-303v164q-15 -62 -66 -107t-105 -63.5t-103 -18.5q-188 0 -283.5 121t-95.5 344v516h303v-497q0 -102 49.5 -152.5t116.5 -50.5q33 0 63 9.5t58.5 31.5t45.5 63.5t17 98.5z" />
    <glyph glyph-name="uni01D5" unicode="&#x1d5;" horiz-adv-x="1394" 
d="M987 2048h-579v176h579v-176zM479 1614q-63 0 -108 42t-45 103q0 60 45 102t108 42t106.5 -42t43.5 -102q0 -61 -43.5 -103t-106.5 -42zM920 1614q-65 0 -110.5 42t-45.5 103q0 60 45.5 102t110.5 42q61 0 104 -42t43 -102q0 -61 -42.5 -103t-104.5 -42zM698 -25
q-109 0 -209 37.5t-176 104.5t-121 167.5t-45 219.5v907h322v-883q0 -125 66 -186t163 -61q61 0 110.5 23.5t83.5 81t34 142.5v883h321v-907q0 -119 -45 -219.5t-120.5 -167.5t-175 -104.5t-208.5 -37.5z" />
    <glyph glyph-name="uni01D6" unicode="&#x1d6;" horiz-adv-x="1198" 
d="M305 1792h580v-176h-580v176zM377 1157q-63 0 -108.5 42.5t-45.5 103.5q0 60 45.5 101.5t108.5 41.5t106 -41.5t43 -101.5q0 -62 -43 -104t-106 -42zM662 1303q0 60 45 101.5t110 41.5q62 0 105 -41.5t43 -101.5q0 -61 -43 -103.5t-105 -42.5q-65 0 -110 42.5t-45 103.5z
M768 459v497h303v-956h-303v164q-15 -62 -66 -107t-105 -63.5t-103 -18.5q-188 0 -283.5 121t-95.5 344v516h303v-497q0 -102 49.5 -152.5t116.5 -50.5q33 0 63 9.5t58.5 31.5t45.5 63.5t17 98.5z" />
    <glyph glyph-name="uni01D7" unicode="&#x1d7;" horiz-adv-x="1394" 
d="M799 1978h-207l192 351h293zM479 1614q-63 0 -108 42t-45 103q0 60 45 102t108 42t106.5 -42t43.5 -102q0 -61 -43.5 -103t-106.5 -42zM920 1614q-65 0 -110.5 42t-45.5 103q0 60 45.5 102t110.5 42q61 0 104 -42t43 -102q0 -61 -42.5 -103t-104.5 -42zM698 -25
q-109 0 -209 37.5t-176 104.5t-121 167.5t-45 219.5v907h322v-883q0 -125 66 -186t163 -61q61 0 110.5 23.5t83.5 81t34 142.5v883h321v-907q0 -119 -45 -219.5t-120.5 -167.5t-175 -104.5t-208.5 -37.5z" />
    <glyph glyph-name="uni01D8" unicode="&#x1d8;" horiz-adv-x="1198" 
d="M682 1905h293l-279 -351h-207zM377 1157q-63 0 -108.5 42.5t-45.5 103.5q0 60 45.5 101.5t108.5 41.5t106 -41.5t43 -101.5q0 -62 -43 -104t-106 -42zM662 1303q0 60 45 101.5t110 41.5q62 0 105 -41.5t43 -101.5q0 -61 -43 -103.5t-105 -42.5q-65 0 -110 42.5t-45 103.5
zM768 459v497h303v-956h-303v164q-15 -62 -66 -107t-105 -63.5t-103 -18.5q-188 0 -283.5 121t-95.5 344v516h303v-497q0 -102 49.5 -152.5t116.5 -50.5q33 0 63 9.5t58.5 31.5t45.5 63.5t17 98.5z" />
    <glyph glyph-name="uni01D9" unicode="&#x1d9;" horiz-adv-x="1394" 
d="M846 1978h-301l-223 351h213l161 -183l162 183h213zM479 1614q-63 0 -108 42t-45 103q0 60 45 102t108 42t106.5 -42t43.5 -102q0 -61 -43.5 -103t-106.5 -42zM920 1614q-65 0 -110.5 42t-45.5 103q0 60 45.5 102t110.5 42q61 0 104 -42t43 -102q0 -61 -42.5 -103
t-104.5 -42zM698 -25q-109 0 -209 37.5t-176 104.5t-121 167.5t-45 219.5v907h322v-883q0 -125 66 -186t163 -61q61 0 110.5 23.5t83.5 81t34 142.5v883h321v-907q0 -119 -45 -219.5t-120.5 -167.5t-175 -104.5t-208.5 -37.5z" />
    <glyph glyph-name="uni01DA" unicode="&#x1da;" horiz-adv-x="1198" 
d="M969 1905l-226 -351h-301l-223 351h213l162 -183l162 183h213zM223 1303q0 60 45.5 101.5t108.5 41.5t106 -41.5t43 -101.5q0 -62 -43 -104t-106 -42t-108.5 42.5t-45.5 103.5zM662 1303q0 60 45 101.5t110 41.5q62 0 105 -41.5t43 -101.5q0 -61 -43 -103.5t-105 -42.5
q-65 0 -110 42.5t-45 103.5zM768 459v497h303v-956h-303v164q-15 -62 -66 -107t-105 -63.5t-103 -18.5q-188 0 -283.5 121t-95.5 344v516h303v-497q0 -102 49.5 -152.5t116.5 -50.5q33 0 63 9.5t58.5 31.5t45.5 63.5t17 98.5z" />
    <glyph glyph-name="uni01DB" unicode="&#x1db;" horiz-adv-x="1394" 
d="M809 1976h-207l-276 351h292zM479 1614q-63 0 -108 42t-45 103q0 60 45 102t108 42t106.5 -42t43.5 -102q0 -61 -43.5 -103t-106.5 -42zM920 1614q-65 0 -110.5 42t-45.5 103q0 60 45.5 102t110.5 42q61 0 104 -42t43 -102q0 -61 -42.5 -103t-104.5 -42zM698 -25
q-109 0 -209 37.5t-176 104.5t-121 167.5t-45 219.5v907h322v-883q0 -125 66 -186t163 -61q61 0 110.5 23.5t83.5 81t34 142.5v883h321v-907q0 -119 -45 -219.5t-120.5 -167.5t-175 -104.5t-208.5 -37.5z" />
    <glyph glyph-name="uni01DC" unicode="&#x1dc;" horiz-adv-x="1198" 
d="M516 1905l191 -351h-207l-277 351h293zM377 1157q-63 0 -108.5 42.5t-45.5 103.5q0 60 45.5 101.5t108.5 41.5t106 -41.5t43 -101.5q0 -62 -43 -104t-106 -42zM662 1303q0 60 45 101.5t110 41.5q62 0 105 -41.5t43 -101.5q0 -61 -43 -103.5t-105 -42.5q-65 0 -110 42.5
t-45 103.5zM768 459v497h303v-956h-303v164q-15 -62 -66 -107t-105 -63.5t-103 -18.5q-188 0 -283.5 121t-95.5 344v516h303v-497q0 -102 49.5 -152.5t116.5 -50.5q33 0 63 9.5t58.5 31.5t45.5 63.5t17 98.5z" />
    <glyph glyph-name="uni01E3" unicode="&#x1e3;" horiz-adv-x="1783" 
d="M602 1374h580v-178h-580v178zM1720 498q0 -38 -6 -109h-694q22 -67 81.5 -108t137.5 -41q66 0 130 27t110 71l155 -197q-70 -76 -182.5 -121t-234.5 -45q-113 0 -207.5 37.5t-155.5 104.5q-84 -74 -190.5 -108t-204.5 -34q-172 0 -285 84.5t-113 221.5q0 96 57 163.5
t140 97t180 29.5q151 0 262 -59v41q0 74 -53 118t-127 44q-135 0 -227 -90l-164 161q157 195 434 195q205 0 326 -109q137 109 325 109q137 0 252 -59t184.5 -170.5t69.5 -253.5zM1020 567h397q-3 70 -58.5 114t-137.5 44q-72 0 -125 -40t-76 -118zM485 203q54 0 131.5 33.5
t110.5 78.5l-8 19q-34 24 -94.5 38.5t-120.5 14.5q-75 0 -105 -27.5t-30 -62.5q0 -40 31 -67t85 -27z" />
    <glyph glyph-name="Aringacute" unicode="&#x1fa;" horiz-adv-x="1357" 
d="M678 1477q-105 0 -181.5 74.5t-76.5 179.5q0 78 43 142t112 95l72 129h293l-135 -141q61 -33 98 -93t37 -132q0 -105 -77 -179.5t-185 -74.5zM678 1602q57 0 98 36.5t41 92.5t-41.5 95.5t-97.5 39.5q-54 0 -93.5 -39t-39.5 -96q0 -56 39 -92.5t94 -36.5zM1376 0h-342
l-106 328h-496l-104 -328h-344l522 1411h350zM678 1104l-158 -498h318z" />
    <glyph glyph-name="aringacute" unicode="&#x1fb;" horiz-adv-x="1263" 
d="M625 1094q-105 0 -180.5 74t-75.5 180q0 90 55 159.5t139 89.5l101 181h292l-190 -213q56 -34 88.5 -91.5t32.5 -125.5q0 -107 -76.5 -180.5t-185.5 -73.5zM625 1483q-55 0 -94 -39.5t-39 -95.5t39 -92.5t94 -36.5q57 0 98 36.5t41 92.5t-41.5 95.5t-97.5 39.5zM834 842
v114h303v-956h-303v121q-49 -67 -131 -106.5t-173 -39.5q-202 0 -329 139t-127 363q0 225 128 364.5t333 139.5q89 0 169.5 -37t129.5 -102zM604 256q91 0 155 66t64 155q0 94 -64.5 158.5t-156.5 64.5q-95 0 -157 -64.5t-62 -158.5q0 -90 62.5 -155.5t158.5 -65.5z" />
    <glyph glyph-name="AEacute" unicode="&#x1fc;" horiz-adv-x="1914" 
d="M1044 1927h293l-278 -350h-207zM1212 559v-276h603v-283h-922v317h-404l-151 -317h-387l731 1411h1116v-283h-586v-294h512v-275h-512zM874 1128l-253 -532h270v532h-17z" />
    <glyph glyph-name="aeacute" unicode="&#x1fd;" horiz-adv-x="1783" 
d="M979 1470h291l-277 -350h-207zM1720 498q0 -38 -6 -109h-694q22 -67 81.5 -108t137.5 -41q66 0 130 27t110 71l155 -197q-70 -76 -182.5 -121t-234.5 -45q-113 0 -207.5 37.5t-155.5 104.5q-84 -74 -190.5 -108t-204.5 -34q-172 0 -285 84.5t-113 221.5q0 96 57 163.5
t140 97t180 29.5q151 0 262 -59v41q0 74 -53 118t-127 44q-135 0 -227 -90l-164 161q157 195 434 195q205 0 326 -109q137 109 325 109q137 0 252 -59t184.5 -170.5t69.5 -253.5zM1020 567h397q-3 70 -58.5 114t-137.5 44q-72 0 -125 -40t-76 -118zM485 203q54 0 131.5 33.5
t110.5 78.5l-8 19q-34 24 -94.5 38.5t-120.5 14.5q-75 0 -105 -27.5t-30 -62.5q0 -40 31 -67t85 -27z" />
    <glyph glyph-name="Oslashacute" unicode="&#x1fe;" horiz-adv-x="1609" 
d="M893 1927h293l-279 -350h-207zM1520 1341l-164 -167q80 -97 124 -217.5t44 -249.5q0 -147 -56.5 -282t-152.5 -234t-229.5 -157.5t-280.5 -58.5q-257 0 -455 164l-157 -164l-97 97l160 164q-81 97 -125.5 218.5t-44.5 252.5q0 197 95 364.5t260.5 266t363.5 98.5
q257 0 457 -166l161 166zM410 707q0 -140 65 -246l572 588q-105 84 -244 84q-174 0 -283.5 -122.5t-109.5 -303.5zM803 279q174 0 285.5 124t111.5 304q0 135 -63 239l-572 -588q102 -79 238 -79z" />
    <glyph glyph-name="oslashacute" unicode="&#x1ff;" horiz-adv-x="1185" 
d="M684 1470h291l-277 -350h-206zM1096 901l-101 -102q117 -137 117 -322q0 -110 -43 -205t-115 -159.5t-166 -101t-196 -36.5q-171 0 -305 95l-109 -111l-86 86l103 105q-121 141 -121 327q0 89 27.5 168.5t76.5 140t114 105t142 67.5t158 23q172 0 315 -100l103 104z
M381 477q0 -54 27 -110l294 303q-50 30 -110 30q-89 0 -150 -63t-61 -160zM592 256q91 0 152 62t61 159q0 52 -23 103l-290 -299q48 -25 100 -25z" />
    <glyph glyph-name="uni0218" unicode="&#x218;" horiz-adv-x="1202" 
d="M598 -25q-226 0 -368 121t-142 316h322q0 -67 58 -113.5t142 -46.5q80 0 132.5 39t52.5 106q0 46 -34.5 82.5t-121.5 65.5l-168 51q-89 24 -157.5 62t-108 79t-64 90.5t-33 91t-8.5 85.5q0 125 65.5 224t179.5 153.5t253 54.5q208 0 342.5 -118t134.5 -319h-321
q0 67 -41.5 111.5t-120.5 44.5q-73 0 -119.5 -42.5t-46.5 -102.5q0 -90 139 -129l148 -47q67 -20 120 -42.5t108.5 -58t92.5 -78.5t60.5 -105t23.5 -136q0 -109 -44.5 -195.5t-119.5 -138.5t-165.5 -78.5t-190.5 -26.5zM508 -487l-143 79q99 107 92 328h280
q0 -116 -66.5 -227t-162.5 -180z" />
    <glyph glyph-name="uni0219" unicode="&#x219;" horiz-adv-x="974" 
d="M489 -25q-81 0 -155 22t-132.5 63t-93 105.5t-34.5 143.5h286q0 -40 30.5 -71t90.5 -31q48 0 82.5 22.5t34.5 55.5q0 23 -20 36t-74 25l-125 33q-58 16 -104.5 37.5t-76 43.5t-51 50t-32.5 50t-17 50t-7 45t-1 39q0 111 112 199t279 88q57 0 111 -10.5t107 -35
t92.5 -60.5t63 -92.5t22.5 -125.5h-287q0 44 -28.5 68.5t-74.5 24.5q-40 0 -67 -18t-27 -48q0 -50 82 -70l166 -45q68 -19 118.5 -49t77 -59.5t42 -65.5t19 -59.5t3.5 -48.5q0 -61 -24.5 -113t-65 -88t-94 -61.5t-111.5 -37.5t-117 -12zM395 -487l-143 79q96 104 92 328h281
q0 -116 -67 -226.5t-163 -180.5z" />
    <glyph glyph-name="uni021A" unicode="&#x21a;" horiz-adv-x="1148" 
d="M41 1411h1067v-281h-373v-1130h-321v1130h-373v281zM432 -80h279q1 -116 -65.5 -226.5t-162.5 -180.5l-143 79q96 106 92 328z" />
    <glyph glyph-name="uni021B" unicode="&#x21b;" horiz-adv-x="768" 
d="M528 956h201v-229h-201v-727h-303v727h-174v229h174v342h303v-342zM297 -487l-143 79q96 106 92 328h278q0 -116 -66 -226.5t-161 -180.5z" />
    <glyph glyph-name="uni02BC" unicode="&#x2bc;" horiz-adv-x="552" 
d="M180 813l-129 76q94 127 133.5 248.5t36.5 281.5h285q1 -186 -95 -346t-231 -260z" />
    <glyph glyph-name="circumflex" unicode="&#x2c6;" horiz-adv-x="1181" 
d="M428 1126h-213l223 351h303l226 -351h-215l-162 181z" />
    <glyph glyph-name="caron" unicode="&#x2c7;" horiz-adv-x="1181" 
d="M741 1126h-303l-223 351h213l162 -185l162 185h215z" />
    <glyph glyph-name="breve" unicode="&#x2d8;" horiz-adv-x="1054" 
d="M526 1155q-90 0 -154 40t-93 100t-29 130h178q0 -54 22.5 -79t75.5 -25q97 0 97 104h182q0 -121 -78.5 -195.5t-200.5 -74.5z" />
    <glyph glyph-name="dotaccent" unicode="&#x2d9;" horiz-adv-x="731" 
d="M365 1145q-70 0 -117 45t-47 115q0 67 47.5 112t116.5 45t117 -45t48 -112q0 -70 -47.5 -115t-117.5 -45z" />
    <glyph glyph-name="ring" unicode="&#x2da;" horiz-adv-x="1163" 
d="M580 1094q-105 0 -181.5 74t-76.5 180q0 107 76.5 182.5t181.5 75.5q108 0 185 -75.5t77 -182.5q0 -106 -77 -180t-185 -74zM580 1219q57 0 98 36.5t41 92.5t-41.5 95.5t-97.5 39.5q-55 0 -94.5 -39.5t-39.5 -95.5t39.5 -92.5t94.5 -36.5z" />
    <glyph glyph-name="ogonek" unicode="&#x2db;" horiz-adv-x="1089" 
d="M537 -436q-88 0 -150.5 60t-62.5 151q0 59 22 102l92 172h150l-109 -225q-6 -24 -6 -45q0 -34 19.5 -55t48.5 -21q43 0 59 27t16 77h150q0 -120 -66.5 -181.5t-162.5 -61.5z" />
    <glyph glyph-name="tilde" unicode="&#x2dc;" horiz-adv-x="913" 
d="M313 1163h-149q7 136 67.5 199t135.5 63q29 0 57.5 -13t46.5 -29t38.5 -29t35.5 -13q17 0 35.5 20t19.5 64h150q-3 -70 -23.5 -122.5t-51.5 -81t-64 -41.5t-66 -13q-34 0 -68 21t-62 42t-48 21q-15 0 -34 -22.5t-20 -65.5z" />
    <glyph glyph-name="hungarumlaut" unicode="&#x2dd;" horiz-adv-x="1142" 
d="M350 1126h-186l186 351h211zM653 1126h-198l215 351h215z" />
    <glyph glyph-name="gravecomb" unicode="&#x300;" horiz-adv-x="0" 
d="M-362 1120h-207l-277 350h293z" />
    <glyph glyph-name="acutecomb" unicode="&#x301;" horiz-adv-x="0" 
d="M-639 1120h-207l193 350h291z" />
    <glyph glyph-name="uni0302" unicode="&#x302;" horiz-adv-x="0" 
d="M-754 1120h-213l224 350h303l225 -350h-215l-162 183z" />
    <glyph glyph-name="tildecomb" unicode="&#x303;" horiz-adv-x="0" 
d="M-600 1159h-150q4 70 24 123.5t50 82t62.5 42.5t66.5 14q29 0 57.5 -13t46.5 -29t38.5 -29t35.5 -13q17 0 36 20.5t20 63.5h149q-3 -71 -23.5 -123.5t-52 -80.5t-64 -41t-65.5 -13q-34 0 -68 21t-62 42t-48 21q-15 0 -33.5 -22.5t-19.5 -65.5z" />
    <glyph glyph-name="uni0304" unicode="&#x304;" horiz-adv-x="0" 
d="M-246 1196h-579v178h579v-178z" />
    <glyph glyph-name="uni0306" unicode="&#x306;" horiz-adv-x="0" 
d="M-528 1151q-126 0 -201.5 74.5t-75.5 195.5h178q0 -47 27.5 -76.5t71.5 -29.5q42 0 69 30t27 76h182q0 -122 -76 -196t-202 -74z" />
    <glyph glyph-name="uni0307" unicode="&#x307;" horiz-adv-x="0" 
d="M-367 1137q-70 0 -116.5 44.5t-46.5 114.5q0 69 46.5 113.5t116.5 44.5t118 -45t48 -113q0 -69 -48 -114t-118 -45z" />
    <glyph glyph-name="uni0308" unicode="&#x308;" horiz-adv-x="0" 
d="M-834 1157q-63 0 -108 42.5t-45 103.5q0 60 45 101.5t108 41.5t106.5 -41.5t43.5 -101.5q0 -61 -43.5 -103.5t-106.5 -42.5zM-395 1157q-65 0 -110.5 42.5t-45.5 103.5q0 60 45.5 101.5t110.5 41.5q62 0 105.5 -41.5t43.5 -101.5q0 -61 -43.5 -103.5t-105.5 -42.5z" />
    <glyph glyph-name="uni030A" unicode="&#x30a;" horiz-adv-x="0" 
d="M-584 1094q-105 0 -181.5 74t-76.5 180q0 107 76.5 182.5t181.5 75.5q108 0 185 -75.5t77 -182.5q0 -106 -77 -180t-185 -74zM-584 1219q57 0 98.5 36.5t41.5 92.5t-42 95.5t-98 39.5q-54 0 -93.5 -39.5t-39.5 -95.5t39 -92.5t94 -36.5z" />
    <glyph glyph-name="uni030B" unicode="&#x30b;" horiz-adv-x="0" 
d="M-793 1120h-186l186 350h211zM-489 1120h-199l215 350h215z" />
    <glyph glyph-name="uni030C" unicode="&#x30c;" horiz-adv-x="0" 
d="M-440 1120h-303l-224 350h213l162 -182l162 182h215z" />
    <glyph glyph-name="uni0326" unicode="&#x326;" horiz-adv-x="0" 
d="M-342 -487l-143 79q96 106 92 328h278q0 -116 -66 -226.5t-161 -180.5z" />
    <glyph glyph-name="uni0327" unicode="&#x327;" horiz-adv-x="0" 
d="M-539 -436q-97 0 -163 61.5t-66 181.5h147q0 -104 76 -104q29 0 49.5 21t20.5 55q0 24 -8 45l-107 225h148l92 -172q22 -37 22 -102q0 -91 -62 -151t-149 -60z" />
    <glyph glyph-name="uni0328" unicode="&#x328;" horiz-adv-x="0" 
d="M-553 -436q-88 0 -150.5 60t-62.5 151q0 57 23 102l92 172h149l-108 -225q-6 -24 -6 -45q0 -34 19 -55t48 -21q76 0 76 104h149q0 -120 -66.5 -181.5t-162.5 -61.5z" />
    <glyph glyph-name="uni0374" unicode="&#x374;" horiz-adv-x="1054" 
d="M563 946h-233l131 522h315z" />
    <glyph glyph-name="uni0375" unicode="&#x375;" horiz-adv-x="954" 
d="M440 522h234l-131 -522h-316z" />
    <glyph glyph-name="uni037E" unicode="&#x37e;" horiz-adv-x="602" 
d="M307 616q-76 0 -130 51.5t-54 127.5q0 78 54 130t130 52t130.5 -52t54.5 -130q0 -76 -54.5 -127.5t-130.5 -51.5zM156 -336l-166 76q77 113 125 260t45 291h301q1 -176 -82.5 -347.5t-222.5 -279.5z" />
    <glyph glyph-name="tonos" unicode="&#x384;" horiz-adv-x="1097" 
d="M471 1120h-207l193 350h291z" />
    <glyph glyph-name="dieresistonos" unicode="&#x385;" horiz-adv-x="1222" 
d="M627 1120h-156l74 387h235zM266 1165q-60 0 -102.5 40t-42.5 98q0 57 42.5 96t102.5 39q59 0 100.5 -39t41.5 -96q0 -58 -41.5 -98t-100.5 -40zM961 1165q-62 0 -105.5 40t-44.5 98q1 57 44.5 96t105.5 39q59 0 99 -39t40 -96q0 -58 -40 -98t-99 -40z" />
    <glyph glyph-name="Alphatonos" unicode="&#x386;" horiz-adv-x="1462" 
d="M176 1411h293l-197 -405h-204zM1481 0h-340l-107 328h-497l-105 -328h-344l522 1411h351zM782 1104l-157 -498h319z" />
    <glyph glyph-name="anoteleia" unicode="&#x387;" horiz-adv-x="577" 
d="M289 334q-78 0 -131.5 51t-53.5 129q0 77 53.5 127.5t131.5 50.5q77 0 131.5 -50.5t54.5 -127.5q0 -78 -54.5 -129t-131.5 -51z" />
    <glyph glyph-name="Epsilontonos" unicode="&#x388;" horiz-adv-x="1511" 
d="M203 1006h-205l108 405h293zM811 551v-270h602v-281h-924v1411h906v-281h-584v-290h512v-289h-512z" />
    <glyph glyph-name="Etatonos" unicode="&#x389;" horiz-adv-x="1771" 
d="M203 1006h-205l108 405h293zM1286 846v565h322v-1411h-322v557h-465v-557h-321v1411h321v-565h465z" />
    <glyph glyph-name="Iotatonos" unicode="&#x38a;" horiz-adv-x="952" 
d="M203 1006h-205l108 405h293zM791 0h-322v1411h322v-1411z" />
    <glyph glyph-name="Omicrontonos" unicode="&#x38c;" horiz-adv-x="1806" 
d="M1006 -25q-147 0 -281 58.5t-229.5 157.5t-152 234t-56.5 282q0 197 95.5 364.5t261 266t362.5 98.5q196 0 361.5 -98.5t261 -266t95.5 -364.5q0 -147 -56.5 -282t-152.5 -234t-229 -157.5t-280 -58.5zM213 1006h-205l109 405h293zM1006 279q172 0 283.5 124t111.5 304
t-111.5 303t-283.5 123q-175 0 -285.5 -122.5t-110.5 -303.5t110.5 -304.5t285.5 -123.5z" />
    <glyph glyph-name="Upsilontonos" unicode="&#x38e;" horiz-adv-x="1888" 
d="M246 1006h-205l109 405h290zM1184 891l332 520h380l-548 -780v-631h-324v637l-549 774h383z" />
    <glyph glyph-name="Omegatonos" unicode="&#x38f;" horiz-adv-x="1912" 
d="M1573 289h227v-289h-645v252q124 40 211.5 168t87.5 289q0 180 -110.5 302t-286.5 122t-287 -122t-111 -302q0 -161 87.5 -289t211.5 -168v-252h-645v289h228q-83 58 -143 183.5t-60 262.5q0 196 95 357t260 252.5t364 91.5t364 -91.5t260 -252.5t95 -357
q0 -137 -60 -262.5t-143 -183.5zM14 1006l109 405h293l-197 -405h-205z" />
    <glyph glyph-name="iotadieresistonos" unicode="&#x390;" horiz-adv-x="645" 
d="M315 1120h-157l73 387h236zM-47 1165q-60 0 -103 40t-43 98q0 57 43 96t103 39t100.5 -39t40.5 -96q0 -59 -40.5 -98.5t-100.5 -39.5zM647 1165q-62 0 -105 40t-44 98q2 57 45 96t104 39q59 0 100 -39t41 -96q0 -58 -41 -98t-100 -40zM578 -12h-144q-23 0 -44 1.5
t-54.5 8t-60.5 18t-57 33.5t-50 52.5t-33.5 77t-13.5 104.5v673h303v-600q0 -88 78 -88h76v-280z" />
    <glyph glyph-name="Alpha" unicode="&#x391;" horiz-adv-x="1357" 
d="M1376 0h-342l-106 328h-496l-104 -328h-344l522 1411h350zM678 1104l-158 -498h318z" />
    <glyph glyph-name="Beta" unicode="&#x392;" horiz-adv-x="1312" 
d="M958 754q132 -19 202.5 -118t70.5 -230q0 -60 -15.5 -116.5t-50.5 -109.5t-86.5 -92.5t-130 -63.5t-174.5 -24h-612v1411h571q191 0 307.5 -102.5t116.5 -261.5q0 -41 -9 -81.5t-29.5 -83.5t-61.5 -77t-99 -51zM836 995q0 58 -31.5 96.5t-93.5 38.5h-228v-270h226
q58 0 92.5 35.5t34.5 99.5zM483 281h252q82 0 127 46t45 111q0 63 -44 110.5t-128 47.5h-252v-315z" />
    <glyph glyph-name="Gamma" unicode="&#x393;" horiz-adv-x="999" 
d="M162 0v1411h794v-281h-473v-1130h-321z" />
    <glyph glyph-name="uni0394" unicode="&#x394;" horiz-adv-x="1368" 
d="M510 1411h350l459 -1198v-213h-1272v209zM684 1081l-272 -800h549z" />
    <glyph glyph-name="uni0394" unicode="&#x2206;" horiz-adv-x="1368" 
d="M510 1411h350l459 -1198v-213h-1272v209zM684 1081l-272 -800h549z" />
    <glyph glyph-name="Epsilon" unicode="&#x395;" horiz-adv-x="1185" 
d="M483 551v-270h602v-281h-923v1411h905v-281h-584v-290h512v-289h-512z" />
    <glyph glyph-name="Zeta" unicode="&#x396;" horiz-adv-x="1220" 
d="M109 1411h1017v-231l-632 -899h632v-281h-1044v231l623 899h-596v281z" />
    <glyph glyph-name="Eta" unicode="&#x397;" horiz-adv-x="1433" 
d="M948 846v565h322v-1411h-322v557h-465v-557h-321v1411h321v-565h465z" />
    <glyph glyph-name="Theta" unicode="&#x398;" horiz-adv-x="1599" 
d="M801 -25q-148 0 -282 58.5t-230 157.5t-152.5 234t-56.5 282q0 197 95.5 364.5t261.5 266t364 98.5q117 0 227 -37t198 -105t154.5 -157.5t103 -200.5t36.5 -229q0 -147 -57 -282t-153 -234t-229.5 -157.5t-279.5 -58.5zM799 279q174 0 285.5 124t111.5 304t-111.5 303
t-285.5 123q-175 0 -285.5 -122.5t-110.5 -303.5t110.5 -304.5t285.5 -123.5zM1067 590h-532v233h532v-233z" />
    <glyph glyph-name="Iota" unicode="&#x399;" horiz-adv-x="647" 
d="M483 0h-321v1411h321v-1411z" />
    <glyph glyph-name="Kappa" unicode="&#x39a;" horiz-adv-x="1294" 
d="M764 713l547 -713h-412l-416 553v-553h-321v1411h321v-569l367 569h383z" />
    <glyph glyph-name="Lambda" unicode="&#x39b;" horiz-adv-x="1357" 
d="M856 1411l520 -1411h-342l-356 1051l-350 -1051h-344l522 1411h350z" />
    <glyph glyph-name="Mu" unicode="&#x39c;" horiz-adv-x="1884" 
d="M1624 1411l172 -1411h-330l-92 803l-307 -641h-246l-307 639l-94 -801h-330l174 1411h268l412 -883l406 883h274z" />
    <glyph glyph-name="Nu" unicode="&#x39d;" horiz-adv-x="1390" 
d="M907 610v801h322v-1411h-283l-463 811v-811h-321v1411h295z" />
    <glyph glyph-name="Xi" unicode="&#x39e;" horiz-adv-x="1150" 
d="M106 1130v281h934v-281h-934zM969 551h-797v289h797v-289zM106 0v281h953v-281h-953z" />
    <glyph glyph-name="Omicron" unicode="&#x39f;" horiz-adv-x="1599" 
d="M801 -25q-148 0 -282 58.5t-230 157.5t-152.5 234t-56.5 282q0 197 95.5 364.5t261.5 266t364 98.5q117 0 227 -37t198 -105t154.5 -157.5t103 -200.5t36.5 -229q0 -147 -57 -282t-153 -234t-229.5 -157.5t-279.5 -58.5zM799 279q174 0 285.5 124t111.5 304t-111.5 303
t-285.5 123q-175 0 -285.5 -122.5t-110.5 -303.5t110.5 -304.5t285.5 -123.5z" />
    <glyph glyph-name="Pi" unicode="&#x3a0;" horiz-adv-x="1433" 
d="M1270 1411v-1411h-322v1124h-465v-1124h-321v1411h1108z" />
    <glyph glyph-name="Rho" unicode="&#x3a1;" horiz-adv-x="1269" 
d="M162 1411h581q118 0 212 -40t150 -107t85 -148.5t29 -171.5q0 -91 -29 -172.5t-85.5 -148t-149.5 -105.5t-212 -39h-260v-479h-321v1411zM483 760h246q84 0 125 54t41 130t-40.5 131t-123.5 55h-248v-370z" />
    <glyph glyph-name="Sigma" unicode="&#x3a3;" horiz-adv-x="1251" 
d="M903 657l-381 -376h649v-281h-1071v254l447 453l-447 450v254h1037v-281h-615l381 -376v-97z" />
    <glyph glyph-name="Tau" unicode="&#x3a4;" horiz-adv-x="1148" 
d="M41 1411h1067v-281h-373v-1130h-321v1130h-373v281z" />
    <glyph glyph-name="Upsilon" unicode="&#x3a5;" horiz-adv-x="1406" 
d="M700 891l332 520h383l-551 -780v-631h-323v637l-549 774h383z" />
    <glyph glyph-name="Phi" unicode="&#x3a6;" horiz-adv-x="1761" 
d="M1032 1436v-142q303 -35 482.5 -196.5t177.5 -395.5q0 -233 -178.5 -393.5t-481.5 -195.5v-162h-301v162q-303 34 -482 195t-179 394q0 235 179 396.5t482 195.5v142h301zM393 702q0 -102 91 -178t247 -104v567q-156 -28 -247 -105.5t-91 -179.5zM1368 702
q3 102 -88 179.5t-248 105.5v-567q155 27 245.5 104t90.5 178z" />
    <glyph glyph-name="Chi" unicode="&#x3a7;" horiz-adv-x="1363" 
d="M872 752l490 -752h-379l-301 496l-301 -496h-377l485 752l-444 659h389l248 -403l252 403h385z" />
    <glyph glyph-name="Psi" unicode="&#x3a8;" horiz-adv-x="1609" 
d="M1231 1106v305h309l-2 -354q-1 -147 -44 -267.5t-121 -203.5t-182 -135.5t-230 -71.5v-379h-310v379q-126 19 -230.5 71t-182.5 135t-121.5 203.5t-44.5 268.5l-2 354h309v-305q0 -169 72 -273.5t200 -142.5v721h310v-721q127 38 198.5 143t71.5 273z" />
    <glyph glyph-name="uni03A9" unicode="&#x3a9;" horiz-adv-x="1712" 
d="M1372 289h227v-289h-645v252q124 40 211.5 168t87.5 289q0 180 -110.5 302t-286.5 122q-174 0 -285.5 -122t-111.5 -302q0 -161 87.5 -289t211.5 -168v-252h-645v289h227q-83 58 -143 183.5t-60 262.5q0 196 95 357t260 252.5t364 91.5t364 -91.5t260 -252.5t95 -357
q0 -137 -60 -262.5t-143 -183.5z" />
    <glyph glyph-name="uni03A9" unicode="&#x2126;" horiz-adv-x="1712" 
d="M1372 289h227v-289h-645v252q124 40 211.5 168t87.5 289q0 180 -110.5 302t-286.5 122q-174 0 -285.5 -122t-111.5 -302q0 -161 87.5 -289t211.5 -168v-252h-645v289h227q-83 58 -143 183.5t-60 262.5q0 196 95 357t260 252.5t364 91.5t364 -91.5t260 -252.5t95 -357
q0 -137 -60 -262.5t-143 -183.5z" />
    <glyph glyph-name="Iotadieresis" unicode="&#x3aa;" horiz-adv-x="647" 
d="M106 1614q-63 0 -108 42t-45 103q0 60 45 102t108 42t106.5 -42t43.5 -102q0 -61 -43.5 -103t-106.5 -42zM545 1614q-64 0 -109 42t-45 103q0 60 45.5 102t108.5 42q62 0 105.5 -42t43.5 -102q0 -61 -43.5 -103t-105.5 -42zM483 0h-321v1411h321v-1411z" />
    <glyph glyph-name="Upsilondieresis" unicode="&#x3ab;" horiz-adv-x="1406" 
d="M487 1614q-63 0 -108 42t-45 103q0 60 45 102t108 42q62 0 106 -42t44 -102q0 -61 -44 -103t-106 -42zM926 1614q-65 0 -110.5 42t-45.5 103q0 60 45.5 102t110.5 42q61 0 104 -42t43 -102q0 -61 -42.5 -103t-104.5 -42zM700 891l332 520h383l-551 -780v-631h-323v637
l-549 774h383z" />
    <glyph glyph-name="alphatonos" unicode="&#x3ac;" horiz-adv-x="1357" 
d="M645 1468h291l-277 -350h-206zM1214 274h76v-286h-143q-232 0 -295 168q-41 -81 -132 -131t-192 -50q-86 0 -167 34.5t-146 97t-104 159t-39 211.5q0 107 39 202.5t103.5 160.5t147.5 103t170 38q89 0 169.5 -36.5t129.5 -100.5v112h304v-591q0 -91 79 -91zM602 256
q91 0 155 66t64 155q0 94 -64.5 158.5t-156.5 64.5q-95 0 -157 -64.5t-62 -158.5q0 -90 62.5 -155.5t158.5 -65.5z" />
    <glyph glyph-name="epsilontonos" unicode="&#x3ad;" horiz-adv-x="980" 
d="M567 1470h291l-276 -350h-207zM858 276l70 -231q-57 -29 -178 -49.5t-220 -20.5q-221 0 -341.5 82t-120.5 222q0 79 47 136.5t127 86.5q-55 32 -85 86t-32 119q2 123 114.5 198.5t301.5 75.5q91 0 200.5 -20t180.5 -50l-84 -225q-39 18 -108 28.5t-124 10.5
q-151 0 -151 -72q0 -35 37 -58.5t98 -23.5h164v-180h-201q-156 0 -156 -80q0 -44 55.5 -66t147.5 -22q61 0 133 15t125 38z" />
    <glyph glyph-name="etatonos" unicode="&#x3ae;" horiz-adv-x="1198" 
d="M549 1470h293l-279 -350h-205zM705 981q187 0 282.5 -121.5t95.5 -345.5v-985h-303v967q0 102 -50 153t-116 51q-34 0 -64 -9.5t-58.5 -31t-45 -63t-16.5 -98.5v-498h-303v956h303v-172q23 92 109 144.5t166 52.5z" />
    <glyph glyph-name="iotatonos" unicode="&#x3af;" horiz-adv-x="645" 
d="M369 1120h-207l192 350h291zM578 -12h-144q-23 0 -44 1.5t-54.5 8t-60.5 18t-57 33.5t-50 52.5t-33.5 77t-13.5 104.5v673h303v-600q0 -88 78 -88h76v-280z" />
    <glyph glyph-name="upsilondieresistonos" unicode="&#x3b0;" horiz-adv-x="1155" 
d="M580 1120h-158l74 387h235zM217 1165q-60 0 -102.5 40t-42.5 98q0 57 42.5 96t102.5 39t100.5 -39t40.5 -96q0 -59 -40.5 -98.5t-100.5 -39.5zM911 1165q-62 0 -105 40t-44 98q2 57 45 96t104 39q59 0 100.5 -39t41.5 -96q0 -58 -41.5 -98t-100.5 -40zM586 -25
q-199 0 -336 128.5t-137 342.5v510h303v-491q0 -105 50.5 -157t119.5 -52t124.5 56t55.5 161q0 236 -107 483h293q119 -215 119 -510q0 -95 -26 -174t-71.5 -133t-107.5 -91.5t-132 -55t-148 -17.5z" />
    <glyph glyph-name="alpha" unicode="&#x3b1;" horiz-adv-x="1357" 
d="M1214 274h76v-286h-143q-232 0 -295 168q-41 -81 -132 -131t-192 -50q-86 0 -167 34.5t-146 97t-104 159t-39 211.5q0 107 39 202.5t103.5 160.5t147.5 103t170 38q89 0 169.5 -36.5t129.5 -100.5v112h304v-591q0 -91 79 -91zM602 256q91 0 155 66t64 155
q0 94 -64.5 158.5t-156.5 64.5q-95 0 -157 -64.5t-62 -158.5q0 -90 62.5 -155.5t158.5 -65.5z" />
    <glyph glyph-name="beta" unicode="&#x3b2;" horiz-adv-x="1236" 
d="M844 805q155 -33 240 -137.5t85 -251.5q0 -84 -27 -156t-73.5 -123.5t-107.5 -88.5t-130.5 -55t-142.5 -18q-152 0 -258 80v-526h-303v1472q0 226 130.5 363t354.5 137q194 0 314.5 -101.5t120.5 -266.5q0 -109 -54 -197.5t-149 -130.5zM627 246q103 0 168 44t65 132
q0 86 -60 142.5t-159 56.5h-104v245h28q79 0 126.5 55t47.5 146q0 71 -41.5 112.5t-103.5 41.5q-76 0 -120 -50.5t-44 -144.5v-711q72 -69 197 -69z" />
    <glyph glyph-name="gamma" unicode="&#x3b3;" horiz-adv-x="1075" 
d="M745 956h330l-385 -907v-520h-303v514l-387 913h330l209 -569z" />
    <glyph glyph-name="delta" unicode="&#x3b4;" horiz-adv-x="1243" 
d="M631 1196l342 -332q93 -88 148 -181t55 -208q0 -110 -47 -205t-124.5 -158.5t-178.5 -100t-208 -36.5q-145 0 -269 62.5t-200.5 179t-76.5 260.5q0 162 94.5 291.5t267.5 216.5l-246 264v228h918v-281h-475zM618 256q95 0 163.5 62t68.5 157q0 34 -11.5 64.5t-41 65.5
t-56 62t-79.5 76q-19 18 -29 27q-121 -33 -187.5 -112.5t-66.5 -178.5q0 -97 71.5 -160t167.5 -63z" />
    <glyph glyph-name="epsilon" unicode="&#x3b5;" horiz-adv-x="980" 
d="M858 276l70 -231q-57 -29 -178 -49.5t-220 -20.5q-221 0 -341.5 82t-120.5 222q0 79 47 136.5t127 86.5q-55 32 -85 86t-32 119q2 123 114.5 198.5t301.5 75.5q91 0 200.5 -20t180.5 -50l-84 -225q-39 18 -108 28.5t-124 10.5q-151 0 -151 -72q0 -35 37 -58.5t98 -23.5
h164v-180h-201q-156 0 -156 -80q0 -44 55.5 -66t147.5 -22q61 0 133 15t125 38z" />
    <glyph glyph-name="zeta" unicode="&#x3b6;" horiz-adv-x="983" 
d="M938 1477v-236q-141 -71 -268 -201t-205 -285t-78 -288q0 -64 22 -113t44 -75.5t83 -51.5t87 -31.5t108 -24.5q1 -1 2 -1l199 -39l-133 -465h-293l74 250l-11 2q-44 9 -80 18t-89.5 28.5t-94.5 43.5t-85.5 63.5t-74 87t-48.5 115.5t-19 148q0 198 106.5 408.5
t282.5 365.5h-358v281h829z" />
    <glyph glyph-name="eta" unicode="&#x3b7;" horiz-adv-x="1198" 
d="M705 981q187 0 282.5 -121.5t95.5 -345.5v-985h-303v967q0 102 -50 153t-116 51q-34 0 -64 -9.5t-58.5 -31t-45 -63t-16.5 -98.5v-498h-303v956h303v-172q23 92 109 144.5t166 52.5z" />
    <glyph glyph-name="theta" unicode="&#x3b8;" horiz-adv-x="1290" 
d="M645 1501q170 0 296 -96t192.5 -270t66.5 -404q0 -344 -149.5 -550t-405.5 -206q-257 0 -406 206t-149 550q0 349 149 559.5t406 210.5zM645 1221q-101 0 -163.5 -99.5t-80.5 -273.5h488q-18 174 -80.5 273.5t-163.5 99.5zM645 256q101 0 164 94.5t78 261.5h-484
q15 -167 78 -261.5t164 -94.5z" />
    <glyph glyph-name="iota" unicode="&#x3b9;" horiz-adv-x="645" 
d="M578 -12h-144q-23 0 -44 1.5t-54.5 8t-60.5 18t-57 33.5t-50 52.5t-33.5 77t-13.5 104.5v673h303v-600q0 -88 78 -88h76v-280z" />
    <glyph glyph-name="kappa" unicode="&#x3ba;" horiz-adv-x="1128" 
d="M711 489l397 -489h-379l-301 393v-393h-301v956h301v-376l365 376h235v-278h-123z" />
    <glyph glyph-name="lambda" unicode="&#x3bb;" horiz-adv-x="1044" 
d="M557 1198l492 -1198h-314l-221 602l-184 -602h-314l342 903l-69 180q-29 73 -65 110.5t-95 37.5h-113v270h148q153 0 238.5 -68t154.5 -235z" />
    <glyph glyph-name="uni03BC" unicode="&#x3bc;" horiz-adv-x="1292" 
d="M1149 274h76v-286h-144q-96 0 -162.5 34.5t-99.5 96.5q-40 -65 -106.5 -97t-132.5 -32q-42 0 -87 14t-75 37v-512h-303v1427h303v-497q0 -102 49.5 -152.5t116.5 -50.5q33 0 63 9.5t58.5 31.5t45.5 63.5t17 98.5v497h303v-591q0 -91 78 -91z" />
    <glyph glyph-name="nu" unicode="&#x3bd;" horiz-adv-x="1075" 
d="M539 387l206 569h330l-405 -956h-264l-406 956h330z" />
    <glyph glyph-name="xi" unicode="&#x3be;" horiz-adv-x="972" 
d="M381 469q0 -151 264 -219l262 -64l-149 -520h-291l94 324q-491 107 -491 450q0 125 70 221t188 140q-82 47 -127 122t-45 164q-4 188 121.5 301t332.5 113q88 0 178 -21.5t150 -56.5l-88 -247q-86 45 -217 45q-75 0 -122.5 -45t-47.5 -103q0 -74 55.5 -125t159.5 -51h57
v-246h-127q-96 0 -161.5 -51.5t-65.5 -130.5z" />
    <glyph glyph-name="omicron" unicode="&#x3bf;" horiz-adv-x="1179" 
d="M590 -25q-102 0 -196 36.5t-165.5 101t-114 159.5t-42.5 205q0 89 27.5 168.5t76.5 140t114 105t142 67.5t158 23q102 0 196 -36.5t166 -101t115 -160.5t43 -206t-43 -205t-115 -159.5t-166 -101t-196 -36.5zM590 256q89 0 150 62t61 159t-61 160t-150 63t-150 -63
t-61 -160t61 -159t150 -62z" />
    <glyph glyph-name="pi" unicode="&#x3c0;" horiz-adv-x="1277" 
d="M1108 268h76v-280h-144q-23 0 -44 1.5t-54.5 8t-60.5 18t-57 33.5t-50 52.5t-33.5 77t-13.5 104.5v393h-199v-676h-303v676h-149v280h1102v-280h-148v-320q0 -88 78 -88z" />
    <glyph glyph-name="rho" unicode="&#x3c1;" horiz-adv-x="1234" 
d="M647 981q226 0 371 -141.5t145 -362.5q0 -115 -39 -211.5t-103.5 -159t-145.5 -97t-168 -34.5q-88 0 -170.5 39t-133.5 105v-590h-303v823q0 293 152 461t395 168zM635 256q95 0 158 65.5t63 155.5q0 94 -62.5 158.5t-158.5 64.5q-92 0 -156.5 -64.5t-64.5 -158.5
q0 -89 64.5 -155t156.5 -66z" />
    <glyph glyph-name="uni03C2" unicode="&#x3c2;" horiz-adv-x="1054" 
d="M381 481q0 -212 274 -272l318 -68l-137 -475h-291l80 268l-25 7q-244 43 -386 181t-142 359q0 111 43.5 205.5t116 158.5t168.5 100t200 36q134 0 240 -60t178 -165l-236 -148q-27 42 -78 67t-102 25q-101 0 -161 -63t-60 -156z" />
    <glyph glyph-name="sigma" unicode="&#x3c3;" horiz-adv-x="1263" 
d="M637 956h584v-270h-203q39 -43 65.5 -109.5t26.5 -130.5q0 -109 -43 -200t-115.5 -149t-165.5 -90t-196 -32q-102 0 -195.5 35t-165.5 97t-114.5 155t-42.5 203q0 148 75 260.5t202.5 171.5t287.5 59zM590 256q91 0 151 56.5t60 152.5t-60.5 154.5t-150.5 58.5
t-150.5 -58.5t-60.5 -154.5t60 -152.5t151 -56.5z" />
    <glyph glyph-name="tau" unicode="&#x3c4;" horiz-adv-x="1064" 
d="M1014 956v-280h-352v-311q0 -91 77 -91h133v-286h-200q-23 0 -44 1.5t-54.5 8t-60.5 18t-57 33.5t-50.5 52.5t-34 77t-13.5 104.5v393h-315v280h971z" />
    <glyph glyph-name="upsilon" unicode="&#x3c5;" horiz-adv-x="1155" 
d="M586 -25q-199 0 -336 128.5t-137 342.5v510h303v-491q0 -105 50.5 -157t119.5 -52t124.5 56t55.5 161q0 236 -107 483h293q119 -215 119 -510q0 -95 -26 -174t-71.5 -133t-107.5 -91.5t-132 -55t-148 -17.5z" />
    <glyph glyph-name="phi" unicode="&#x3c6;" horiz-adv-x="1689" 
d="M997 1346v-373q295 -29 460 -163.5t163 -332.5q0 -197 -165 -330.5t-458 -162.5v-455h-303v453q-295 29 -459.5 163t-164.5 332t164.5 333t459.5 165v371h303zM377 477q0 -87 82.5 -149.5t234.5 -83.5v469q-151 -21 -234 -84.5t-83 -151.5zM1311 477q3 87 -79.5 150
t-234.5 86v-469q150 23 232 85t82 148z" />
    <glyph glyph-name="chi" unicode="&#x3c7;" horiz-adv-x="1161" 
d="M770 317l465 -788h-358l-295 541l-291 -541h-357l457 788l-393 639h367l217 -395l219 395h362z" />
    <glyph glyph-name="psi" unicode="&#x3c8;" horiz-adv-x="1572" 
d="M1171 715v241h310l-2 -292q-3 -289 -150 -461.5t-389 -214.5v-459h-307v459q-243 41 -389.5 214t-149.5 462l-2 292h307v-241q0 -168 61.5 -278t172.5 -154v1063h307v-1063q110 44 170.5 154t60.5 278z" />
    <glyph glyph-name="omega" unicode="&#x3c9;" horiz-adv-x="1554" 
d="M457 -25q-167 0 -273 143t-106 351q0 225 143 487h287q-121 -269 -121 -456q0 -116 44 -179t106 -63q48 0 76 47.5t28 122.5v293h272v-293q0 -75 28 -122.5t77 -47.5q62 0 105.5 63t43.5 179q0 190 -120 456h286q144 -263 144 -487q0 -208 -106 -351t-273 -143
q-106 0 -193.5 39.5t-124.5 104.5h-6q-37 -65 -124 -104.5t-193 -39.5z" />
    <glyph glyph-name="iotadieresis" unicode="&#x3ca;" horiz-adv-x="645" 
d="M96 1159q-63 0 -108 42.5t-45 103.5q0 60 45 101.5t108 41.5t106.5 -41.5t43.5 -101.5q0 -61 -43.5 -103.5t-106.5 -42.5zM535 1159q-65 0 -110.5 42.5t-45.5 103.5q0 60 45.5 101.5t110.5 41.5q62 0 104.5 -41.5t42.5 -101.5q0 -61 -42.5 -103.5t-104.5 -42.5zM578 -12
h-144q-23 0 -44 1.5t-54.5 8t-60.5 18t-57 33.5t-50 52.5t-33.5 77t-13.5 104.5v673h303v-600q0 -88 78 -88h76v-280z" />
    <glyph glyph-name="upsilondieresis" unicode="&#x3cb;" horiz-adv-x="1155" 
d="M305 1159q-63 0 -108 42.5t-45 103.5q0 60 45 101.5t108 41.5q62 0 106 -41.5t44 -101.5q0 -61 -44 -103.5t-106 -42.5zM743 1159q-65 0 -110 42.5t-45 103.5q0 60 45 101.5t110 41.5q62 0 105 -41.5t43 -101.5q0 -61 -43 -103.5t-105 -42.5zM586 -25q-199 0 -336 128.5
t-137 342.5v510h303v-491q0 -105 50.5 -157t119.5 -52t124.5 56t55.5 161q0 236 -107 483h293q119 -215 119 -510q0 -95 -26 -174t-71.5 -133t-107.5 -91.5t-132 -55t-148 -17.5z" />
    <glyph glyph-name="omicrontonos" unicode="&#x3cc;" horiz-adv-x="1179" 
d="M668 1118h-205l190 350h293zM590 -25q-102 0 -196 36.5t-165.5 101t-114 159.5t-42.5 205q0 89 27.5 168.5t76.5 140t114 105t142 67.5t158 23q102 0 196 -36.5t166 -101t115 -160.5t43 -206t-43 -205t-115 -159.5t-166 -101t-196 -36.5zM590 256q89 0 150 62t61 159
t-61 160t-150 63t-150 -63t-61 -160t61 -159t150 -62z" />
    <glyph glyph-name="upsilontonos" unicode="&#x3cd;" horiz-adv-x="1155" 
d="M604 1120h-207l191 350h293zM586 -25q-199 0 -336 128.5t-137 342.5v510h303v-491q0 -105 50.5 -157t119.5 -52t124.5 56t55.5 161q0 236 -107 483h293q119 -215 119 -510q0 -95 -26 -174t-71.5 -133t-107.5 -91.5t-132 -55t-148 -17.5z" />
    <glyph glyph-name="omegatonos" unicode="&#x3ce;" horiz-adv-x="1554" 
d="M872 1120h-206l190 350h293zM457 -25q-167 0 -273 143t-106 351q0 225 143 487h287q-121 -269 -121 -456q0 -116 44 -179t106 -63q48 0 76 47.5t28 122.5v293h272v-293q0 -75 28 -122.5t77 -47.5q62 0 105.5 63t43.5 179q0 190 -120 456h286q144 -263 144 -487
q0 -208 -106 -351t-273 -143q-106 0 -193.5 39.5t-124.5 104.5h-6q-37 -65 -124 -104.5t-193 -39.5z" />
    <glyph glyph-name="uni03CF" unicode="&#x3cf;" horiz-adv-x="1294" 
d="M1233 1411l-469 -698l547 -713l-97 -334h-288l67 223l-510 666v-555h-321v1411h321v-569l367 569h383z" />
    <glyph glyph-name="uni03D7" unicode="&#x3d7;" horiz-adv-x="1128" 
d="M905 678l-194 -189l397 -489l-96 -334h-291l74 248l-367 457v-371h-301v956h301v-399l365 399h235v-278h-123z" />
    <glyph glyph-name="uni0400" unicode="&#x400;" horiz-adv-x="1185" 
d="M514 1927l193 -350h-207l-279 350h293zM483 551v-270h602v-281h-923v1411h905v-281h-584v-290h512v-289h-512z" />
    <glyph glyph-name="uni0401" unicode="&#x401;" horiz-adv-x="1185" 
d="M377 1614q-64 0 -109 42t-45 103q0 60 45.5 102t108.5 42q62 0 105.5 -42t43.5 -102q0 -61 -43.5 -103t-105.5 -42zM815 1614q-65 0 -110.5 42t-45.5 103q0 60 45.5 102t110.5 42q62 0 105 -42t43 -102q0 -61 -43 -103t-105 -42zM483 551v-270h602v-281h-923v1411h905
v-281h-584v-290h512v-289h-512z" />
    <glyph glyph-name="uni0402" unicode="&#x402;" horiz-adv-x="1570" 
d="M1022 924q215 0 345 -128.5t130 -342.5q-2 -215 -128.5 -340t-367.5 -125h-65v301h51q97 1 142 45t45 119q0 165 -218 165q-110 0 -221 -18v-600h-321v1130h-373v281h1130v-281h-436v-227q168 21 287 21z" />
    <glyph glyph-name="uni0403" unicode="&#x403;" horiz-adv-x="999" 
d="M635 1577h-207l190 350h293zM162 0v1411h794v-281h-473v-1130h-321z" />
    <glyph glyph-name="uni0404" unicode="&#x404;" horiz-adv-x="1452" 
d="M809 279q214 0 332 184l250 -174q-99 -144 -255.5 -229t-338.5 -85q-146 0 -279 58.5t-229 157.5t-152.5 234.5t-56.5 283.5q0 146 56.5 280.5t152.5 232.5t229 156t279 58q182 0 338.5 -85t255.5 -229l-250 -174q-119 185 -330 185q-140 0 -245 -81.5t-144 -211.5h565
v-289h-557q42 -122 143 -197t236 -75z" />
    <glyph glyph-name="uni0405" unicode="&#x405;" horiz-adv-x="1202" 
d="M598 -25q-226 0 -368 121t-142 316h322q0 -67 58 -113.5t142 -46.5q80 0 132.5 39t52.5 106q0 46 -34.5 82.5t-121.5 65.5l-168 51q-89 24 -157.5 62t-108 79t-64 90.5t-33 91t-8.5 85.5q0 125 65.5 224t179.5 153.5t253 54.5q208 0 342.5 -118t134.5 -319h-321
q0 67 -41.5 111.5t-120.5 44.5q-73 0 -119.5 -42.5t-46.5 -102.5q0 -90 139 -129l148 -47q67 -20 120 -42.5t108.5 -58t92.5 -78.5t60.5 -105t23.5 -136q0 -109 -44.5 -195.5t-119.5 -138.5t-165.5 -78.5t-190.5 -26.5z" />
    <glyph glyph-name="uni0406" unicode="&#x406;" horiz-adv-x="647" 
d="M483 0h-321v1411h321v-1411z" />
    <glyph glyph-name="uni0407" unicode="&#x407;" horiz-adv-x="647" 
d="M106 1614q-63 0 -108 42t-45 103q0 60 45 102t108 42t106.5 -42t43.5 -102q0 -61 -43.5 -103t-106.5 -42zM545 1614q-64 0 -109 42t-45 103q0 60 45.5 102t108.5 42q62 0 105.5 -42t43.5 -102q0 -61 -43.5 -103t-105.5 -42zM483 0h-321v1411h321v-1411z" />
    <glyph glyph-name="uni0408" unicode="&#x408;" horiz-adv-x="663" 
d="M33 -483q-108 0 -217 34l28 291q60 -22 189 -22q74 0 109.5 49.5t35.5 128.5v1413h322v-1413q0 -101 -25.5 -185.5t-79 -152t-146 -105.5t-216.5 -38z" />
    <glyph glyph-name="uni0409" unicode="&#x409;" horiz-adv-x="2144" 
d="M1360 915h227q244 0 374 -126t130 -322q0 -92 -30 -174.5t-87 -148.5t-150 -105t-210 -39h-576v1130h-327l-58 -569q-29 -292 -136 -426.5t-312 -134.5h-133v281h39q72 0 113 25.5t67 96.5t39 207l80 801h950v-496zM1360 281h209q96 0 147 53t51 129q0 77 -51.5 131.5
t-146.5 54.5h-209v-368z" />
    <glyph glyph-name="uni040A" unicode="&#x40a;" horiz-adv-x="2021" 
d="M1239 915h227q123 0 220.5 -35t158.5 -96.5t93 -142t32 -174.5q0 -92 -30 -174.5t-87.5 -148.5t-151 -105t-210.5 -39h-573v557h-435v-557h-321v1411h321v-565h435v565h321v-496zM1239 281h207q96 0 148.5 53t52.5 129t-52.5 131t-148.5 55h-207v-368z" />
    <glyph glyph-name="uni040B" unicode="&#x40b;" horiz-adv-x="1562" 
d="M1028 911q234 0 348.5 -135.5t114.5 -425.5v-350h-322v342q0 82 -15.5 136.5t-48 84t-73 41.5t-98.5 12q-100 0 -199 -18v-598h-321v1130h-373v281h1130v-281h-436v-243q144 24 293 24z" />
    <glyph glyph-name="uni040C" unicode="&#x40c;" horiz-adv-x="1329" 
d="M737 1927h293l-276 -350h-207zM1319 0h-395l-332 520h-109v-520h-321v1411h321v-571h101l325 571h373l-414 -706z" />
    <glyph glyph-name="uni040D" unicode="&#x40d;" horiz-adv-x="1390" 
d="M616 1927l191 -350h-207l-276 350h292zM483 610l453 801h293v-1411h-322v811l-461 -811h-284v1411h321v-801z" />
    <glyph glyph-name="uni040E" unicode="&#x40e;" horiz-adv-x="1353" 
d="M680 1608q-124 0 -200.5 74t-76.5 194h179q0 -46 27 -75t71 -29q43 0 69.5 29t26.5 75h182q0 -120 -76 -194t-202 -74zM692 743l324 668h358l-731 -1411h-352l233 438l-538 973h352z" />
    <glyph glyph-name="uni040F" unicode="&#x40f;" horiz-adv-x="1406" 
d="M924 1411h321v-1411h-379v-346h-323v346h-381v1411h321v-1130h441v1130z" />
    <glyph glyph-name="uni0410" unicode="&#x410;" horiz-adv-x="1357" 
d="M1376 0h-342l-106 328h-496l-104 -328h-344l522 1411h350zM678 1104l-158 -498h318z" />
    <glyph glyph-name="uni0411" unicode="&#x411;" horiz-adv-x="1290" 
d="M483 915h228q244 0 373.5 -126t129.5 -322q0 -92 -30 -174.5t-87 -148.5t-150 -105t-210 -39h-575v1411h880v-281h-559v-215zM483 281h209q96 0 147.5 53t51.5 129q0 77 -52 131.5t-147 54.5h-209v-368z" />
    <glyph glyph-name="uni0412" unicode="&#x412;" horiz-adv-x="1312" 
d="M958 754q132 -19 202.5 -118t70.5 -230q0 -60 -15.5 -116.5t-50.5 -109.5t-86.5 -92.5t-130 -63.5t-174.5 -24h-612v1411h571q191 0 307.5 -102.5t116.5 -261.5q0 -41 -9 -81.5t-29.5 -83.5t-61.5 -77t-99 -51zM836 995q0 58 -31.5 96.5t-93.5 38.5h-228v-270h226
q58 0 92.5 35.5t34.5 99.5zM483 281h252q82 0 127 46t45 111q0 63 -44 110.5t-128 47.5h-252v-315z" />
    <glyph glyph-name="uni0413" unicode="&#x413;" horiz-adv-x="999" 
d="M162 0v1411h794v-281h-473v-1130h-321z" />
    <glyph glyph-name="uni0414" unicode="&#x414;" horiz-adv-x="1542" 
d="M1325 1411v-1130h123v-627h-324v346h-737v-346h-321v584h20q110 0 164 112t84 385l76 676h915zM715 1130l-60 -479q-17 -135 -43.5 -226t-81.5 -144h474v849h-289z" />
    <glyph glyph-name="uni0415" unicode="&#x415;" horiz-adv-x="1185" 
d="M483 551v-270h602v-281h-923v1411h905v-281h-584v-290h512v-289h-512z" />
    <glyph glyph-name="uni0416" unicode="&#x416;" horiz-adv-x="1998" 
d="M2005 0h-424l-340 524h-82v-524h-321v524h-80l-342 -524h-422l495 713l-430 698h385l332 -569h62v569h321v-569h64l331 569h385l-430 -698z" />
    <glyph glyph-name="uni0417" unicode="&#x417;" horiz-adv-x="1130" 
d="M805 754q117 -41 180.5 -132.5t63.5 -218.5q0 -125 -71 -223t-196.5 -151.5t-285.5 -53.5q-123 0 -245 32t-206 85l115 268q65 -37 152 -59t169 -22q109 0 176.5 44.5t67.5 116.5q0 74 -68 120t-178 46h-172v252h88q117 0 187.5 41t70.5 109q0 56 -49.5 90.5t-128.5 34.5
q-66 0 -150 -21t-155 -55l-92 256q101 56 222.5 89.5t227.5 33.5q196 0 322.5 -111t126.5 -276q0 -98 -43 -175t-129 -120z" />
    <glyph glyph-name="uni0418" unicode="&#x418;" horiz-adv-x="1390" 
d="M483 610l453 801h293v-1411h-322v811l-461 -811h-284v1411h321v-801z" />
    <glyph glyph-name="uni0419" unicode="&#x419;" horiz-adv-x="1390" 
d="M696 1608q-126 0 -202 74t-76 194h178q0 -46 28 -75t72 -29q41 0 68 29t27 75h182q0 -120 -76.5 -194t-200.5 -74zM483 610l453 801h293v-1411h-322v811l-461 -811h-284v1411h321v-801z" />
    <glyph glyph-name="uni041A" unicode="&#x41a;" horiz-adv-x="1329" 
d="M1319 0h-395l-332 520h-109v-520h-321v1411h321v-571h101l325 571h373l-414 -706z" />
    <glyph glyph-name="uni041B" unicode="&#x41b;" horiz-adv-x="1490" 
d="M330 610l90 801h909v-1411h-321v1130h-283l-68 -559q-36 -295 -143.5 -433t-310.5 -138h-133v281h30q72 0 114 25.5t71 97t45 206.5z" />
    <glyph glyph-name="uni041C" unicode="&#x41c;" horiz-adv-x="1884" 
d="M1624 1411l172 -1411h-330l-92 803l-307 -641h-246l-307 639l-94 -801h-330l174 1411h268l412 -883l406 883h274z" />
    <glyph glyph-name="uni041D" unicode="&#x41d;" horiz-adv-x="1433" 
d="M948 846v565h322v-1411h-322v557h-465v-557h-321v1411h321v-565h465z" />
    <glyph glyph-name="uni041E" unicode="&#x41e;" horiz-adv-x="1599" 
d="M801 -25q-148 0 -282 58.5t-230 157.5t-152.5 234t-56.5 282q0 197 95.5 364.5t261.5 266t364 98.5q117 0 227 -37t198 -105t154.5 -157.5t103 -200.5t36.5 -229q0 -147 -57 -282t-153 -234t-229.5 -157.5t-279.5 -58.5zM799 279q174 0 285.5 124t111.5 304t-111.5 303
t-285.5 123q-175 0 -285.5 -122.5t-110.5 -303.5t110.5 -304.5t285.5 -123.5z" />
    <glyph glyph-name="uni041F" unicode="&#x41f;" horiz-adv-x="1404" 
d="M162 0v1411h1079v-1411h-321v1124h-437v-1124h-321z" />
    <glyph glyph-name="uni0420" unicode="&#x420;" horiz-adv-x="1269" 
d="M162 1411h581q118 0 212 -40t150 -107t85 -148.5t29 -171.5q0 -91 -29 -172.5t-85.5 -148t-149.5 -105.5t-212 -39h-260v-479h-321v1411zM483 760h246q84 0 125 54t41 130t-40.5 131t-123.5 55h-248v-370z" />
    <glyph glyph-name="uni0421" unicode="&#x421;" horiz-adv-x="1437" 
d="M797 -25q-146 0 -279 58.5t-229 157.5t-152.5 234.5t-56.5 283.5q0 146 56.5 280.5t152.5 232.5t229 156t279 58q182 0 338.5 -85t255.5 -229l-250 -174q-119 185 -330 185q-176 0 -292 -123.5t-116 -300.5q0 -116 50.5 -214t144 -157t211.5 -59q214 0 332 184l250 -174
q-99 -144 -255.5 -229t-338.5 -85z" />
    <glyph glyph-name="uni0422" unicode="&#x422;" horiz-adv-x="1148" 
d="M41 1411h1067v-281h-373v-1130h-321v1130h-373v281z" />
    <glyph glyph-name="uni0423" unicode="&#x423;" horiz-adv-x="1353" 
d="M692 743l324 668h358l-731 -1411h-352l233 438l-538 973h352z" />
    <glyph glyph-name="uni0424" unicode="&#x424;" horiz-adv-x="1796" 
d="M1049 1411v-137q346 -27 509.5 -175.5t161.5 -396.5q0 -246 -163.5 -394t-507.5 -175v-133h-299v133q-345 27 -509.5 175t-164.5 394q0 247 164.5 396t509.5 176v137h299zM1397 702q3 110 -81.5 178.5t-266.5 88.5v-531q348 38 348 264zM399 702q0 -226 351 -264v531
q-351 -38 -351 -267z" />
    <glyph glyph-name="uni0425" unicode="&#x425;" horiz-adv-x="1363" 
d="M872 752l490 -752h-379l-301 496l-301 -496h-377l485 752l-444 659h389l248 -403l252 403h385z" />
    <glyph glyph-name="uni0426" unicode="&#x426;" horiz-adv-x="1462" 
d="M1245 1411v-1130h123v-627h-324v346h-882v1411h321v-1130h441v1130h321z" />
    <glyph glyph-name="uni0427" unicode="&#x427;" horiz-adv-x="1327" 
d="M842 758v653h321v-1411h-321v469q-150 -25 -291 -25q-234 0 -348.5 135.5t-114.5 424.5v407h322v-397q0 -158 58.5 -217.5t176.5 -59.5q81 0 197 21z" />
    <glyph glyph-name="uni0428" unicode="&#x428;" horiz-adv-x="1984" 
d="M1499 289v1122h322v-1411h-1659v1411h321v-1122h348v1122h322v-1122h346z" />
    <glyph glyph-name="uni0429" unicode="&#x429;" horiz-adv-x="2037" 
d="M1821 1411v-1130h123v-627h-324v346h-1458v1411h321v-1130h348v1130h322v-1130h346v1130h322z" />
    <glyph glyph-name="uni042A" unicode="&#x42a;" horiz-adv-x="1460" 
d="M678 915h227q244 0 374 -126t130 -322q0 -92 -30 -174.5t-87.5 -148.5t-151 -105t-210.5 -39h-574v1130h-315v281h637v-496zM678 281h209q96 0 147 53t51 129q0 77 -51.5 131.5t-146.5 54.5h-209v-368z" />
    <glyph glyph-name="uni042B" unicode="&#x42b;" horiz-adv-x="1904" 
d="M483 915h228q244 0 373.5 -126t129.5 -322q0 -92 -30 -174.5t-87 -148.5t-150 -105t-210 -39h-575v1411h321v-496zM1419 0v1411h322v-1411h-322zM483 281h209q96 0 147.5 53t51.5 129q0 77 -52 131.5t-147 54.5h-209v-368z" />
    <glyph glyph-name="uni042C" unicode="&#x42c;" horiz-adv-x="1267" 
d="M483 915h228q244 0 373.5 -126t129.5 -322q0 -92 -30 -174.5t-87 -148.5t-150 -105t-210 -39h-575v1411h321v-496zM483 281h209q96 0 147.5 53t51.5 129q0 77 -52 131.5t-147 54.5h-209v-368z" />
    <glyph glyph-name="uni042D" unicode="&#x42d;" horiz-adv-x="1452" 
d="M653 1436q147 0 280 -58t228.5 -156t152 -232.5t56.5 -280.5q0 -148 -56.5 -283.5t-152 -234.5t-228.5 -157.5t-280 -58.5q-181 0 -337 85t-255 229l248 174q122 -184 332 -184q136 0 237.5 75t143.5 197h-557v289h565q-39 130 -144 211.5t-245 81.5q-210 0 -332 -185
l-248 174q99 144 255 229t337 85z" />
    <glyph glyph-name="uni042E" unicode="&#x42e;" horiz-adv-x="2168" 
d="M1370 1430q196 0 361.5 -97t261.5 -263.5t96 -362.5t-96 -363t-261.5 -264.5t-361.5 -97.5q-261 0 -456.5 163t-247.5 412h-183v-557h-321v1411h321v-565h181q23 123 87.5 231t156.5 185.5t212 122.5t250 45zM1368 285q175 0 286 121t111 301q0 179 -111 299t-286 120
q-174 0 -283.5 -119.5t-109.5 -299.5t109.5 -301t283.5 -121z" />
    <glyph glyph-name="uni042F" unicode="&#x42f;" horiz-adv-x="1314" 
d="M575 1411h578v-1411h-322v496h-63l-324 -496h-374l360 514q-145 29 -237.5 152.5t-92.5 277.5q0 90 29 171.5t85 148.5t149.5 107t211.5 40zM627 750h204v380h-213q-92 0 -143 -58.5t-51 -135.5t52 -131.5t151 -54.5z" />
    <glyph glyph-name="uni0430" unicode="&#x430;" horiz-adv-x="1263" 
d="M834 842v114h303v-956h-303v121q-49 -67 -131 -106.5t-173 -39.5q-202 0 -329 139t-127 363q0 225 128 364.5t333 139.5q89 0 169.5 -37t129.5 -102zM604 256q91 0 155 66t64 155q0 94 -64.5 158.5t-156.5 64.5q-95 0 -157 -64.5t-62 -158.5q0 -90 62.5 -155.5
t158.5 -65.5z" />
    <glyph glyph-name="uni0431" unicode="&#x431;" horiz-adv-x="1206" 
d="M694 924q115 0 214 -55t162 -163t63 -247q0 -215 -144.5 -349.5t-376.5 -134.5q-238 0 -378 159t-140 466q0 135 27 249t84 211.5t155.5 165.5t233.5 99q63 14 111.5 46.5t64.5 64.5l229 -148q-12 -56 -71 -108t-166 -84q-175 -40 -256 -116.5t-100 -182.5
q42 56 125.5 91.5t162.5 35.5zM612 244q94 0 152.5 60t58.5 155t-58.5 154t-152.5 59q-93 0 -152 -59t-59 -154q0 -94 59.5 -154.5t151.5 -60.5z" />
    <glyph glyph-name="uni0432" unicode="&#x432;" horiz-adv-x="1146" 
d="M866 508q86 -9 147.5 -74t61.5 -155q0 -34 -6.5 -65t-21.5 -63.5t-42.5 -59t-65 -47.5t-93.5 -32.5t-125 -11.5h-594v956h590q146 0 225.5 -70t79.5 -169q0 -27 -5.5 -54t-20.5 -60.5t-48.5 -59.5t-81.5 -35zM733 645q0 27 -17.5 45.5t-45.5 18.5h-240v-129h240
q28 0 45.5 19.5t17.5 45.5zM430 258h260q37 0 59.5 19.5t22.5 48.5q0 30 -22.5 50.5t-59.5 20.5h-260v-139z" />
    <glyph glyph-name="uni0433" unicode="&#x433;" horiz-adv-x="868" 
d="M127 956h698v-280h-395v-676h-303v956z" />
    <glyph glyph-name="uni0434" unicode="&#x434;" horiz-adv-x="1243" 
d="M1079 956v-788h92v-436h-305v268h-524v-268h-303v487h45q40 0 66 18t45 64t33.5 105.5t35.5 161.5q3 15 4 22l74 366h737zM776 676h-162l-39 -170q-15 -67 -22 -95t-25 -74.5t-41 -72.5h289v412z" />
    <glyph glyph-name="uni0435" unicode="&#x435;" horiz-adv-x="1157" 
d="M1092 498q0 -12 -1 -28t-2 -39.5t-2 -41.5h-700q22 -70 80 -109.5t143 -39.5q66 0 131.5 27t110.5 71l156 -197q-70 -76 -183.5 -121t-234.5 -45q-227 0 -371.5 140.5t-144.5 359.5q0 114 42 210t112.5 160t163.5 100t196 36q137 0 251.5 -59t183.5 -170.5t69 -253.5z
M385 567h406q-3 70 -59 114t-138 44q-74 0 -130.5 -38.5t-78.5 -119.5z" />
    <glyph glyph-name="uni0436" unicode="&#x436;" horiz-adv-x="1640" 
d="M1618 0h-365l-198 330h-94v-330h-281v330h-94l-199 -330h-367l318 483l-293 473h332l221 -370h82v370h281v-370h79l222 370h333l-295 -473z" />
    <glyph glyph-name="uni0437" unicode="&#x437;" horiz-adv-x="956" 
d="M717 504q77 -29 124.5 -87.5t47.5 -137.5q0 -140 -118.5 -222t-332.5 -82q-95 0 -211 20.5t-172 49.5l68 231q51 -22 121 -37.5t127 -15.5q90 0 142 22t52 66q0 80 -149 80h-193v180h160q58 0 93.5 23.5t35.5 58.5q0 72 -147 72q-51 0 -118 -11t-104 -28l-82 225
q67 30 183.5 50t206.5 20q181 0 281 -75t102 -199q-2 -63 -32.5 -117t-84.5 -86z" />
    <glyph glyph-name="uni0438" unicode="&#x438;" horiz-adv-x="1222" 
d="M430 467l426 489h240v-956h-303v502l-435 -502h-231v956h303v-489z" />
    <glyph glyph-name="uni0439" unicode="&#x439;" horiz-adv-x="1222" 
d="M537 1157q-126 0 -201.5 74t-75.5 194h176q0 -46 28.5 -75t72.5 -29q42 0 68 29t26 75h182q0 -120 -76 -194t-200 -74zM430 467l426 489h240v-956h-303v502l-435 -502h-231v956h303v-489z" />
    <glyph glyph-name="uni043A" unicode="&#x43a;" horiz-adv-x="1132" 
d="M1100 0h-365l-178 330h-137v-330h-293v956h293v-370h123l200 370h334l-272 -473z" />
    <glyph glyph-name="uni043B" unicode="&#x43b;" horiz-adv-x="1177" 
d="M250 485l51 471h750v-956h-303v676h-170l-25 -240q-25 -231 -109 -333.5t-245 -102.5h-154v262h45q53 0 80.5 13t48 61.5t31.5 148.5z" />
    <glyph glyph-name="uni043C" unicode="&#x43c;" horiz-adv-x="1460" 
d="M1251 956l135 -956h-317l-51 430l-174 -336h-226l-176 340l-51 -434h-317l135 956h250l272 -532l266 532h254z" />
    <glyph glyph-name="uni043D" unicode="&#x43d;" horiz-adv-x="1210" 
d="M780 600v356h303v-956h-303v348h-350v-348h-303v956h303v-356h350z" />
    <glyph glyph-name="uni043E" unicode="&#x43e;" horiz-adv-x="1179" 
d="M590 -25q-102 0 -196 36.5t-165.5 101t-114 159.5t-42.5 205q0 89 27.5 168.5t76.5 140t114 105t142 67.5t158 23q102 0 196 -36.5t166 -101t115 -160.5t43 -206t-43 -205t-115 -159.5t-166 -101t-196 -36.5zM590 256q89 0 150 62t61 159t-61 160t-150 63t-150 -63
t-61 -160t61 -159t150 -62z" />
    <glyph glyph-name="uni043F" unicode="&#x43f;" horiz-adv-x="1210" 
d="M127 0v956h956v-956h-303v676h-350v-676h-303z" />
    <glyph glyph-name="uni0440" unicode="&#x440;" horiz-adv-x="1261" 
d="M725 981q90 0 174 -36t148.5 -99.5t103.5 -159t39 -207.5t-39 -208.5t-103.5 -160t-148.5 -99.5t-174 -36q-80 0 -163 33.5t-132 97.5v-577h-303v1427h303v-102q49 62 132 94.5t163 32.5zM662 256q90 0 155.5 65.5t65.5 157.5q0 90 -65.5 155.5t-155.5 65.5
q-89 0 -155.5 -65t-66.5 -156q0 -92 67 -157.5t155 -65.5z" />
    <glyph glyph-name="uni0441" unicode="&#x441;" horiz-adv-x="1071" 
d="M598 -25q-104 0 -200 37t-168.5 102t-116 160.5t-43.5 206.5t43.5 205.5t116 158.5t168.5 100t200 36q134 0 240 -60t178 -165l-236 -148q-27 42 -78 67t-102 25q-101 0 -161 -63t-60 -156q0 -94 60 -159.5t161 -65.5q51 0 102 25t78 67l236 -147q-72 -106 -178.5 -166
t-239.5 -60z" />
    <glyph glyph-name="uni0442" unicode="&#x442;" horiz-adv-x="974" 
d="M45 956h885v-280h-291v-676h-303v676h-291v280z" />
    <glyph glyph-name="uni0443" unicode="&#x443;" horiz-adv-x="1054" 
d="M537 461l194 495h326l-590 -1427h-324l236 586l-377 841h336z" />
    <glyph glyph-name="uni0444" unicode="&#x444;" horiz-adv-x="1472" 
d="M877 1477v-504q262 -28 395 -162.5t131 -337.5q0 -201 -132 -332t-394 -159v-453h-279v453q-263 28 -395.5 159t-132.5 332q0 203 133 337.5t395 162.5v504h279zM379 473q0 -77 54.5 -130.5t164.5 -74.5v420q-109 -23 -164 -79.5t-55 -135.5zM1094 473q2 79 -53 135.5
t-164 79.5v-420q108 21 162.5 74.5t54.5 130.5z" />
    <glyph glyph-name="uni0445" unicode="&#x445;" horiz-adv-x="1089" 
d="M713 516l374 -516h-352l-190 279l-191 -279h-354l377 516l-316 440h355l133 -194l127 194h352z" />
    <glyph glyph-name="uni0446" unicode="&#x446;" horiz-adv-x="1284" 
d="M1061 956v-675h141v-549h-284v268h-791v956h303v-675h330v675h301z" />
    <glyph glyph-name="uni0447" unicode="&#x447;" horiz-adv-x="1112" 
d="M682 559v397h303v-956h-303v299q-119 -25 -221 -25q-203 0 -297 99t-94 309v274h303v-254q0 -83 33.5 -118t132.5 -35q55 0 143 10z" />
    <glyph glyph-name="uni0448" unicode="&#x448;" horiz-adv-x="1601" 
d="M1171 281v675h304v-956h-1348v956h303v-675h227v675h287v-675h227z" />
    <glyph glyph-name="uni0449" unicode="&#x449;" horiz-adv-x="1687" 
d="M1475 956v-675h131v-549h-285v268h-1194v956h303v-675h227v675h287v-675h227v675h304z" />
    <glyph glyph-name="uni044A" unicode="&#x44a;" 
d="M567 680h273q165 0 264.5 -95.5t99.5 -240.5q0 -149 -99 -246.5t-263 -97.5h-578v698h-221v258h524v-276zM567 264h238q45 0 70.5 24t25.5 56q0 33 -25.5 57.5t-70.5 24.5h-238v-162z" />
    <glyph glyph-name="uni044B" unicode="&#x44b;" horiz-adv-x="1576" 
d="M430 680h248q165 0 264.5 -95.5t99.5 -240.5q0 -149 -99 -246.5t-263 -97.5h-553v956h303v-276zM1147 0v956h303v-956h-303zM430 264h213q45 0 70.5 24t25.5 56q0 33 -25.5 57.5t-70.5 24.5h-213v-162z" />
    <glyph glyph-name="uni044C" unicode="&#x44c;" horiz-adv-x="1118" 
d="M430 680h275q165 0 265.5 -96t100.5 -240q0 -149 -100 -246.5t-264 -97.5h-580v956h303v-276zM430 264h240q45 0 70.5 24t25.5 56q0 33 -25.5 57.5t-70.5 24.5h-240v-162z" />
    <glyph glyph-name="uni044D" unicode="&#x44d;" horiz-adv-x="1060" 
d="M467 981q227 0 373.5 -142.5t146.5 -357.5q0 -217 -146.5 -361.5t-373.5 -144.5q-119 0 -230.5 41t-181.5 111l152 203q100 -90 239 -90q78 0 134.5 36t81.5 97h-326v209h330q-27 63 -83.5 99t-136.5 36q-139 0 -239 -90l-152 202q70 70 181.5 111t230.5 41z" />
    <glyph glyph-name="uni044E" unicode="&#x44e;" horiz-adv-x="1650" 
d="M1061 981q102 0 196 -36.5t165.5 -100.5t114 -159t42.5 -206q0 -146 -73 -263t-191 -179t-254 -62q-173 0 -311 99.5t-183 263.5h-137v-338h-303v956h303v-348h135q41 169 180 271t316 102zM1061 256q89 0 150 63t61 160t-61 159t-150 62q-90 0 -150.5 -62t-60.5 -159
t60.5 -160t150.5 -63z" />
    <glyph glyph-name="uni044F" unicode="&#x44f;" horiz-adv-x="1150" 
d="M459 956h565v-956h-303v303h-100l-201 -303h-350l227 326q-109 31 -162 104t-53 172q0 68 24 130t69 112.5t118.5 81t165.5 30.5zM494 522h227v158h-229q-47 0 -75 -22t-28 -58q0 -34 28 -56t77 -22z" />
    <glyph glyph-name="uni0450" unicode="&#x450;" horiz-adv-x="1157" 
d="M498 1470l190 -350h-207l-276 350h293zM1092 498q0 -12 -1 -28t-2 -39.5t-2 -41.5h-700q22 -70 80 -109.5t143 -39.5q66 0 131.5 27t110.5 71l156 -197q-70 -76 -183.5 -121t-234.5 -45q-227 0 -371.5 140.5t-144.5 359.5q0 114 42 210t112.5 160t163.5 100t196 36
q137 0 251.5 -59t183.5 -170.5t69 -253.5zM385 567h406q-3 70 -59 114t-138 44q-74 0 -130.5 -38.5t-78.5 -119.5z" />
    <glyph glyph-name="uni0451" unicode="&#x451;" horiz-adv-x="1157" 
d="M358 1157q-63 0 -108 42.5t-45 103.5q0 60 45 101.5t108 41.5t106.5 -41.5t43.5 -101.5q0 -61 -43.5 -103.5t-106.5 -42.5zM799 1157q-65 0 -110.5 42.5t-45.5 103.5q0 60 45.5 101.5t110.5 41.5q62 0 104.5 -41.5t42.5 -101.5q0 -61 -42.5 -103.5t-104.5 -42.5z
M1092 498q0 -12 -1 -28t-2 -39.5t-2 -41.5h-700q22 -70 80 -109.5t143 -39.5q66 0 131.5 27t110.5 71l156 -197q-70 -76 -183.5 -121t-234.5 -45q-227 0 -371.5 140.5t-144.5 359.5q0 114 42 210t112.5 160t163.5 100t196 36q137 0 251.5 -59t183.5 -170.5t69 -253.5z
M385 567h406q-3 70 -59 114t-138 44q-74 0 -130.5 -38.5t-78.5 -119.5z" />
    <glyph glyph-name="uni0452" unicode="&#x452;" horiz-adv-x="1198" 
d="M705 926q188 0 283 -121t95 -346v-463q-2 -216 -128 -341.5t-367 -125.5h-39v281h45q96 0 141 44t45 119v467q0 102 -50.5 153.5t-115.5 51.5q-34 0 -64 -9.5t-58.5 -31.5t-45 -64t-16.5 -100v-440h-303v1116h-143v160h143v201h303v-201h315v-160h-315v-364
q24 82 110.5 128t164.5 46z" />
    <glyph glyph-name="uni0453" unicode="&#x453;" horiz-adv-x="868" 
d="M514 1470h291l-277 -350h-206zM127 956h698v-280h-395v-676h-303v956z" />
    <glyph glyph-name="uni0454" unicode="&#x454;" horiz-adv-x="1060" 
d="M614 240q65 0 128.5 24t109.5 66l154 -203q-72 -70 -182.5 -111t-229.5 -41q-228 0 -375 144.5t-147 361.5q0 215 146.5 357.5t375.5 142.5q119 0 229.5 -41t182.5 -111l-154 -202q-46 42 -109.5 66t-128.5 24q-80 0 -137 -36t-84 -99h332v-209h-328q27 -62 83 -97.5
t134 -35.5z" />
    <glyph glyph-name="uni0455" unicode="&#x455;" horiz-adv-x="974" 
d="M489 -25q-81 0 -155 22t-132.5 63t-93 105.5t-34.5 143.5h286q0 -40 30.5 -71t90.5 -31q48 0 82.5 22.5t34.5 55.5q0 23 -20 36t-74 25l-125 33q-58 16 -104.5 37.5t-76 43.5t-51 50t-32.5 50t-17 50t-7 45t-1 39q0 111 112 199t279 88q57 0 111 -10.5t107 -35
t92.5 -60.5t63 -92.5t22.5 -125.5h-287q0 44 -28.5 68.5t-74.5 24.5q-40 0 -67 -18t-27 -48q0 -50 82 -70l166 -45q68 -19 118.5 -49t77 -59.5t42 -65.5t19 -59.5t3.5 -48.5q0 -61 -24.5 -113t-65 -88t-94 -61.5t-111.5 -37.5t-117 -12z" />
    <glyph glyph-name="uni0456" unicode="&#x456;" horiz-adv-x="557" 
d="M279 1100q-77 0 -133 52t-56 124q0 74 56 125t133 51t130.5 -50.5t53.5 -125.5q0 -72 -54 -124t-130 -52zM430 0h-303v956h303v-956z" />
    <glyph glyph-name="uni0457" unicode="&#x457;" horiz-adv-x="557" 
d="M61 1163q-63 0 -108 42.5t-45 103.5t45 103t108 42t106.5 -42t43.5 -103t-43.5 -103.5t-106.5 -42.5zM500 1163q-63 0 -108.5 42.5t-45.5 103.5t45 103t109 42q63 0 106 -42t43 -103q0 -62 -43 -104t-106 -42zM430 0h-303v956h303v-956z" />
    <glyph glyph-name="uni0458" unicode="&#x458;" horiz-adv-x="573" 
d="M295 1100q-75 0 -130.5 52t-55.5 124q0 74 55 125t131 51q78 0 132 -50.5t54 -125.5q0 -72 -54 -124t-132 -52zM6 -471h-125v272h121q66 0 103.5 48.5t37.5 130.5v976h303v-966q0 -224 -115.5 -342.5t-324.5 -118.5z" />
    <glyph glyph-name="uni0459" unicode="&#x459;" horiz-adv-x="1705" 
d="M1018 680h274q165 0 265 -96t100 -240q0 -149 -99.5 -246.5t-263.5 -97.5h-579v676h-135l-27 -240q-25 -231 -109 -333.5t-245 -102.5h-154v262h45q53 0 80.5 13t48 61.5t31.5 148.5l51 471h717v-276zM1018 264h239q45 0 71 24t26 56q0 33 -26 57.5t-71 24.5h-239v-162z
" />
    <glyph glyph-name="uni045A" unicode="&#x45a;" horiz-adv-x="1734" 
d="M1049 680h274q165 0 265 -96t100 -240q0 -149 -99.5 -246.5t-263.5 -97.5h-580v348h-315v-348h-303v956h303v-356h315v356h304v-276zM1049 264h239q45 0 70.5 24t25.5 56q0 33 -25.5 57.5t-70.5 24.5h-239v-162z" />
    <glyph glyph-name="uni045B" unicode="&#x45b;" horiz-adv-x="1198" 
d="M705 926q188 0 283 -121t95 -346v-459h-303v440q0 102 -50.5 153.5t-115.5 51.5q-34 0 -64 -9.5t-58.5 -31.5t-45 -64t-16.5 -100v-440h-303v1116h-143v160h143v201h303v-201h315v-160h-315v-366q16 57 67.5 99t106 59.5t101.5 17.5z" />
    <glyph glyph-name="uni045C" unicode="&#x45c;" horiz-adv-x="1132" 
d="M647 1477h293l-276 -351h-207zM1100 0h-365l-178 330h-137v-330h-293v956h293v-370h123l200 370h334l-272 -473z" />
    <glyph glyph-name="uni045D" unicode="&#x45d;" horiz-adv-x="1222" 
d="M457 1477l190 -351h-205l-278 351h293zM430 467l426 489h240v-956h-303v502l-435 -502h-231v956h303v-489z" />
    <glyph glyph-name="uni045E" unicode="&#x45e;" horiz-adv-x="1054" 
d="M535 1151q-126 0 -202.5 74t-76.5 196h178q0 -47 28.5 -76.5t72.5 -29.5q41 0 67.5 29.5t26.5 76.5h182q0 -122 -76 -196t-200 -74zM537 461l194 495h326l-590 -1427h-324l236 586l-377 841h336z" />
    <glyph glyph-name="uni045F" unicode="&#x45f;" horiz-adv-x="1187" 
d="M760 956h301v-956h-324v-268h-284v268h-326v956h303v-675h330v675z" />
    <glyph glyph-name="uni0462" unicode="&#x462;" horiz-adv-x="1388" 
d="M590 915h227q244 0 374 -126t130 -322q0 -92 -30 -174.5t-87.5 -148.5t-151 -105t-210.5 -39h-574v1047h-217v215h217v149h322v-149h307v-215h-307v-132zM590 281h209q96 0 147 53t51 129q0 77 -51.5 131.5t-146.5 54.5h-209v-368z" />
    <glyph glyph-name="uni0463" unicode="&#x463;" horiz-adv-x="1132" 
d="M444 680h275q165 0 265.5 -96t100.5 -240q0 -149 -100 -246.5t-264 -97.5h-580v971h-231v157h231v349h303v-349h316v-157h-316v-291zM444 264h240q45 0 70.5 24t25.5 56q0 33 -25.5 57.5t-70.5 24.5h-240v-162z" />
    <glyph glyph-name="uni0472" unicode="&#x472;" horiz-adv-x="1599" 
d="M801 1436q117 0 227 -37t198 -105t154.5 -157.5t103 -200.5t36.5 -229q0 -147 -57 -282t-153 -234t-229.5 -157.5t-279.5 -58.5q-148 0 -282 58.5t-230 157.5t-152.5 234t-56.5 282q0 197 95.5 364.5t261.5 266t364 98.5zM799 1133q-140 0 -241.5 -81.5t-137.5 -213.5
h758q-36 132 -137.5 213.5t-241.5 81.5zM799 279q138 0 239.5 81.5t139.5 212.5h-756q36 -131 137 -212.5t240 -81.5z" />
    <glyph glyph-name="uni0473" unicode="&#x473;" horiz-adv-x="1179" 
d="M590 981q102 0 196 -36.5t166 -101t115 -160.5t43 -206t-43 -205t-115 -159.5t-166 -101t-196 -36.5t-196 36.5t-165.5 101t-114 159.5t-42.5 205q0 89 27.5 168.5t76.5 140t114 105t142 67.5t158 23zM590 700q-68 0 -121.5 -38.5t-75.5 -102.5h393q-22 64 -75 102.5
t-121 38.5zM590 256q69 0 122.5 38.5t75.5 104.5h-397q22 -66 76 -104.5t123 -38.5z" />
    <glyph glyph-name="uni0474" unicode="&#x474;" horiz-adv-x="1327" 
d="M745 0h-284l-430 1411h334l237 -893l148 551q94 352 428 352h90v-286h-64q-59 0 -96 -28t-55 -91z" />
    <glyph glyph-name="uni0475" unicode="&#x475;" horiz-adv-x="1101" 
d="M1008 981h47v-287h-35q-100 0 -154 -119l-221 -575h-264l-377 956h330l180 -550l68 223q22 63 46.5 112.5t60.5 96t80 77t104.5 48.5t134.5 18z" />
    <glyph glyph-name="uni0490" unicode="&#x490;" horiz-adv-x="999" 
d="M676 1739h282l-2 -609h-473v-1130h-321v1411h514v328z" />
    <glyph glyph-name="uni0491" unicode="&#x491;" horiz-adv-x="868" 
d="M541 1245h284v-569h-395v-676h-303v956h414v289z" />
    <glyph glyph-name="uni0492" unicode="&#x492;" horiz-adv-x="1087" 
d="M1040 1411v-281h-473v-284h318v-215h-318v-631h-321v631h-207v215h207v565h794z" />
    <glyph glyph-name="uni0493" unicode="&#x493;" horiz-adv-x="907" 
d="M862 956v-280h-395v-168h262v-160h-262v-348h-303v348h-125v160h125v448h698z" />
    <glyph glyph-name="uni0496" unicode="&#x496;" horiz-adv-x="2080" 
d="M1507 713l303 -432h246v-627h-323v346h-152l-342 524h-80v-524h-321v524h-80l-342 -524h-422l498 713l-433 698h385l338 -569h56v569h321v-569h64l331 569h385z" />
    <glyph glyph-name="uni0497" unicode="&#x497;" horiz-adv-x="1708" 
d="M1300 483l134 -202h229v-549h-285v268h-125l-198 330h-94v-330h-281v330h-94l-199 -330h-367l318 483l-293 473h332l221 -370h82v370h281v-370h79l222 370h333z" />
    <glyph glyph-name="uni049A" unicode="&#x49a;" horiz-adv-x="1417" 
d="M866 707l275 -426h248v-627h-324v346h-141l-332 520h-109v-520h-321v1411h321v-571h99l327 571h373z" />
    <glyph glyph-name="uni049B" unicode="&#x49b;" horiz-adv-x="1191" 
d="M805 483l123 -202h217v-549h-285v268h-125l-178 330h-137v-330h-293v956h293v-370h123l200 370h334z" />
    <glyph glyph-name="uni04A2" unicode="&#x4a2;" horiz-adv-x="1507" 
d="M1270 1411v-1130h157v-627h-323v346h-156v557h-465v-557h-321v1411h321v-565h465v565h322z" />
    <glyph glyph-name="uni04A3" unicode="&#x4a3;" horiz-adv-x="1286" 
d="M1083 956v-675h117v-549h-285v268h-135v348h-350v-348h-303v956h303v-356h350v356h303z" />
    <glyph glyph-name="uni04AE" unicode="&#x4ae;" horiz-adv-x="1406" 
d="M700 891l332 520h383l-551 -780v-631h-323v637l-549 774h383z" />
    <glyph glyph-name="uni04AF" unicode="&#x4af;" horiz-adv-x="1056" 
d="M543 391l184 565h326l-377 -954v-473h-270v473l-408 954h336z" />
    <glyph glyph-name="uni04B0" unicode="&#x4b0;" horiz-adv-x="1441" 
d="M1051 1411h381l-504 -715h276v-213h-323v-483h-322v483h-323v213h280l-506 715h381l326 -520z" />
    <glyph glyph-name="uni04B1" unicode="&#x4b1;" horiz-adv-x="1069" 
d="M731 956h326l-316 -796h205v-160h-266v-471h-270v471h-273v160h205l-340 796h336l209 -565z" />
    <glyph glyph-name="uni04B2" unicode="&#x4b2;" horiz-adv-x="1439" 
d="M870 750l308 -469h233v-627h-324v346h-106l-299 494l-301 -494h-377l485 752l-444 659h387l250 -407l252 407h385z" />
    <glyph glyph-name="uni04B3" unicode="&#x4b3;" horiz-adv-x="1150" 
d="M715 516l170 -235h225v-549h-285v268h-90l-190 276l-191 -276h-354l379 516l-318 440h355l131 -194l129 194h352z" />
    <glyph glyph-name="uni04B6" unicode="&#x4b6;" horiz-adv-x="1400" 
d="M1163 1411v-1130h158v-627h-324v346h-155v469q-150 -25 -291 -25q-234 0 -348.5 135.5t-114.5 424.5v407h322v-397q0 -158 58.5 -217.5t176.5 -59.5q81 0 197 21v653h321z" />
    <glyph glyph-name="uni04B7" unicode="&#x4b7;" horiz-adv-x="1187" 
d="M985 956v-675h117v-549h-285v268h-135v299q-119 -25 -221 -25q-203 0 -297 99t-94 309v274h303v-254q0 -83 33.5 -118t132.5 -35q55 0 143 10v397h303z" />
    <glyph glyph-name="uni04BA" unicode="&#x4ba;" horiz-adv-x="1312" 
d="M776 911q234 0 348.5 -135.5t114.5 -425.5v-350h-321v342q0 66 -11 114t-30 78.5t-49.5 49t-65 25.5t-80.5 7q-100 0 -199 -18v-598h-321v1411h321v-524q147 24 293 24z" />
    <glyph glyph-name="uni04BB" unicode="&#x4bb;" horiz-adv-x="1198" 
d="M705 981q187 0 282.5 -121.5t95.5 -345.5v-514h-303v496q0 100 -50.5 152t-115.5 52q-33 0 -63.5 -10t-58.5 -31.5t-45 -63.5t-17 -99v-496h-303v1477h303v-674q16 57 67.5 99.5t106 60.5t101.5 18z" />
    <glyph glyph-name="uni04C0" unicode="&#x4c0;" horiz-adv-x="647" 
d="M483 0h-321v1411h321v-1411z" />
    <glyph glyph-name="uni04CF" unicode="&#x4cf;" horiz-adv-x="557" 
d="M430 0h-303v1477h303v-1477z" />
    <glyph glyph-name="uni04D8" unicode="&#x4d8;" horiz-adv-x="1566" 
d="M778 1436q146 0 278 -58.5t226 -157t149.5 -233.5t55.5 -282t-55.5 -282t-149.5 -233t-226 -156.5t-278 -58.5q-144 0 -275 58.5t-225 156.5t-150 233t-56 282q0 62 16 137h1063q-36 129 -135.5 210t-235.5 81q-106 0 -190 -50.5t-135 -136.5l-238 201q99 134 246 211.5
t315 77.5zM780 279q139 0 238.5 83.5t134.5 217.5h-747q36 -134 136.5 -217.5t237.5 -83.5z" />
    <glyph glyph-name="uni04D9" unicode="&#x4d9;" horiz-adv-x="1159" 
d="M571 981q226 0 371 -141t145 -359q0 -113 -42 -209.5t-113 -160.5t-164.5 -100t-196.5 -36q-136 0 -250.5 59.5t-183.5 171t-69 253.5q0 37 6 108h698q-22 70 -80 110t-143 40q-65 0 -130 -27.5t-112 -71.5l-155 197q70 76 183.5 121t235.5 45zM565 231q75 0 131 38.5
t78 119.5h-403q1 -70 56 -114t138 -44z" />
    <glyph glyph-name="uni04E2" unicode="&#x4e2;" horiz-adv-x="1390" 
d="M406 1829h579v-176h-579v176zM483 610l453 801h293v-1411h-322v811l-461 -811h-284v1411h321v-801z" />
    <glyph glyph-name="uni04E3" unicode="&#x4e3;" horiz-adv-x="1222" 
d="M246 1378h579v-176h-579v176zM430 467l426 489h240v-956h-303v502l-435 -502h-231v956h303v-489z" />
    <glyph glyph-name="uni04E8" unicode="&#x4e8;" horiz-adv-x="1599" 
d="M801 1436q117 0 227 -37t198 -105t154.5 -157.5t103 -200.5t36.5 -229q0 -147 -57 -282t-153 -234t-229.5 -157.5t-279.5 -58.5q-148 0 -282 58.5t-230 157.5t-152.5 234t-56.5 282q0 197 95.5 364.5t261.5 266t364 98.5zM799 1133q-140 0 -241.5 -81.5t-137.5 -213.5
h758q-36 132 -137.5 213.5t-241.5 81.5zM799 279q138 0 239.5 81.5t139.5 212.5h-756q36 -131 137 -212.5t240 -81.5z" />
    <glyph glyph-name="uni04E9" unicode="&#x4e9;" horiz-adv-x="1179" 
d="M590 981q102 0 196 -36.5t166 -101t115 -160.5t43 -206t-43 -205t-115 -159.5t-166 -101t-196 -36.5t-196 36.5t-165.5 101t-114 159.5t-42.5 205q0 89 27.5 168.5t76.5 140t114 105t142 67.5t158 23zM590 700q-68 0 -121.5 -38.5t-75.5 -102.5h393q-22 64 -75 102.5
t-121 38.5zM590 256q69 0 122.5 38.5t75.5 104.5h-397q22 -66 76 -104.5t123 -38.5z" />
    <glyph glyph-name="uni04EE" unicode="&#x4ee;" horiz-adv-x="1353" 
d="M373 1829h579v-176h-579v176zM692 743l324 668h358l-731 -1411h-352l233 438l-538 973h352z" />
    <glyph glyph-name="uni04EF" unicode="&#x4ef;" horiz-adv-x="1054" 
d="M244 1374h579v-178h-579v178zM537 461l194 495h326l-590 -1427h-324l236 586l-377 841h336z" />
    <glyph glyph-name="Wgrave" unicode="&#x1e80;" horiz-adv-x="1853" 
d="M848 1927l190 -350h-204l-279 350h293zM1231 563l260 848h350l-479 -1411h-250l-188 717l-183 -717h-252l-475 1411h346l261 -844l174 643h264z" />
    <glyph glyph-name="wgrave" unicode="&#x1e81;" horiz-adv-x="1542" 
d="M692 1470l191 -350h-205l-279 350h293zM1049 410l157 546h328l-332 -956h-258l-174 590l-166 -590h-258l-342 956h328l157 -546l158 546h244z" />
    <glyph glyph-name="Wacute" unicode="&#x1e82;" horiz-adv-x="1853" 
d="M1014 1927h293l-279 -350h-207zM1231 563l260 848h350l-479 -1411h-250l-188 717l-183 -717h-252l-475 1411h346l261 -844l174 643h264z" />
    <glyph glyph-name="wacute" unicode="&#x1e83;" horiz-adv-x="1542" 
d="M858 1470h293l-279 -350h-204zM1049 410l157 546h328l-332 -956h-258l-174 590l-166 -590h-258l-342 956h328l157 -546l158 546h244z" />
    <glyph glyph-name="Wdieresis" unicode="&#x1e84;" horiz-adv-x="1853" 
d="M711 1614q-64 0 -109 42t-45 103q0 60 45.5 102t108.5 42q62 0 105.5 -42t43.5 -102q0 -61 -43.5 -103t-105.5 -42zM1149 1614q-65 0 -110.5 42t-45.5 103q0 60 45.5 102t110.5 42q61 0 104 -42t43 -102q0 -61 -42.5 -103t-104.5 -42zM1231 563l260 848h350l-479 -1411
h-250l-188 717l-183 -717h-252l-475 1411h346l261 -844l174 643h264z" />
    <glyph glyph-name="wdieresis" unicode="&#x1e85;" horiz-adv-x="1542" 
d="M555 1157q-63 0 -108.5 42.5t-45.5 103.5q0 60 45.5 101.5t108.5 41.5q62 0 106 -41.5t44 -101.5q0 -61 -44 -103.5t-106 -42.5zM993 1157q-65 0 -110 42.5t-45 103.5q0 60 45 101.5t110 41.5q62 0 105 -41.5t43 -101.5q0 -61 -43 -103.5t-105 -42.5zM1049 410l157 546
h328l-332 -956h-258l-174 590l-166 -590h-258l-342 956h328l157 -546l158 546h244z" />
    <glyph glyph-name="uni1E9E" unicode="&#x1e9e;" horiz-adv-x="1425" 
d="M1239 1276l-235 -420q155 -36 249.5 -143.5t94.5 -263.5q0 -205 -138 -339.5t-360 -134.5q-152 0 -240 35l37 279q52 -29 156 -29q100 0 160.5 59t60.5 156q0 103 -72 168.5t-190 65.5h-82l-4 116l172 310q-55 16 -119 16q-105 0 -182.5 -78.5t-77.5 -222.5v-850h-322
v844q0 148 45.5 263t126.5 186t185.5 107t228.5 36q128 0 269 -37t237 -94v-29z" />
    <glyph glyph-name="Ygrave" unicode="&#x1ef2;" horiz-adv-x="1406" 
d="M625 1927l192 -350h-207l-278 350h293zM700 891l332 520h383l-551 -780v-631h-323v637l-549 774h383z" />
    <glyph glyph-name="ygrave" unicode="&#x1ef3;" horiz-adv-x="1054" 
d="M455 1470l190 -350h-207l-276 350h293zM537 461l194 495h326l-590 -1427h-324l236 586l-377 841h336z" />
    <glyph glyph-name="uni2009" unicode="&#x2009;" horiz-adv-x="370" 
 />
    <glyph glyph-name="endash" unicode="&#x2013;" horiz-adv-x="1314" 
d="M1196 358h-1077v260h1077v-260z" />
    <glyph glyph-name="emdash" unicode="&#x2014;" horiz-adv-x="1755" 
d="M1636 356h-1517v260h1517v-260z" />
    <glyph glyph-name="quoteleft" unicode="&#x2018;" horiz-adv-x="571" 
d="M367 852h-285q-1 186 95 346t231 260l129 -76q-94 -125 -133.5 -246.5t-36.5 -283.5z" />
    <glyph glyph-name="quoteright" unicode="&#x2019;" horiz-adv-x="552" 
d="M180 813l-129 76q94 127 133.5 248.5t36.5 281.5h285q1 -186 -95 -346t-231 -260z" />
    <glyph glyph-name="quotesinglbase" unicode="&#x201a;" horiz-adv-x="544" 
d="M102 -311l-131 75q94 127 133.5 249t36.5 282h285q1 -185 -94.5 -345t-229.5 -261z" />
    <glyph glyph-name="quotedblleft" unicode="&#x201c;" horiz-adv-x="882" 
d="M328 852h-242q-1 96 22.5 188.5t66 169t89.5 137t103 111.5l131 -76q-94 -126 -133.5 -249.5t-36.5 -280.5zM678 852h-242q-1 96 22.5 188.5t66 168.5t90.5 137t104 112l129 -76q-94 -126 -133.5 -249.5t-36.5 -280.5z" />
    <glyph glyph-name="quotedblright" unicode="&#x201d;" horiz-adv-x="866" 
d="M180 815l-129 76q94 128 133.5 251t36.5 279h242q1 -96 -22.5 -188.5t-66 -168.5t-90.5 -137t-104 -112zM532 815l-131 76q94 128 133.5 251t36.5 279h242q1 -96 -22.5 -188.5t-66 -169t-89.5 -137t-103 -111.5z" />
    <glyph glyph-name="quotedblbase" unicode="&#x201e;" horiz-adv-x="854" 
d="M102 -311l-131 75q94 128 133.5 251t36.5 280h242q1 -96 -22.5 -188.5t-66 -169t-89.5 -137t-103 -111.5zM453 -311l-131 75q95 126 134 248t36 283h243q1 -184 -80.5 -339t-201.5 -267z" />
    <glyph glyph-name="dagger" unicode="&#x2020;" horiz-adv-x="915" 
d="M592 -236h-268v1113h-236v204h236v326h268v-326h235v-204h-235v-1113z" />
    <glyph glyph-name="daggerdbl" unicode="&#x2021;" horiz-adv-x="915" 
d="M592 -236h-268v467h-236v203h236v443h-236v204h236v326h268v-326h235v-204h-235v-443h235v-203h-235v-467z" />
    <glyph glyph-name="bullet" unicode="&#x2022;" horiz-adv-x="970" 
d="M485 166q-137 0 -234 91.5t-97 229.5q0 136 97 228t234 92t234.5 -92t97.5 -228q0 -137 -97.5 -229t-234.5 -92z" />
    <glyph glyph-name="ellipsis" unicode="&#x2026;" horiz-adv-x="1812" 
d="M276 -18q-76 0 -130 50.5t-54 127.5q0 78 54 130t130 52q78 0 133.5 -52t55.5 -130q0 -77 -55.5 -127.5t-133.5 -50.5zM905 -18q-76 0 -130 50.5t-54 127.5q0 78 54 130t130 52q78 0 133.5 -52t55.5 -130q0 -77 -55.5 -127.5t-133.5 -50.5zM1534 -18q-76 0 -130 50.5
t-54 127.5q0 78 54 130t130 52t131 -52t55 -130q0 -77 -54.5 -127.5t-131.5 -50.5z" />
    <glyph glyph-name="perthousand" unicode="&#x2030;" horiz-adv-x="1943" 
d="M399 0h-157l704 1411h160zM336 825q-116 0 -194.5 78.5t-78.5 194.5q0 114 79 194t194 80q114 0 194 -80t80 -194q0 -115 -80 -194t-194 -79zM336 981q50 0 84.5 33.5t34.5 83.5q0 47 -35 81.5t-84 34.5q-50 0 -82.5 -34t-32.5 -82q0 -51 32 -84t83 -33zM977 -18
q-115 0 -193.5 78t-78.5 194q0 115 78.5 194.5t193.5 79.5q114 0 194 -80t80 -194q0 -115 -79.5 -193.5t-194.5 -78.5zM1612 -18q-116 0 -194.5 78.5t-78.5 193.5q0 114 79 194t194 80q114 0 194 -80t80 -194q0 -115 -79.5 -193.5t-194.5 -78.5zM977 137q50 0 83.5 33
t33.5 84q0 50 -34 84.5t-83 34.5q-50 0 -83.5 -34.5t-33.5 -84.5q0 -51 33 -84t84 -33zM1612 137q50 0 84.5 33.5t34.5 83.5t-34.5 84.5t-84.5 34.5t-83.5 -34.5t-33.5 -84.5q0 -51 33 -84t84 -33z" />
    <glyph glyph-name="guilsinglleft" unicode="&#x2039;" horiz-adv-x="690" 
d="M606 53h-233l-283 424l283 424h233l-282 -424z" />
    <glyph glyph-name="guilsinglright" unicode="&#x203a;" horiz-adv-x="690" 
d="M317 53h-233l283 424l-283 424h233l283 -424z" />
    <glyph glyph-name="fraction" unicode="&#x2044;" horiz-adv-x="368" 
d="M-190 -18h-185l926 1384h182z" />
    <glyph glyph-name="uni2070" unicode="&#x2070;" horiz-adv-x="696" 
d="M348 1073q-78 0 -133 28.5t-85 81t-43 116t-13 145.5q0 66 7.5 120t27 103t50 82t78.5 52.5t111 19.5t112 -19.5t79.5 -52.5t50 -82t27.5 -103t8 -120q0 -371 -277 -371zM348 1227q109 0 109 217q0 221 -109 221q-106 0 -106 -221q0 -217 106 -217z" />
    <glyph glyph-name="uni2074" unicode="&#x2074;" horiz-adv-x="696" 
d="M545 1360h100v-139h-100v-138h-168v138h-346v41l461 550h53v-452zM377 1493l-111 -133h111v133z" />
    <glyph glyph-name="uni2075" unicode="&#x2075;" horiz-adv-x="669" 
d="M373 1583q108 0 171.5 -68.5t63.5 -179.5q0 -119 -79.5 -190.5t-200.5 -71.5q-92 0 -166 44.5t-109 115.5l131 76q19 -36 54.5 -58t78.5 -22q56 0 89.5 28.5t33.5 75.5q0 51 -30.5 81t-81.5 30q-78 0 -148 -76l-106 76l63 368h424v-155h-287l-22 -109q44 35 121 35z" />
    <glyph glyph-name="uni2076" unicode="&#x2076;" horiz-adv-x="696" 
d="M389 1552q110 0 178 -68.5t68 -168.5q0 -106 -77.5 -174t-195.5 -68q-133 0 -212.5 94t-79.5 263q0 99 27 176t71.5 122.5t97.5 69t109 23.5q71 0 138.5 -36t102.5 -93l-127 -93q-23 33 -52.5 49.5t-55.5 16.5q-52 0 -97 -45.5t-48 -130.5q53 63 153 63zM365 1227
q44 0 72 30t28 68q0 34 -26.5 63t-73.5 29q-43 0 -72 -27t-29 -65q0 -40 29.5 -69t71.5 -29z" />
    <glyph glyph-name="uni2077" unicode="&#x2077;" horiz-adv-x="626" 
d="M57 1657v155h547v-14l-328 -715h-196l260 574h-283z" />
    <glyph glyph-name="uni2078" unicode="&#x2078;" horiz-adv-x="712" 
d="M528 1499q56 -24 89.5 -76t33.5 -120q0 -102 -82 -166t-211 -64q-131 0 -213 63.5t-82 166.5q0 68 33.5 120t89.5 76q-63 47 -63 127q0 86 65.5 140.5t169.5 54.5q103 0 168.5 -54.5t65.5 -140.5q0 -79 -64 -127zM356 1665q-31 0 -49 -17.5t-18 -48.5q0 -28 18.5 -45.5
t48.5 -17.5q31 0 50.5 17.5t19.5 45.5q0 30 -19.5 48t-50.5 18zM358 1225q52 0 84.5 27.5t32.5 70.5q0 45 -32 72.5t-85 27.5q-49 0 -79.5 -28t-30.5 -72q0 -43 30.5 -70.5t79.5 -27.5z" />
    <glyph glyph-name="uni2079" unicode="&#x2079;" horiz-adv-x="696" 
d="M334 1821q133 0 213 -94.5t80 -260.5q0 -99 -26.5 -176.5t-71 -123.5t-97.5 -69.5t-110 -23.5q-71 0 -139 35.5t-103 93.5l127 92q44 -65 108 -65q52 0 97.5 45.5t48.5 128.5q-54 -64 -154 -64q-110 0 -178 69t-68 169q0 108 77.5 176t195.5 68zM332 1477q43 0 71.5 27
t28.5 63q0 41 -28.5 69.5t-71.5 28.5q-42 0 -71.5 -30t-29.5 -66q0 -35 27 -63.5t74 -28.5z" />
    <glyph glyph-name="uni207A" unicode="&#x207a;" horiz-adv-x="604" 
d="M375 1444h166v-146h-166v-165h-146v165h-166v146h166v166h146v-166z" />
    <glyph glyph-name="uni207B" unicode="&#x207b;" horiz-adv-x="657" 
d="M565 1311h-473v139h473v-139z" />
    <glyph glyph-name="uni207C" unicode="&#x207c;" horiz-adv-x="714" 
d="M621 1444h-527v133h527v-133zM621 1204h-527v133h527v-133z" />
    <glyph glyph-name="uni207D" unicode="&#x207d;" horiz-adv-x="473" 
d="M418 1020v-129q-159 -7 -253.5 130t-94.5 359t95 362.5t253 133.5v-131q-82 5 -139.5 -97t-57.5 -268q0 -164 57.5 -264.5t139.5 -95.5z" />
    <glyph glyph-name="uni207E" unicode="&#x207e;" horiz-adv-x="473" 
d="M55 891v129q81 -5 140 95.5t59 264.5q0 165 -59 267.5t-140 97.5v131q157 7 252.5 -134t95.5 -362q0 -222 -95 -359t-253 -130z" />
    <glyph glyph-name="colonmonetary" unicode="&#x20a1;" horiz-adv-x="1404" 
d="M993 969l-190 -658q83 3 156 47.5t120 116.5l242 -170q-88 -130 -233 -208.5t-310 -78.5q-41 0 -61 2l-53 -182l-101 29l49 172q-58 15 -114 39l-52 -176l-100 28l57 199q-136 91 -215 235.5t-79 313.5q0 174 85.5 322.5t234.5 238t327 96.5l63 221l103 -28l-58 -199
q54 -6 117 -26l55 190l103 -29l-60 -202q150 -78 242 -215l-242 -170q-34 55 -86 92zM778 1040l-194 -667q54 -38 112 -49l203 698q-49 18 -106 18h-15zM430 678q0 -130 68 -223l166 565q-107 -38 -170.5 -128t-63.5 -214z" />
    <glyph glyph-name="lira" unicode="&#x20a4;" horiz-adv-x="1388" 
d="M594 743h219v-118h-657v118h135v164q0 208 119.5 328.5t314.5 120.5q102 0 184.5 -24.5t150 -78.5t105 -150.5t37.5 -230.5h-303q0 201 -160 201q-65 0 -105 -48.5t-40 -123.5v-158zM1012 340v102h301v-163q0 -118 -81 -198.5t-190 -80.5h-956v258h205v135h-135v119h657
v-119h-219v-135h360q34 0 46 21t12 61z" />
    <glyph glyph-name="uni20A6" unicode="&#x20a6;" horiz-adv-x="1531" 
d="M1444 877v-123h-146v-166h146v-125h-146v-463h-282l-275 463h-186v-463h-322v463h-145v125h145v166h-145v123h145v466h293l279 -466h172v466h321v-466h146zM555 754v-166h113l-99 166h-14zM975 588h2v166h-100z" />
    <glyph glyph-name="peseta" unicode="&#x20a7;" horiz-adv-x="3100" 
d="M182 1411h580q118 0 211.5 -40t149.5 -107t85 -148.5t29 -171.5q0 -91 -29 -172.5t-85 -148t-149 -105.5t-212 -39h-260v-479h-320v1411zM1542 1298h303v-342h201v-229h-201v-727h-303v727h-174v229h174v342zM502 760h246q84 0 124.5 54t40.5 130q0 48 -15 88.5t-53.5 69
t-94.5 28.5h-248v-370zM2568 614l166 -45q68 -19 118.5 -49t77 -59.5t42 -65.5t19 -59.5t3.5 -48.5q0 -61 -24 -113t-65 -88t-94 -61.5t-111 -37.5t-117 -12q-170 0 -294 89.5t-130 244.5h292q0 -40 31.5 -71t91.5 -31q48 0 82.5 22.5t34.5 55.5q0 23 -20 36t-74 25l-125 33
q-58 16 -104.5 37.5t-76 43.5t-51 50t-32.5 50t-17 50t-7 45t-1 39q0 111 112 199t279 88q57 0 111 -10.5t107 -35t92.5 -60.5t63 -92.5t22.5 -125.5h-287q0 44 -28.5 68.5t-74.5 24.5q-40 0 -67 -18t-27 -48q0 -50 82 -70z" />
    <glyph glyph-name="uni20A8" unicode="&#x20a8;" horiz-adv-x="1304" 
d="M1174 1223h-289q109 -95 125 -283h229l-65 -123h-164q-14 -151 -89.5 -249.5t-205.5 -135.5l307 -432h-375l-268 414l-258 -2v278h401q137 0 162 127h-563v123h563q-23 123 -162 123h-401v280h1118z" />
    <glyph glyph-name="uni20A9" unicode="&#x20a9;" horiz-adv-x="1970" 
d="M1528 1343h350l-154 -454h136v-125h-179l-71 -209h250v-125h-293l-146 -430h-250l-112 430h-148l-110 -430h-252l-146 430h-292v125h249l-69 209h-180v125h137l-154 454h348l140 -454h184l88 321h264l86 -321h185zM680 567l53 197h-112zM1237 764l53 -199l60 199h-113z
M983 717l-41 -162h84z" />
    <glyph glyph-name="uni20AA" unicode="&#x20aa;" horiz-adv-x="1810" 
d="M463 0h-301v1343h598q223 0 348 -117.5t125 -310.5v-411h-258v366q0 75 -55 127t-146 52h-311v-1049zM1649 0h-596q-223 0 -349 118t-126 310v412h258v-367q0 -75 54.5 -126.5t145.5 -51.5h314v1048h299v-1343z" />
    <glyph glyph-name="dong" unicode="&#x20ab;" horiz-adv-x="1406" 
d="M1161 1335h164v-133h-164v-1118h-287v109q-49 -63 -131 -95t-163 -32q-90 0 -174 35t-148.5 97.5t-103.5 157.5t-39 207t39 207.5t103.5 158t148.5 97.5t174 35q81 0 163 -32t131 -95v268h-292v133h292v142h287v-142zM643 346q89 0 155 63t66 154q0 90 -66.5 152.5
t-154.5 62.5q-90 0 -155.5 -62.5t-65.5 -152.5t65.5 -153.5t155.5 -63.5zM1096 -172h-860v133h860v-133z" />
    <glyph glyph-name="Euro" unicode="&#x20ac;" horiz-adv-x="1705" 
d="M662 852h430v-131h-990v131h213q68 224 255.5 364t430.5 140q196 0 355 -83t250 -226l-267 -175q-53 85 -141.5 133t-196.5 48q-112 0 -199.5 -53.5t-139.5 -147.5zM1350 475l264 -174q-93 -150 -254.5 -238t-358.5 -88q-246 0 -434 146.5t-254 376.5h-211v133h990v-133
h-435q48 -102 139.5 -163t204.5 -61q109 0 201.5 55.5t147.5 145.5z" />
    <glyph glyph-name="uni20AE" unicode="&#x20ae;" horiz-adv-x="1202" 
d="M1139 1343v-280h-373v-195l156 115v-145l-156 -115v-82l156 115v-144l-156 -114v-498h-324v262l-155 -115v144l155 115v81l-155 -114v145l155 115v430h-372v280h1069z" />
    <glyph glyph-name="uni20B1" unicode="&#x20b1;" horiz-adv-x="1509" 
d="M1249 1006h170v-91h-157v-24q0 -27 -2 -41h159v-92h-174q-39 -138 -154.5 -220.5t-304.5 -82.5h-215v-455h-321v758h-146v92h146v65h-146v91h146v337h536q194 0 312 -94t151 -243zM750 1063h-179v-57h326q-47 57 -147 57zM938 883q0 22 -2 32h-365v-65h365q2 10 2 33z
M571 694h177q97 0 151 64h-328v-64z" />
    <glyph glyph-name="uni20B4" unicode="&#x20b4;" horiz-adv-x="1212" 
d="M993 889l-55 -53h149v-101h-962v101h432l61 51q50 43 70 68t19 49q0 22 -16.5 36.5t-45.5 14.5h-467v288h621q129 0 207.5 -65t78.5 -174q0 -72 -22 -117.5t-70 -97.5zM268 508h-143v102h962v-102h-438l-59 -49q-48 -42 -68.5 -68t-19.5 -51q0 -20 16 -35.5t45 -15.5h496
v-289h-649q-129 0 -208 66.5t-79 173.5q0 73 21.5 119.5t68.5 95.5z" />
    <glyph glyph-name="uni20BA" unicode="&#x20ba;" horiz-adv-x="1357" 
d="M963 674v88h290v-131q0 -286 -166 -458.5t-440 -172.5h-409v516l-123 -90v145l123 91v79l-123 -90v146l123 90v456h299v-237l211 156v-146l-211 -155v-80l211 155v-145l-211 -156v-440h84q155 0 248.5 103.5t93.5 275.5z" />
    <glyph glyph-name="uni20BD" unicode="&#x20bd;" horiz-adv-x="1380" 
d="M795 514h-217v-104h483v-170h-483v-240h-322v240h-147v170h147v104h-147v172h147v657h539q119 0 211 -33.5t148.5 -92t85 -134.5t28.5 -165q0 -185 -118.5 -294.5t-354.5 -109.5zM780 1063h-202v-309h202q166 0 166 157q0 152 -166 152z" />
    <glyph glyph-name="uni20BF" unicode="&#x20bf;" horiz-adv-x="1312" 
d="M1198 444q0 -61 -22 -119t-67 -109.5t-123.5 -87t-180.5 -44.5v-254h-154v252h-116v-252h-154v252h-178v1247h178v213h154v-213h116v213h154v-221q147 -26 233 -112.5t86 -204.5q0 -36 -8.5 -71t-29 -72.5t-61.5 -67.5t-99 -45q89 -11 152.5 -58t91.5 -110.5t28 -135.5z
M678 1071h-154v-229h150q60 0 94.5 28t34.5 84q0 51 -31.5 84t-93.5 33zM524 340h176q83 0 127.5 40t44.5 97q0 53 -43.5 93t-128.5 40h-176v-270z" />
    <glyph glyph-name="uni2113" unicode="&#x2113;" horiz-adv-x="823" 
d="M403 367h-26v-23q0 -58 25 -90.5t92 -32.5h194v-221h-258q-311 0 -311 352v723q0 355 311 355q305 0 305 -373v-379q0 -63 -6.5 -107t-27 -85t-56.5 -65.5t-96.5 -39t-145.5 -14.5zM430 1194q-29 0 -41 -18.5t-12 -61.5v-567h26q26 0 42 7.5t22.5 23t8 29t1.5 36.5v471
q0 43 -10.5 61.5t-36.5 18.5z" />
    <glyph glyph-name="uni2116" unicode="&#x2116;" horiz-adv-x="2031" 
d="M1686 881q-114 0 -193.5 78t-79.5 192t79.5 194t193.5 80t194 -80t80 -194t-80 -192t-194 -78zM459 1411l452 -801v801h322v-1411h-285l-461 811v-811h-321v1411h293zM1686 1274q-51 0 -86 -36t-35 -87t35 -86t86 -35t86.5 35t35.5 86t-35.5 87t-86.5 36zM1946 657h-521
v131h521v-131z" />
    <glyph glyph-name="uni2117" unicode="&#x2117;" horiz-adv-x="1660" 
d="M829 1427q147 0 280 -57.5t228.5 -155t152 -231.5t56.5 -281q0 -196 -95.5 -362.5t-260.5 -263t-361 -96.5q-147 0 -279.5 57t-227.5 154t-151 230.5t-56 280.5q0 148 56 282t151 231t227.5 154.5t279.5 57.5zM829 106q161 0 297 80t214.5 217t78.5 299
q0 163 -78.5 300.5t-214.5 217.5t-297 80q-121 0 -230 -47.5t-187.5 -128t-125 -191t-46.5 -231.5t46.5 -231t125 -190t187.5 -127.5t230 -47.5zM610 1049h289q117 0 178.5 -69t61.5 -167q0 -95 -62 -165t-178 -70h-121v-222h-168v693zM778 727h117q36 0 57 27t21 59
t-20.5 58t-53.5 26h-121v-170z" />
    <glyph glyph-name="uni2120" unicode="&#x2120;" horiz-adv-x="1959" 
d="M406 1104l83 -27q122 -36 185 -97.5t63 -164.5q0 -68 -27.5 -120t-73.5 -82t-99 -45t-111 -15q-142 0 -232 81.5t-90 207.5h228q4 -94 90 -94q40 0 62 15.5t22 41.5q0 24 -18.5 44t-51.5 30l-92 30q-233 66 -233 248q0 118 88 192t221 74q130 0 211.5 -77.5t81.5 -208.5
h-232q0 38 -18.5 62t-56.5 24q-28 0 -47 -16t-19 -40q0 -46 66 -63zM1751 1411l98 -846h-233l-43 408l-143 -301h-179l-145 297l-45 -404h-232l99 846h194l217 -471l215 471h197z" />
    <glyph glyph-name="trademark" unicode="&#x2122;" horiz-adv-x="1923" 
d="M279 1208h-211v203h651v-203h-211v-643h-229v643zM1704 1411l100 -846h-231l-45 410l-144 -303h-178l-145 303l-45 -410h-232l101 846h192l215 -471l215 471h197z" />
    <glyph glyph-name="estimated" unicode="&#x212e;" horiz-adv-x="1320" 
d="M674 -20q-122 0 -227 47.5t-176.5 128t-111.5 189t-40 228.5q0 164 66.5 298t196.5 215t300 81q169 0 298 -82.5t195 -217t66 -296.5h-879v-395q135 -129 312 -129q67 0 124.5 14.5t99.5 36.5t81 58t66.5 70t58.5 81l63 -39q-34 -53 -67.5 -94t-78 -78.5t-94 -62
t-114 -39t-139.5 -14.5zM362 973v-334h633v334q-59 54 -143.5 90.5t-169.5 36.5q-196 0 -320 -127z" />
    <glyph glyph-name="oneeighth" unicode="&#x215b;" horiz-adv-x="1589" 
d="M129 -18l926 1384h184l-924 -1384h-186zM401 614h-165v508l-158 -57v158l315 131h8v-740zM1401 418q56 -24 89.5 -76.5t33.5 -120.5q0 -104 -80.5 -167.5t-210.5 -63.5q-132 0 -214.5 63t-82.5 166q0 70 33.5 122.5t91.5 76.5q-64 48 -64 125q0 88 65 141t171 53
q103 0 168 -53.5t65 -140.5q0 -77 -65 -125zM1231 598q-34 0 -55 -20t-21 -52q0 -31 21 -50t55 -19t55 19t21 50q0 32 -21 52t-55 20zM1233 141q52 0 84.5 28t32.5 73q0 44 -32.5 72t-84.5 28q-51 0 -81 -27.5t-30 -72.5q0 -44 31 -72.5t80 -28.5z" />
    <glyph glyph-name="threeeighths" unicode="&#x215c;" horiz-adv-x="1718" 
d="M260 -18l926 1384h184l-924 -1384h-186zM569 836q0 -103 -71.5 -167.5t-186.5 -64.5q-78 0 -145.5 35.5t-99.5 95.5l124 86q19 -28 50 -44.5t65 -16.5q43 0 69.5 21.5t26.5 56.5q0 43 -33 68.5t-87 25.5h-50v127h27q54 0 84.5 24t30.5 64q0 27 -23.5 44t-52.5 17
q-62 0 -102 -43l-91 97q30 41 89.5 66.5t128.5 25.5q97 0 157 -55.5t60 -149.5q0 -99 -84 -145q54 -22 84 -66t30 -102zM1532 418q56 -24 89.5 -76.5t33.5 -120.5q0 -104 -81 -167.5t-212 -63.5t-213 63.5t-82 165.5q0 69 34 122.5t91 76.5q-66 49 -66 125q0 87 65.5 140.5
t170.5 53.5t170 -53.5t65 -140.5q0 -77 -65 -125zM1362 598q-34 0 -55 -20t-21 -52q0 -31 20.5 -50t55.5 -19q34 0 55 19t21 50q0 32 -21 52t-55 20zM1362 141q54 0 86.5 28t32.5 73t-32.5 72.5t-86.5 27.5q-49 0 -79 -27.5t-30 -72.5t30 -73t79 -28z" />
    <glyph glyph-name="fiveeighths" unicode="&#x215d;" horiz-adv-x="1767" 
d="M309 -18l926 1384h182l-921 -1384h-187zM625 868q0 -119 -80.5 -191.5t-202.5 -72.5q-91 0 -164 45.5t-108 116.5l131 74q20 -35 55 -57.5t78 -22.5q55 0 89 29t34 75q0 51 -31 81t-84 30q-77 0 -145 -74l-107 74l64 371h424v-156h-287l-23 -111q47 37 121 37
q108 0 172 -68.5t64 -179.5zM1581 418q56 -24 89.5 -76.5t33.5 -120.5q0 -104 -81 -167.5t-212 -63.5t-213 63.5t-82 165.5q0 69 34 122.5t91 76.5q-65 48 -65 125q0 87 65 140.5t170 53.5t170.5 -53.5t65.5 -140.5q0 -76 -66 -125zM1411 598q-34 0 -55 -20t-21 -52
q0 -31 20.5 -50t55.5 -19q33 0 54.5 19.5t21.5 49.5q0 32 -21.5 52t-54.5 20zM1411 141q53 0 85 28t32 73t-32 72.5t-85 27.5q-49 0 -78.5 -27.5t-29.5 -72.5t29.5 -73t78.5 -28z" />
    <glyph glyph-name="seveneighths" unicode="&#x215e;" horiz-adv-x="1693" 
d="M236 -18l925 1384h182l-923 -1384h-184zM631 1331l-328 -717h-197l263 576h-285v153h547v-12zM1507 418q56 -24 89.5 -76.5t33.5 -120.5q0 -104 -81.5 -167.5t-211.5 -63.5q-131 0 -213 63.5t-82 165.5q0 69 34 122.5t91 76.5q-65 46 -65 125q0 87 65 140.5t170 53.5
q103 0 168.5 -53.5t65.5 -140.5q0 -77 -64 -125zM1335 598q-34 0 -54.5 -20t-20.5 -52q0 -31 20.5 -50t54.5 -19t56 19t22 50q0 32 -22 52t-56 20zM1337 141q52 0 84.5 28t32.5 73t-32 72.5t-85 27.5q-49 0 -79.5 -28t-30.5 -72q0 -45 30.5 -73t79.5 -28z" />
    <glyph glyph-name="arrowleft" unicode="&#x2190;" horiz-adv-x="1859" 
d="M512 821h1241v-227h-1235l320 -318l-160 -159l-592 594l592 594l160 -160z" />
    <glyph glyph-name="arrowup" unicode="&#x2191;" horiz-adv-x="1329" 
d="M664 1456l593 -592l-159 -159l-318 317v-1022h-227v1026l-324 -321l-159 159z" />
    <glyph glyph-name="arrowright" unicode="&#x2192;" horiz-adv-x="1859" 
d="M1022 1145l160 160l592 -594l-592 -594l-160 159l317 318h-1233v227h1240z" />
    <glyph glyph-name="arrowdown" unicode="&#x2193;" horiz-adv-x="1320" 
d="M776 365l318 317l159 -160l-594 -592l-593 592l159 160l324 -322v1051h227v-1046z" />
    <glyph glyph-name="arrowboth" unicode="&#x2194;" horiz-adv-x="2166" 
d="M1339 1176l160 159l592 -594l-592 -594l-160 160l324 324h-1161l325 -324l-159 -160l-592 594l592 594l159 -159l-317 -318h1147z" />
    <glyph glyph-name="arrowupdn" unicode="&#x2195;" horiz-adv-x="1331" 
d="M776 1321v-1159l324 323l160 -159l-594 -592l-594 592l159 159l318 -317v1147l-318 -318l-159 160l594 592l594 -592l-160 -160z" />
    <glyph glyph-name="partialdiff" unicode="&#x2202;" horiz-adv-x="1208" 
d="M623 1124l30 238q105 3 188 -24.5t136 -76.5t88 -119t49 -149t13.5 -169.5t-13 -177t-35.5 -175.5q-59 -225 -211 -360.5t-350 -135.5q-157 0 -264 62t-150.5 166t-25.5 235q12 88 51 161.5t90 121t112.5 80.5t118 47t107.5 14q99 0 172.5 -34.5t114.5 -94.5
q19 76 13.5 146.5t-29.5 125t-77 87t-128 32.5zM745 434q9 67 -36.5 117.5t-122.5 50.5q-82 -1 -138.5 -52t-64.5 -118q-11 -73 34 -126.5t126 -53.5q79 0 136 54t66 128z" />
    <glyph glyph-name="emptyset" unicode="&#x2205;" horiz-adv-x="1687" 
d="M1477 1440l100 -99l-176 -176q158 -202 158 -458q0 -197 -94.5 -363.5t-259.5 -264t-363 -97.5q-260 0 -459 165l-174 -174l-98 101l176 176q-158 202 -158 457q0 198 94 364.5t258 263.5t361 97q261 0 461 -166zM303 707q0 -185 109 -332l766 766q-146 114 -336 114
q-150 0 -274 -73.5t-194.5 -199t-70.5 -275.5zM1384 707q0 186 -110 331l-764 -764q142 -114 332 -114q150 0 275 73.5t196.5 199.5t70.5 274z" />
    <glyph glyph-name="product" unicode="&#x220f;" horiz-adv-x="1433" 
d="M1270 1411v-1718h-322v1431h-465v-1431h-321v1718h1108z" />
    <glyph glyph-name="summation" unicode="&#x2211;" horiz-adv-x="1351" 
d="M70 1411h1200v-287h-781l322 -567l-322 -575h781v-289h-1200v123l415 741l-415 733v121z" />
    <glyph glyph-name="minus" unicode="&#x2212;" horiz-adv-x="1021" 
d="M899 424h-774v219h774v-219z" />
    <glyph glyph-name="radical" unicode="&#x221a;" horiz-adv-x="1374" 
d="M625 104l520 1731h276l-655 -2142h-285l-268 848h-231v207h454z" />
    <glyph glyph-name="infinity" unicode="&#x221e;" horiz-adv-x="1783" 
d="M1266 1004q176 0 290.5 -103.5t114.5 -282.5q0 -183 -113.5 -288t-291.5 -105q-129 0 -260 99l-117 100l-139 -119q-112 -80 -232 -80q-178 0 -291.5 105t-113.5 288q0 180 114 283t291 103q128 0 256 -97l119 -102l123 106q124 93 250 93zM508 514q81 0 160 57l61 45
l-65 48q-71 53 -156 53q-41 0 -78.5 -24.5t-38.5 -76.5q1 -52 38.5 -77t78.5 -25zM1274 514q26 0 51 8.5t46 33t22 60.5q-1 52 -38.5 76.5t-80.5 24.5q-85 0 -158 -55l-61 -46l61 -45q76 -57 158 -57z" />
    <glyph glyph-name="integral" unicode="&#x222b;" horiz-adv-x="829" 
d="M649 1458h119v-278h-57q-108 0 -160 -51.5t-41 -137.5l117 -850q15 -106 -13.5 -192t-90 -141.5t-148.5 -85t-191 -29.5h-121v280h58q108 0 161 51t42 136l-117 837q-21 146 33.5 252t160.5 157.5t248 51.5z" />
    <glyph glyph-name="approxequal" unicode="&#x2248;" horiz-adv-x="1359" 
d="M1128 932l125 -133q-55 -93 -143.5 -151t-191.5 -58q-30 0 -58.5 4t-58 14t-46 16.5t-48.5 21.5t-39 18q-6 3 -45 21t-56.5 25t-52.5 15t-68 8q-117 0 -227 -131l-110 139q60 88 147.5 145.5t192.5 57.5q39 0 79 -9t59 -16t61 -26.5t48 -22.5q9 -4 45 -21t54.5 -24.5
t52.5 -15.5t67 -8q110 0 213 131zM1139 492l118 -130q-56 -96 -146.5 -154t-195.5 -58q-29 0 -56.5 4t-56.5 14t-45 16t-48 21t-39 18q-13 5 -46 20.5t-54.5 24.5t-57 17t-70.5 8q-114 0 -221 -133l-112 145q59 87 148 142t189 55q40 0 81.5 -9.5t58.5 -15t64 -27.5l48 -22
q8 -3 56.5 -26.5t83.5 -33.5t77 -10q126 0 224 134z" />
    <glyph glyph-name="notequal" unicode="&#x2260;" horiz-adv-x="1193" 
d="M420 111h-144l103 211h-254v204h354l103 211h-457v205h559l92 193h146l-93 -193h238v-205h-338l-104 -211h442v-204h-545z" />
    <glyph glyph-name="lessequal" unicode="&#x2264;" horiz-adv-x="1284" 
d="M1143 530v-217l-1026 367v225l1026 367v-215l-731 -264zM1145 0h-1026v195h1026v-195z" />
    <glyph glyph-name="greaterequal" unicode="&#x2265;" horiz-adv-x="1284" 
d="M1167 680l-1026 -367v217l731 263l-731 264v215l1026 -367v-225zM1165 0h-1024v195h1024v-195z" />
    <glyph glyph-name="filledbox" unicode="&#x25a0;" horiz-adv-x="1429" 
d="M164 162v1102h1102v-1102h-1102z" />
    <glyph glyph-name="uni25A1" unicode="&#x25a1;" horiz-adv-x="1306" 
d="M102 162v1102h1102v-1102h-1102zM1022 1081h-737v-737h737v737z" />
    <glyph glyph-name="triagup" unicode="&#x25b2;" horiz-adv-x="1595" 
d="M1432 139l-1268 2l633 1096z" />
    <glyph glyph-name="uni25B6" unicode="&#x25b6;" horiz-adv-x="1425" 
d="M164 109l2 1269l1096 -633z" />
    <glyph glyph-name="triagdn" unicode="&#x25bc;" horiz-adv-x="1595" 
d="M797 139l-633 1096l1268 2z" />
    <glyph glyph-name="uni25C0" unicode="&#x25c0;" horiz-adv-x="1425" 
d="M164 745l1096 633l2 -1269z" />
    <glyph glyph-name="lozenge" unicode="&#x25ca;" horiz-adv-x="1228" 
d="M541 1454h41l456 -729l-456 -725h-41l-457 725zM559 369l223 356l-221 354l-223 -356z" />
    <glyph glyph-name="circle" unicode="&#x25cb;" horiz-adv-x="1421" 
d="M1319 723q0 -165 -81.5 -305t-221.5 -221.5t-305 -81.5t-305.5 81.5t-222 221.5t-81.5 305t81.5 305t222 221.5t305.5 81.5t305 -81.5t221.5 -221.5t81.5 -305zM1137 723q0 175 -125.5 300.5t-300.5 125.5t-300.5 -125.5t-125.5 -300.5t125.5 -300.5t300.5 -125.5
t300.5 125.5t125.5 300.5z" />
    <glyph glyph-name="uni2605" unicode="&#x2605;" horiz-adv-x="1800" 
d="M1677 862l-481 -350l184 -563l-481 348l-479 -348l182 563l-479 350h594l182 565l184 -565h594z" />
    <glyph glyph-name="uni2610" unicode="&#x2610;" horiz-adv-x="1517" 
d="M760 -12q-135 0 -256.5 51.5t-209.5 139.5t-140 210t-52 256q0 133 52 254t140 208.5t210 139t256 51.5q133 0 254.5 -52t209 -139.5t139.5 -208t52 -253.5q0 -134 -52 -256t-139.5 -210t-209 -139.5t-254.5 -51.5zM760 186q192 0 324.5 133t132.5 326q0 191 -132.5 323
t-324.5 132q-194 0 -326.5 -131.5t-132.5 -323.5q0 -193 132.5 -326t326.5 -133z" />
    <glyph glyph-name="uni2611" unicode="&#x2611;" horiz-adv-x="1542" 
d="M1274 1495l170 -111l-195 -311q160 -188 160 -428q0 -134 -52 -256t-140 -210t-210 -139.5t-255 -51.5q-178 0 -329.5 87.5t-240 239t-88.5 330.5q0 178 88.5 328.5t240 237.5t329.5 87q182 0 338 -94zM1210 645q0 138 -73 250l-359 -571h-57l-315 438l137 153l192 -270
l250 393q-108 62 -233 62q-194 0 -326.5 -131.5t-132.5 -323.5q0 -193 132.5 -326t326.5 -133q193 0 325.5 132.5t132.5 326.5z" />
    <glyph glyph-name="uni261C" unicode="&#x261c;" horiz-adv-x="2056" 
d="M82 940q3 63 43 100t111 37l708 -2l-45 96q-28 53 -12.5 113t53.5 82q31 17 57 23.5t58 2.5t66.5 -28.5t72.5 -69.5l360 -444v70q0 36 26 62t62 26h175q35 0 61.5 -27.5t26.5 -60.5v-832q0 -32 -27 -60t-61 -28h-175q-36 0 -62 26t-26 62v94h-792q-83 10 -122.5 47
t-33.5 90q6 38 33 62q-144 18 -129 149q7 35 22 56q-69 21 -98.5 56t-17.5 89q10 48 33 66l-213 4q-74 2 -115.5 37.5t-38.5 101.5zM242 887l581 -10q86 -1 128 -48t36 -116q-6 -58 -31 -74q64 -8 91.5 -45.5t27.5 -83.5q0 -36 -16.5 -63t-44.5 -39q38 -10 49 -59.5
t-4 -80.5l495 -2l2 453l-428 508q-7 7 -19 19.5t-18 18t-15.5 14.5t-16.5 12t-15.5 5.5t-17.5 0.5t-18 -7q-30 -17 -32.5 -45t11 -55.5t43.5 -69.5l203 -282q9 -13 6.5 -31.5t-14.5 -24.5q-18 -11 -37 -6t-31 23l-137 178l-778 6q-62 0 -62 -49q0 -47 62 -47zM549 674h274
q63 0 70 51q5 31 -18 51.5t-66 20.5l-236 -2q-40 0 -60 -17t-17 -55q3 -44 53 -49zM647 461l273 -4q29 0 47 14t18 41q0 70 -67 70l-261 -4q-31 0 -45.5 -13.5t-17.5 -42.5q-3 -55 53 -61zM760 274l160 -4q69 -3 69 41q0 29 -14 40.5t-51 13.5l-174 6q-52 3 -52 -41
q0 -27 12 -41t50 -15z" />
    <glyph glyph-name="uni261E" unicode="&#x261e;" horiz-adv-x="2056" 
d="M1974 940q3 -66 -38 -101.5t-115 -37.5l-213 -4q22 -17 32 -66q12 -54 -17.5 -89t-98.5 -56q15 -21 22 -56q15 -131 -129 -149q27 -24 33 -62q6 -53 -33.5 -90t-122.5 -47h-792v-94q0 -36 -26 -62t-62 -26h-174q-34 0 -61 28t-27 60v832q0 33 26.5 60.5t61.5 27.5h174
q36 0 62 -26t26 -62v-70l360 444q38 45 72.5 69.5t66.5 28.5t58 -2.5t57 -23.5q38 -22 53.5 -82t-12.5 -113l-45 -96l709 2q70 0 110 -37t43 -100zM1233 877l582 10q61 0 61 47q0 49 -61 49l-779 -6q-112 -143 -137 -178q-12 -18 -31 -23t-37 6q-12 6 -14.5 24.5t6.5 31.5
l203 282q30 42 44 69.5t11.5 55.5t-32.5 45q-9 5 -18 7t-18 -0.5t-15.5 -5.5t-16.5 -12t-16 -14.5t-18.5 -18.5t-18.5 -19l-428 -508l2 -453l495 2q-15 31 -4 80.5t49 59.5q-28 12 -44.5 39t-16.5 63q0 46 27.5 83.5t91.5 45.5q-25 16 -31 74q-6 69 36 116t128 48zM1233 674
h274q51 6 54 49q3 38 -17.5 55t-60.5 17l-236 2q-43 0 -66 -20.5t-18 -51.5q7 -51 70 -51zM1137 457l272 4q56 6 53 61q-3 29 -17.5 42.5t-45.5 13.5l-260 4q-68 0 -68 -70q0 -27 18.5 -41t47.5 -14zM1137 270l159 4q38 1 50 15t12 41q0 44 -51 41l-174 -6
q-37 -2 -51.5 -13.5t-14.5 -40.5q0 -44 70 -41z" />
    <glyph glyph-name="diamond" unicode="&#x2666;" horiz-adv-x="1325" 
d="M1161 696l-499 -747l-498 747l498 748z" />
    <glyph glyph-name="uni267C" unicode="&#x267c;" horiz-adv-x="1777" 
d="M889 -18q-196 0 -363 97t-264.5 264t-97.5 364q0 196 97.5 363t264.5 264.5t363 97.5q197 0 364 -97.5t264 -264.5t97 -363q0 -197 -97 -364t-264 -264t-364 -97zM489 965l234 -134l145 256q18 18 31 -4l84 -141l-80 -49l264 2l129 229l-86 -51l-57 94q-16 26 -41 42.5
t-42 20.5l-17 3l-332 2q-39 -4 -68 -21.5t-38 -33.5l-9 -15zM909 356l133 -229v100l111 2q30 1 57 15t38 28l12 13l165 286q16 36 16 70t-8 50l-8 16l-116 198l-232 -131l148 -258q4 -9 -1.5 -15.5t-17.5 -6.5l-166 -2v94zM618 227h232l-2 267h-295q-11 2 -14.5 9.5
t2.5 18.5l82 146l82 -47l-136 227l-262 -2l86 -49l-53 -97q-15 -27 -16.5 -57t4.5 -47l6 -16l166 -287q24 -32 53.5 -48.5t46.5 -16.5z" />
    <glyph glyph-name="uni2713" unicode="&#x2713;" horiz-adv-x="1228" 
d="M676 606l541 848l169 -111l-667 -1060h-57l-314 438l135 153z" />
    <glyph glyph-name="uni2B24" unicode="&#x2b24;" horiz-adv-x="1544" 
d="M1380 723q0 -165 -81.5 -305t-221.5 -221.5t-305 -81.5t-305 81.5t-221.5 221.5t-81.5 305t81.5 305t221.5 221.5t305 81.5t305 -81.5t221.5 -221.5t81.5 -305z" />
    <glyph glyph-name="uniF6DD" unicode="&#xf6dd;" horiz-adv-x="2580" 
d="M1229 944q0 -156 -84 -272.5t-248 -157.5l363 -514h-375l-324 496h-63v-496h-322v1411h576q119 0 213 -40t150 -107t85 -148.5t29 -171.5zM709 1130h-211v-380h202q99 0 152 54.5t53 131.5q0 78 -51.5 136t-144.5 58zM2030 981q90 0 173.5 -35.5t148.5 -99t103.5 -158.5
t38.5 -207t-38.5 -208.5t-103.5 -161t-148.5 -100.5t-173.5 -36q-81 0 -163.5 33t-131.5 96v-575h-303v1425h303v-100q49 62 132.5 94.5t162.5 32.5zM1966 258q90 0 154.5 65.5t64.5 157.5q0 90 -64.5 154.5t-154.5 64.5q-89 0 -155 -64t-66 -155q0 -92 66.5 -157.5
t154.5 -65.5z" />
    <glyph glyph-name="uniF8FF" unicode="&#xf8ff;" horiz-adv-x="2009" 
d="M1845 0h-1681v1434h1681v-1434zM1067 752q25 0 33 14h2l4 -12h16v149h-22v-39q0 -10 2 -18h-2q-10 16 -31 16q-22 0 -33 -14q-10 -17 -10 -41t10 -41q11 -14 31 -14zM1378 889q0 -6 2 -10q2 -2 11 -2q8 0 10 2q2 4 2 10t-2 10q-2 2 -10 2q-9 0 -11 -2q-2 -4 -2 -10z
M391 754h21l41 116h2q0 -8 -2 -20v-96h22v141h-33l-41 -113l-39 113h-32v-141h20v67q0 33 -2 51h2zM780 770q-8 0 -10 4q-4 2 -4 12v58h31v16h-31v25h-14l-9 -23l-16 -8v-10h16v-60q0 -32 31 -32h12q2 1 6 2t5 2v16q-4 -2 -17 -2zM610 807q0 24 -14 41q-11 14 -37 14
q-25 0 -39 -14q-12 -15 -12 -41q0 -17 6 -29q6 -14 18 -20q9 -6 27 -6q26 0 37 14q14 18 14 41zM713 784q0 5 -4 13q-1 2 -9 10q-13 7 -20 8q-5 2 -21 10q-4 4 -4 9q0 10 19 10q10 0 28 -6l9 16q-16 8 -37 8q-20 0 -31 -8q-10 -7 -10 -20t6 -19q5 -7 25 -14l16 -8q6 0 6 -5
q4 -4 4 -8q0 -12 -22 -12q-11 0 -35 8v-18q12 -6 35 -6q21 0 32 8q13 10 13 24zM891 754h14v71q0 21 -10 29q-8 8 -31 8q-12 0 -18 -2q-14 -4 -21 -8l9 -16q6 6 14 6q6 2 16 2q13 0 15 -4q4 -4 4 -17v-4l-19 -2q-26 0 -37 -8q-12 -9 -12 -25t8 -24t25 -8q16 0 20 2
q9 6 17 14zM1008 862h-11q-12 0 -18 -6q-12 -8 -14 -14h-2l-2 18h-19v-106h23v55q0 10 8 22q11 11 22 11q7 0 11 -2zM1206 752h21l16 6v18l-18 -6q-2 0 -8 -1t-9 -1q-15 0 -22 10q-8 5 -8 23h71v12q0 25 -12 37t-35 12q-24 0 -35 -14q-14 -14 -14 -43q0 -25 14 -39t39 -14z
M1350 784q0 9 -2 13q-1 2 -9 10q-13 7 -20 8q-5 2 -21 10q-4 4 -4 9q0 10 19 10q10 0 28 -6l9 16q-16 8 -37 8q-20 0 -31 -8q-10 -7 -10 -20t6 -19q5 -7 25 -14l16 -8q6 0 6 -5q2 -2 2 -8q0 -12 -20 -12q-11 0 -35 8v-18q12 -6 35 -6q21 0 32 8t11 24zM1530 860h-37
q-1 0 -3.5 1t-4.5 1h-10q-21 0 -31 -10q-12 -9 -12 -27q0 -12 6 -18q6 -9 14 -12q-2 -1 -10 -9q-4 -4 -4 -10l2 -8q3 -6 8 -6q-8 -2 -16 -10q-7 -7 -7 -17q0 -14 11 -22q16 -8 34 -8q26 0 43 10q15 9 15 28q0 15 -8 23q-9 6 -29 6h-18q-3 0 -8 1l-5 1q-4 4 -4 6q0 7 8 11h11
q19 0 30 8q13 10 13 26q0 2 -1 6t-1 5q-3 6 -5 8l19 4v12zM1649 754v69q0 39 -39 39q-9 0 -21 -4q-8 -3 -14 -12l-4 14h-19v-106h25v53q0 20 6 29q5 8 21 8q10 0 16 -6q4 -4 4 -19v-65h25zM1403 754v106h-25v-106h25zM1454 825q0 11 6 17q3 6 15 6q11 0 14 -6q6 -6 6 -17
q0 -20 -20 -20q-7 0 -15 4q-6 6 -6 16zM1202 846q9 0 17 -8t8 -21h-49q0 16 8 21q8 8 16 8zM530 807q0 18 9 27q7 10 20 10q27 0 27 -37t-27 -37q-29 0 -29 37zM1073 770q-13 0 -18 8q-6 9 -6 29q0 18 6 27q7 10 18 10q16 0 21 -8q8 -8 8 -29v-4q0 -20 -8 -25q-5 -8 -21 -8z
M856 768q-8 0 -12 4q-4 2 -4 12q0 9 6 15q12 4 24 4l13 2v-10q0 -13 -6 -19q-8 -8 -21 -8zM1446 735q0 11 4 15q8 4 16 4h17q14 0 18 -4q6 -3 6 -11q0 -9 -10 -12q-9 -6 -27 -6q-10 0 -18 4q-6 3 -6 10zM1391 512q20 0 30 16h2l4 -14h17v152h-23v-39q0 -1 1 -8t1 -11
q-12 15 -32 15q-21 0 -33 -15q-10 -17 -10 -41t10 -41q11 -14 33 -14zM379 514v123h43v18h-107v-18h41v-123h23zM883 514v59h53v19h-53v45h57v18h-80v-141h23zM428 623l43 -109l-4 -10q-6 -19 -23 -19h-12v-16q6 -2 14 -2q32 0 43 33l46 123h-25q-6 -20 -11.5 -36.5
t-9.5 -26.5l-4 -11q-2 -4 -2 -12h-2q0 12 -6 24l-22 62h-25zM610 512q17 0 31 14q12 15 12 41q0 29 -12 41q-9 15 -31 15q-21 0 -32 -17l-5 17h-18v-156h23v59q11 -14 32 -14zM731 512q13 0 19 2q10 0 16 6v19q-10 -7 -16 -7q-6 -2 -19 -2t-22 9q-9 13 -9 24h72v12
q0 23 -12 35q-13 13 -33 13q-25 0 -37 -15t-12 -41t12 -41q14 -14 41 -14zM1063 567q0 27 -14 41q-12 15 -37 15t-37 -15q-14 -11 -14 -41q0 -16 6 -28t18 -21q12 -6 27 -6q23 0 37 14t14 41zM1169 514h17v109h-23v-56q0 -19 -6 -28q-9 -9 -20 -9q-10 0 -17 7q-6 6 -6 18v68
h-22v-72q0 -19 10 -29t28 -10q9 0 21 4q11 7 14 12zM1317 514v70q0 39 -37 39q-12 0 -20 -5q-8 -2 -15 -10l-4 15h-18v-109h22v53q0 17 8 29q5 8 21 8q10 0 16 -6q4 -8 4 -18v-66h23zM1546 623h-10q-10 0 -18 -5t-15 -16l-4 21h-18v-109h22v55q0 15 10 25q5 8 21 8h10z
M1554 623l43 -109l-4 -10q-6 -19 -22 -19h-12v-16q6 -2 14 -2q32 0 43 33l45 123h-25q-9 -30 -24 -74q-2 -4 -2 -12h-2q0 12 -6 24l-23 62h-25zM727 606q10 0 16 -6q7 -10 7 -20h-50q3 10 9 20q6 6 18 6zM604 604q14 0 19 -8q6 -9 6 -29q0 -17 -6 -26q-7 -11 -19 -11
q-13 0 -20 11q-6 6 -6 26v4q0 19 6 25q5 8 20 8zM985 567q0 20 6 29q5 8 21 8q26 0 26 -37t-26 -37q-27 0 -27 37zM1397 530q-14 0 -21 11q-6 9 -6 26t6 29q8 8 19 8q14 0 22 -8q6 -9 6 -29v-2q0 -17 -6 -26q-9 -9 -20 -9z" />
    <glyph glyph-name="IJ.alt" horiz-adv-x="1540" 
d="M483 0h-321v1411h321v-1411zM922 -25q-37 0 -101 9.5t-116 27.5l28 287q27 -8 87 -14t102 -6q145 0 145 178v954h322v-954q0 -80 -15.5 -150t-50.5 -132t-88.5 -105.5t-133 -69t-179.5 -25.5z" />
    <glyph glyph-name="J.alt" horiz-adv-x="864" 
d="M246 -25q-107 0 -217 37l28 287q29 -8 88.5 -14t100.5 -6q147 0 147 178v954h322v-954q0 -80 -15.5 -150t-51 -132t-89 -105.5t-133.5 -69t-180 -25.5z" />
    <glyph glyph-name="Jcircumflex.alt" horiz-adv-x="864" 
d="M391 1577h-213l223 350h304l225 -350h-215l-162 182zM248 -25q-107 0 -217 37l28 287q27 -8 87.5 -14t101.5 -6q147 0 147 178v954h322v-954q0 -80 -15.5 -150t-51 -132t-89 -105.5t-133.5 -69t-180 -25.5z" />
    <glyph glyph-name="W.alt" horiz-adv-x="1875" 
d="M1282 618l205 793h364l-415 -1411h-269l-227 827l-229 -827h-269l-417 1411h364l205 -793l211 746h266z" />
    <glyph glyph-name="Wacute.alt" horiz-adv-x="1875" 
d="M1026 1927h293l-279 -350h-206zM1282 618l205 793h364l-415 -1411h-269l-227 827l-229 -827h-269l-417 1411h364l205 -793l211 746h266z" />
    <glyph glyph-name="Wcircumflex.alt" horiz-adv-x="1875" 
d="M1100 1577l-162 182l-162 -182h-213l223 350h301l226 -350h-213zM1282 618l205 793h364l-415 -1411h-269l-227 827l-229 -827h-269l-417 1411h364l205 -793l211 746h266z" />
    <glyph glyph-name="Wdieresis.alt" horiz-adv-x="1875" 
d="M721 1614q-64 0 -109 42t-45 103q0 60 45.5 102t108.5 42t106 -42t43 -102q0 -61 -43 -103t-106 -42zM1161 1614q-65 0 -110 42t-45 103q0 60 45 102t110 42q62 0 105 -42t43 -102q0 -61 -43 -103t-105 -42zM1282 618l205 793h364l-415 -1411h-269l-227 827l-229 -827
h-269l-417 1411h364l205 -793l211 746h266z" />
    <glyph glyph-name="Wgrave.alt" horiz-adv-x="1875" 
d="M860 1927l191 -350h-207l-277 350h293zM1282 618l205 793h364l-415 -1411h-269l-227 827l-229 -827h-269l-417 1411h364l205 -793l211 746h266z" />
    <glyph glyph-name="i.loclTRK" horiz-adv-x="557" 
d="M279 1137q-70 0 -117 44.5t-47 114.5q0 68 47 113t117 45t117.5 -45t47.5 -113q0 -70 -47.5 -114.5t-117.5 -44.5zM430 0h-303v956h303v-956z" />
    <glyph glyph-name="a.alt" horiz-adv-x="1165" 
d="M569 981q99 0 184 -25t152 -73.5t105.5 -128.5t38.5 -183v-571h-320v106q-51 -60 -146 -95.5t-182 -35.5q-144 0 -243 82.5t-99 218.5q0 97 57.5 165.5t143 99t186.5 30.5q162 0 283 -59v43q0 73 -53 121.5t-141 48.5q-71 0 -138 -22.5t-106 -61.5l-164 170
q67 77 185.5 123.5t256.5 46.5zM500 203q59 0 126 27t103 73v25q-84 59 -211 59q-78 0 -114.5 -29t-36.5 -65q0 -40 37 -65t96 -25z" />
    </font>
</defs>
</svg>
