<svg width="55" height="50" viewBox="0 0 55 50" fill="none" xmlns="http://www.w3.org/2000/svg">
<path fill-rule="evenodd" clip-rule="evenodd" d="M0 0H54.7V31.7H35.8365C36.0229 31.9972 36.1488 32.3358 36.1968 32.6986C36.5585 32.4935 36.9751 32.3788 37.4188 32.3788C38.8188 32.3788 39.9475 33.5094 39.9475 34.8964L39.6008 42.2525C39.515 44.057 38.7647 45.7543 37.4877 47.0313C36.1203 48.3987 34.3018 49.1527 32.3677 49.1518H29.4354C27.4985 49.1518 25.6781 48.3978 24.3089 47.0285L15.5201 38.2398C14.7493 37.4689 14.7493 36.2144 15.5201 35.4435C16.5483 34.4154 18.199 34.2989 19.3613 35.1704L23.7161 38.3433L23.7161 31.7H0V0ZM53 30H32.2023C31.7796 29.1983 30.9357 28.6497 29.962 28.6504C29.5276 28.6504 29.1194 28.7604 28.7624 28.9552V25.6519C28.7624 24.2649 27.6336 23.1343 26.2336 23.1343C24.8458 23.1334 23.7161 24.2631 23.7161 25.6519V30H1.7V1.7H53V30ZM32.3677 47.8338H29.4354C27.8509 47.8338 26.3613 47.2167 25.241 46.0964L16.4522 37.3076C16.195 37.0504 16.195 36.6328 16.4522 36.3755C17.0189 35.8088 17.9296 35.7444 18.5783 36.231L23.9873 40.171C24.1877 40.3173 24.4524 40.3378 24.6743 40.226C24.8942 40.1141 25.0341 39.8867 25.034 39.6388L25.034 25.6518C25.034 24.9901 25.5728 24.4513 26.2448 24.4504C26.5757 24.4513 26.8759 24.5855 27.0931 24.8027C27.3102 25.0199 27.4444 25.32 27.4445 25.6519L27.4445 34.9784C27.4445 35.342 27.74 35.6375 28.1035 35.6375C28.2852 35.6365 28.4502 35.5629 28.5695 35.4436C28.6889 35.3243 28.7625 35.1593 28.7625 34.9766V31.1681C28.7625 30.5063 29.3003 29.9685 29.9733 29.9685C30.6332 29.9685 31.1729 30.5081 31.1729 31.1681L31.1729 34.9784C31.1729 35.342 31.4684 35.6375 31.8319 35.6375C32.0136 35.6365 32.1786 35.5629 32.298 35.4436C32.4173 35.3243 32.4909 35.1593 32.4909 34.9766L32.4909 33.0322C32.4909 32.3705 33.0287 31.8326 33.7017 31.8326C34.3616 31.8326 34.9013 32.3723 34.9013 33.0322V34.9859C34.9023 34.9887 34.9013 34.9877 34.9013 34.9877V34.9895L34.9013 34.9914V34.9932L34.9022 34.9941C34.9031 34.995 34.9022 34.996 34.9022 34.996C34.9115 35.352 35.2042 35.6373 35.5612 35.6363C35.9247 35.6363 36.2202 35.3408 36.2202 34.9773L36.2202 34.8972C36.2202 34.5766 36.3451 34.2745 36.5716 34.048C36.7981 33.8215 37.0982 33.6966 37.4301 33.6967C38.0919 33.6985 38.6278 34.2363 38.6306 34.8655L38.2848 42.1909C38.2138 43.6655 37.6005 45.0543 36.5556 46.0992C35.4371 47.2177 33.9504 47.8338 32.3677 47.8338ZM19.5225 12.95H17V11.85H23.4584V12.95H20.9359V18.85H19.5225V12.95ZM29.4989 18.85L27.9441 16.8C27.8789 16.8067 27.781 16.81 27.6506 16.81H25.9327V18.85H24.5192V11.85H27.6506C28.3102 11.85 28.8828 11.95 29.3685 12.15C29.8614 12.35 30.2383 12.6367 30.4992 13.01C30.7602 13.3833 30.8906 13.8267 30.8906 14.34C30.8906 14.8667 30.7493 15.32 30.4666 15.7C30.1912 16.08 29.7925 16.3633 29.2706 16.55L31.0211 18.85H29.4989ZM29.4663 14.34C29.4663 13.8933 29.3068 13.55 28.9879 13.31C28.669 13.07 28.2014 12.95 27.5853 12.95H25.9327V15.74H27.5853C28.2014 15.74 28.669 15.62 28.9879 15.38C29.3068 15.1333 29.4663 14.7867 29.4663 14.34ZM35.6494 18.85V16.38L38.6286 11.85H37.2369L34.9862 15.26L32.7573 11.85H31.246L34.236 16.4V18.85H35.6494Z" fill="#404040"/>
</svg>
